<?xml version="1.0" encoding="utf-8"?>
<!-- Generator: Adobe Illustrator 27.6.1, SVG Export Plug-In . SVG Version: 6.00 Build 0)  -->
<svg version="1.1" id="Camada_1" xmlns="http://www.w3.org/2000/svg" xmlns:xlink="http://www.w3.org/1999/xlink" x="0px" y="0px"
	 viewBox="0 0 720 504" style="enable-background:new 0 0 720 504;" xml:space="preserve">
<style type="text/css">
	.st0{fill:#FFFFFF;}
	.st1{fill-rule:evenodd;clip-rule:evenodd;fill:#00994C;}
	.st2{fill-rule:evenodd;clip-rule:evenodd;fill:#002580;}
	.st3{fill-rule:evenodd;clip-rule:evenodd;fill:#F3E718;}
	.st4{fill-rule:evenodd;clip-rule:evenodd;}
	.st5{fill-rule:evenodd;clip-rule:evenodd;fill:#FFFFFF;stroke:#000000;stroke-width:7.1362;}
	.st6{fill-rule:evenodd;clip-rule:evenodd;fill:#038301;stroke:#000000;stroke-width:7.1362;}
</style>
<path class="st0" d="M0-1h722.7V505H0V-1z"/>
<path class="st1" d="M0-1l191,180.7h573v144.5H191L0,505V-1z"/>
<path class="st2" d="M764,143.6H204.5L51.1-1H764V143.6z"/>
<path class="st3" d="M51.1,505l153.4-144.5H764V505H51.1z"/>
<path class="st4" d="M0-1l191,180.7h573v-12.3H196.4L18.4-1H0z M0,505l191-180.7h573v12.3H196.4L18.4,505H0z"/>
<path class="st4" d="M33.7-1L200,155.9H764v-12.3H205.3L52.2-1H33.7z M33.7,505L200,348.1H764v12.3H205.3L52.2,505H33.7z"/>
<g>
	<path class="st5" d="M109.8,286.7l-4.4,8.7l13,17.4l13-17.4l-4.4-8.7l26-26l8.7,4.4l17.4-13l-17.4-13l-8.7,4.4l-26-26l4.4-8.7
		l-13-17.4l-13,17.4l4.4,8.7l-26.1,26l-8.7-4.4l-17.4,13l17.4,13l9.1-4.4L109.8,286.7z"/>
	<path class="st6" d="M118.5,278l26-26l-26-26l-26,26L118.5,278z"/>
	<path class="st4" d="M83.8,252l-8.7-4.4l-5.8,4.4l5.8,4.4L83.8,252z M153.2,252l8.7-4.4l5.8,4.4l-5.8,4.4L153.2,252z M118.5,217.3
		l4.4-8.7l-4.4-5.8l-4.4,5.8L118.5,217.3z M118.5,286.7l4.4,8.7l-4.4,5.8l-4.4-5.8L118.5,286.7z"/>
</g>
</svg>
