<?xml version="1.0" encoding="utf-8"?>
<!-- Generator: Adobe Illustrator 27.6.1, SVG Export Plug-In . SVG Version: 6.00 Build 0)  -->
<svg version="1.1" id="Camada_1" xmlns="http://www.w3.org/2000/svg" xmlns:xlink="http://www.w3.org/1999/xlink" x="0px" y="0px"
	 viewBox="0 0 720 504" style="enable-background:new 0 0 720 504;" xml:space="preserve">
<style type="text/css">
	.st0{fill:#FFFFFF;}
	.st1{fill:#00923F;}
	.st2{fill:#F8C300;}
</style>
<rect y="2.7" class="st0" width="720" height="504"/>
<rect x="235.2" y="129.9" class="st1" width="249.6" height="249.6"/>
<path class="st2" d="M342.2,236.9v-50.4l12.5-12.5v-23h-12.5l17.8-17.8l17.8,17.8h-12.5v23l12.5,12.5v50.4h50.4l12.5,12.5h23v-12.5
	l17.8,17.8l-17.8,17.8V260h-23l-12.5,12.5h-50.4v50.4l-12.5,12.5v23h12.5L360,376.1l-17.8-17.8h12.5v-23l-12.5-12.5v-50.4h-50.4
	L279.4,260h-23v12.5l-17.8-17.8l17.8-17.8v12.5h23l12.5-12.5H342.2z"/>
<path class="st1" d="M324.5,254.7l35.5-35.5l35.5,35.5L360,290.2L324.5,254.7z"/>
</svg>
