<?xml version="1.0" encoding="utf-8"?>
<!-- Generator: Adobe Illustrator 27.6.1, SVG Export Plug-In . SVG Version: 6.00 Build 0)  -->
<svg version="1.1" id="Camada_1" xmlns="http://www.w3.org/2000/svg" xmlns:xlink="http://www.w3.org/1999/xlink" x="0px" y="0px"
	 viewBox="0 0 720 504" style="enable-background:new 0 0 720 504;" xml:space="preserve">
<style type="text/css">
	.st0{fill:#FFFFFF;}
	.st1{fill:#0096E1;}
	.st2{fill:#F09BBE;}
</style>
<path class="st0" d="M-1,161.6h723v180.7H-1V161.6z"/>
<path class="st1" d="M-1-1.1h723v162.7H-1V-1.1z"/>
<path class="st2" d="M-1,342.3h723V505H-1V342.3z"/>
<path class="st1" d="M179.3,288.1l-8.9-20.3l-6.9,3.4l-1.8-4.2l18.5-9l1.8,4.1l-6.9,3.4l8.9,20.3L179.3,288.1 M194,281.1l-9.6-25
	l10.1-4.3c2.5-1.1,4.5-1.6,5.8-1.7c1.3-0.1,2.6,0.4,3.7,1.2c1.1,0.9,2,2,2.5,3.5c0.7,1.9,0.8,3.7,0.2,5.3c-0.6,1.6-1.8,3.1-3.8,4.3
	c1.3,0.2,2.4,0.5,3.3,1c1,0.5,2.4,1.4,4.3,2.9l4.8,3.6l-5.8,2.4l-5.6-3.9c-2-1.4-3.3-2.3-4-2.6c-0.7-0.3-1.3-0.5-1.8-0.4
	c-0.6,0-1.4,0.2-2.5,0.7l-1,0.4l4,10.4L194,281.1 M193.2,264.6l3.5-1.5c2.3-1,3.7-1.7,4.2-2.1c0.5-0.5,0.8-1,0.9-1.7
	c0.2-0.6,0.1-1.3-0.2-2.1c-0.3-0.8-0.8-1.4-1.4-1.8c-0.6-0.3-1.3-0.4-2.2-0.2c-0.4,0.1-1.6,0.6-3.6,1.4l-3.7,1.6L193.2,264.6
	 M239.9,263.1l-5.4,1.9l-4-5l-9.7,3.5l-0.1,6.5l-5.2,1.9l1.2-28.9l5.2-1.8L239.9,263.1 M227.6,256.3l-6.4-8.3l-0.2,10.6L227.6,256.3
	 M235.8,236.4l9.9-2.9c2-0.6,3.5-0.9,4.5-1c1-0.1,2,0,2.8,0.3c0.9,0.3,1.7,0.8,2.5,1.6c0.7,0.7,1.3,1.7,1.6,2.8
	c0.3,1.2,0.3,2.4-0.1,3.6c-0.4,1.2-1,2.2-1.9,3c1.6,0,3,0.5,4.1,1.3c1.1,0.9,1.8,2.1,2.2,3.6c0.3,1.2,0.4,2.4,0.1,3.7
	c-0.2,1.2-0.7,2.4-1.4,3.3c-0.7,0.9-1.7,1.7-3,2.2c-0.8,0.3-2.8,1-6,1.9l-8.4,2.5L235.8,236.4 M241.9,239.2l1.6,6l3.2-1
	c1.9-0.6,3.2-1,3.6-1.2c0.8-0.3,1.4-0.9,1.8-1.5c0.3-0.7,0.4-1.4,0.2-2.3c-0.2-0.8-0.6-1.4-1.2-1.8c-0.6-0.4-1.3-0.5-2.1-0.4
	c-0.5,0.1-1.9,0.5-4.3,1.2L241.9,239.2 M244.6,249.5l1.9,6.9l4.6-1.4c1.8-0.5,2.9-0.9,3.4-1.2c0.7-0.4,1.2-0.9,1.5-1.6
	c0.4-0.7,0.4-1.5,0.1-2.4c-0.2-0.7-0.6-1.4-1.1-1.8c-0.5-0.4-1.1-0.6-1.9-0.7c-0.8,0-2.3,0.3-4.5,0.9L244.6,249.5 M290.2,249.9
	l-5.5,1.3l-3.5-5.5l-10,2.3l-0.9,6.4l-5.4,1.2l4.3-28.5l5.4-1.2L290.2,249.9 M278.7,241.7l-5.5-9l-1.4,10.5L278.7,241.7
	 M293.2,249.5l-4-26.4l5.1-0.8l3.4,21.9l12.7-2.1l0.7,4.5L293.2,249.5 M314.7,245.9l-2.6-26.8l5.2-0.6l1,10.6l10.1-1.1l-1-10.5
	l5.2-0.6l2.6,26.8l-5.2,0.6l-1.1-11.7l-10.1,1.1l1.1,11.7L314.7,245.9 M363.6,242.3l-5.6,0.2l-2.5-6l-10.2,0.4l-1.9,6.2l-5.5,0.2
	l8.9-27.3l5.5-0.2L363.6,242.3 M353.6,232.1l-3.9-9.8l-3.1,10.1L353.6,232.1 M386.3,242.7l1.7-26.8l19,1.3l-0.3,4.5l-13.8-1l-0.4,6
	l12.9,0.9l-0.3,4.5l-12.9-0.9l-0.5,7.3l14.3,1l-0.3,4.6L386.3,242.7 M447.7,240.2l4.7,2.5c-1.2,2.8-2.9,4.7-4.9,5.8
	c-2,1.1-4.3,1.4-7,0.9c-3.4-0.6-5.9-2.3-7.7-5.1c-1.8-2.8-2.3-6.3-1.6-10.5c0.7-4.4,2.4-7.6,5-9.7c2.5-2.1,5.6-2.8,9.2-2.1
	c3.1,0.6,5.4,2,7,4.3c1,1.3,1.6,3.1,1.8,5.3l-5.2,0.3c-0.1-1.4-0.5-2.6-1.4-3.6c-0.8-1-1.9-1.6-3.2-1.9c-1.9-0.3-3.5,0.1-4.9,1.3
	c-1.4,1.2-2.4,3.4-2.9,6.5c-0.5,3.4-0.4,5.9,0.5,7.5c0.9,1.6,2.3,2.6,4.1,2.9c1.3,0.3,2.6,0,3.7-0.7
	C446,243.4,447,242.1,447.7,240.2 M457.3,238.6c0.6-2.7,1.5-4.8,2.7-6.5c0.8-1.2,1.9-2.2,3.1-3c1.2-0.8,2.5-1.3,3.8-1.6
	c1.7-0.3,3.6-0.2,5.6,0.3c3.7,0.9,6.3,2.8,8,5.8c1.6,2.9,2,6.6,1,10.8c-0.9,4.2-2.8,7.3-5.6,9.1c-2.7,1.9-5.9,2.3-9.6,1.4
	c-3.7-0.9-6.4-2.8-8.1-5.8C456.7,246.4,456.4,242.8,457.3,238.6 M462.5,239.7c-0.7,3-0.5,5.4,0.5,7.3c0.9,1.8,2.4,3,4.5,3.5
	c2,0.5,3.8,0.2,5.4-1c1.6-1.2,2.8-3.3,3.5-6.4c0.7-3,0.5-5.4-0.4-7.2c-0.9-1.8-2.4-2.9-4.5-3.4s-3.9-0.2-5.5,1
	C464.4,234.6,463.2,236.7,462.5,239.7 M482.5,258.8l7.4-25.8l4.9,1.5l5.1,20.3l4.8-17.2l4.9,1.5l-7.6,25.8l-5-1.6l-5.1-19.9
	l-4.8,16.8L482.5,258.8 M507.3,266.7l8.8-25.3l16.3,6.2l-1.2,4.3l-11.8-4.4l-2,6l10.2,3.8l-1.6,4.3l-10.2-3.8l-3.6,10.7L507.3,266.7
	 M527.7,274.6l9.6-25l4.5,2l-9.2,25L527.7,274.6 M558.3,288.1l-5.3-2.4l0.4-6.5l-9.4-4.3l-4,4.7l-5.3-2.3l19.4-20.5l5.3,2.3
	L558.3,288.1 M553.7,274.3l0.3-10.6l-6.9,7.7L553.7,274.3"/>
</svg>
