<svg xmlns="http://www.w3.org/2000/svg" height="1050" width="1500" version="1.0">
  <path style="fill:#f3e718;fill-opacity:1;stroke:none" d="M0 875h1435.0348v125H0z" transform="matrix(1.04547 0 0 1.04998 0 .01657823)"/>
  <path style="fill:#00994c;fill-opacity:1;stroke:none" d="M0 750h1434.7997v125H0z" transform="matrix(1.04547 0 0 1.04998 0 .01657823)"/>
  <path style="fill:#f3e718;fill-opacity:1;stroke:none" d="M0 125h1434.6235v125H0zM0 375h1434.8726v125H0zM0 625h1434.8726v125H0z" transform="matrix(1.04547 0 0 1.04998 0 .01657823)"/>
  <path style="fill:#00994c;fill-opacity:1;stroke:none" d="M0 0h1434.8726v125H0zM0 250h1434.8727v125H0zM0 500h1434.8726v125H0z" transform="matrix(1.04547 0 0 1.04998 0 .01657823)"/>
  <path style="fill:#002580;fill-opacity:1;stroke:none" d="M0 0h500v375H0z" transform="matrix(1.04547 0 0 1.04998 0 .01657823)"/>
  <path style="fill:#fff;fill-opacity:1;stroke:none" d="M447.02282 339.72136 400 305.55728l-47.02282 34.16408 17.96112-55.27864-47.02282-34.16408h58.1234L400 195l17.96112 55.27864h58.1234l-47.02282 34.16408 17.96112 55.27864zM447.02282 164.72136 400 130.55728l-47.02282 34.16408 17.96112-55.27864-47.02282-34.16408h58.1234L400 20l17.96112 55.27864h58.1234l-47.02282 34.16408 17.96112 55.27864zM147.02282 164.72136 100 130.55728l-47.02282 34.16408 17.961118-55.27864-47.022819-34.16408h58.123402L100 20l17.96112 55.27864h58.1234l-47.02282 34.16408 17.96112 55.27864zM147.02282 339.72136 100 305.55728l-47.02282 34.16408 17.961118-55.27864-47.022819-34.16408h58.123402L100 195l17.96112 55.27864h58.1234l-47.02282 34.16408 17.96112 55.27864zM285.26712 236.04102 250 210.41796l-35.26712 25.62306 13.47084-41.45898-35.26711-25.62306h43.59255L250 127.5l13.47084 41.45898h43.59255l-35.26711 25.62306 13.47084 41.45898z" transform="matrix(1.04547 0 0 1.04998 0 .01657823)"/>
</svg>
