<?xml version="1.0" encoding="utf-8"?>
<!-- Generator: Adobe Illustrator 27.6.1, SVG Export Plug-In . SVG Version: 6.00 Build 0)  -->
<svg version="1.1" id="Camada_1" xmlns="http://www.w3.org/2000/svg" xmlns:xlink="http://www.w3.org/1999/xlink" x="0px" y="0px"
	 viewBox="0 0 720 504" style="enable-background:new 0 0 720 504;" xml:space="preserve">
<style type="text/css">
	.st0{fill:#F3E718;}
	.st1{fill:#00994C;}
	.st2{fill:#002580;}
	.st3{fill:#FFFFFF;}
</style>
<path class="st0" d="M1.4,441h720.2v63H1.4V441z"/>
<path class="st1" d="M1.4,378h720v63H1.4V378z"/>
<path class="st0" d="M1.4,63h719.9v63H1.4V63z M1.4,189h720.1v63H1.4V189z M1.4,315h720.1v63H1.4V315z"/>
<path class="st1" d="M1.4,0h720.1v63H1.4V0z M1.4,126h720.1v63H1.4V126z M1.4,252h720.1v63H1.4V252z"/>
<path class="st2" d="M1.4,0h250.9v189H1.4V0z"/>
<path class="st3" d="M225.7,171.2L202.1,154l-23.6,17.2l9-27.9L164,126.1h29.2l9-27.9l9,27.9h29.2l-23.6,17.2L225.7,171.2z
	 M225.7,83l-23.6-17.2L178.5,83l9-27.9L164,37.9h29.2l9-27.9l9,27.9h29.2l-23.6,17.2L225.7,83z M75.2,83L51.6,65.8L28,83l9-27.9
	L13.4,37.9h29.2l9-27.9l9,27.9h29.2L66.2,55.2L75.2,83z M75.2,171.2L51.6,154L28,171.2l9-27.9l-23.6-17.2h29.2l9-27.9l9,27.9h29.2
	l-23.6,17.2L75.2,171.2z M144.6,119l-17.7-12.9L109.2,119l6.8-20.9L98.2,85.2h21.9l6.8-20.9l6.8,20.9h21.9l-17.7,12.9L144.6,119
	L144.6,119z"/>
</svg>
