<?xml version="1.0" encoding="utf-8"?>
<!-- Generator: Adobe Illustrator 27.6.1, SVG Export Plug-In . SVG Version: 6.00 Build 0)  -->
<svg version="1.1" id="Camada_1" xmlns="http://www.w3.org/2000/svg" xmlns:xlink="http://www.w3.org/1999/xlink" x="0px" y="0px"
	 viewBox="0 0 720 504" style="enable-background:new 0 0 720 504;" xml:space="preserve">
<style type="text/css">
	.st0{fill:#FFFFFF;}
	.st1{fill:#C53425;}
	.st2{fill:#25247B;}
</style>
<rect class="st0" width="756" height="504"/>
<rect class="st1" width="756" height="56"/>
<rect y="224" class="st1" width="756" height="56"/>
<rect y="448" class="st1" width="756" height="56"/>
<rect y="112" width="756" height="56"/>
<rect y="336" width="756" height="56"/>
<rect class="st2" width="252" height="252"/>
<g>
	<g id="star" transform="scale(168.75)">
		<g id="cone">
			<polygon id="triangle" class="st0" points="0.7,0.2 0.6,0.7 0.8,0.8 			"/>
			<g transform="scale(-1,1)">
				<polygon id="triangle_00000041976960924208323190000012675374437977507730_" class="st0" points="0.7,0.2 0.9,0.7 0.7,0.8 				
					"/>
			</g>
		</g>
		<g transform="rotate(72)">
			<g id="cone_00000080898467467117887160000009411974634701594801_">
				<polygon id="triangle_00000008141991553331930100000002600182231430676360_" class="st0" points="1.3,0.6 0.7,0.6 0.7,0.9 				
					"/>
				<g transform="scale(-1,1)">
					<polygon id="triangle_00000176025339072063313610000014272879180468510899_" class="st0" points="1.3,0.6 0.8,0.9 0.7,0.7 
											"/>
				</g>
			</g>
		</g>
		<g transform="rotate(-72)">
			<g id="cone_00000079455113875301541720000016924647194595912350_">
				<polygon id="triangle_00000023981015687983992390000008155499430595055012_" class="st0" points="0.2,0.6 0.7,0.9 0.8,0.7 				
					"/>
				<g transform="scale(-1,1)">
					<polygon id="triangle_00000133502360114703374130000006836138525286992037_" class="st0" points="0.2,0.6 0.8,0.6 0.8,0.9 
											"/>
				</g>
			</g>
		</g>
		<g transform="rotate(144)">
			<g id="cone_00000115475134926798091070000014020811897713244072_">
				<polygon id="triangle_00000165200458800179120320000006213886291829673372_" class="st0" points="1.1,1.2 0.9,0.7 0.6,0.8 				
					"/>
				<g transform="scale(-1,1)">
					<polygon id="triangle_00000136378600211715197910000009732867632193266568_" class="st0" points="1.1,1.2 0.6,0.9 0.8,0.6 
											"/>
				</g>
			</g>
		</g>
		<g transform="rotate(-144)">
			<g id="cone_00000078021669002340833060000007278956653455857567_">
				<polygon id="triangle_00000091720151181341858590000012575730620077262241_" class="st0" points="0.4,1.2 0.9,0.9 0.7,0.6 				
					"/>
				<g transform="scale(-1,1)">
					<polygon id="triangle_00000119089880894628799660000008079795667867820181_" class="st0" points="0.4,1.2 0.6,0.7 0.9,0.8 
											"/>
				</g>
			</g>
		</g>
	</g>
</g>
</svg>
