<?xml version="1.0" encoding="utf-8"?>
<!-- Generator: Adobe Illustrator 27.6.1, SVG Export Plug-In . SVG Version: 6.00 Build 0)  -->
<svg version="1.1" id="Camada_1" xmlns="http://www.w3.org/2000/svg" xmlns:xlink="http://www.w3.org/1999/xlink" x="0px" y="0px"
	 viewBox="0 0 720 504" style="enable-background:new 0 0 720 504;" xml:space="preserve">
<style type="text/css">
	.st0{fill-rule:evenodd;clip-rule:evenodd;fill:#FFFFFF;}
	.st1{fill-rule:evenodd;clip-rule:evenodd;fill:#ED1C24;}
	.st2{fill-rule:evenodd;clip-rule:evenodd;}
</style>
<g id="Camada_x0020_1">
	<g id="_3115381174528">
		<path class="st0" d="M2.5,2h717.1v502H2.5L2.5,2L2.5,2z M361.1,118l71.7,124.2l71.7,124.2H217.6l71.7-124.2L361.1,118L361.1,118z
			 M407.9,381.3h-16.7v7.3h11.7v2.9h-11.7v8h16.7v2.9h-19.6v-23.9h19.6L407.9,381.3L407.9,381.3z M285.8,402.3v-21H276v-2.9h22.3
			v2.9h-9.7v21H285.8L285.8,402.3z M318.3,381.9l-5,11.1h10L318.3,381.9z M316.7,378.4h3.1l10.8,23.9h-3.1l-2.9-6.4H312l-2.9,6.4
			h-3.1L316.7,378.4z M342.9,402.3v-23.9h2l13.9,12.3l13.9-12.3h2v23.9h-2.9V383l-13,11.5l-1-0.9l0,0l-11.5-10.1l-0.6-0.5v19.3
			L342.9,402.3L342.9,402.3z M421,402.3v-23.9h2l20.2,19.2v-19.2h2.9v23.9H444l-20.1-19.1v19.1H421z M406.8,162.3
			c-1.4,0.8-2.8,0.9-4.1,0.5c-0.7-0.2-1.3-0.5-1.9-0.9l-0.1,0.5l-2.8-0.5l0.5-2.9l-2.7-4.7c-0.5-0.9-1-2.6-0.6-4.3
			c0.3-1.2,1-2.4,2.4-3.3l12.2-7c1.1-0.6,2.3-0.8,3.5-0.4c1.1,0.3,2.1,1,2.7,2.2l4.4,7.6l0.4,0.6l0,0c0.4,0.9,0.5,1.9,0.3,2.8
			c-0.2,1.1-0.9,2.1-2,2.7L406.8,162.3z M402.6,152.5l-1.1,5.9l0.2,0.3c0.3,0.4,0.9,1.1,1.8,1.3c0.5,0.2,1.2,0.1,1.8-0.2l12.2-7.1
			c0.4-0.2,0.6-0.5,0.6-0.8c0.1-0.4,0-0.9-0.3-1.4l0,0l-4.4-7.6c-0.3-0.5-0.6-0.8-1.1-0.9c-0.4-0.1-0.9,0-1.3,0.2l-12.2,7
			c-0.6,0.4-0.9,0.9-1.1,1.4c-0.2,0.9,0.1,1.8,0.3,2.2l1,1.7l0.5-2.6C399.8,152,402.6,152.5,402.6,152.5z M484,265l-6.9-11.9
			l-6.3,3.6l4.8,8.3l-2.5,1.4l-4.8-8.3l-7,4l6.9,11.9l-2.5,1.4l-8.3-14.4l20.7-12l8.3,14.4L484,265L484,265z M495.1,284.1l-5.3-9.1
			l-6.3,3.6l5.3,9.1c0.2,0.4,0.6,0.6,1.1,0.8c0.5,0.1,0.9,0.1,1.2-0.1l3.3-1.9c0.4-0.2,0.7-0.6,0.8-1
			C495.4,285.1,495.3,284.6,495.1,284.1L495.1,284.1l2.5-1.4L495.1,284.1L495.1,284.1z M497.5,282.7L497.5,282.7
			c0.7,1.2,0.8,2.5,0.4,3.7c-0.3,1.1-1.1,2.1-2.1,2.7h0l-3.3,1.9c-1,0.6-2.3,0.7-3.5,0.3c-1.1-0.3-2.2-1-2.8-2.1l-0.4-0.7l-6.7,10.2
			l-1.6-2.8l6.7-10.2l-3.3-5.7l-9.4,5.4l-1.4-2.5l20.7-12L497.5,282.7L497.5,282.7z M505.1,303.3l-11.6,1.6l4.4,7.7L505.1,303.3z
			 M482,303.6l1.5,2.7l6.9-0.9l5.6,9.7l-4.2,5.5l1.5,2.7l15.8-20.4l-0.8-1.3l-0.8-1.3L482,303.6L482,303.6z M459.4,242.6l-3.9-6.7
			c-0.6-1-0.7-2.3-0.5-3.4c0.3-1.2,0.9-2.2,1.9-2.8l3.6-2.1c1.1-0.6,2.3-0.8,3.5-0.4c1.1,0.3,2.1,1,2.7,2.2l4.4,7.6l0.4,0.6l0,0
			c0.3,0.9,0.5,1.9,0.3,2.8c-0.2,1.1-0.9,2.1-2,2.7l-0.3,0.2l-1.4-2.5l0.3-0.2c0.4-0.2,0.6-0.5,0.6-0.8c0.1-0.4,0-0.9-0.3-1.4l0,0
			l-4.4-7.6c-0.3-0.5-0.7-0.8-1.1-0.9c-0.4-0.1-0.9-0.1-1.3,0.2l-3.6,2.1c-0.3,0.2-0.5,0.5-0.6,0.9c-0.1,0.5,0,1,0.2,1.4l3.9,6.7
			l0,0.1l0,0c0.5,0.9,0.9,2.3,0.7,3.6c-0.2,1.4-0.8,2.8-2.3,3.7l-0.1,0.1l0,0l-2.7,1.5c-1.4,0.8-2.8,0.9-4.1,0.5
			c-1.7-0.5-3-1.8-3.5-2.7l-3.4-5.9c-0.5-0.9-1-2.6-0.6-4.3c0.3-1.2,1-2.4,2.4-3.3l0.4-0.3l1.4,2.5l-0.4,0.3
			c-0.6,0.4-0.9,0.9-1.1,1.4c-0.2,0.9,0.1,1.8,0.3,2.2l3.4,5.9c0.3,0.4,0.9,1.1,1.8,1.4c0.5,0.2,1.2,0.1,1.8-0.2l2.7-1.5l0.1,0
			c0.6-0.4,0.9-1,1-1.6C459.9,243.8,459.7,243.2,459.4,242.6L459.4,242.6l1.2-0.7L459.4,242.6L459.4,242.6z M439.9,190.4l-11.6,1.6
			l4.4,7.7L439.9,190.4z M416.8,190.7l1.5,2.7l6.9-0.9l5.6,9.7l-4.3,5.5l1.5,2.7l6.5,11.3l2.5-1.4l-7.1-12.3l5.3-6.9l4.4,7.5
			l2.5-1.4l-4.9-8.6l4.8-6.2l6.6,11.5l2.5-1.4l-7.2-12.5l-0.8-1.3l-0.8-1.3L416.8,190.7L416.8,190.7z M419.4,184.2
			c-1.4,0.8-2.8,0.9-4.1,0.5c-1.7-0.5-3-1.8-3.5-2.7l-3.4-5.9c-0.5-0.9-1-2.6-0.6-4.3c0.3-1.2,1-2.4,2.4-3.2l16.1-9.3l1.4,2.5
			l-16.1,9.3c-0.6,0.4-0.9,0.9-1.1,1.4c-0.2,0.9,0.1,1.8,0.3,2.2l3.4,5.9c0.3,0.4,0.9,1.1,1.8,1.3c0.5,0.2,1.2,0.1,1.8-0.2l15.9-9.2
			l1.4,2.5L419.4,184.2z M255.4,235.1l-6.9,11.9l6.3,3.6l4.8-8.3l2.5,1.4l-4.8,8.3l7,4l6.9-11.9l2.5,1.4l-8.3,14.4l-20.7-12
			l8.3-14.4L255.4,235.1L255.4,235.1z M267.6,213.9l-5.3,9.1l6.3,3.6l5.3-9.2c0.2-0.4,0.2-0.8,0.1-1.3c-0.1-0.5-0.4-0.9-0.7-1.1
			l-3.3-1.9c-0.4-0.2-0.9-0.3-1.3-0.2C268.3,213.1,267.9,213.4,267.6,213.9L267.6,213.9l-2.5-1.4c0.7-1.2,1.8-1.9,2.9-2.2
			c1.1-0.3,2.4-0.1,3.4,0.5v0v0l3.3,1.9c1,0.6,1.7,1.6,2,2.8c0.3,1.1,0.2,2.4-0.4,3.4l-0.4,0.7l12.2,0.7l-1.6,2.8l-12.2-0.7
			l-3.3,5.7l9.5,5.4l-1.4,2.5l-20.7-12l6.7-11.6L267.6,213.9L267.6,213.9z M238.7,264l-4.8,8.3l6.3,3.6l4.8-8.3
			c0.2-0.4,0.2-0.8,0.1-1.3c-0.1-0.5-0.4-0.9-0.7-1.1l-3.1-1.8c-0.4-0.3-1-0.3-1.5-0.2C239.4,263.3,239,263.6,238.7,264z
			 M247.5,269.1l-4.8,8.3l7,4l4.8-8.3c0.4-0.7,0.6-1.5,0.5-2.2c-0.1-0.5-0.5-1-1.2-1.5l-2.6-1.5c-0.7-0.4-1.4-0.6-2-0.4
			c-0.5,0.1-1,0.5-1.5,1.4L247.5,269.1z M256.9,274.5l-6.2,10.8l-20.7-12l6.2-10.8c0.7-1.2,1.7-1.9,2.8-2.1c1.2-0.3,2.6-0.1,3.6,0.5
			l3.1,1.8c0.8,0.5,1.5,1.3,1.9,2.2c0.3-0.1,0.5-0.2,0.8-0.3c1.3-0.3,2.6,0,3.9,0.7l0.3,0.2l2.4,1.4c1.5,0.9,2.3,2.1,2.6,3.3
			C258,271.8,257.6,273.3,256.9,274.5L256.9,274.5z M224,283.7l20.7,12l-1.4,2.5l-20.7-12L224,283.7z M210.4,307.3l18.2,10.5
			l7.2-12.5l2.5,1.4l-8.6,15l-20.7-12L210.4,307.3L210.4,307.3z M296.5,206l-18.2-10.5l-3.7,6.4l-2.5-1.4l4.4-7.7l0.7-1.2l3.7-6.4
			l2.5,1.4l-3.7,6.4l18.2,10.5L296.5,206L296.5,206z M292.4,172.9l7.2,9.3l4.4-7.7L292.4,172.9z M304.2,192.7l1.5-2.7l-4.3-5.5
			l5.6-9.7l6.9,0.9l1.5-2.7l-25.6-3.5l-0.8,1.3l-0.8,1.3L304.2,192.7L304.2,192.7z M316.1,150.3l-3.9,6.7c-0.6,1-1.6,1.8-2.7,2.1
			c-1.1,0.4-2.4,0.3-3.4-0.3l-3.6-2.1c-1.1-0.6-1.8-1.6-2.1-2.8c-0.3-1.1-0.1-2.3,0.5-3.5l4.4-7.6l0.4-0.6l0,0
			c0.6-0.8,1.4-1.3,2.3-1.6c1.1-0.3,2.2-0.3,3.4,0.4l0.3,0.2l-1.4,2.5l-0.3-0.2c-0.4-0.2-0.7-0.2-1-0.1c-0.4,0.1-0.8,0.5-1.1,0.9
			l0,0l-4.4,7.6c-0.3,0.5-0.3,0.9-0.2,1.4c0.1,0.4,0.4,0.8,0.8,1l3.6,2.1c0.3,0.2,0.7,0.2,1.1,0c0.4-0.1,0.8-0.4,1.1-0.8l3.9-6.7
			l0-0.1l0,0c0.5-0.9,1.6-1.9,2.8-2.4c1.3-0.6,2.8-0.7,4.4,0.1l0.1,0.1h0l2.7,1.5c1.4,0.8,2.2,2,2.5,3.3c0.4,1.7,0,3.5-0.5,4.4
			l-3.4,5.9c-0.5,0.9-1.8,2.2-3.4,2.7c-1.2,0.4-2.6,0.4-4-0.5l-0.4-0.2l1.4-2.5l0.4,0.2c0.6,0.4,1.2,0.4,1.7,0.2
			c0.9-0.3,1.5-1,1.8-1.4l3.4-5.9c0.3-0.4,0.5-1.4,0.3-2.2c-0.1-0.5-0.5-1.1-1.1-1.5l-2.7-1.5l-0.1,0c-0.6-0.3-1.3-0.3-1.9,0
			C316.9,149.3,316.4,149.7,316.1,150.3L316.1,150.3L316.1,150.3l-1.2-0.7L316.1,150.3L316.1,150.3z"/>
		<path class="st1" d="M361.1,118l71.7,124.2l71.7,124.2H217.6l71.7-124.2L361.1,118z"/>
		<path class="st2" d="M406.8,162.3c-1.4,0.8-2.8,0.9-4.1,0.5c-0.7-0.2-1.3-0.5-1.9-0.9l-0.1,0.5l-2.8-0.5l0.5-2.9l-2.7-4.7
			c-0.5-0.9-1-2.6-0.6-4.3c0.3-1.2,1-2.4,2.4-3.3l12.2-7c1.1-0.6,2.3-0.8,3.5-0.4c1.1,0.3,2.1,1,2.7,2.2l4.4,7.6l0.4,0.6l0,0
			c0.4,0.9,0.5,1.9,0.3,2.8c-0.2,1.1-0.9,2.1-2,2.7L406.8,162.3z M402.6,152.5l-1.1,5.9l0.2,0.3c0.3,0.4,0.9,1.1,1.8,1.3
			c0.5,0.2,1.2,0.1,1.8-0.2l12.2-7.1c0.4-0.2,0.6-0.5,0.6-0.8c0.1-0.4,0-0.9-0.3-1.4l0,0l-4.4-7.6c-0.3-0.5-0.6-0.8-1.1-0.9
			c-0.4-0.1-0.9,0-1.3,0.2l-12.2,7c-0.6,0.4-0.9,0.9-1.1,1.4c-0.2,0.9,0.1,1.8,0.3,2.2l1,1.7l0.5-2.6
			C399.8,152,402.6,152.5,402.6,152.5z M484,265l-6.9-11.9l-6.3,3.6l4.8,8.3l-2.5,1.4l-4.8-8.3l-7,4l6.9,11.9l-2.5,1.4l-8.3-14.4
			l20.7-12l8.3,14.4L484,265z M495.1,284.1l-5.3-9.1l-6.3,3.6l5.3,9.1c0.2,0.4,0.6,0.6,1.1,0.8c0.5,0.1,0.9,0.1,1.2-0.1l3.3-1.9
			c0.4-0.2,0.7-0.6,0.8-1C495.4,285.1,495.3,284.6,495.1,284.1L495.1,284.1l2.5-1.4L495.1,284.1L495.1,284.1z M497.5,282.7
			L497.5,282.7c0.7,1.2,0.8,2.5,0.4,3.7c-0.3,1.1-1.1,2.1-2.1,2.7h0l-3.3,1.9c-1,0.6-2.3,0.7-3.5,0.3c-1.1-0.3-2.2-1-2.8-2.1
			l-0.4-0.7l-6.7,10.2l-1.6-2.8l6.7-10.2l-3.3-5.7l-9.4,5.4l-1.4-2.5l20.7-12L497.5,282.7L497.5,282.7z M505.1,303.3l-11.6,1.6
			l4.4,7.7L505.1,303.3L505.1,303.3z M482,303.6l1.5,2.7l6.9-0.9l5.6,9.7l-4.2,5.5l1.5,2.7l15.8-20.4l-0.8-1.3l-0.8-1.3L482,303.6
			L482,303.6z M459.4,242.6l-3.9-6.7c-0.6-1-0.7-2.3-0.5-3.4c0.3-1.2,0.9-2.2,1.9-2.8l3.6-2.1c1.1-0.6,2.3-0.8,3.5-0.4
			c1.1,0.3,2.1,1,2.7,2.2l4.4,7.6l0.4,0.6l0,0c0.3,0.9,0.5,1.9,0.3,2.8c-0.2,1.1-0.9,2.1-2,2.7l-0.3,0.2l-1.4-2.5l0.3-0.2
			c0.4-0.2,0.6-0.5,0.6-0.8c0.1-0.4,0-0.9-0.3-1.4l0,0l-4.4-7.6c-0.3-0.5-0.7-0.8-1.1-0.9c-0.4-0.1-0.9-0.1-1.3,0.2l-3.6,2.1
			c-0.3,0.2-0.5,0.5-0.6,0.9c-0.1,0.5,0,1,0.2,1.4l3.9,6.7l0,0.1l0,0c0.5,0.9,0.9,2.3,0.7,3.6c-0.2,1.4-0.8,2.8-2.3,3.7l-0.1,0.1
			l0,0l-2.7,1.5c-1.4,0.8-2.8,0.9-4.1,0.5c-1.7-0.5-3-1.8-3.5-2.7l-3.4-5.9c-0.5-0.9-1-2.6-0.6-4.3c0.3-1.2,1-2.4,2.4-3.3l0.4-0.3
			l1.4,2.5l-0.4,0.3c-0.6,0.4-0.9,0.9-1.1,1.4c-0.2,0.9,0.1,1.8,0.3,2.2l3.4,5.9c0.3,0.4,0.9,1.1,1.8,1.4c0.5,0.2,1.2,0.1,1.8-0.2
			l2.7-1.5l0.1,0c0.6-0.4,0.9-1,1-1.6C459.9,243.8,459.7,243.2,459.4,242.6L459.4,242.6l1.2-0.7L459.4,242.6L459.4,242.6z
			 M439.9,190.4l-11.6,1.6l4.4,7.7L439.9,190.4z M416.8,190.7l1.5,2.7l6.9-0.9l5.6,9.7l-4.3,5.5l1.5,2.7l6.5,11.3l2.5-1.4l-7.1-12.3
			l5.3-6.9l4.4,7.5l2.5-1.4l-4.9-8.6l4.8-6.2l6.6,11.5l2.5-1.4l-7.2-12.5l-0.8-1.3l-0.8-1.3L416.8,190.7L416.8,190.7z M419.4,184.2
			c-1.4,0.8-2.8,0.9-4.1,0.5c-1.7-0.5-3-1.8-3.5-2.7l-3.4-5.9c-0.5-0.9-1-2.6-0.6-4.3c0.3-1.2,1-2.4,2.4-3.2l16.1-9.3l1.4,2.5
			l-16.1,9.3c-0.6,0.4-0.9,0.9-1.1,1.4c-0.2,0.9,0.1,1.8,0.3,2.2l3.4,5.9c0.3,0.4,0.9,1.1,1.8,1.3c0.5,0.2,1.2,0.1,1.8-0.2l15.9-9.2
			l1.4,2.5L419.4,184.2z"/>
		<g>
			<path class="st2" d="M255.4,235.1l-6.9,11.9l6.3,3.6l4.8-8.3l2.5,1.4l-4.8,8.3l7,4l6.9-11.9l2.5,1.4l-8.3,14.4l-20.7-12l8.3-14.4
				L255.4,235.1z M267.6,213.9l-5.3,9.1l6.3,3.6l5.3-9.2c0.2-0.4,0.2-0.8,0.1-1.3c-0.1-0.5-0.4-0.9-0.7-1.1l-3.3-1.9
				c-0.4-0.2-0.9-0.3-1.3-0.2C268.3,213.1,267.9,213.4,267.6,213.9L267.6,213.9l-2.5-1.4c0.7-1.2,1.8-1.9,2.9-2.2
				c1.1-0.3,2.4-0.1,3.4,0.5v0v0l3.3,1.9c1,0.6,1.7,1.6,2,2.8c0.3,1.1,0.2,2.4-0.4,3.4l-0.4,0.7l12.2,0.7l-1.6,2.8l-12.2-0.7
				l-3.3,5.7l9.5,5.4l-1.4,2.5l-20.7-12l6.7-11.6L267.6,213.9L267.6,213.9z M238.7,264l-4.8,8.3l6.3,3.6l4.8-8.3
				c0.2-0.4,0.2-0.8,0.1-1.3c-0.1-0.5-0.4-0.9-0.7-1.1l-3.1-1.8c-0.4-0.3-1-0.3-1.5-0.2C239.4,263.3,239,263.6,238.7,264z
				 M247.5,269.1l-4.8,8.3l7,4l4.8-8.3c0.4-0.7,0.6-1.5,0.5-2.2c-0.1-0.5-0.5-1-1.2-1.5l-2.6-1.5c-0.7-0.4-1.4-0.6-2-0.4
				c-0.5,0.1-1,0.5-1.5,1.4L247.5,269.1z M256.9,274.5l-6.2,10.8l-20.7-12l6.2-10.8c0.7-1.2,1.7-1.9,2.8-2.1
				c1.2-0.3,2.6-0.1,3.6,0.5l3.1,1.8c0.8,0.5,1.5,1.3,1.9,2.2c0.3-0.1,0.5-0.2,0.8-0.3c1.3-0.3,2.6,0,3.9,0.7l0.3,0.2l2.4,1.4
				c1.5,0.9,2.3,2.1,2.6,3.3C258,271.8,257.6,273.3,256.9,274.5L256.9,274.5z M224,283.7l20.7,12l-1.4,2.5l-20.7-12L224,283.7z
				 M210.4,307.3l18.2,10.5l7.2-12.5l2.5,1.4l-8.6,15l-20.7-12L210.4,307.3z M296.5,206l-18.2-10.5l-3.7,6.4l-2.5-1.4l4.4-7.7
				l0.7-1.2l3.7-6.4l2.5,1.4l-3.7,6.4l18.2,10.5L296.5,206z M292.4,172.9l7.2,9.3l4.4-7.7L292.4,172.9z M304.2,192.7l1.5-2.7
				l-4.3-5.5l5.6-9.7l6.9,0.9l1.5-2.7l-25.6-3.5l-0.8,1.3l-0.8,1.3L304.2,192.7L304.2,192.7z M316.1,150.3l-3.9,6.7
				c-0.6,1-1.6,1.8-2.7,2.1c-1.1,0.4-2.4,0.3-3.4-0.3l-3.6-2.1c-1.1-0.6-1.8-1.6-2.1-2.8c-0.3-1.1-0.1-2.3,0.5-3.5l4.4-7.6l0.4-0.6
				l0,0c0.6-0.8,1.4-1.3,2.3-1.6c1.1-0.3,2.2-0.3,3.4,0.4l0.3,0.2l-1.4,2.5l-0.3-0.2c-0.4-0.2-0.7-0.2-1-0.1
				c-0.4,0.1-0.8,0.5-1.1,0.9l0,0l-4.4,7.6c-0.3,0.5-0.3,0.9-0.2,1.4c0.1,0.4,0.4,0.8,0.8,1l3.6,2.1c0.3,0.2,0.7,0.2,1.1,0
				c0.4-0.1,0.8-0.4,1.1-0.8l3.9-6.7l0-0.1l0,0c0.5-0.9,1.6-1.9,2.8-2.4c1.3-0.6,2.8-0.7,4.4,0.1l0.1,0.1h0l2.7,1.5
				c1.4,0.8,2.2,2,2.5,3.3c0.4,1.7,0,3.5-0.5,4.4l-3.4,5.9c-0.5,0.9-1.8,2.2-3.4,2.7c-1.2,0.4-2.6,0.4-4-0.5l-0.4-0.2l1.4-2.5
				l0.4,0.2c0.6,0.4,1.2,0.4,1.7,0.2c0.9-0.3,1.5-1,1.8-1.4l3.4-5.9c0.3-0.4,0.5-1.4,0.3-2.2c-0.1-0.5-0.5-1.1-1.1-1.5l-2.7-1.5
				l-0.1,0c-0.6-0.3-1.3-0.3-1.9,0C316.9,149.3,316.4,149.7,316.1,150.3L316.1,150.3L316.1,150.3l-1.2-0.7L316.1,150.3L316.1,150.3z
				"/>
		</g>
		<g>
			<path class="st2" d="M407.9,381.3h-16.7v7.3h11.7v2.9h-11.7v8h16.7v2.9h-19.6v-23.9h19.6V381.3z M285.8,402.3v-21H276v-2.9h22.3
				v2.9h-9.7v21H285.8z M318.3,381.9l-5,11.1h10L318.3,381.9z M316.7,378.4h3.1l10.8,23.9h-3.1l-2.9-6.4H312l-2.9,6.4h-3.1
				L316.7,378.4z M342.9,402.3v-23.9h2l13.9,12.3l13.9-12.3h2v23.9h-2.9V383l-13,11.5l-1-0.9l0,0l-11.5-10.1l-0.6-0.5v19.3
				L342.9,402.3z M421,402.3v-23.9h2l20.2,19.2v-19.2h2.9v23.9H444l-20.1-19.1v19.1H421z"/>
		</g>
	</g>
</g>
</svg>
