<?xml version="1.0" encoding="utf-8"?>
<!-- Generator: Adobe Illustrator 27.6.1, SVG Export Plug-In . SVG Version: 6.00 Build 0)  -->
<svg version="1.1" id="Camada_1" xmlns="http://www.w3.org/2000/svg" xmlns:xlink="http://www.w3.org/1999/xlink" x="0px" y="0px"
	 viewBox="0 0 720 504" style="enable-background:new 0 0 720 504;" xml:space="preserve">
<style type="text/css">
	.st0{fill:#28166F;}
	.st1{fill:#FFFFFF;}
	.st2{fill:#00923F;}
	.st3{fill:#F8C300;}
</style>
<rect class="st0" width="720" height="504"/>
<path class="st1" d="M61.2,252L360,442.8L658.8,252L360,61.2L61.2,252z"/>
<circle class="st2" cx="360" cy="252" r="126"/>
<g transform="translate(1000,700) scale(350)">
	<g id="cone">
		<polygon id="triangle" class="st3" points="-1.8,-1.6 -1.9,-1.3 -1.8,-1.2 		"/>
		<g transform="scale(-1,1)">
			<polygon id="triangle_00000034786190464031121060000013526938456868205187_" class="st3" points="-1.8,-1.6 -1.7,-1.3 -1.9,-1.2 
							"/>
		</g>
	</g>
	<g transform="rotate(72)">
		<g id="cone_00000108292904244356656620000008035842092209443742_">
			<polygon id="triangle_00000152242145432535170880000006167574440802849429_" class="st3" points="-1.5,-1.4 -1.8,-1.4 -1.8,-1.2 
							"/>
			<g transform="scale(-1,1)">
				<polygon id="triangle_00000168810307073707097860000000920494579516849815_" class="st3" points="-1.5,-1.4 -1.8,-1.2 
					-1.9,-1.3 				"/>
			</g>
		</g>
	</g>
	<g transform="rotate(-72)">
		<g id="cone_00000106826494762219674040000016673337613285362572_">
			<polygon id="triangle_00000008838907908706668990000011223648720567879321_" class="st3" points="-2.2,-1.4 -1.9,-1.2 -1.8,-1.3 
							"/>
			<g transform="scale(-1,1)">
				<polygon id="triangle_00000123413218137250688050000000016601323712766595_" class="st3" points="-2.2,-1.4 -1.8,-1.4 
					-1.8,-1.2 				"/>
			</g>
		</g>
	</g>
	<g transform="rotate(144)">
		<g id="cone_00000026876118428351360590000007335758862277875871_">
			<polygon id="triangle_00000181064750351150061940000005573769189216746663_" class="st3" points="-1.6,-1 -1.7,-1.3 -1.9,-1.3 
							"/>
			<g transform="scale(-1,1)">
				<polygon id="triangle_00000055681926639225475280000008592798073036081592_" class="st3" points="-1.6,-1 -1.9,-1.2 -1.8,-1.3 
									"/>
			</g>
		</g>
	</g>
	<g transform="rotate(-144)">
		<g id="cone_00000057834665373249312890000005832822574072283277_">
			<polygon id="triangle_00000111156995601006481190000003792211153553958304_" class="st3" points="-2,-1 -1.7,-1.2 -1.9,-1.3 			
				"/>
			<g transform="scale(-1,1)">
				<polygon id="triangle_00000053531915761160843420000001874443923143061922_" class="st3" points="-2,-1 -1.9,-1.3 -1.8,-1.3 
									"/>
			</g>
		</g>
	</g>
</g>
</svg>
