<?xml version="1.0" encoding="utf-8"?>
<!-- Generator: Adobe Illustrator 27.6.1, SVG Export Plug-In . SVG Version: 6.00 Build 0)  -->
<svg version="1.1" id="Camada_1" xmlns="http://www.w3.org/2000/svg" xmlns:xlink="http://www.w3.org/1999/xlink" x="0px" y="0px"
	 viewBox="0 0 720 504" style="enable-background:new 0 0 720 504;" xml:space="preserve">
<style type="text/css">
	.st0{fill:#F00000;}
	.st1{fill:#FFFFFF;}
</style>
<rect x="-1.1" y="-0.8" width="722.2" height="505.5"/>
<rect x="239.6" y="-0.8" class="st0" width="481.5" height="505.5"/>
<path id="NEGO" class="st1" d="M390.1,274.9v-45.6h9.4l18.8,30.5v-30.5h7.9v45.6h-8.7l-18.8-29.7v29.7H390.1z M436.3,274.9v-45.6
	h33.9v7.7h-24.6v10.1h22.4v7.7h-22.4v12.4H471v7.7H436.3z M499.9,258v-7.6h20.2v18.2c-2.2,1.8-5.1,3.5-8.7,4.9
	c-3.6,1.3-7.2,2-10.8,2c-5.1,0-9.4-1-13-3c-2.9-1.9-5.8-4.8-7.9-8.5c-1.4-3.7-2.2-7.8-2.2-12.2c0-4.7,0.7-8.9,2.9-12.6
	c2.2-3.7,5.1-6.5,8.7-8.5c2.9-1.4,6.5-2.2,10.8-2.2c5.8,0,10.1,1.1,13,3.5c3.6,2.4,5.8,5.7,6.5,9.9l-9.4,1.7c-0.7-2.2-1.4-4-3.6-5.3
	c-1.4-1.3-3.6-1.9-6.5-1.9c-4.3,0-7.2,1.2-9.4,3.7c-2.9,2.6-3.6,6.4-3.6,11.4c0,5.4,0.7,9.5,3.6,12.2c2.2,2.8,5.1,4.1,9.4,4.1
	c2.2,0,3.6-0.4,5.8-1.1c2.2-0.8,3.6-1.8,5.1-2.8V258H499.9z M526.6,252.4c0-4.7,0.7-8.5,2.2-11.7c0.7-2.4,2.2-4.5,4.3-6.4
	c1.4-1.8,3.6-3.1,5.8-4c2.9-1.2,5.8-1.8,9.4-1.8c7.2,0,12.3,2,16.6,6.1c3.6,4.2,5.8,10,5.8,17.5c0,7.3-2.2,13.1-5.8,17.2
	c-4.3,4.2-9.4,6.3-15.9,6.3c-7.2,0-12.3-2-16.6-6.3C528.7,265.2,526.6,259.6,526.6,252.4z M536,252c0,5.2,1.4,9,3.6,11.8
	c2.2,2.6,5.1,4,8.7,4c4.3,0,7.2-1.3,9.4-4c2.2-2.6,3.6-6.6,3.6-11.9s-1.4-9.1-3.6-11.7c-2.2-2.6-5.1-3.9-9.4-3.9
	c-3.6,0-6.5,1.2-8.7,4C537.4,242.9,536,246.8,536,252z"/>
</svg>
