<?xml version="1.0" encoding="utf-8"?>
<!-- Generator: Adobe Illustrator 27.6.1, SVG Export Plug-In . SVG Version: 6.00 Build 0)  -->
<svg version="1.1" id="Camada_1" xmlns="http://www.w3.org/2000/svg" xmlns:xlink="http://www.w3.org/1999/xlink" x="0px" y="0px"
	 viewBox="0 0 720 504" style="enable-background:new 0 0 720 504;" xml:space="preserve">
<style type="text/css">
	.st0{fill:#3155A4;}
	.st1{fill:none;stroke:#C34342;stroke-width:12;}
	.st2{fill:none;stroke:#FFB511;stroke-width:12;}
	.st3{fill:none;stroke:#00AD4A;stroke-width:12;}
	.st4{fill:#FFFFFF;}
	.st5{fill:#FFB511;}
</style>
<path id="faixa_azul" class="st0" d="M-17,0h755.9v302.4H-17V0z"/>
<path id="arco_vermelho" class="st1" d="M79.6,378c0-155.4,126-281.4,281.4-281.4c155.4,0,281.4,126,281.4,281.4"/>
<path id="arco_amarelo" class="st2" d="M96.4,378c0-146.1,118.5-264.6,264.6-264.6c146.1,0,264.6,118.5,264.6,264.6"/>
<path id="arco_verde" class="st3" d="M113.2,378c0-136.8,110.9-247.8,247.8-247.8c136.8,0,247.8,110.9,247.8,247.8"/>
<path id="faixa_branca" class="st4" d="M-17,302.4h755.9V504H-17V302.4z"/>
<path id="cruz" class="st1" d="M361,340.2v126 M323.2,384.3h75.6"/>
<path id="sol" class="st5" d="M361,176.4l4.1,12.9l7.3-11.4l0.6,13.5l10-9.1l-2.9,13.2l12-6.2l-6.2,12l13.2-2.9l-9.1,10l13.5,0.6
	l-11.4,7.3l12.9,4.1l-12.9,4.1l11.4,7.3l-13.5,0.6l9.1,10l-13.2-2.9l6.2,12l-12-6.2l2.9,13.2l-10-9.1l-0.6,13.5l-7.3-11.4l-4.1,12.9
	l-4.1-12.9l-7.3,11.4l-0.6-13.5l-10,9.1l2.9-13.2l-12,6.2l6.2-12l-13.2,2.9l9.1-10l-13.5-0.6l11.4-7.3l-12.9-4.1l12.9-4.1l-11.4-7.3
	l13.5-0.6l-9.1-10l13.2,2.9l-6.2-12l12,6.2l-2.9-13.2l10,9.1l0.6-13.5l7.3,11.4L361,176.4z"/>
<path id="strela" class="st5" d="M361,25.2L373.2,63l-32.2-23.4h39.7L348.7,63L361,25.2z"/>
</svg>
