<?xml version="1.0" encoding="utf-8"?>
<!-- Generator: Adobe Illustrator 27.6.1, SVG Export Plug-In . SVG Version: 6.00 Build 0)  -->
<svg version="1.1" id="Camada_1" xmlns="http://www.w3.org/2000/svg" xmlns:xlink="http://www.w3.org/1999/xlink" x="0px" y="0px"
	 viewBox="0 0 720 504" style="enable-background:new 0 0 720 504;" xml:space="preserve">
<style type="text/css">
	.st0{fill-rule:evenodd;clip-rule:evenodd;fill:#FFFFFF;}
	.st1{fill-rule:evenodd;clip-rule:evenodd;fill:#008C43;}
	.st2{fill-rule:evenodd;clip-rule:evenodd;fill:#2649A5;}
	.st3{fill:#008C43;stroke:#F9F9F9;stroke-width:0.2835;stroke-miterlimit:3;}
	.st4{fill:#29993C;}
</style>
<g id="layer1" transform="translate(-1261.1788,-101.7379)">
	<g id="g1304" transform="translate(25.929167,-5.2916666)">
		<g id="g1286">
			<rect id="rect4575" x="1235.2" y="107" class="st0" width="720.6" height="504">
			</rect>
			<path id="path4566" class="st1" d="M1477,107l478.9,262V107H1477z M1235.2,349.1v262h478.9L1235.2,349.1z"/>
		</g>
		<g id="g1260">
			<g id="g959">
				<path id="path4589" class="st2" d="M1717.5,359.9l-2,0.9c-8.7-4.2-17.4-8.1-26.2-11.8c-8.8-3.6-17.6-7-26.5-10
					c-8.9-3-17.8-5.7-26.7-8.1c-8.9-2.4-17.9-4.5-26.9-6.2c-9-1.8-18.1-3.2-27.2-4.3c-9.1-1.1-18.2-1.8-27.3-2.2
					c-9.1-0.4-18.3-0.4-27.5-0.1c-4.6,0.2-9.2,0.4-13.8,0.8c-4.6,0.3-9.2,0.8-13.9,1.3l-0.3-0.3c-0.8,5.2-1.2,10.4-1.2,15.6
					c0,61.6,49.8,111.6,111.2,111.6C1661.1,446.9,1706.1,410.8,1717.5,359.9L1717.5,359.9z"/>
				<path id="path4587" class="st0" d="M1720.2,332.1l-2.5-1c-8.3-4.2-16.6-8.1-25-11.6c-8.4-3.5-16.9-6.7-25.5-9.6
					c-8.6-2.9-17.2-5.4-25.9-7.7c-8.7-2.2-17.4-4.2-26.2-5.8c-8.8-1.6-17.6-3-26.4-4.1c-8.8-1.1-17.7-1.9-26.6-2.4
					c-8.9-0.5-17.8-0.8-26.7-0.8c-8.9,0-17.8,0.2-26.6,0.7h-1.1c-4.2,9.5-7.1,19.6-8.5,29.9l0.3,0.3c4.6-0.5,9.3-1,13.9-1.3
					c4.6-0.3,9.2-0.6,13.8-0.8c9.2-0.3,18.4-0.3,27.5,0.1c9.1,0.4,18.3,1.1,27.3,2.2c9.1,1.1,18.1,2.5,27.2,4.3
					c9,1.8,18,3.8,26.9,6.2c8.9,2.4,17.9,5.1,26.7,8.1c8.9,3,17.7,6.4,26.5,10c8.8,3.6,17.5,7.5,26.2,11.8l1.6,0.8l0.4-1.7
					c1.8-8,2.8-16.3,2.8-24.5C1720.3,334.3,1720.3,333.2,1720.2,332.1L1720.2,332.1z"/>
				<path id="text870" class="st3" d="M1540.4,294.6l-0.7,20.1l5.2,0.2l0.2-6.5l3.2,0.1c1.5,0.1,2.7-0.1,3.7-0.5
					c1-0.4,1.9-0.9,2.7-1.7c0.6-0.6,1.1-1.3,1.4-2.1c0.3-0.9,0.5-1.7,0.6-2.6c0-1.2-0.1-2.2-0.5-3c-0.4-0.8-1-1.5-1.8-2.1
					c-0.7-0.5-1.4-0.8-2.3-1.1c-0.9-0.3-1.9-0.4-3.2-0.5L1540.4,294.6z M1569.5,295.9l-8.8,19.5l5.2,0.4l1.7-4l7.4,0.5l1.1,4.2
					l5.3,0.4l-6-20.6L1569.5,295.9z M1590.1,297.6l-2.7,19.9l5.1,0.7l1-7.3l2.4,0.3l4.4,8l6.3,0.9l-5.5-9.4c1.3-0.4,2.4-1.1,3.2-1.9
					c0.8-0.8,1.3-2,1.5-3.5c0.1-1.1,0-2-0.3-2.8c-0.3-0.8-0.9-1.4-1.5-2c-0.7-0.5-1.4-0.9-2.3-1.2s-1.8-0.5-3-0.6L1590.1,297.6z
					 M1545.5,298.6l0.9,0c0.9,0,1.5,0.1,2,0.1c0.5,0,1,0.2,1.6,0.4c0.4,0.2,0.7,0.5,1,0.9c0.3,0.4,0.4,0.9,0.4,1.5
					c0,0.6-0.1,1.1-0.3,1.5c-0.2,0.4-0.4,0.7-0.8,1c-0.4,0.3-0.9,0.5-1.5,0.6c-0.6,0.1-1.3,0.1-2.2,0.1l-1.5-0.1L1545.5,298.6z
					 M1572.1,301.3l1.9,7.4l-4.9-0.4L1572.1,301.3z M1594.7,302l1.9,0.3c0.6,0.1,1.2,0.2,1.6,0.3c0.5,0.1,0.9,0.2,1.2,0.4
					c0.5,0.3,0.8,0.6,0.9,1c0.2,0.4,0.2,0.8,0.1,1.3c-0.1,0.6-0.2,1-0.4,1.3c-0.2,0.3-0.5,0.6-0.9,0.8c-0.4,0.2-0.9,0.4-1.5,0.4
					c-0.6,0-1.3,0-2.1-0.2l-1.6-0.2L1594.7,302z M1621,302.7l-11.5,18.1l5.1,1.1l2.2-3.7l7.3,1.6l0.5,4.3l5.2,1.1l-3-21.2
					L1621,302.7z M1641.3,307.4l-5.7,19.3l4.6,1.4l3.9-13.2l4.2,15.7l4.8,1.4l5.7-19.3l-4.6-1.4l-3.3,11l-3.7-13.1L1641.3,307.4z
					 M1622.8,308.3l0.9,7.6l-4.8-1L1622.8,308.3z M1677.9,311.4l-5,3.8l3.1,1.2l6.2-3.1l0.1-0.3L1677.9,311.4z M1672.7,317.5
					l-14,16.2l4.9,1.8l2.7-3.3l7,2.6l-0.1,4.3l5,1.9l0-21.4L1672.7,317.5z M1673.6,323.4l-0.2,7.6l-4.6-1.7L1673.6,323.4z"/>
				<path id="path4582" class="st2" d="M1609.1,223.8c-43.8,0-83.5,25.9-101.4,66.1h1.1c8.9-0.5,17.8-0.7,26.6-0.7
					c8.9,0,17.8,0.3,26.7,0.8c8.9,0.5,17.7,1.3,26.6,2.4c8.8,1.1,17.7,2.4,26.4,4.1c8.8,1.6,17.5,3.6,26.2,5.8
					c8.7,2.2,17.3,4.8,25.9,7.7c8.6,2.9,17.1,6.1,25.5,9.6c8.4,3.5,16.8,7.4,25,11.6l2.5,1C1718.5,271.8,1669.3,223.9,1609.1,223.8
					L1609.1,223.8z"/>
				<path id="path919" class="st0" d="M1609.9,239.8l-4.2,13.6l-14.2,0.6l11.6,8.2l-3.8,13.7l11.4-8.5l11.9,7.8l-4.6-13.5l11.1-8.9
					l-14.2,0.2L1609.9,239.8z M1537.1,334.3l-3.3,10.9l-11.4,0.6l9.3,6.5l-3,11l9.1-6.9l9.5,6.2l-3.7-10.7l8.8-7.1l-11.4,0.2
					L1537.1,334.3z M1611.7,347.5l-2.9,9.8l-10.2,0.6l8.5,5.8l-2.6,9.9l8.1-6.3l8.6,5.5l-3.4-9.7l7.9-6.5l-10.3,0.3L1611.7,347.5z
					 M1664.8,350.2l-3.3,10.8l-11.3,0.5l9.2,6.5l-3,10.9l9-6.8l9.4,6.2l-3.6-10.7l8.8-7l-11.3,0.2L1664.8,350.2z M1607.1,403.2
					l-3,10l-10.4,0.5l8.6,6l-2.7,10.1l8.3-6.3l8.8,5.7l-3.4-9.9l8.1-6.6l-10.4,0.2L1607.1,403.2z"/>
			</g>
			<g id="g1245">
				<path id="path1172" class="st1" d="M1583.2,517.4c-2.4-0.4-7.6-2.5-7.6-3c0-1.5,11.6-8.9,24.4-15.6c4.3-2.2,7.6-4.3,7.5-4.6
					c-0.7-1.1-19.4-8.7-21.4-8.7c-1.1,0-2.4,3.7-2,5.5c0.2,1.1,0.9,1.8,2.2,2.3c3.2,1.3,3.9,4.1,1.6,6.8c-1.6,1.9-2.8,2.1-5.1,0.9
					c-1.7-0.9-2.5-3.1-1.9-5.5c0.2-0.9,0.4-3.2,0.5-5.1c0.1-2,0.3-4.2,0.5-5c0.3-1.2,0.2-1.5-0.4-1.5c-1.3,0-2.8,2.3-3.9,5.7
					c-0.9,2.8-0.9,3.1-0.1,4.4c1.1,1.7,1.1,4,0,5.6c-0.7,0.9-1.4,1.2-3.2,1.2c-3,0-4.1-1.2-4.1-4.2c0-2.2,0.1-2.4,3.2-4.2
					c0.4-0.2,2.3-6,2.3-6.8c0-0.7-0.1-0.7-0.4,0c-1.4,3.1-4.3,7.3-5.7,8.4c-2,1.5-3.2,1.9-7.7,2.6c-8.8,1.4-10.2,1.2-14.1-2.1
					c-0.8-0.7-2-1.3-2.5-1.3c-1.5,0-5.5-1.9-7.1-3.4c-1.5-1.4-2.7-3.4-2.7-4.4c0-0.4-1-1.6-2.3-2.7l-2.3-2l0.1-5
					c0.1-2.8,0.4-5.4,0.7-5.8c0.8-0.9,3.3-1,4.2-0.1c0.8,0.8,0.8,0.7-0.1-2.3c-0.6-2.1-1.3-2.8-4.8-5.3c-2.2-1.6-4.4-2.9-4.9-2.9
					c-0.5,0-2.2,1.4-3.7,3.1c-2.2,2.4-2.7,3.3-2.5,4.2c0.2,0.6,0.5,1.8,0.7,2.7c0.7,3.7-5,5.8-7.4,2.8c-2-2.6-1.3-5,2.1-6.7
					c1.1-0.6,2.7-2,3.5-3.2c0.8-1.2,2.2-2.7,3.1-3.4c1.6-1.2,2.1-2.1,1.2-2.1c-0.3,0-1.4,0.8-2.5,1.8s-3.4,2.8-5.1,4.1
					c-2.9,2.2-3.2,2.3-7,2.3c-2.2,0-4.1-0.2-4.2-0.5c-0.2-0.3-1.2-0.5-2.3-0.5c-4.4,0-8.9-2.6-10.7-6.2c-0.4-0.9-2-2.5-3.4-3.5
					c-3.3-2.5-4.6-4.8-4.7-8.1c0-1.6-0.4-3.1-1-4c-1.2-1.7-1.4-6.9-0.4-8c0.4-0.4,1.2-1.7,1.8-3c0.8-1.5,1.6-2.4,2.4-2.5
					c1.6-0.2,3.2,1.2,3.5,3.1c0.1,0.8,0.3-1.2,0.3-4.4c0.1-5.2,0-6.1-1.1-7.7c-1.5-2.3-2.2-2.4-3.7-0.3c-1,1.4-1.1,2.1-0.8,4.5
					c0.3,2.4,0.2,3.1-0.7,4.2c-2.3,2.8-7.7,0.8-7.7-2.8c0-1.8,2.1-4.2,3.7-4.2c1.2,0,5.6-6.3,5.2-7.4c-0.7-1.9-6.7,0.4-6.7,2.5
					c0,2-1.5,4.2-3.2,4.6c-4.5,1-7.4-3.9-4.2-7.1c1.1-1.1,1.8-1.3,3.1-1.1c3.6,0.6,9.5-3.8,6.6-4.9c-0.9-0.3-8.2,1.8-9.2,2.6
					c-0.3,0.2-1.7,0.4-3.2,0.4c-2.1,0-3.4-0.4-5.6-1.7c-1.6-1-2.9-1.9-2.9-2.2c0-0.2-0.4-0.4-0.8-0.4c-2.9,0-7.9-5.8-7.9-9.1
					c0-0.9-0.5-2.2-1-2.9c-3-3.8-4.2-8.8-2.7-11.5c0.3-0.6,0.6-2.8,0.5-4.8l-0.1-3.7l3.2-3.3c3.3-3.4,4.2-3.7,6.1-2.7
					c1,0.6,1.1,1,0.9,7.3c-0.2,6.3-0.1,6.8,1,8.1c0.9,1.1,1.2,2.1,1.2,4.1c0,2.2,0.2,2.8,1.1,3.3c1.5,0.8,3.2,3.7,3.2,5.5
					c0,1.1,0.4,1.7,1.6,2.3c2,1.1,2.2,1,2.2-0.1c0-0.5-0.9-1.9-2.1-3.1c-1.1-1.2-2.4-3.3-2.8-4.6c-0.4-1.3-1.5-3.7-2.3-5.3
					c-1.1-2.2-1.5-3.7-1.5-6.1c0-1.8-0.2-3.2-0.5-3.2c-1,0-0.6-5.8,0.5-7.7c0.6-1,1.1-2.3,1.1-2.9c0-0.6,0.3-1.4,0.6-1.8
					c0.5-0.5,0.5-1.1,0-2.7c-0.3-1.1-0.7-2.7-0.8-3.4c-0.2-2.2-3-2.2-5.5,0c-1.9,1.7-1.9,1.8-1.6,4.5c0.3,2.4,0.2,2.9-0.9,3.9
					c-1.5,1.3-4.9,1.4-6.2,0.2c-0.6-0.6-0.9-1.8-0.9-3.3c0-2,0.2-2.5,1.6-3.3c0.9-0.5,1.9-0.9,2.3-0.9c0.4,0,1.4-0.8,2.2-1.9
					c0.8-1,2.5-2.3,3.7-2.8c2.1-0.9,2.1-1,1-1.4c-2.3-0.8-5.6,0-6.9,1.8c-1,1.3-1.6,1.6-3.3,1.6c-4,0-5.7-3.6-3.3-6.7
					c1.3-1.7,3.9-1.9,5.8-0.6c0.8,0.6,2.7,0.9,6.1,1l4.9,0.1v-1.5c0-1.8-0.8-2.2-7.1-3.1c-2.5-0.4-5.4-1-6.3-1.4
					c-2-0.8-4.3-3.4-5.7-6.6c-0.6-1.3-1.3-2.5-1.6-2.7c-0.3-0.2-1-1.2-1.5-2.3c-1.1-2.3-1.2-8.4-0.2-9.7c0.4-0.5,0.5-1.6,0.3-3.3
					c-0.7-4.4,0.1-7.1,2.7-9.9c1.3-1.3,2.5-3.1,2.7-4c0.7-3.2,3.5-4.8,10-5.9c2.4-0.4,3.6,0.6,3.2,2.9l-0.3,1.8l1.4-1.3
					c1.3-1.2,1.4-1.4,0.7-3c-0.5-1.2-1.1-1.7-1.9-1.7c-0.7,0-1.8-0.6-2.4-1.5c-3.2-4,2.2-9.6,5.9-6.1c1.6,1.5,2,3.5,1.2,5.4
					c-0.5,1.3-0.5,1.8,0,2.5c0.6,0.8,0.8,0.7,1.2-0.4c0.3-0.7,0.7-2.7,1-4.4c0.4-2.6,0.4-3.4-0.3-4.3c-1.1-1.6-1-3.7,0.2-5.3
					c0.8-1.1,1.5-1.3,3.3-1.3c2.6,0,4.3,1.6,4.3,4c0,1.7-1.4,3.9-2.4,3.9c-1.2,0-2,1.4-2.5,4.4c-0.4,2.3-0.3,3.1,0.3,3.7
					c0.7,0.7,1,0.6,2.7-1.4c1-1.2,1.9-2.6,1.9-3.1c0-1.1,3-3.7,4.2-3.7c1.3,0,3.8,1.5,4.2,2.5c0.6,1.6,0.3,3.4-0.8,4.8
					c-1.1,1.3-1.4,1.5-4.2,1.3c-2.7-0.2-3.1-0.1-4.1,1.3l-1.1,1.5l1.5,1.4l1.5,1.4v-1.5c0-0.9,0.3-1.8,0.7-2.2
					c0.9-0.9,3.3-0.8,4.5,0.1c0.6,0.4,1.6,0.8,2.3,0.8c2,0,4.8,3,5.6,5.8c0.4,1.4,1.2,3.1,1.9,3.9c1.9,1.9,2.6,4.6,2.1,8.2
					c-0.2,1.7-0.4,5.1-0.3,7.5c0.2,5.1,0.1,5.2-4.7,11.7c-2.9,3.9-4,5-6.2,6c-2.6,1.2-2.7,1.3-1.5,1.8c0.7,0.3,1.6,0.9,1.9,1.4
					c0.9,1.2,0.9,3.9-0.1,5.3c-1.6,2.3-7.3,1.2-7.3-1.4c0-0.3-0.4-0.7-1-0.9c-1.1-0.3-4.9,0.4-5.6,1.2c-0.4,0.4,0.5,6.3,1.4,8.4
					c0.4,1.1,2.6,2.1,5.3,2.7c1.8,0.4,2,0.3,1.5-0.6c-0.8-1.4-0.6-3,0.3-3.7c0.4-0.4,2.1-0.7,3.8-0.9c1.7-0.1,3.2-0.3,3.4-0.3
					c1.8-0.3,3.3,0.3,5.2,2.2c1.2,1.2,3,2.4,4.1,2.8c2.9,1,5.4,3.8,6.5,7.4c0.5,1.7,1.6,4,2.4,5.1c2.2,2.8,2.9,5.1,2.6,7.8
					c-1.1,8.6-1.5,10.5-2.6,12.5c-0.8,1.4-2.2,2.8-3.7,3.7c-1.4,0.8-3.9,2.2-5.6,3.2c-1.7,1-3.1,2.1-3.1,2.4c0,0.3,0.4,1.2,1,1.9
					l1,1.3l4.4-4.4c4.9-4.8,6.1-5.3,8.6-3.1c3.9,3.3-0.9,9.7-5,6.6c-0.6-0.4-1.4-0.8-1.8-0.8c-1.1,0-3.9,3.2-3.9,4.5
					c0,0.6,1.3,2.9,2.9,5c2.8,3.6,3,3.8,5,3.7c2.6-0.2,2.7-0.3,1.6-2c-1.3-2-0.4-3.2,3.8-5.3c2.9-1.4,4-1.7,6-1.5
					c1.4,0.2,2.9,0.7,3.5,1.2c0.7,0.6,1.5,0.8,2.4,0.6c2.9-0.7,7.1,1.5,9.6,5c0.8,1.1,2.6,2.7,4.2,3.7c3,1.9,5.1,5.3,5.1,8.2
					c0,0.9,0.4,2.6,0.8,3.8c0.4,1.2,0.8,3.6,0.8,5.4c0,2.9-0.2,3.5-2.3,6.3c-1.3,1.7-3,3.8-3.8,4.8c-0.8,1-1.5,2-1.5,2.3
					c0,0.3,1.9,1.8,4.1,3.5c4.6,3.3,5.3,3.4,9,1.1c2-1.3,6.1-1.7,7.3-0.8c0.3,0.2,2.3,0.5,4.4,0.7c2.5,0.2,4.5,0.7,5.8,1.4
					c1.1,0.6,3.2,1.5,4.7,2c1.6,0.5,3.9,1.7,5.3,3c3.2,2.8,4.4,2.9,3.3,0.4c-0.5-1.2-1.1-1.8-2-1.9c-2-0.2-3.9-1.3-5.3-3
					c-1.1-1.3-1.7-1.5-4-1.5c-2.1,0-3.2-0.3-4.5-1.4c-1.6-1.2-2.1-1.3-3.9-0.9c-3.2,0.7-10.6,0.2-11.4-0.9c-1.1-1.4-0.8-2.2,2.6-5.7
					l3.3-3.4l3.7-0.1c2,0,4.4-0.3,5.2-0.7c3.1-1.3,6.6-0.6,10.4,2.1c0.9,0.6,2.3,1.1,3,1.1c0.8,0,2.7,0.7,4.4,1.5
					c3,1.5,3,1.5,8.4,10.3c2.2,3.6,2.3,5.8,0.2,12.1c-1,3.2-1.6,5.7-1.3,6c0.7,0.7,4.2,1.7,4.5,1.4c0.2-0.2,0.2-2.1,0.2-4.3
					c-0.1-3.8,0-4.1,1.3-5.2c1.9-1.5,4.1-1.4,5.6,0.2c2.4,2.6,0.8,7.1-2.6,7.5c-1.2,0.1-1.4,0.4-1.4,1.8c0,1.3,0.3,1.7,1.9,2.3
					c2.8,1,22.2,8.3,24.8,9.3l2.2,0.9l10.7-4.6l10.7-4.6l1.7-3.5c1.7-3.5,1.7-3.5,1-7.6c-0.4-2.3-0.9-4.3-1.2-4.6
					c-0.9-0.9-0.6-1.3,2.8-4.8c1.8-1.9,3.7-3.9,4.1-4.6c1-1.5,2.3-1.6,2.3-0.1c0,1.1,1.4,8.5,2,10.4c0.2,0.6-0.5,1.7-2,3
					c-3.1,2.8-5.4,6.1-5.4,7.6c0,1.5,0.3,1.6,3,0.2c2.5-1.2,3.9-2.6,5.8-6.1l1.4-2.5l3.7-0.3c4.9-0.4,5.3-0.6,6.1-3.1
					c0.8-2.5,0.6-4.1-1.3-10.6c-0.2-0.8,0.6-2.1,3.1-5.2c1.9-2.2,3.6-4.2,3.9-4.4c0.3-0.1,0.9,1.4,1.4,3.5c0.5,2.1,1.2,4.6,1.5,5.5
					c0.5,1.6,0.4,1.9-1.8,4.4c-2.7,3-4.3,5.9-3.8,7.1c0.6,1.5,7.4-4.2,7.4-6.2c0-1.1,2.1-2.3,4.9-2.9c3.4-0.6,4.6-1.8,5.1-4.9
					c0.5-2.9,0-5.5-1.9-9.3c-0.6-1.4-0.5-1.7,1.9-4.9c1.4-1.9,2.8-4,3.1-4.8l0.5-1.4l0.7,1.6c2.2,4.8,3.6,9.2,3.2,9.8
					c-4,5.1-6,9.5-4.5,9.5c1.9,0,6.5-5.2,6.5-7.4c0-0.8,1.6-1.6,6.1-3.2l2.6-0.9v-2.7c0-2.6-0.9-4.8-3.4-8.3c-1-1.4-1-1.7-0.4-2.7
					c1.3-2,3.8-7.1,3.8-7.8c0-1.5,1.1-1.1,2,0.8c0.5,1.1,1.6,3.2,2.5,4.6c0.8,1.4,1.5,2.9,1.5,3.3c0,0.4-0.7,2.2-1.7,3.9
					c-1.2,2.2-1.6,3.7-1.5,5l0.2,1.9l2.2-2.1c1.7-1.6,2.4-2.8,2.9-5.1c0.7-3,0.8-3.1,3.9-4.6c3.1-1.5,3.2-1.6,3.2-3.7
					c0-1.8-0.5-2.9-2.8-5.9l-2.8-3.7l0.7-2.3c0.4-1.2,0.9-2.8,1.2-3.5c0.3-0.7,0.5-1.8,0.5-2.6c0-1.5,0.6-2,1.5-1.5
					c0.3,0.2,1.9,2.1,3.5,4.1c2.9,3.8,2.9,3.8,2.2,6c-1.3,4.3-1.6,6.7-1.2,8.3l0.4,1.6l1.6-1.7c1.6-1.7,2.3-4.3,2.3-8.4
					c0-1.3,0.5-1.9,3-3.5c1.6-1.1,3.1-2.3,3.2-2.7c0.7-1.9-1.3-5-5.1-8c-1.9-1.5-1.9-1.5-1.2-3.9c0.4-1.4,0.7-3.4,0.7-4.6
					c0-1.2,0.2-2.2,0.4-2.4c0.2-0.1,2.1,1.3,4.1,3.2l3.7,3.5l-0.6,2.1c-0.8,2.9-0.7,5.7,0.2,7c0.7,1,0.8,0.9,1.9-0.8
					c1-1.6,1.1-2.5,0.9-5.4c-0.3-3.5-0.2-3.5,2-6c2.2-2.4,2.3-2.6,1.7-4.3c-0.6-1.9-2.4-3.8-5.6-6l-1.8-1.2v-4.9
					c0-3.8,0.2-4.9,0.7-4.9c0.4,0,1,0.4,1.4,0.8c0.4,0.4,2,1.7,3.5,2.7l2.9,1.9l-0.3,3.7c-0.2,2.8,0,4.2,0.6,5.5
					c0.5,1,1,1.7,1.2,1.7c0.2,0,0.6-0.8,1-1.8c0.6-1.4,0.6-2.7,0.3-5.6c-0.5-3.8-0.2-4.9,1.3-6.2c0.5-0.4,0.8-1.4,0.8-2.2
					c0-1.7-1.9-3.5-5.8-5.7l-2.1-1.2l-0.5-4.7c-0.3-2.6-0.4-4.8-0.2-5c0.1-0.2,2.1,0.8,4.4,2.2l4.1,2.5l0.4,3.8
					c0.5,5.6,2.2,7.7,3.6,4.4c0.7-1.6,0.6-2.3-1.2-7.2c-0.4-1.2-0.2-1.9,1.1-4l1.6-2.6l-1.2-1.8c-0.6-1-1.9-2.1-2.8-2.4
					c-0.9-0.4-2.2-0.9-2.8-1.1c-0.6-0.2-1.5-0.6-1.9-0.7c-0.5-0.2-1.1-1.5-1.6-3.5c-0.4-1.8-1-3.7-1.3-4.4c-1.1-2.3,0.2-2.4,4.8-0.5
					l4.3,1.8l1,4c0.5,2.2,1.3,4.3,1.6,4.7c1.8,2.2,3.2-1,1.9-4.5c-0.4-1.2-1.1-2.9-1.5-3.9c-0.6-1.6-0.6-2,0.5-4
					c1.6-3,1.5-3.4-0.6-5.3c-1.3-1.1-2.9-1.8-5.4-2.3c-2.8-0.6-3.7-1-3.9-1.8c-0.2-0.6-1-2.5-1.7-4.3c-0.8-1.7-1.2-3.3-1.1-3.4
					c0.2-0.2,2.4,0.1,4.9,0.6l4.6,0.9l1.2,3.3c1.1,3.1,3.1,5.8,4.3,5.8c0.9,0,1.2-2,0.5-3.6c-0.4-0.9-1.4-2.6-2.2-3.8
					c-1.7-2.6-1.8-3-0.9-6.4c0.6-2.3,0.6-2.5-0.6-3.7c-1.5-1.6-4.5-2.5-8-2.6c-2.6,0-2.7-0.1-4.1-2.6c-0.8-1.4-1.9-3.2-2.4-4.1
					c-0.5-0.8-0.8-1.6-0.7-1.7c0.1-0.1,2.4-0.1,5,0.1l4.8,0.3l1.9,3.2c2.7,4.5,5.7,6.3,5.7,3.6c0-1.5-1.4-3.9-3.8-6.3l-1.8-1.8
					l0.4-5.4c0.2-3,0.6-6,0.9-6.8c0.5-1.3,0.7-1.1,4.1,4.1l3.6,5.5l-1,4c-0.8,3.5-0.9,4.3-0.2,5.8l0.7,1.8l1.3-1.6
					c1.1-1.3,1.3-2.2,1.3-5.5v-3.9l3.1-1.7c1.7-1,3.5-2.1,4-2.6c1.5-1.3,1.9-0.4,1.7,4c-0.3,4.3-0.8,6.1-1.8,6.1
					c-1.5,0-5.6,3.6-6.5,5.6c-1.3,2.9-1.3,4,0,6.7c1.1,2.2,1.1,2.2,0,4.4c-0.7,1.4-1.1,3.3-1.1,5.3c0,2.8,0.1,3,1,2.5
					c1.1-0.6,2.6-4.5,2.9-7.4c0.1-1.5,0.6-1.8,4.7-3.5c2.5-1,4.6-1.7,4.8-1.6c0.2,0.2-0.1,1.8-0.6,3.6c-0.5,1.8-0.8,3.8-0.8,4.4
					c0,0.7-0.5,1.3-1.4,1.7c-5.3,2-7.5,3.6-8.9,6.4c-0.8,1.5-0.8,4.1,0,5.8c0.5,1.2,0.4,1.7-0.8,3.4c-1.8,2.6-2.7,8.5-1.3,8
					c0.7-0.3,3.3-5,4.3-7.9c0.2-0.5,1.2-1,2.4-1.2c1.1-0.2,3.2-0.6,4.7-1c1.4-0.3,2.7-0.5,2.8-0.4c0.2,0.2-2.7,7.5-3.7,9
					c-0.2,0.4-1.1,0.7-1.8,0.7c-2.8,0-5.7,1.3-7.8,3.5c-2.1,2.1-2.2,2.4-1.8,4.7c0.3,2.1,0.1,2.7-1.1,4c-0.8,0.8-1.5,2.2-1.7,3
					c-0.2,0.8-0.5,2.1-0.8,3c-0.4,1.2-0.3,1.5,0.3,1.5c0.8,0,3-2.7,4.7-5.8c0.8-1.5,1.1-1.6,5.4-1.9c2.5-0.2,4.7-0.2,4.9-0.1
					c0.2,0.1-0.7,2.2-2.1,4.5l-2.6,4.2l-3.9,0.2c-3.5,0.1-4,0.3-6.1,2.1c-2,1.8-2.3,2.2-2.1,4.1c0.1,1.7-0.1,2.4-1.4,3.5
					c-1.5,1.4-4.4,7.1-3.9,7.7c0.7,0.7,4.7-3.2,6.8-6.8c0.4-0.8,9.9-0.3,9.9,0.5c0,0.3-1.2,2.1-2.6,4l-2.6,3.5l-4.3,0
					c-3.8,0-4.5,0.2-6.6,1.6c-2.7,1.8-3,2.5-3,5.6c0,2.1-0.2,2.4-2.1,3.6c-2,1.2-5,5.2-5,6.5c0,1.8,5.2-1.4,6.9-4.3l1-1.7l4,0.3
					c2.2,0.2,4.6,0.3,5.3,0.3c0.7,0,1.3,0.2,1.3,0.4c0,0.2-1.5,2-3.2,3.9l-3.2,3.5l-4.5-0.2c-3.8-0.1-4.8,0-6.8,1.1
					c-2.5,1.3-3.1,2.2-3.9,5.6c-0.4,1.8-0.9,2.4-2.6,3.3c-2.6,1.3-2.9,1.6-4.6,4.1c-0.7,1-1.6,2.1-1.9,2.3c-1,0.7,1,1.1,2.5,0.5
					c0.8-0.3,2.7-1.6,4.4-3l3-2.4l5,1.4c2.8,0.8,4.9,1.7,4.8,2c-0.2,0.9-7.6,6.7-8.6,6.7c-0.5,0-1-0.2-1.2-0.4
					c-0.7-0.7-4.5-1.8-6.4-1.8c-1.1,0-3.2,0.5-4.7,1.1c-2.4,1-2.9,1.5-3.8,3.7c-0.9,2.2-1.4,2.7-3.2,3.2c-1.7,0.5-7.3,5-7.3,5.9
					c0,0.1,0.6,0.2,1.4,0.2c1.4,0,4.8-1.5,7.3-3.3c1.3-0.9,1.5-0.9,6.1,1.3c2.6,1.2,4.8,2.5,4.8,2.8c0,0.7-9.6,5.8-10,5.3
					c-0.3-0.5-4-2.4-6.6-3.3c-1.3-0.5-2.3-0.4-4.9,0.2c-1.8,0.5-3.4,1.1-3.6,1.5c-0.2,0.4-1.1,1.7-2.1,3c-1.4,1.9-2,2.3-3.4,2.3
					c-1.8,0-6.7,2.9-7.2,4.3c-0.4,1.1,3.5,0.5,7.2-1.1l2.9-1.2l2,1.6c1.1,0.9,3.1,2.3,4.4,3.1s2.2,1.7,2,1.9
					c-0.2,0.3-1.7,0.9-3.4,1.5c-1.7,0.5-3.7,1.3-4.5,1.7c-1.8,0.9-1.8,0.9-3.6-0.6c-2.2-1.8-5.1-3.4-7.2-3.9
					c-3.2-0.7-4.8,0.1-7.3,3.6c-1.2,1.8-2.4,3.2-2.6,3.3c-0.2,0-1.6,0.1-3.1,0.2c-2,0.1-3.5,0.6-5,1.6c-1.2,0.8-2.4,1.4-2.7,1.4
					c-0.3,0-0.6,0.3-0.6,0.8c0,1.2,2.7,1.5,6.3,0.6c1.8-0.5,3.8-1,4.5-1.2c0.9-0.2,1.7,0.1,3,1.3c1,0.9,2.9,2.5,4.4,3.6l2.6,2
					l-1.5,0.6c-0.8,0.3-2.3,0.7-3.2,0.9c-0.9,0.2-2.8,0.7-4.2,1.3l-2.6,0.9l-1.5-1.6c-3-3.1-5.7-4.6-9.2-5l-3.4-0.4l-2.6,3l-2.6,3
					h-3.4c-2.7,0-4,0.3-6.7,1.7c-1.8,0.9-3.3,1.9-3.3,2.2c0,0.2,0.9,0.6,2,0.8c1.8,0.3,4.5,0,9.9-1.1c1.1-0.2,2.1,0.4,5.9,4.1
					c4.9,4.7,5,5.3,1.2,5.4c-1,0-3.5,0.5-5.4,1l-3.5,1l-3.6-3.6c-3.4-3.4-3.9-3.6-7.1-4.2c-1.9-0.4-4-0.6-4.5-0.6
					c-1,0-14.7,6.7-15.6,7.6c-0.3,0.3,1.2,1.3,3.3,2.2c10.2,4.9,28.5,16.2,28.5,17.6c0,0.4-1.4,1.3-3.1,2c-2.6,1.1-4.1,1.3-8.9,1.3
					c-5.7,0-5.8,0-7.5-1.6c-0.9-0.9-1.7-1.9-1.7-2.3c0-1.4-2.9-5-5.6-7.2c-2.7-2-4-2.9-10.6-6.4l-2.9-1.5l-3.7,1.9
					c-8.4,4.3-13.5,8.4-15.5,12.5c-2,4.1-2.7,4.6-8,4.7C1586.7,517.6,1584,517.6,1583.2,517.4L1583.2,517.4z M1593.8,515.3
					c2.3-1,2.4-2.1,0.2-3c-3.2-1.3-13.8-0.3-15.3,1.5c-0.5,0.6,0.2,0.9,4.7,2C1586,516.3,1592.1,516.1,1593.8,515.3L1593.8,515.3z
					 M1650.9,515.4c3.1-0.8,3.8-1.8,1.6-2.3c-0.8-0.2-2.2-0.6-3-0.9c-2.1-0.8-9.4-0.8-11,0.1c-2.1,1.1-2.1,2.1-0.2,3
					C1640.5,516.3,1647.4,516.3,1650.9,515.4L1650.9,515.4z M1562.6,485.6c0.3,0,0.5-0.2,0.5-0.5c0-0.8-2.7-1.7-4.9-1.7
					c-1.8,0-4.6-1.1-6.8-2.7c-0.3-0.2-1.6-0.7-2.9-1.1c-1.4-0.4-3.8-2.1-5.9-3.9c-3.9-3.4-5.6-4.2-2.9-1.4c0.9,1,1.9,2.4,2.3,3.3
					c0.4,1.1,1,1.5,1.9,1.5c1.8,0,4.2,1.3,5.5,3c0.9,1.1,1.6,1.4,3.5,1.4c1.7,0,2.9,0.4,4.3,1.4c1.4,1,2.3,1.3,3.4,1.1
					C1561.4,485.8,1562.3,485.6,1562.6,485.6L1562.6,485.6z M1577.4,483.1c0.4-0.5,0.3-0.6-0.3-0.4c-0.5,0.2-0.9,0.9-0.9,1.5
					c0,0.8,0.1,0.9,0.3,0.4C1576.7,484.1,1577.1,483.4,1577.4,483.1z M1573.2,482.5c-0.4-0.4-1.4,0.4-1.4,1c0,0.4,0.3,0.3,0.8-0.1
					C1573.1,483.1,1573.3,482.7,1573.2,482.5L1573.2,482.5z M1576.5,472.2c-0.1-0.8-0.2-0.3-0.2,1.2c0,1.5,0.1,2.2,0.2,1.5
					S1576.7,473,1576.5,472.2L1576.5,472.2z M1519.3,455.7c0.2-0.3-0.2-0.5-0.8-0.5c-0.6,0-1.1,0.2-1.1,0.5c0,0.3,0.4,0.5,0.8,0.5
					C1518.6,456.3,1519.1,456,1519.3,455.7z M1508.8,453.8c-0.2-0.5-1.5-1.4-3-2.2c-1.5-0.7-3.4-2.2-4.4-3.3c-1-1.1-3-3.2-4.6-4.8
					c-1.7-1.7-3.2-3.8-3.8-5.4c-1.3-3.4-2.2-4-1.7-1.2c0.2,1.2,0.4,2.5,0.4,3c0,0.5,0.8,1.4,1.9,2.1c1.2,0.7,2.3,2.1,3.1,3.9
					c0.7,1.5,1.6,2.7,2,2.7c1.5,0,3.9,1.7,5,3.5c0.9,1.4,1.6,1.9,2.9,2.1c1,0.1,1.9,0.3,2.1,0.3C1509,454.6,1509,454.2,1508.8,453.8
					L1508.8,453.8z M1525.3,447.9c-0.1-0.4-0.3,0.1-0.3,1c0,0.9,0.1,1.2,0.3,0.7C1525.5,449.1,1525.5,448.3,1525.3,447.9
					L1525.3,447.9z M1524.1,437.1c-0.2-1.5-0.9-2.3-2.7-3.6c-1.6-1.1-2.5-2.2-2.7-3.4c-0.3-1.4-0.9-2-3.2-3.1
					c-1.6-0.8-3.3-2.1-4-3.2c-1-1.5-1.6-1.8-3.9-2.1c-1.5-0.2-2.9-0.6-3.1-0.9c-0.2-0.3-0.6-0.5-0.9-0.5c-1.1,0,2.5,2.6,4.5,3.2
					c1.1,0.4,3.7,2.3,6.2,4.7c2.3,2.2,4.4,4.1,4.6,4.1c0.2,0,1.1,1.3,1.9,3c1.2,2.5,2.9,4.4,3.4,3.9
					C1524.3,439.1,1524.3,438.2,1524.1,437.1L1524.1,437.1z M1490.5,433.5c-0.2-0.2-0.3,0.1-0.3,0.7c0,0.6,0.2,0.8,0.3,0.3
					C1490.7,434.2,1490.7,433.7,1490.5,433.5L1490.5,433.5z M1502.7,419.8c0-0.3-0.3-0.5-0.6-0.5c-0.3,0-0.4,0.2-0.2,0.5
					c0.2,0.3,0.4,0.5,0.6,0.5C1502.6,420.3,1502.7,420.1,1502.7,419.8z M1477.6,404.2c0-0.1-0.7-0.2-1.5-0.2c-1.1,0-1.3,0.1-0.7,0.5
					C1476.1,404.9,1477.6,404.8,1477.6,404.2L1477.6,404.2z M1486.3,399.2c0-0.7-0.2-0.6-0.8,0.2c-1,1.4-1.1,2.2,0,1.3
					C1486,400.4,1486.3,399.7,1486.3,399.2L1486.3,399.2z M1488.3,388.4c0.3-1.6,0.1-2.2-0.9-3.2c-0.9-0.9-1.3-2.2-1.5-4.3
					c-0.2-2.6-0.5-3.2-2-4.3c-1.2-0.9-2-2.2-2.4-3.8c-0.6-2-1.1-2.7-3.1-3.9c-1.3-0.8-2.6-1.8-2.9-2.3c-0.5-0.9-0.6-0.9-0.6,0
					c0,0.5,1.4,2.3,3.1,4.1c2.2,2.2,3.4,4,3.9,5.6c0.4,1.3,1.2,3.1,1.8,3.9c0.6,0.8,1,1.7,1,2c0,0.3,0.2,0.6,0.5,0.6
					c0.3,0,0.5,0.7,0.5,1.7c0,2.4,1.1,6.5,1.7,6.2C1487.7,390.5,1488.1,389.5,1488.3,388.4L1488.3,388.4z M1474.4,365.4
					c0-0.3-0.3-0.5-0.6-0.5c-0.3,0-0.4,0.2-0.2,0.5c0.2,0.3,0.4,0.5,0.6,0.5C1474.2,365.9,1474.4,365.7,1474.4,365.4z M1467.5,348.6
					c1.5-0.2,3.4-0.7,4.4-1.3l1.6-1l-5.6,0c-5.5,0-5.6,0-5.6,1.3c0,1.6,0.5,2.1,1.6,1.7C1464.5,349.1,1466,348.8,1467.5,348.6
					L1467.5,348.6z M1467,342.8c0.8-0.6,0.9-0.8,0.2-0.8c-0.4,0-1.3,0.4-1.9,0.8c-0.8,0.6-0.9,0.8-0.2,0.8
					C1465.6,343.6,1466.5,343.2,1467,342.8L1467,342.8z M1456.9,342.5c0-0.3-0.4-0.5-1-0.5c-0.8,0-0.8,0.1-0.1,0.5
					C1456.9,343.2,1456.9,343.2,1456.9,342.5L1456.9,342.5z M1451,330.6c-0.6-1.5-0.4-14,0.2-14.6c0.2-0.2,0.3-0.8,0.3-1.3
					s0.5-1.9,1.1-2.9c0.6-1.1,1.1-2.6,1.1-3.4c0-1.4-0.1-1.3-1.1,0.7c-0.6,1.2-1.5,2.3-1.9,2.6c-0.6,0.3-0.8,1.4-0.8,3.7
					c0,1.9-0.4,4-0.9,5.1c-0.9,1.8-0.9,2,0.1,4.1c0.8,1.8,0.9,2.5,0.4,3.6c-0.9,2-0.8,3.3,0.6,5.4l1.2,1.9l0.2-1.7
					C1451.5,332.8,1451.3,331.4,1451,330.6L1451,330.6z M1474.2,333.8c1.1-1.3,1.1-1.8,0.6-3.5c-0.5-1.7-0.4-2.3,0.7-4.4
					c1.1-2.1,1.2-2.6,0.6-3.8c-0.5-0.8-0.6-2.5-0.4-4.8c0.2-3,0.1-3.7-1-5.1c-0.7-0.9-1.3-2.4-1.5-3.3c-0.2-1.5-0.2-1.4-0.3,0.4
					c0,1.1,0.4,3.6,1,5.5c0.9,2.7,1,3.7,0.5,4.6c-0.3,0.6-0.6,2.9-0.6,5.1s-0.4,5.1-0.8,6.4c-0.9,2.5-1.1,4.4-0.4,4.3
					C1472.8,335.4,1473.5,334.7,1474.2,333.8L1474.2,333.8z M1472,305.6c-0.2-0.2-0.3,0.1-0.3,0.7c0,0.6,0.2,0.8,0.3,0.3
					C1472.2,306.3,1472.1,305.8,1472,305.6L1472,305.6z M1454.5,305.1c-0.2-0.2-0.3,0.1-0.3,0.7c0,0.6,0.2,0.8,0.3,0.3
					C1454.7,305.7,1454.7,305.3,1454.5,305.1L1454.5,305.1z"/>
				<path id="path1195-1" class="st4" d="M1553.7,491.4c0-1.2-8.5-3.5-10.4-2.7c-1.5,0.6-1.6,0.4-0.6-0.9c1.1-1.3,0.4-2.1-3.7-4.5
					c-5-2.9-6.4-4.3-3.2-3c1.6,0.6,1.6,0.3-0.1-2.5l-1.9-3.2l2.4,2.7c1.3,1.5,2.9,2.6,3.4,2.4c0.5-0.1,0.9,0.4,0.9,1.2
					c0,0.8,0.8,2.1,1.7,2.9c1.4,1.2,1.9,1.2,2.7-0.1c0.8-1.3,1-1.3,1,0.2c0,2.1,1.8,3.6,5.2,4.7c1.9,0.6,2.5,0.3,2.5-1.2
					c0.1-1.5,0.2-1.6,0.7-0.3c0.3,0.9,1.2,2,1.8,2.4c1.7,1.2,7.4,1,6.7-0.2c-0.3-0.5,0.3-0.7,1.5-0.4c1.1,0.3,3.5-0.4,5.2-1.4
					c3-1.9,3.1-1.9,1.5,0c-0.9,1.1-2.8,2.5-4.4,3.1C1563.7,491.8,1553.7,492.4,1553.7,491.4L1553.7,491.4z M1566,478.3
					c0.5-2.3,0.1-3.1-2.1-4.1c-2.3-1-3.1-0.9-4.9,0.9c-1.4,1.4-2.2,1.7-2.2,0.7c0-0.8,0.5-1.9,1.1-2.5c0.8-0.8,0.3-1.5-1.6-2.3
					c-2.2-1-3.2-0.8-5.7,1.2l-3.1,2.4l1.9-3c1.9-3,1.9-3-0.5-4c-1.5-0.6-3.3-0.5-4.7,0.2c-1.9,1-2,0.9-0.8-0.5
					c1.2-1.4,0.9-1.9-1.9-3c-4.1-1.7-3.6-2.7,0.6-1.1c2.3,0.9,3.3,0.8,3.9-0.2c0.7-1.1,0.9-1,0.9,0.3c0,1,1.2,2.3,2.7,3
					c2.3,1.1,2.7,1,2.7-0.6c0-1,0.5-2.6,1.1-3.5c0.8-1.2,1-1,0.5,1.1c-0.7,3.1,0.1,4.6,3.2,6.3c1.8,1,2.4,0.7,3.6-1.7
					c0.8-1.6,1.2-2,0.9-1c-1.4,5,4,8.6,7.2,4.7c1.8-2.3,1.8-2.3,1.3,0.7c-0.5,2.5-0.1,3.2,2.5,4.2c1.7,0.7,2.5,1.5,1.8,1.7
					c-0.7,0.3-2.3,0-3.5-0.7c-1.8-1-2.5-0.7-4,1.3l-1.8,2.5L1566,478.3z M1578.2,467c-0.4-2.2-1.4-3.8-2.3-3.8c-0.9,0-1.3-0.6-1-1.4
					c0.8-2.1-3.4-5.5-6.1-4.8c-1.8,0.5-2,0.3-1.1-0.9c1.6-1.9-2.4-4.2-6.1-3.5c-1.4,0.3-2.3,0.1-2-0.4c1-1.6-3-2.4-6.3-1.2
					c-1.7,0.6-2.8,0.7-2.5,0.2c0.3-0.5-0.3-1-1.4-1.1c-1.2-0.1-1.4-0.3-0.6-0.6c0.8-0.3,1-1.1,0.6-1.7c-0.5-0.8-0.1-0.9,1.4-0.3
					c4.1,1.7,9.2,2,9.2,0.4c0-1,0.4-0.8,1.1,0.4c1.8,3.2,7.4,5.6,9.3,4c1.3-1,1.5-1,1,0.2c-0.8,2.1,4.7,8.6,6.6,7.8
					c1-0.4,1.3-0.1,0.9,1.1c-0.3,0.9-0.1,3.4,0.4,5.6c0.6,2.1,0.7,3.9,0.2,3.9C1579.3,470.8,1578.6,469.1,1578.2,467L1578.2,467z
					 M1506.9,462c0-2.1-7.8-4.9-10-3.7c-1.2,0.7-1.2,0.5-0.2-0.5c1-1.1,0.6-2-1.9-4c-1.7-1.5-4.1-2.7-5.3-2.8
					c-1.7-0.1-1.9-0.5-1-1.6c0.9-1.1,0.5-2.4-1.5-5.2c-2-2.8-2.5-4.7-2.2-7.3l0.5-3.5l1.3,4.4c0.9,3,1.5,3.8,2,2.7
					c0.5-1.2,0.7-1.1,0.6,0.5c-0.1,1.2,0,2.7,0,3.4c0.2,2,7.9,10.2,9.5,10.2c0.8,0,1.5,0.4,1.5,0.9c0,1.6,5.9,3.8,6.3,2.4
					c0.3-0.8,0.9-0.5,1.8,0.6c1.1,1.6,1.9,1.7,4.8,0.7c1.9-0.7,3.4-0.8,3.4-0.2c0,0.5-1.8,1.3-4.1,1.7c-2.2,0.4-4.4,1.3-4.9,2
					C1507.2,463.3,1506.9,463.1,1506.9,462L1506.9,462z M1519.9,450.6c-0.9-1-2.5-1.5-4-1.3c-2.6,0.5-3.5-0.8-1.2-1.7
					c0.9-0.4,0.6-1.3-1-3c-2.1-2.2-2.8-2.3-5.4-1.2l-3,1.3l2.4-2.1c2.3-2,2.3-2.1,0.5-3.8c-2.3-2.1-5.7-2.3-7.5-0.5
					c-1,1-1.3,1-1.3-0.1c0-0.8,1-1.7,2.2-2c3.1-0.8,2.1-2.8-2.2-4.2c-2.2-0.7-3-1.4-2.1-1.8c1.2-0.4,1-1.2-1.2-3.6l-2.7-3.1l3.4,2.4
					c2.5,1.7,3.6,2,4,1c0.3-0.8,0.6-0.3,0.6,0.9c0,1.3,1,3.1,2.1,4.1c1.9,1.7,2.1,1.7,2.6-0.4c0.3-1.2,1.2-2.2,2-2.2
					c1.1,0,1.1,0.3,0.1,1.3c-1.8,1.8-1.6,4.1,0.5,6.5c1.7,1.9,1.9,1.9,3.9,0.1c2-1.8,2-1.8,1,1c-0.9,2.4-0.6,3.2,1.6,5.3
					c1.5,1.4,2.6,2,2.6,1.3c0-0.6,0.7-1.4,1.6-1.8c1.3-0.5,1.4-0.3,0.3,1.5c-1.1,1.7-0.9,2.5,0.7,4.3c1.1,1.2,1.8,2.5,1.5,2.8
					C1521.6,452.1,1520.7,451.6,1519.9,450.6L1519.9,450.6z M1529,443.5c1.1-2.9,1-3.6-0.7-4.8c-1.4-1.1-1.6-1.6-0.5-1.9
					c2.1-0.8-1.4-6.8-3.9-6.6c-1.5,0.1-1.6-0.1-0.5-1.5c1.1-1.4,0.9-2-1.2-3.7c-1.4-1.1-3.2-2.1-4.1-2.1c-0.9,0-1.3-0.5-0.9-1
					c1-1.6-3.4-3.4-6.7-2.8c-2.4,0.5-2.6,0.4-0.8-0.4c2.3-1.1,2.4-1-5.4-2.7c-1.3-0.3-0.7-0.5,1.4-0.6c2-0.1,3.5-0.7,3.6-1.5
					c0-0.9,0.3-1,0.8-0.2c0.4,0.6,2.4,2.3,4.5,3.7c2.7,1.9,3.9,2.2,4.5,1.2c0.5-0.9,1.3-0.2,2.2,1.9c1.7,4.2,5,7.1,6.7,6.1
					c0.8-0.5,1-0.4,0.6,0.4c-0.4,0.7-0.2,3.2,0.5,5.5c1,3.2,1.7,4.1,3,3.7c1.4-0.5,1.5-0.3,0.4,0.9c-0.7,0.8-1.4,2.6-1.4,3.9
					c0,3-1.1,5.9-2.2,5.9C1528.1,446.9,1528.3,445.4,1529,443.5L1529,443.5z M1470.5,407.9c-0.8-1.2-5.9-2.3-6.4-1.4
					c-0.2,0.4-0.3,0.2-0.2-0.4c0.3-1.6-6.9-7.4-8.1-6.6c-2,1.2-1.2-0.1,1.7-2.8c2.7-2.5,2.8-2.5,2.2-0.4c-0.5,1.6,0.1,3,2,4.8
					c1.5,1.4,2.7,2.1,2.7,1.6s0.6-0.1,1.4,0.8c0.7,1,3,1.9,5.1,2.1c3.2,0.3,3.5,0.5,2,1.7C1471.9,408.3,1470.9,408.5,1470.5,407.9
					L1470.5,407.9z M1468.6,401.4c-1.4-1.7-1.3-1.8,0.4-0.4c1,0.8,1.9,1.7,1.9,1.9C1470.9,403.8,1470,403.3,1468.6,401.4
					L1468.6,401.4z M1478.7,399.5c-1-2.2-1.8-2.6-3.7-2.1c-2.2,0.6-2.3,0.6-0.5-0.9c2.4-1.9,2.4-3.4,0.1-5.7
					c-1.2-1.2-2.8-1.6-4.6-1.2l-2.8,0.6l2.7-1.3c1.5-0.7,2.9-1.4,3.1-1.6c1.2-0.9-3.5-5.8-5.6-5.8c-1.9,0-2.1-0.2-0.8-1
					c0.9-0.6,2-0.8,2.4-0.5c1.2,0.8-0.3-3.2-1.7-4.5c-0.7-0.6-1.3-1.8-1.3-2.7c-0.1-0.9-0.4-2.9-0.9-4.4c-0.6-2.1-0.3-2,1.2,0.8
					c1.6,2.9,2.2,3.3,3.4,2.2c1.2-1.1,1.3-1,0.3,0.8c-0.8,1.6-0.7,2.9,0.2,4.7c1.2,2.2,1.5,2.3,2.8,0.8c0.8-0.9,1.9-1.7,2.4-1.7
					c0.6,0,0.3,0.8-0.7,1.7c-1.8,1.8-2.1,4.1-0.7,7.5c0.6,1.4,1.1,1.7,1.6,0.8c0.4-0.7,1.6-1.3,2.6-1.3c1.5,0,1.4,0.2-0.3,1.5
					c-1.7,1.3-1.9,2-1,4.6c0.8,2.2,1.7,3,3.2,2.8c1.7-0.3,1.8-0.1,0.5,0.8c-1.3,0.9-1.4,1.7-0.4,4.4
					C1481.9,403,1480.5,403.4,1478.7,399.5L1478.7,399.5z M1490.4,396.9c1.6-2.8,1.9-4.1,1-5.2c-0.8-1-0.8-1.4,0-1.4
					c1.8,0,1.5-6.1-0.5-7.7c-1.1-1-1.3-1.6-0.5-2.1c1.4-0.9-0.8-6.5-2.5-6.5c-0.6,0-0.8-0.3-0.4-0.7c1-1-3.6-5.8-5.5-5.8
					c-0.8,0-1.3-0.5-1.2-1c0.1-0.6-0.7-1.8-1.9-2.8c-2.1-1.7-2.1-1.8,0.2-0.6c3.1,1.5,3.9,1.4,3.1-0.2c-0.4-0.7,0-0.5,0.8,0.7
					c4.6,6.6,5.4,7.3,7,6c1.3-1,1.4-0.9,0.8,0.6c-1,2.7,1.8,10.4,3.8,10.4c1.3,0,1.4,0.3,0.4,1.3c-1.6,1.6-1.7,9.6-0.2,9.6
					c1.2,0,1.1,0.2-3.9,6l-2.8,3.3L1490.4,396.9z M1454.1,393.7c-0.9-1.8-2.6-3.9-3.6-4.5c-1.8-1.2-1.8-1.2,0-0.6
					c2,0.6,2-1.1-0.3-8.4c-0.5-1.7-0.5-2.8,0-2.4c0.5,0.3,1.5-0.8,2.1-2.4c1-2.7,1.1-2.6,0.6,1.4c-0.4,3.2-0.3,3.9,0.6,2.7
					c1.5-2.1,1.5-0.5,0,2.3c-1.2,2.3-0.4,6.8,1.1,5.9c0.5-0.3,0.7,0.4,0.4,1.5c-0.3,1.1,0,3.1,0.7,4.4c0.7,1.3,1,2.6,0.7,2.9
					C1456.1,396.8,1455.1,395.5,1454.1,393.7L1454.1,393.7z M1447.6,341.2c-1.8-1.7-3.7-2.8-4.4-2.4c-0.6,0.4-0.6,0,0.1-0.7
					c1.4-1.5,0.2-5.5-2.7-9c-1.2-1.4-1.2-1.9-0.2-1.9c1,0,1.2-1.4,0.9-4.6c-0.2-2.6,0.2-5.8,1-7.3c0.8-1.5,1.4-4.1,1.4-5.8
					c0-1.8,0.5-2.8,1.1-2.4c0.6,0.4,2.1-0.4,3.4-1.8c1.9-2.1,1.8-1.9-0.2,1.2c-2.3,3.5-2.3,3.7-0.4,3c1.6-0.6,1.5-0.3-0.5,1.3
					c-1.5,1.1-2.8,3.5-3,5.2c-0.2,1.7-0.7,5-1,7.2c-0.5,3.1-0.3,4,0.8,3.7c0.8-0.2,1.1-0.2,0.7,0.1c-1.1,0.6-1,5.9,0.2,7.8
					c0.5,0.8,1.4,1.2,2.1,0.8c0.7-0.4,0.9,0.2,0.6,1.4c-0.4,1.5,0.4,2.7,2.9,4.2c2.2,1.3,2.9,2.3,2,2.6
					C1451.4,344,1449.4,342.9,1447.6,341.2L1447.6,341.2z M1471.3,342.9c1.7-1,3.4-2.7,3.9-3.9c0.8-2.1,0.8-2.1,2.9,0.3
					c1.2,1.3,1.5,2,0.7,1.6c-0.8-0.5-2.2-0.1-3.3,0.8c-1,0.9-3.1,1.9-4.6,2.3C1468.3,344.6,1468.4,344.6,1471.3,342.9L1471.3,342.9z
					 M1460.1,340.4c0-2.7-0.6-3.8-2.5-4.6c-2.4-1-2.4-1,0.4-1.1c2.4-0.1,2.8-0.5,2.6-3.3c-0.2-3.6-0.1-3.4-3.3-5.3
					c-2-1.2-1.9-1.3,0.8-0.7c2.7,0.6,3,0.4,3-2.6c0-2.4-0.8-3.7-3-5l-3-1.7l3,0.6c2.7,0.6,3,0.3,3-2.6c0-1.8-0.4-3.4-0.8-3.7
					c-0.4-0.3-0.2-0.3,0.5-0.1c0.9,0.2,1.4-1.1,1.5-3.7l0.2-4l0.4,4c0.3,3.2,0.8,3.9,2.3,3.5c1.6-0.5,1.6-0.4-0.1,0.7
					c-1,0.7-1.9,2.4-1.9,3.9c0,2.2,0.6,2.7,3,2.8c2.3,0.1,2.5,0.3,0.8,0.6c-2.8,0.7-3.4,1.3-4.2,4.9c-0.6,2.7-0.4,3,2.3,3.1l3,0.1
					l-3,1.1c-2.3,0.9-3,1.8-3,4.3c0,2.3,0.5,3.2,1.9,3.2c1.8,0,1.8,0.1,0,1.1c-1,0.6-1.9,1.9-1.9,3c0,1-0.5,2.6-1.1,3.5
					C1460.3,343.6,1460.1,343.2,1460.1,340.4L1460.1,340.4z M1477.5,337.6c0-0.3,0.6-1.8,1.2-3.3c1-2.2,0.9-3.1-0.3-4.6
					c-1.3-1.6-1.3-1.8,0.4-1.2c1.7,0.6,1.9-0.1,1.8-6.4c-0.1-5.8-0.5-7.5-2.4-9.3c-2.1-2-2.1-2.1-0.2-1.4c2,0.8,2,0.7,0.3-1.8
					c-2.5-3.6-2.3-4.8,0.5-2c2.4,2.4,2.9,3.9,3.1,9c0.1,2.4,0.5,3,1.9,2.4c1.4-0.6,1.5-0.4,0.5,0.9c-0.7,0.9-1.4,3.8-1.6,6.6
					c-0.2,2.8-0.9,5.6-1.6,6.3c-0.7,0.7-1.3,1.9-1.3,2.6c0,0.7-0.5,1.7-1.1,2C1478,337.9,1477.5,337.9,1477.5,337.6L1477.5,337.6z"
					/>
			</g>
		</g>
	</g>
</g>
</svg>
