<?xml version="1.0" encoding="utf-8"?>
<!-- Generator: Adobe Illustrator 27.6.1, SVG Export Plug-In . SVG Version: 6.00 Build 0)  -->
<svg version="1.1" id="Camada_1" xmlns="http://www.w3.org/2000/svg" xmlns:xlink="http://www.w3.org/1999/xlink" x="0px" y="0px"
	 viewBox="0 0 720 504" style="enable-background:new 0 0 720 504;" xml:space="preserve">
<style type="text/css">
	.st0{fill:#009B3A;}
	.st1{fill:#FFFFFF;}
	.st2{fill:#FEDF00;}
	.st3{fill-rule:evenodd;clip-rule:evenodd;fill:#231F20;}
	.st4{fill:none;stroke:#231F20;stroke-width:8.3338;stroke-miterlimit:22.9256;}
	.st5{fill-rule:evenodd;clip-rule:evenodd;fill:#D2CB54;}
	.st6{fill-rule:evenodd;clip-rule:evenodd;fill:#FFF200;}
	.st7{fill:none;stroke:#231F20;stroke-width:8.3338;stroke-linecap:round;stroke-linejoin:round;stroke-miterlimit:22.9256;}
	.st8{fill-rule:evenodd;clip-rule:evenodd;fill:#00A650;}
	.st9{fill-rule:evenodd;clip-rule:evenodd;fill:#E39125;}
	.st10{fill:none;stroke:#231F20;stroke-width:16.6677;stroke-miterlimit:22.9256;}
	.st11{fill-rule:evenodd;clip-rule:evenodd;fill:#229845;}
	.st12{fill:none;stroke:#231F20;stroke-width:16.5354;stroke-miterlimit:22.9256;}
	.st13{fill:none;stroke:#231F20;stroke-width:1.8;stroke-miterlimit:22.9256;}
	.st14{fill-rule:evenodd;clip-rule:evenodd;fill:#D3D2D2;}
	.st15{fill-rule:evenodd;clip-rule:evenodd;fill:#FFFFFF;}
	.st16{fill-rule:evenodd;clip-rule:evenodd;fill:#2498DC;}
	.st17{fill:none;stroke:#231F20;stroke-width:9.4488;stroke-linecap:round;stroke-linejoin:round;stroke-miterlimit:22.9256;}
	.st18{fill-rule:evenodd;clip-rule:evenodd;fill:#99D420;}
</style>
<g id="g6874" transform="matrix(3.56828, 0, 0, 3.56829, 1.8779e-05, 6.83005e-07)">
	<polygon id="_25731120" class="st0" points="0,0 201.8,0 201.8,70.8 0,70.8 	"/>
	<polygon id="_25730248" class="st1" points="0,70.8 201.8,70.8 201.8,141.6 0,141.6 	"/>
	<g id="g7507" transform="translate(4.99849e-07, -0.592668)">
		<path id="_25742264" class="st2" d="M139,30.2v61c0,9.1-8,16.5-17.7,16.5c-5.3,0-10.6,0-15.9,0c-2.4,0.9-4,2.9-4.4,4.8
			c-0.2-2.1-1.6-3.8-4.2-4.8H80.5c-9.7,0-17.7-7.4-17.7-16.5v-61L139,30.2L139,30.2z"/>
		<g id="g7498">
			<g id="g3366" transform="matrix(1, 0, 0, 1.03848, 56.1448, -157.473)">
			</g>
		</g>
		<g id="g5499">
			<g id="g7312" transform="translate(-0.0576617, 280.247)">
			</g>
		</g>
		<g id="g5363" transform="translate(-0.4056)">
			<g id="g5251" transform="matrix(0.319013, -0.178337, 0.178337, 0.319013, 121.439, 73.5817)">
			</g>
			<g id="g5289" transform="matrix(-0.319013, -0.178337, -0.178337, 0.319013, 131.595, 73.5817)">
			</g>
		</g>
		<g id="g2709" transform="matrix(0.259298, 0, 0, 0.279325, 48.9348, 2.41406)">
		</g>
		<g id="g2783" transform="matrix(0.259298, 0, 0, 0.279325, 48.9348, 2.41406)">
		</g>
		<g id="g51197" transform="translate(0, 280.247)">
			<g id="g185" transform="translate(0.176916, -282.439)">
			</g>
			<g id="g205" transform="translate(0.176916, -282.439)">
			</g>
			<g id="g225" transform="translate(0.176916, -282.439)">
			</g>
			<g id="g243" transform="translate(0.176916, -282.439)">
			</g>
			<g id="g249" transform="translate(0.176916, -282.253)">
			</g>
			<g id="g49609" transform="matrix(0.593946, 0, 0, 0.593946, 85.5966, -78.9195)">
			</g>
		</g>
	</g>
</g>
<g id="g12" transform="matrix(1.3094139,0,0,-1.2958953,244.90288,503.18864)">
	<g id="g14" transform="scale(0.12,0.12)">
		<path id="path18" class="st3" d="M212.5,2035.7c17.3,0,31.4-19.1,31.4-42.7c0-23.6-14.1-42.7-31.4-42.7
			c-17.3,0-31.4,19.1-31.4,42.7C181.1,2016.5,195.2,2035.7,212.5,2035.7"/>
		<path id="path20" class="st4" d="M212.5,2035.7c17.3,0,31.4-19.1,31.4-42.7c0-23.6-14.1-42.7-31.4-42.7
			c-17.3,0-31.4,19.1-31.4,42.7C181.1,2016.5,195.2,2035.7,212.5,2035.7z"/>
		<path id="path22" class="st5" d="M175.2,1943c17.3,0,31.4-19.1,31.4-42.7c0-23.6-14.1-42.7-31.4-42.7c-17.3,0-31.4,19.1-31.4,42.7
			C143.8,1923.9,157.8,1943,175.2,1943"/>
		<path id="path24" class="st4" d="M175.2,1943c17.3,0,31.4-19.1,31.4-42.7c0-23.6-14.1-42.7-31.4-42.7c-17.3,0-31.4,19.1-31.4,42.7
			C143.8,1923.9,157.8,1943,175.2,1943z"/>
		<path id="path26" class="st6" d="M906.9,1124.4c38-3,62.3,5.8,101,55.6c31.5,40.6,40.7,83.1,88.1,110c49,27.8,109,30.3,155.8,21.4
			c69.3-13.2,125-71.2,120.1-144.5c-5.6-84.7-108.3-136.4-203.8-93.4c23.3,2.4,52.2,30.1,81.6,59.7c63-12,125,96.2,42.2,146.9
			c-49.7,22.3-94.6,27.2-132,3.3c-24.3-15.5-29.2-32.7-42.7-56.5c-40.7-71.4-85.7-128.7-184.5-129.7c8.1,13.5,0.9,22.1-15.1,25
			C909.5,1122.9,915.1,1123.8,906.9,1124.4"/>
		<path id="path28" class="st7" d="M906.9,1124.4c38-3,62.3,5.8,101,55.6c31.5,40.6,40.7,83.1,88.1,110c49,27.8,109,30.3,155.8,21.4
			c69.3-13.2,125-71.2,120.1-144.5c-5.6-84.7-108.3-136.4-203.8-93.4c23.3,2.4,52.2,30.1,81.6,59.7c63-12,125,96.2,42.2,146.9
			c-49.7,22.3-94.6,27.2-132,3.3c-24.3-15.5-29.2-32.7-42.7-56.5c-40.7-71.4-85.7-128.7-184.5-129.7c8.1,13.5,0.9,22.1-15.1,25
			C909.5,1122.9,915.1,1123.8,906.9,1124.4L906.9,1124.4z"/>
		<path id="path30" class="st8" d="M1200.4,1088.4c41.8-6.3,81.2-6,111.9,21.2c56.2,49.8,56.6,134.2-10.4,175.5
			c-27.2,16.8-63.8,24.2-108.1,24c-13.6-0.4-26.6-1.6-39.4-3.7c-9.8-1.6-19.4-3.7-29.1-6.3c-29.9-8-51.3-24-69-50
			c-15.4-22.6-26-48-46.7-70.8c-43.5-47.9-59.4-56-91.8-54.6c8.3-0.6-2.8,0.1,5.5-0.5c9.8-3.8,14-11.2,12.4-20.4
			c124.8,2.8,129.5,178.3,246.9,191.4c32.4,10.5,69.3,3.9,109.3-14.1c82.8-50.7,20.7-158.9-42.2-146.9
			C1232.9,1116.1,1216.1,1099.7,1200.4,1088.4"/>
		<path id="path32" class="st9" d="M1176.8,1810.8c1.3-0.5,2.6-1,3.8-1.5c-2.6-194.3-0.5-395.4-3.1-589.7
			c0.9,25,103.8,111.8,104.2,83.5c8.7,3.8-20.2,509.3-25.3,509.3C1229.9,1811.8,1203.3,1811.3,1176.8,1810.8"/>
		<path id="path34" class="st10" d="M1176.8,1810.8c1.3-0.5,2.6-1,3.8-1.5c-2.6-194.3-0.5-395.4-3.1-589.7
			c0.9,25,103.8,111.8,104.2,83.5c8.7,3.8-20.2,509.3-25.3,509.3C1229.9,1811.8,1203.3,1811.3,1176.8,1810.8L1176.8,1810.8z"/>
		<path id="path36" class="st3" d="M1174.8,1271.2c6.4,47.8,14.6,43.6,24.5,6.5c-2.1,15.6-5.1,27.6-9,36.6c-6.2,14.3-7,6.6-10.9-7.7
			C1175.2,1291.3,1170.8,1271.6,1174.8,1271.2"/>
		<path id="path38" class="st3" d="M1216.6,1297.7c9.1,47.8,20.6,43.6,34.7,6.5c-3,15.6-7.2,27.6-12.7,36.6
			c-8.7,14.3-10,6.6-15.5-7.7C1217.1,1317.9,1211,1298.2,1216.6,1297.7"/>
		<path id="path40" class="st3" d="M1190.6,1319.1c9.1,47.8,20.6,43.6,34.7,6.5c-3,15.6-7.2,27.6-12.7,36.6
			c-8.7,14.3-10,6.6-15.5-7.7C1191.1,1339.3,1185,1319.6,1190.6,1319.1"/>
		<path id="path42" class="st3" d="M1240.8,1326.9c9.1,47.8,20.6,43.6,34.7,6.5c-3,15.6-7.2,27.6-12.7,36.6
			c-8.7,14.3-10,6.6-15.5-7.7C1241.3,1347.1,1235.1,1327.4,1240.8,1326.9"/>
		<path id="path44" class="st3" d="M1216.6,1367.1c9.1,47.8,20.6,43.6,34.7,6.5c-3,15.6-7.2,27.6-12.7,36.6
			c-8.7,14.3-10,6.6-15.5-7.7C1217.1,1387.3,1211,1367.6,1216.6,1367.1"/>
		<path id="path46" class="st3" d="M1190.6,1388.5c9.1,47.8,20.6,43.6,34.7,6.5c-3,15.6-7.2,27.6-12.7,36.6
			c-8.7,14.3-10,6.6-15.5-7.7C1191.1,1408.7,1185,1389,1190.6,1388.5"/>
		<path id="path48" class="st3" d="M1240.8,1396.3c9.1,47.8,20.6,43.6,34.7,6.5c-3,15.6-7.2,27.6-12.7,36.6
			c-8.7,14.3-10,6.6-15.5-7.7C1241.3,1416.4,1235.1,1396.8,1240.8,1396.3"/>
		<path id="path50" class="st3" d="M1216.6,1436.5c9.1,47.8,20.6,43.6,34.7,6.5c-3,15.6-7.2,27.6-12.7,36.6
			c-8.7,14.3-10,6.6-15.5-7.7C1217.1,1456.6,1211,1437,1216.6,1436.5"/>
		<path id="path52" class="st3" d="M1190.6,1457.9c9.1,47.8,20.6,43.6,34.7,6.5c-3,15.6-7.2,27.6-12.7,36.6
			c-8.7,14.3-10,6.6-15.5-7.7C1191.1,1478,1185,1458.4,1190.6,1457.9"/>
		<path id="path54" class="st3" d="M1240.8,1465.7c9.1,47.8,20.6,43.6,34.7,6.5c-3,15.6-7.2,27.6-12.7,36.6
			c-8.7,14.3-10,6.6-15.5-7.7C1241.3,1485.8,1235.1,1466.2,1240.8,1465.7"/>
		<path id="path56" class="st3" d="M1214,1499.4c8.2,43.8,18.7,39.9,31.5,5.9c-2.7,14.3-6.6,25.3-11.6,33.6
			c-7.9,13.1-9.1,6.1-14.1-7.1C1214.5,1517.9,1208.9,1499.9,1214,1499.4"/>
		<path id="path58" class="st3" d="M1190.4,1519c8.2,43.8,18.7,39.9,31.5,5.9c-2.7,14.3-6.6,25.3-11.6,33.6c-7.9,13.1-9,6.1-14.1-7
			C1190.9,1537.5,1185.3,1519.5,1190.4,1519"/>
		<path id="path60" class="st3" d="M1235.9,1526.2c8.2,43.8,18.7,39.9,31.5,5.9c-2.7,14.3-6.6,25.3-11.6,33.6
			c-7.9,13.1-9,6.1-14.1-7C1236.4,1544.6,1230.8,1526.6,1235.9,1526.2"/>
		<path id="path62" class="st3" d="M1213.2,1550c8,45.4,18.1,41.4,30.5,6.2c-2.6,14.8-6.3,26.2-11.2,34.8
			c-7.7,13.6-8.8,6.3-13.6-7.3C1213.6,1569.1,1208.2,1550.4,1213.2,1550"/>
		<path id="path64" class="st3" d="M1190.3,1570.3c8,45.4,18.1,41.4,30.5,6.2c-2.6,14.8-6.3,26.2-11.2,34.8
			c-7.7,13.6-8.8,6.3-13.6-7.3C1190.8,1589.4,1185.4,1570.8,1190.3,1570.3"/>
		<path id="path66" class="st3" d="M1234.4,1577.7c8,45.4,18.1,41.4,30.5,6.2c-2.6,14.8-6.3,26.2-11.2,34.8
			c-7.7,13.6-8.8,6.3-13.6-7.3C1234.9,1596.8,1229.5,1578.1,1234.4,1577.7"/>
		<path id="path68" class="st3" d="M1211.6,1599.9c7.5,44.2,17,40.3,28.5,6c-2.4,14.5-5.9,25.5-10.5,33.9
			c-7.2,13.2-8.2,6.1-12.7-7.1C1212,1618.5,1206.9,1600.4,1211.6,1599.9"/>
		<path id="path70" class="st3" d="M1190.2,1619.7c7.5,44.2,17,40.3,28.5,6c-2.4,14.5-5.9,25.5-10.5,33.9
			c-7.2,13.2-8.2,6.1-12.7-7.1C1190.6,1638.3,1185.6,1620.1,1190.2,1619.7"/>
		<path id="path72" class="st3" d="M1231.4,1626.9c7.5,44.2,17,40.3,28.5,6c-2.4,14.5-5.9,25.5-10.5,33.9
			c-7.2,13.3-8.2,6.1-12.7-7.1C1231.9,1645.5,1226.8,1627.3,1231.4,1626.9"/>
		<path id="path74" class="st3" d="M1218,1664.1c6.8,36.4,15.4,33.2,25.8,4.9c-2.2,11.9-5.4,21-9.5,27.9c-6.5,10.9-7.4,5.1-11.5-5.9
			C1218.4,1679.5,1213.9,1664.5,1218,1664.1"/>
		<path id="path76" class="st3" d="M1198.7,1680.5c6.8,36.4,15.3,33.2,25.8,4.9c-2.2,11.9-5.4,21-9.5,27.9
			c-6.5,10.9-7.4,5.1-11.5-5.9C1199.1,1695.8,1194.5,1680.8,1198.7,1680.5"/>
		<path id="path78" class="st3" d="M1236,1686.4c6.8,36.4,15.4,33.2,25.8,4.9c-2.2,11.9-5.4,21-9.5,27.9c-6.5,10.9-7.4,5.1-11.5-5.9
			C1236.4,1701.7,1231.8,1686.7,1236,1686.4"/>
		<path id="path80" class="st3" d="M1174.3,1351.6c6.9,39.1,15.6,35.7,26.2,5.3c-2.2,12.8-5.4,22.6-9.6,30
			c-6.6,11.7-7.5,5.4-11.7-6.3C1174.7,1368,1170.1,1352,1174.3,1351.6"/>
		<path id="path82" class="st3" d="M1174.3,1421c6.9,39.1,15.6,35.7,26.2,5.3c-2.2,12.8-5.4,22.6-9.6,30c-6.6,11.7-7.5,5.4-11.7-6.3
			C1174.7,1437.4,1170.1,1421.3,1174.3,1421"/>
		<path id="path84" class="st3" d="M1174.3,1483.2c6.9,39.1,15.6,35.7,26.2,5.3c-2.2,12.8-5.4,22.6-9.6,30
			c-6.6,11.7-7.5,5.4-11.7-6.3C1174.7,1499.7,1170.1,1483.6,1174.3,1483.2"/>
		<path id="path86" class="st3" d="M1177.8,1541.6c5.9,39.1,13.5,35.7,22.7,5.3c-2,12.8-4.7,22.6-8.3,30c-5.7,11.7-6.5,5.4-10.1-6.3
			C1178.1,1558,1174.1,1542,1177.8,1541.6"/>
		<path id="path88" class="st3" d="M1179.5,1592.8c5.5,39.1,12.5,35.7,21,5.3c-1.8,12.8-4.4,22.6-7.7,30c-5.3,11.7-6,5.4-9.4-6.3
			C1179.9,1609.3,1176.1,1593.2,1179.5,1592.8"/>
		<path id="path90" class="st3" d="M1182.4,1645.3c4.7,39.1,10.7,35.7,18,5.3c-1.5,12.8-3.8,22.6-6.6,30c-4.5,11.7-5.2,5.4-8.1-6.3
			C1182.7,1661.8,1179.5,1645.7,1182.4,1645.3"/>
		<path id="path92" class="st3" d="M1264,1349.6c6.4,47.8,14.6,43.6,24.5,6.5c-2.1,15.6-5.1,27.6-9,36.6c-6.1,14.3-7,6.6-10.9-7.7
			C1264.4,1369.8,1260,1350.1,1264,1349.6"/>
		<path id="path94" class="st3" d="M1260.3,1418.4c6.4,47.8,14.6,43.6,24.5,6.5c-2.1,15.6-5.1,27.6-9,36.6c-6.1,14.3-7,6.6-10.9-7.7
			C1260.6,1438.5,1256.3,1418.8,1260.3,1418.4"/>
		<path id="path96" class="st3" d="M1263.9,1496.2c3.5,47.8,8,43.6,13.4,6.5c-1.1,15.6-2.8,27.6-4.9,36.6c-3.4,14.3-3.8,6.6-6-7.7
			C1264.1,1516.3,1261.7,1496.6,1263.9,1496.2"/>
		<path id="path98" class="st3" d="M1260.2,1547.4c3.5,47.8,8,43.6,13.4,6.5c-1.2,15.6-2.8,27.6-4.9,36.6c-3.4,14.3-3.8,6.6-6-7.7
			C1260.4,1567.5,1258,1547.9,1260.2,1547.4"/>
		<path id="path100" class="st3" d="M1260.2,1601.9c3.5,47.8,8,43.6,13.4,6.5c-1.2,15.6-2.8,27.6-4.9,36.6c-3.4,14.3-3.8,6.6-6-7.7
			C1260.4,1622,1258,1602.3,1260.2,1601.9"/>
		<path id="path102" class="st3" d="M1256.5,1646.6c3.5,47.8,8,43.6,13.4,6.5c-1.2,15.6-2.8,27.6-4.9,36.6c-3.4,14.3-3.8,6.6-6-7.7
			C1256.7,1666.7,1254.3,1647.1,1256.5,1646.6"/>
		<path id="path104" class="st3" d="M1215.9,1703c6.3,37.4,14.4,34.1,24.2,5.1c-2.1,12.2-5,21.6-8.9,28.7c-6.1,11.2-7,5.2-10.8-6
			C1216.3,1718.8,1212,1703.4,1215.9,1703"/>
		<path id="path106" class="st3" d="M1215.9,1747.1c6.3,37.4,14.4,34.1,24.2,5.1c-2.1,12.2-5,21.6-8.9,28.7c-6.1,11.2-7,5.2-10.8-6
			C1216.3,1762.9,1212,1747.5,1215.9,1747.1"/>
		<path id="path108" class="st3" d="M1191.2,1718.6c6.3,37.4,14.4,34.1,24.2,5.1c-2.1,12.2-5,21.6-8.9,28.7c-6.1,11.2-7,5.2-10.8-6
			C1191.5,1734.4,1187.2,1719,1191.2,1718.6"/>
		<path id="path110" class="st3" d="M1235.1,1718.6c6.3,37.4,14.4,34.1,24.2,5.1c-2.1,12.2-5,21.6-8.9,28.7
			c-6.1,11.2-6.9,5.2-10.8-6C1235.5,1734.4,1231.2,1719,1235.1,1718.6"/>
		<path id="path112" class="st5" d="M257.3,1936.4c17.3,0,31.4-19.1,31.4-42.7s-14.1-42.7-31.4-42.7c-17.3,0-31.4,19.1-31.4,42.7
			S239.9,1936.4,257.3,1936.4"/>
		<path id="path114" class="st4" d="M257.3,1936.4c17.3,0,31.4-19.1,31.4-42.7s-14.1-42.7-31.4-42.7c-17.3,0-31.4,19.1-31.4,42.7
			S239.9,1936.4,257.3,1936.4z"/>
		<path id="path116" class="st5" d="M205.2,1912.1c17.3,0,31.4-19.1,31.4-42.7c0-23.6-14.1-42.7-31.4-42.7
			c-17.3,0-31.4,19.1-31.4,42.7C173.8,1892.9,187.8,1912.1,205.2,1912.1"/>
		<path id="path118" class="st4" d="M205.2,1912.1c17.3,0,31.4-19.1,31.4-42.7c0-23.6-14.1-42.7-31.4-42.7
			c-17.3,0-31.4,19.1-31.4,42.7C173.8,1892.9,187.8,1912.1,205.2,1912.1z"/>
		<path id="path120" class="st3" d="M215.7,1981.2c17.3,0,31.4-19.1,31.4-42.7s-14.1-42.7-31.4-42.7c-17.3,0-31.4,19.1-31.4,42.7
			S198.4,1981.2,215.7,1981.2"/>
		<path id="path122" class="st4" d="M215.7,1981.2c17.3,0,31.4-19.1,31.4-42.7s-14.1-42.7-31.4-42.7c-17.3,0-31.4,19.1-31.4,42.7
			S198.4,1981.2,215.7,1981.2z"/>
		<path id="path124" class="st3" d="M181.4,1820.3c-0.1-3,31.3-9.3,32.8-7.1c-11.2-2.7-22.4-3.9-33.6-3
			C180.9,1813.6,181.1,1817,181.4,1820.3"/>
		<path id="path126" class="st10" d="M1294.5,2032.6l102.3,110.5l-13.5-45.9l51.9,42.1l-34.6-45.1l58.6,33.1l-43.6-42.9l72.2,35.3
			l-57.9-47.4l69.2,25.6l-61.7-40.6l82.7,21.8l-76-34.6l96.3,17.3l-84.2-34.6l78.2,6.8l-78.2-20.3l77.4-3l-79-15.8l63.9-9.8
			l-63.2-7.5l59.4-15l-70.7-2.2l48.9-21.8l-54.9,3.8l41.4-33.1l-185,39.1V2032.6L1294.5,2032.6z"/>
		<path id="path128" class="st11" d="M1294.5,2032.6l102.3,110.5l-13.5-45.9l51.9,42.1l-34.6-45.1l58.6,33.1l-43.6-42.9l72.2,35.3
			l-57.9-47.4l69.2,25.6l-61.7-40.6l82.7,21.8l-76-34.6l96.3,17.3l-84.2-34.6l78.2,6.8l-78.2-20.3l77.4-3l-79-15.8l63.9-9.8
			l-63.2-7.5l59.4-15l-70.7-2.2l48.9-21.8l-54.9,3.8l41.4-33.1l-185,39.1V2032.6"/>
		<path id="path130" class="st10" d="M1283.1,2047.1l68.5,134.1l-38.4-28.5l21.6,63.2l-30.4-48l10.8,66.5l-25.2-55.7l8.3,79.9
			l-24.5-70.7l0.1,73.7l-16.8-71.9l-8.1,85.1l-6.3-83.2l-17,96.3l-3.4-91l-20.6,75.7l7.9-80.4l-29.5,71.7l12.4-79.6l-31.2,56.6
			l14.7-61.9l-34.6,50.6l22.3-67.1l-37.3,38.4l22.5-50.2l-45.3,27.4l100.5-160.1l29-18L1283.1,2047.1L1283.1,2047.1z"/>
		<path id="path132" class="st11" d="M1283.1,2047.1l68.5,134.1l-38.4-28.5l21.6,63.2l-30.4-48l10.8,66.5l-25.2-55.7l8.3,79.9
			l-24.5-70.7l0.1,73.7l-16.8-71.9l-8.1,85.1l-6.3-83.2l-17,96.3l-3.4-91l-20.6,75.7l7.9-80.4l-29.5,71.7l12.4-79.6l-31.2,56.6
			l14.7-61.9l-34.6,50.6l22.3-67.1l-37.3,38.4l22.5-50.2l-45.3,27.4l100.5-160.1l29-18L1283.1,2047.1"/>
		<path id="path134" class="st10" d="M1336.1,1916.7l139.3-57.1l-47.7-3.4l57.6-33.9L1431,1839l51.5-43.4l-55.4,25.9l58.4-55.2
			l-64.6,37.7l48.2-55.9l-59.6,43.5l49.4-69.8l-59,59l49.9-84.1l-61.9,66.8l33.7-70.9l-46.4,66.2l24.3-73.6l-42.4,68.4l13.2-63.3
			l-29.1,56.5l6.7-60.9l-26.8,65.4l-3.3-53.4l-15.7,52.7l-16.5-50.3l-28.1,187l2.7,63L1336.1,1916.7L1336.1,1916.7z"/>
		<path id="path136" class="st11" d="M1336.1,1916.7l139.3-57.1l-47.7-3.4l57.6-33.9L1431,1839l51.5-43.4l-55.4,25.9l58.4-55.2
			l-64.6,37.7l48.2-55.9l-59.6,43.5l49.4-69.8l-59,59l49.9-84.1l-61.9,66.8l33.7-70.9l-46.4,66.2l24.3-73.6l-42.4,68.4l13.2-63.3
			l-29.1,56.5l6.7-60.9l-26.8,65.4l-3.3-53.4l-15.7,52.7l-16.5-50.3l-28.1,187l2.7,63L1336.1,1916.7"/>
		<path id="path138" class="st10" d="M1149.6,1917.7l-139.3-57.1l47.7-3.4l-57.6-33.9l54.4,16.6l-51.5-43.4l55.4,25.9l-58.4-55.2
			l64.6,37.7l-48.2-55.9l59.6,43.6l-49.4-69.8l59,59l-49.9-84.1l61.9,66.8l-33.7-70.9l46.4,66.1l-24.3-73.6l42.4,68.4l-13.2-63.3
			l29.1,56.5l-6.7-60.9l26.8,65.4l3.3-53.4l15.7,52.7l16.5-50.3l28.1,187l-10.6,65.7L1149.6,1917.7L1149.6,1917.7z"/>
		<path id="path140" class="st11" d="M1149.6,1917.7l-139.3-57.1l47.7-3.4l-57.6-33.9l54.4,16.6l-51.5-43.4l55.4,25.9l-58.4-55.2
			l64.6,37.7l-48.2-55.9l59.6,43.6l-49.4-69.8l59,59l-49.9-84.1l61.9,66.8l-33.7-70.9l46.4,66.1l-24.3-73.6l42.4,68.4l-13.2-63.3
			l29.1,56.5l-6.7-60.9l26.8,65.4l3.3-53.4l15.7,52.7l16.5-50.3l28.1,187l-10.6,65.7L1149.6,1917.7"/>
		<path id="path142" class="st10" d="M1162.4,2032.6l-102.3,110.5l13.5-45.9l-51.9,42.1l34.6-45.1l-58.6,33.1l43.6-42.9l-72.2,35.3
			l57.9-47.4l-69.2,25.6l61.7-40.6l-82.7,21.8l75.9-34.6l-96.2,17.3l84.2-34.6l-78.2,6.8l78.2-20.3l-77.5-3l79-15.8l-63.9-9.8
			l63.2-7.5l-59.4-15l70.7-2.3l-48.9-21.8l54.9,3.8l-41.4-33.1l185,39.1l63.8,26.9L1162.4,2032.6L1162.4,2032.6z"/>
		<path id="path144" class="st11" d="M1162.4,2032.6l-102.3,110.5l13.5-45.9l-51.9,42.1l34.6-45.1l-58.6,33.1l43.6-42.9l-72.2,35.3
			l57.9-47.4l-69.2,25.6l61.7-40.6l-82.7,21.8l75.9-34.6l-96.2,17.3l84.2-34.6l-78.2,6.8l78.2-20.3l-77.5-3l79-15.8l-63.9-9.8
			l63.2-7.5l-59.4-15l70.7-2.3l-48.9-21.8l54.9,3.8l-41.4-33.1l185,39.1l63.8,26.9L1162.4,2032.6"/>
		<path id="path146" class="st10" d="M1193.1,1972.4l-65.6,14.9l16.6-13.5l-29.7,2.4l24.1-7.9l-30-2.7l26.9-4.7l-35.5-5.2l33.3-2.8
			l-31.9-8.1l33,0.6l-36-12.9l36.7,6.5l-39.8-18l39.7,8.6l-30.5-17.3l33.9,12.3l-27.7-20.7l33.1,14.1l-21.1-19.7l25.1,13.2
			l-18.1-20.5l26.6,17l-12.5-20.4l19.3,15.2l-6.9-22.6l58.2,61.1L1193.1,1972.4L1193.1,1972.4z"/>
		<path id="path148" class="st11" d="M1193.1,1972.4l-65.6,14.9l16.6-13.5l-29.7,2.4l24.1-7.9l-30-2.7l26.9-4.7l-35.5-5.2l33.3-2.8
			l-31.9-8.1l33,0.6l-36-12.9l36.7,6.5l-39.8-18l39.7,8.6l-30.5-17.3l33.9,12.3l-27.7-20.7l33.1,14.1l-21.1-19.7l25.1,13.2
			l-18.1-20.5l26.6,17l-12.5-20.4l19.3,15.2l-6.9-22.6l58.2,61.1L1193.1,1972.4"/>
		<path id="path150" class="st10" d="M1227.3,2011.1l-9,66.6l-6.8-20.2l-8.2,28.7l1.1-25.4l-13,27.1l5-26.8l-17.3,31.4l9-32.2
			l-18.7,27.1l12.1-30.7l-24.6,29.2l18.9-32.1l-30.8,31l21.9-34.2l-26.9,22.5l23.4-27.5l-29.1,18.8l24.8-26l-25.9,12.8l21.2-18.9
			l-25.6,9.7l25.3-18.9l-23.5,4.6l21-12.7l-23.6-1.5l77.6-33.1L1227.3,2011.1L1227.3,2011.1z"/>
		<path id="path152" class="st11" d="M1227.3,2011.1l-9,66.6l-6.8-20.2l-8.2,28.7l1.1-25.4l-13,27.1l5-26.8l-17.3,31.4l9-32.2
			l-18.7,27.1l12.1-30.7l-24.6,29.2l18.9-32.1l-30.8,31l21.9-34.2l-26.9,22.5l23.4-27.5l-29.1,18.8l24.8-26l-25.9,12.8l21.2-18.9
			l-25.6,9.7l25.3-18.9l-23.5,4.6l21-12.7l-23.6-1.5l77.6-33.1L1227.3,2011.1"/>
		<path id="path154" class="st10" d="M1275.5,1977.3l65.7,14.2l-16.7-13.3l29.8,2.1l-24.2-7.6l29.9-2.9l-26.9-4.5l35.5-5.6
			l-33.3-2.5l31.8-8.4l-33,1l35.8-13.2l-36.6,6.8l39.6-18.4l-39.6,9l30.3-17.6l-33.8,12.6l27.5-21l-32.9,14.5l20.8-20l-25,13.4
			l17.9-20.7l-26.4,17.3l12.3-20.5l-19.1,15.5l6.6-22.7l-57.6,61.7L1275.5,1977.3L1275.5,1977.3z"/>
		<path id="path156" class="st11" d="M1275.5,1977.3l65.7,14.2l-16.7-13.3l29.8,2.1l-24.2-7.6l29.9-2.9l-26.9-4.5l35.5-5.6
			l-33.3-2.5l31.8-8.4l-33,1l35.8-13.2l-36.6,6.8l39.6-18.4l-39.6,9l30.3-17.6l-33.8,12.6l27.5-21l-32.9,14.5l20.8-20l-25,13.4
			l17.9-20.7l-26.4,17.3l12.3-20.5l-19.1,15.5l6.6-22.7l-57.6,61.7L1275.5,1977.3"/>
		<path id="path158" class="st10" d="M1275.1,1985.5l59.4,31.5l-21.3-0.6l24.1,17.6l-23.4-9.8l21,21.5l-23.5-13.9l23.5,27.1
			l-27.1-19.5l19,26.9l-24.6-21.9l18.9,33.2l-23.6-28.8l18.5,39.6l-24.6-32.4l11.9,33l-17.7-31.4l7.6,33.8l-15.9-32.3l3.1,28.7
			l-10.5-26.4l0.3,27.4l-9.1-30.2l-3.8,23.6l-4.7-24.1l-9.5,21.6l-4.3-84.3L1275.1,1985.5L1275.1,1985.5z"/>
		<path id="path160" class="st11" d="M1275.1,1985.5l59.4,31.5l-21.3-0.6l24.1,17.6l-23.4-9.8l21,21.5l-23.5-13.9l23.5,27.1
			l-27.1-19.5l19,26.9l-24.6-21.9l18.9,33.2l-23.6-28.8l18.5,39.6l-24.6-32.4l11.9,33l-17.7-31.4l7.6,33.8l-15.9-32.3l3.1,28.7
			l-10.5-26.4l0.3,27.4l-9.1-30.2l-3.8,23.6l-4.7-24.1l-9.5,21.6l-4.3-84.3L1275.1,1985.5"/>
		<path id="path162" class="st10" d="M1261,1924.3l36.3-56.6l-18.3,11l12.4-27.2l-15.6,20l7.7-29.1l-13.6,23.7l7.2-35.2l-14,30.3
			l3.3-32.8l-10.6,31.2l0.1-38.2l-6.4,36.7l-3.3-43.5l-5.5,40.3l-5.8-34.5v36.1l-10-33.1l2,35.9l-11.4-26.5l3.8,28.1l-13.2-24
			l7,30.8l-14.9-18.7l7.8,23.3l-18.9-14.1l37.6,75.5L1261,1924.3L1261,1924.3z"/>
		<path id="path164" class="st11" d="M1261,1924.3l36.3-56.6l-18.3,11l12.4-27.2l-15.6,20l7.7-29.1l-13.6,23.7l7.2-35.2l-14,30.3
			l3.3-32.8l-10.6,31.2l0.1-38.2l-6.4,36.7l-3.3-43.5l-5.5,40.3l-5.8-34.5v36.1l-10-33.1l2,35.9l-11.4-26.5l3.8,28.1l-13.2-24
			l7,30.8l-14.9-18.7l7.8,23.3l-18.9-14.1l37.6,75.5L1261,1924.3"/>
		<path id="path166" class="st3" d="M1238.3,2012c25,0,45.4-20.3,45.4-45.4s-20.3-45.4-45.4-45.4c-25.1,0-45.4,20.3-45.4,45.4
			S1213.3,2012,1238.3,2012"/>
		<path id="path168" class="st12" d="M212,2222.6l-1.3-60l-3.4-59.6c-30.1,47.5-66.6,71.2-116.9,86.1c-35.6,10.5-31.4,9.5-0.3-3.4
			c56.2-23.4,92.9-55.1,115.4-110.2c-110,12.7-193.2-21.1-250.7-99.3c78.2,72.5,162.1,99.7,250.7,89.3c-53-41.4-97.6-88.7-119-152.3
			c37.7,68.1,80.9,110.7,125.6,146.2l0,3.1l0-3.1c44.7-35.4,87.9-78,125.6-146.2c-21.5,63.6-66.1,110.9-119,152.3
			c88.7,10.4,172.6-16.8,250.8-89.3c-57.5,78.3-140.7,112.1-250.8,99.3c24,58.6,68.5,89.3,131.7,112.8c16.8,6.3,24.8,8.3,1.6,2.6
			c-57.9-14.3-102.4-36.4-135-87.9l-3.4,59.6L212,2222.6L212,2222.6z M78,2006.6c-2.4-20.4-2.1-40.8,7.7-61.3
			c3.9,4.6,7.9,9.3,11.8,13.9C81.8,1967.7,79.7,1987,78,2006.6z M99.7,2020.9c-1.9-16.7-1.7-33.4,6.3-50.1c3.2,3.8,6.5,7.6,9.7,11.4
			C102.8,1989,101.1,2004.8,99.7,2020.9z M122.6,2019c-1-8.4-0.9-16.8,3.2-25.2c1.6,1.9,3.2,3.8,4.9,5.7
			C124.1,2002.9,123.2,2010.9,122.6,2019L122.6,2019z M165.1,2100.2l-14.2-20.4l9.2-2.4L165.1,2100.2L165.1,2100.2z M146,2109.9
			l-18.2-26.1l11.8-3.1L146,2109.9z M167.8,2169.5c-158.2,98.7-209.2,33.4-259.3-21.5c18.2,12.9,36.5,24.5,54.7,27.8
			c-20.3-15.2-34.7-30.5-43.1-45.8c14.7,11.1,29.3,17.6,44,14.4c-33.2-29.3-45.6-58.6-59.2-87.9c22.1,22,43.9,44.5,70.9,59.2
			c-13.8-19-23-38.7-22.4-60.1c14.4,20.6,28.7,37.1,43.1,52.9c-2.7-13.8-4.5-27.5,0-41.3c8.2,22,19,41.4,29.6,61
			c-2.4-15.5-4.8-31.1-7.2-46.7c15.3,40.1,30.5,51.8,45.8,58.3c-11.1-13.3-19.1-28.8-20.6-49.3c9.2,26.7,26.9,42.8,45.8,57.4
			c-7.4-19.4-15.6-38.9-10.8-58.3c7.3,18.8,16.3,34.4,26,48.4c-1.5-15.5-2.3-29.7-6.3-50.2c9.3,11.4,18.5,22.7,27.8,34.1
			c-3.9-13.5-7.8-26.9-11.7-40.4c-158.4-13.4-226.5-101.4-219.8-251.2c10.5,32.5,20.9,56.7,31.4,77.2c-7.9-33.9-12.7-67.2-6.3-98.7
			c6.2,29.5,13.8,56.1,22.4,80.7c5.9-93.3,16.5-137.6,29.6-154.3c-1,46.9,0.8,89.5,4.5,129.2c6.5-23.4,15.3-60,36.8-70
			c-20.5,41.8-12.6,68-6.3,95.1c2.5-18.2,10.3-33.5,29.6-42.2c-10.8,23.8-19.1,48.2-17.9,74.5c5.4-11.4,10.8-22.7,16.1-34.1
			c1.8,9.2-4.8,43.6-12.6,81.6c10.2-24.5,20.3-47.3,30.5-57.4c-8.1,26.9-5.7,53.8-1.8,80.7c10.8-20.3,20.9-40.4,26.9-58.3
			c-38.6-90.2-4.7-132.1,17-182.1c-5.7,18.8-8.1,37.7-9,56.5c9.3-15.8,18.5-31.7,27.8-47.6c-5.4,14.4-9.9,28.7-8.1,43.1
			c19.7-26.4,39.5-42.5,59.2-59.2c-17.9,22.7-28.6,44.7-28.7,65.5c10.8-17.2,25.7-25.5,42.2-30.5c-18,13-32.7,28.8-40.4,51.1
			c9.7-8.3,21.6-12.6,35-14.4c-17.4,11.9-32.2,25.6-44,41.3c9.9-4.5,19.7-9,29.6-13.5c-13.2,15.2-26.3,30.5-39.5,45.7
			c12-7.5,23.9-14.9,35.9-22.4c-16.1,16-25.6,31.5-30.5,46.7c13.2-7.8,26.3-15.6,39.5-23.3c-14.2,12.1-24.7,24.6-29.6,37.7
			c12-8.1,23.9-13.8,35.9-14.3c-14,8.8-19.7,21.5-21.5,35.9c9.3-12,20.2-18.9,32.3-21.5c-6.6,7.8-13.2,15.6-19.7,23.3
			c12.3-3.9,24.5-7.8,36.8-11.7c-16.1,12.4-22.1,22.7-28.7,33.2c8.4-4,16.5-9,26.9-7.2c-14.1,30.1-0.3,49.7,15,68.6
			c15.3-18.9,29.1-38.5,15.1-68.6c10.4-1.8,18.5,3.1,26.9,7.2c-6.6-10.5-12.6-20.8-28.7-33.2c12.3,3.9,24.5,7.8,36.8,11.7
			c-6.6-7.8-13.2-15.5-19.7-23.3c12.1,2.6,23,9.5,32.3,21.5c-1.9-14.4-7.5-27.1-21.5-35.9c12,0.6,23.9,6.3,35.9,14.3
			c-4.9-13.1-15.4-25.6-29.6-37.7c13.2,7.8,26.3,15.6,39.5,23.3c-4.9-15.1-14.4-30.6-30.5-46.7c12,7.5,23.9,15,35.9,22.4
			c-13.2-15.2-26.3-30.5-39.5-45.7c9.9,4.5,19.7,9,29.6,13.5c-11.8-15.7-26.6-29.3-44-41.3c13.4,1.7,25.3,6.1,35,14.4
			c-7.7-22.3-22.4-38.2-40.4-51.1c16.4,5,31.4,13.3,42.2,30.5c-0.1-20.8-10.8-42.8-28.7-65.5c19.7,16.7,39.5,32.8,59.2,59.2
			c1.8-14.4-2.7-28.7-8.1-43.1c9.3,15.8,18.5,31.7,27.8,47.6c-0.9-18.8-3.3-37.7-9-56.5c21.7,50,55.7,91.9,17,182.1
			c6,17.9,16.1,38,26.9,58.3c3.9-26.9,6.3-53.8-1.8-80.7c10.2,10.1,20.3,32.9,30.5,57.4c-7.8-38-14.4-72.4-12.6-81.6
			c5.4,11.4,10.8,22.7,16.1,34.1c1.1-26.2-7.1-50.6-17.9-74.5c19.3,8.7,27.1,23.9,29.6,42.2c6.3-27.1,14.3-53.3-6.3-95.1
			c21.5,9.9,30.3,46.6,36.8,70c3.7-39.7,5.5-82.3,4.5-129.2c13.1,16.7,23.7,61,29.6,154.3c8.6-24.7,16.2-51.3,22.4-80.7
			c6.4,31.5,1.7,64.8-6.3,98.7c10.5-20.5,20.9-44.7,31.4-77.2c6.7,149.8-61.4,237.8-219.8,251.2c-3.9,13.5-7.8,26.9-11.7,40.4
			c9.3-11.4,18.5-22.7,27.8-34.1c-4,20.6-4.8,34.8-6.3,50.2c9.7-14.1,18.7-29.6,26-48.4c4.8,19.4-3.4,38.9-10.8,58.3
			c18.9-14.6,36.5-30.8,45.8-57.4c-1.5,20.5-9.6,36-20.6,49.3c15.2-6.5,30.5-18.2,45.8-58.3c-2.4,15.6-4.8,31.1-7.2,46.7
			c10.6-19.6,21.4-39,29.6-61c4.5,13.8,2.7,27.5,0,41.3c14.4-15.8,28.7-32.3,43.1-52.9c0.6,21.4-8.7,41.1-22.4,60.1
			c27-14.7,48.8-37.2,70.9-59.2c-13.6,29.3-26.1,58.6-59.2,87.9c14.6,3.3,29.3-3.3,44-14.4c-8.4,15.2-22.7,30.5-43.1,45.8
			c18.2-3.3,36.5-12.2,54.7-25.1c-41.9,51.7-98.9,117.1-259.3,18.8c14.9,14.2,24.2,31.2,29.6,50.2c-13.2-12.6-26.3-20.6-39.5-18.8
			c16.7,9.3,23.6,28.4,26,52c-7.5-6.6-15-13.2-22.4-19.7c4.5,12.6,5.4,25.1,2.7,37.7c-3-6.9-6.9-13.8-17-20.6
			c4.5,19,2.4,36.3-2.7,52.9c-0.3-14.1-5.4-28.1-15.2-42.2l-4.1,55.3v29.9l-1.1-14.9l-1.1,14.9v-29.8l-4.1-55.4
			c-9.9,14.1-15,28.1-15.2,42.2c-5.1-16.6-7.2-33.9-2.7-52.9c-10.2,6.9-14.1,13.8-17,20.6c-2.7-12.6-1.8-25.1,2.7-37.7
			c-7.5,6.6-15,13.2-22.4,19.7c2.4-23.6,9.3-42.8,26-52c-13.2-1.8-26.3,6.3-39.5,18.8C143.6,2200.7,152.8,2183.7,167.8,2169.5
			L167.8,2169.5z"/>
		<path id="path170" class="st11" d="M212,2222.6l-1.3-60l-3.4-59.6c-30.1,47.5-66.6,71.2-116.9,86.1c-35.6,10.5-31.4,9.5-0.3-3.4
			c56.2-23.4,92.9-55.1,115.4-110.2c-110,12.7-193.2-21.1-250.7-99.3c78.2,72.5,162.1,99.7,250.7,89.3c-53-41.4-97.6-88.7-119-152.3
			c37.7,68.1,80.9,110.7,125.6,146.2l0,3.1l0-3.1c44.7-35.4,87.9-78,125.6-146.2c-21.5,63.6-66.1,110.9-119,152.3
			c88.7,10.4,172.6-16.8,250.8-89.3c-57.5,78.3-140.7,112.1-250.8,99.3c24,58.6,68.5,89.3,131.7,112.8c16.8,6.3,24.8,8.3,1.6,2.6
			c-57.9-14.3-102.4-36.4-135-87.9l-3.4,59.6L212,2222.6L212,2222.6z M78,2006.6c-2.4-20.4-2.1-40.8,7.7-61.3
			c3.9,4.6,7.9,9.3,11.8,13.9C81.8,1967.7,79.7,1987,78,2006.6z M99.7,2020.9c-1.9-16.7-1.7-33.4,6.3-50.1c3.2,3.8,6.5,7.6,9.7,11.4
			C102.8,1989,101.1,2004.8,99.7,2020.9z M122.6,2019c-1-8.4-0.9-16.8,3.2-25.2c1.6,1.9,3.2,3.8,4.9,5.7
			C124.1,2002.9,123.2,2010.9,122.6,2019L122.6,2019z M165.1,2100.2l-14.2-20.4l9.2-2.4L165.1,2100.2L165.1,2100.2z M146,2109.9
			l-18.2-26.1l11.8-3.1L146,2109.9z M167.8,2169.5c-158.2,98.7-209.2,33.4-259.3-21.5c18.2,12.9,36.5,24.5,54.7,27.8
			c-20.3-15.2-34.7-30.5-43.1-45.8c14.7,11.1,29.3,17.6,44,14.4c-33.2-29.3-45.6-58.6-59.2-87.9c22.1,22,43.9,44.5,70.9,59.2
			c-13.8-19-23-38.7-22.4-60.1c14.4,20.6,28.7,37.1,43.1,52.9c-2.7-13.8-4.5-27.5,0-41.3c8.2,22,19,41.4,29.6,61
			c-2.4-15.5-4.8-31.1-7.2-46.7c15.3,40.1,30.5,51.8,45.8,58.3c-11.1-13.3-19.1-28.8-20.6-49.3c9.2,26.7,26.9,42.8,45.8,57.4
			c-7.4-19.4-15.6-38.9-10.8-58.3c7.3,18.8,16.3,34.4,26,48.4c-1.5-15.5-2.3-29.7-6.3-50.2c9.3,11.4,18.5,22.7,27.8,34.1
			c-3.9-13.5-7.8-26.9-11.7-40.4c-158.4-13.4-226.5-101.4-219.8-251.2c10.5,32.5,20.9,56.7,31.4,77.2c-7.9-33.9-12.7-67.2-6.3-98.7
			c6.2,29.5,13.8,56.1,22.4,80.7c5.9-93.3,16.5-137.6,29.6-154.3c-1,46.9,0.8,89.5,4.5,129.2c6.5-23.4,15.3-60,36.8-70
			c-20.5,41.8-12.6,68-6.3,95.1c2.5-18.2,10.3-33.5,29.6-42.2c-10.8,23.8-19.1,48.2-17.9,74.5c5.4-11.4,10.8-22.7,16.1-34.1
			c1.8,9.2-4.8,43.6-12.6,81.6c10.2-24.5,20.3-47.3,30.5-57.4c-8.1,26.9-5.7,53.8-1.8,80.7c10.8-20.3,20.9-40.4,26.9-58.3
			c-38.6-90.2-4.7-132.1,17-182.1c-5.7,18.8-8.1,37.7-9,56.5c9.3-15.8,18.5-31.7,27.8-47.6c-5.4,14.4-9.9,28.7-8.1,43.1
			c19.7-26.4,39.5-42.5,59.2-59.2c-17.9,22.7-28.6,44.7-28.7,65.5c10.8-17.2,25.7-25.5,42.2-30.5c-18,13-32.7,28.8-40.4,51.1
			c9.7-8.3,21.6-12.6,35-14.4c-17.4,11.9-32.2,25.6-44,41.3c9.9-4.5,19.7-9,29.6-13.5c-13.2,15.2-26.3,30.5-39.5,45.7
			c12-7.5,23.9-14.9,35.9-22.4c-16.1,16-25.6,31.5-30.5,46.7c13.2-7.8,26.3-15.6,39.5-23.3c-14.2,12.1-24.7,24.6-29.6,37.7
			c12-8.1,23.9-13.8,35.9-14.3c-14,8.8-19.7,21.5-21.5,35.9c9.3-12,20.2-18.9,32.3-21.5c-6.6,7.8-13.2,15.6-19.7,23.3
			c12.3-3.9,24.5-7.8,36.8-11.7c-16.1,12.4-22.1,22.7-28.7,33.2c8.4-4,16.5-9,26.9-7.2c-14.1,30.1-0.3,49.7,15,68.6
			c15.3-18.9,29.1-38.5,15.1-68.6c10.4-1.8,18.5,3.1,26.9,7.2c-6.6-10.5-12.6-20.8-28.7-33.2c12.3,3.9,24.5,7.8,36.8,11.7
			c-6.6-7.8-13.2-15.5-19.7-23.3c12.1,2.6,23,9.5,32.3,21.5c-1.9-14.4-7.5-27.1-21.5-35.9c12,0.6,23.9,6.3,35.9,14.3
			c-4.9-13.1-15.4-25.6-29.6-37.7c13.2,7.8,26.3,15.6,39.5,23.3c-4.9-15.1-14.4-30.6-30.5-46.7c12,7.5,23.9,15,35.9,22.4
			c-13.2-15.2-26.3-30.5-39.5-45.7c9.9,4.5,19.7,9,29.6,13.5c-11.8-15.7-26.6-29.3-44-41.3c13.4,1.7,25.3,6.1,35,14.4
			c-7.7-22.3-22.4-38.2-40.4-51.1c16.4,5,31.4,13.3,42.2,30.5c-0.1-20.8-10.8-42.8-28.7-65.5c19.7,16.7,39.5,32.8,59.2,59.2
			c1.8-14.4-2.7-28.7-8.1-43.1c9.3,15.8,18.5,31.7,27.8,47.6c-0.9-18.8-3.3-37.7-9-56.5c21.7,50,55.7,91.9,17,182.1
			c6,17.9,16.1,38,26.9,58.3c3.9-26.9,6.3-53.8-1.8-80.7c10.2,10.1,20.3,32.9,30.5,57.4c-7.8-38-14.4-72.4-12.6-81.6
			c5.4,11.4,10.8,22.7,16.1,34.1c1.1-26.2-7.1-50.6-17.9-74.5c19.3,8.7,27.1,23.9,29.6,42.2c6.3-27.1,14.3-53.3-6.3-95.1
			c21.5,9.9,30.3,46.6,36.8,70c3.7-39.7,5.5-82.3,4.5-129.2c13.1,16.7,23.7,61,29.6,154.3c8.6-24.7,16.2-51.3,22.4-80.7
			c6.4,31.5,1.7,64.8-6.3,98.7c10.5-20.5,20.9-44.7,31.4-77.2c6.7,149.8-61.4,237.8-219.8,251.2c-3.9,13.5-7.8,26.9-11.7,40.4
			c9.3-11.4,18.5-22.7,27.8-34.1c-4,20.6-4.8,34.8-6.3,50.2c9.7-14.1,18.7-29.6,26-48.4c4.8,19.4-3.4,38.9-10.8,58.3
			c18.9-14.6,36.5-30.8,45.8-57.4c-1.5,20.5-9.6,36-20.6,49.3c15.2-6.5,30.5-18.2,45.8-58.3c-2.4,15.6-4.8,31.1-7.2,46.7
			c10.6-19.6,21.4-39,29.6-61c4.5,13.8,2.7,27.5,0,41.3c14.4-15.8,28.7-32.3,43.1-52.9c0.6,21.4-8.7,41.1-22.4,60.1
			c27-14.7,48.8-37.2,70.9-59.2c-13.6,29.3-26.1,58.6-59.2,87.9c14.6,3.3,29.3-3.3,44-14.4c-8.4,15.2-22.7,30.5-43.1,45.8
			c18.2-3.3,36.5-12.2,54.7-25.1c-41.9,51.7-98.9,117.1-259.3,18.8c14.9,14.2,24.2,31.2,29.6,50.2c-13.2-12.6-26.3-20.6-39.5-18.8
			c16.7,9.3,23.6,28.4,26,52c-7.5-6.6-15-13.2-22.4-19.7c4.5,12.6,5.4,25.1,2.7,37.7c-3-6.9-6.9-13.8-17-20.6
			c4.5,19,2.4,36.3-2.7,52.9c-0.3-14.1-5.4-28.1-15.2-42.2l-4.1,55.3v29.9l-1.1-14.9l-1.1,14.9v-29.8l-4.1-55.4
			c-9.9,14.1-15,28.1-15.2,42.2c-5.1-16.6-7.2-33.9-2.7-52.9c-10.2,6.9-14.1,13.8-17,20.6c-2.7-12.6-1.8-25.1,2.7-37.7
			c-7.5,6.6-15,13.2-22.4,19.7c2.4-23.6,9.3-42.8,26-52c-13.2-1.8-26.3,6.3-39.5,18.8C143.6,2200.7,152.8,2183.7,167.8,2169.5"/>
		<path id="path172" class="st11" d="M721.3,1160.8c-32.7,28-71.5,48.8-110.7,66.1c-52.5,23.2-108.2,41.7-162.9,59.5
			c-39.1,15.8-71.2,40.3-93.4,76.5c-55.9,91.4-31.2,234.7-13.1,334.5c29.2,136.6,19.9,271.5-34.4,400.7l-1.1,2.5l2.7,0.2
			c274,21.9,549,15.9,822.9-3.5l2.8-0.2l-1.1-2.6c-64.9-155.5-57.2-313.3-20.6-474.8c17.3-80.5,24.8-175.1-19.3-248.7
			c-46.6-77.7-127.8-97.1-206.9-126.6c-55.8-20.8-115.9-45.8-162.5-83.6l-1.3-1L721.3,1160.8"/>
		<path id="path174" class="st13" d="M721.3,1160.8c-32.7,28-71.5,48.8-110.7,66.1c-52.5,23.2-108.2,41.7-162.9,59.5
			c-39.1,15.8-71.2,40.3-93.4,76.5c-55.9,91.4-31.2,234.7-13.1,334.5c29.2,136.6,19.9,271.5-34.4,400.7l-1.1,2.5l2.7,0.2
			c274,21.9,549,15.9,822.9-3.5l2.8-0.2l-1.1-2.6c-64.9-155.5-57.2-313.3-20.6-474.8c17.3-80.5,24.8-175.1-19.3-248.7
			c-46.6-77.7-127.8-97.1-206.9-126.6c-55.8-20.8-115.9-45.8-162.5-83.6l-1.3-1L721.3,1160.8L721.3,1160.8z"/>
		<path id="path176" class="st14" d="M295.1,2109c1.7-5.1,55.7-215.1,55.7-215.1c247.7,0.3,495.4,0.6,743,0.9
			c15.2,70,30.4,140,45.5,210C862.1,2123.1,581.3,2126.7,295.1,2109"/>
		<path id="path178" class="st6" d="M726.9,1125.3c-13.1-5-37.1,6.8-43.7-10.9c-2.3-6.3-2.7-26.2,1.6-35.2c4.3-9,6.6-18.8,15.2-23.5
			c8.6-4.7,14-5.9,21.9-3.5c16.2,4.9,41.2,11.9,45.3,32.1c0.4,2-0.8,30.9-0.8,34c0,3.1,0,9.8-6.2,16c-6.2,6.3-26.9,5.1-28.5,0
			C730,1129.2,727.3,1124.2,726.9,1125.3"/>
		<path id="path180" class="st4" d="M726.9,1125.3c-13.1-5-37.1,6.8-43.7-10.9c-2.3-6.3-2.7-26.2,1.6-35.2c4.3-9,6.6-18.8,15.2-23.5
			c8.6-4.7,14-5.9,21.9-3.5c16.2,4.9,41.2,11.9,45.3,32.1c0.4,2-0.8,30.9-0.8,34c0,3.1,0,9.8-6.2,16c-6.2,6.3-26.9,5.1-28.5,0
			C730,1129.2,727.3,1124.2,726.9,1125.3L726.9,1125.3z"/>
		<path id="path182" class="st8" d="M299,1177.3c-26.4,43.6-111.6,159.7-156.5,65.4c-8.5-17.9-7.3-36.1,1.5-53.6
			c21.9-44.1,73.7-15.1,61.6,6.7c-28.9-6.7-23.3,48.1,12.5,32C239.7,1218,270.7,1195.9,299,1177.3"/>
		<path id="path184" class="st8" d="M728.5,1124.9c-12.2,0.6-13.6-70.5,1.2-68.4c14.8,2.1,9.6,9.1,14.9,5.4
			c5.7-4,40.8,46.3,19.6,63.2c-5,4-6,6.1-7.9,7.3c-10.1,6-17,4.3-22.6-1.1C731.1,1128.8,730.8,1127.2,728.5,1124.9"/>
		<path id="path186" class="st8" d="M1151,1177.3c26.4,43.6,111.6,159.7,156.5,65.4c8.5-17.9,7.3-36.1-1.5-53.6
			c-21.9-44.1-73.7-15.1-61.6,6.7c28.9-6.7,23.4,48.1-12.5,32C1210.3,1218,1179.3,1195.9,1151,1177.3"/>
		<path id="path188" class="st5" d="M1241,1244.2c-101.3-94-203.1-143.3-305.6-130.3c-7.9-11.9-15.7-23.7-23.6-35.6
			c134.1,6.7,260.8,34.8,353.8,159.8c-3.8,3.2-7.6,6.4-11.4,9.6C1245.2,1255.3,1249.9,1252.4,1241,1244.2"/>
		<path id="path190" class="st4" d="M1241,1244.2c-101.3-94-203.1-143.3-305.6-130.3c-7.9-11.9-15.7-23.7-23.6-35.6
			c134.1,6.7,260.8,34.8,353.8,159.8c-3.8,3.2-7.6,6.4-11.4,9.6C1245.2,1255.3,1249.9,1252.4,1241,1244.2z"/>
		<path id="path192" class="st4" d="M962.2,1110.3l5.5-29.6"/>
		<path id="path194" class="st6" d="M763.9,1116.4c15.7,5.1,31.5,11.3,47.2,25.5c13.5,10.1,27.2,19,40.8,15.9
			c28.9-6.7,26.7-37.5,59.7-35.1c17.6,1.3,27-17.2,14.9-31.1c-15.3-13.1-19.4-15.4-16-35.4c1.9-11.2,4.9-23.2,5.8-23.8
			c9.7-30-20.8-44.1-52.3-42.4c-11.2,0.6-22.1,5.7-32.4,13.9c-22.4,21.7-44.5,43.5-71.5,61.7
			C765.8,1075.6,768.4,1090.5,763.9,1116.4"/>
		<path id="path196" class="st4" d="M763.9,1116.4c15.7,5.1,31.5,11.3,47.2,25.5c13.5,10.1,27.2,19,40.8,15.9
			c28.9-6.7,26.7-37.5,59.7-35.1c17.6,1.3,27-17.2,14.9-31.1c-15.3-13.1-19.4-15.4-16-35.4c1.9-11.2,4.9-23.2,5.8-23.8
			c9.7-30-20.8-44.1-52.3-42.4c-11.2,0.6-22.1,5.7-32.4,13.9c-22.4,21.7-44.5,43.5-71.5,61.7
			C765.8,1075.6,768.4,1090.5,763.9,1116.4z"/>
		<path id="path198" class="st8" d="M880.9,996.1c4.5,5.6,7,12.7,7.9,21.1c0.9,8.3,0.1,17.9-2.1,28.4c-7.1,15.2-5.7,37.2-6.2,58.9
			c-0.2,17.9-28.1,27.5-46.9,21.9c-16.6-5-31.1-26.5-51.1-34.7c-5.3-2.2-10.3-3.8-14.2-4.6c0.5,7.2-0.1,15.9-1.9,26.6l0.4,1.2
			c15.1,4.9,30.3,10.9,45.4,24.4c13.1,9.7,26.5,18.3,39.7,15.3c28.1-6.4,25.9-36,58.1-33.7c17.2,1.2,26.3-16.6,14.5-29.9
			c-14.9-12.6-18.9-14.8-15.6-34c1.9-10.8,4.8-22.3,5.6-22.9c7.5-23-9.8-36.2-32.6-39.8C881.2,995.4,880.9,996.1,880.9,996.1"/>
		<path id="path200" class="st15" d="M658.9,2006.7c-10.1-18.7-67.6-10.5-53.8,17.8c-18.5,15.1-18,27.8,1.4,38.1
			c-7.3,22.3,4.3,26.3,24.6,22.1c13.3,14.8,26.6,14.9,39.9,0.4c11.7-1.3,17.5-10.3,15-30.6c-4.9-9.8-9.7-19.7-14.6-29.5
			C671.4,2024.8,658.9,2006,658.9,2006.7"/>
		<path id="path202" class="st4" d="M658.9,2006.7c-10.1-18.7-67.6-10.5-53.8,17.8c-18.5,15.1-18,27.8,1.4,38.1
			c-7.3,22.3,4.3,26.3,24.6,22.1c13.3,14.8,26.6,14.9,39.9,0.4c11.7-1.3,17.5-10.3,15-30.6c-4.9-9.8-9.7-19.7-14.6-29.5
			C671.4,2024.8,658.9,2006,658.9,2006.7L658.9,2006.7z"/>
		<path id="path204" class="st5" d="M1251.1,1169.6c-106.5-83.6-232.4-94.2-331.1-89c-14.4-9.9-8-17.6-6.6-28.6
			c131.1,14.4,266-4.7,362.3,111.4c-3.8,3.2-7.6,6.4-11.4,9.6C1255.3,1180.7,1260.6,1177,1251.1,1169.6"/>
		<path id="path206" class="st4" d="M1251.1,1169.6c-106.5-83.6-232.4-94.2-331.1-89c-14.4-9.9-8-17.6-6.6-28.6
			c131.1,14.4,266-4.7,362.3,111.4c-3.8,3.2-7.6,6.4-11.4,9.6C1255.3,1180.7,1260.6,1177,1251.1,1169.6L1251.1,1169.6z"/>
		<path id="path208" class="st5" d="M765.6,1080.9c15.5-1.7,31,2.8,46.5,13.4c33,15.7,50.7,11.5,53-12.7c1.1-22.9-2-42.2-30.5-34.8
			c-15.8,4.1-26.5,14.7-40.8,22.5C780,1076.9,765.7,1083.5,765.6,1080.9"/>
		<path id="path210" class="st4" d="M765.6,1080.9c15.5-1.7,31,2.8,46.5,13.4c33,15.7,50.7,11.5,53-12.7c1.1-22.9-2-42.2-30.5-34.8
			c-15.8,4.1-26.5,14.7-40.8,22.5C780,1076.9,765.7,1083.5,765.6,1080.9L765.6,1080.9z"/>
		<path id="path212" class="st6" d="M782.8,1076.5c4-1.9,80.3-12.7,80.3-12.7c-0.5,8.2,4.3,4.5-0.2,20
			C859.9,1083.3,780.7,1073.5,782.8,1076.5"/>
		<path id="path214" class="st4" d="M782.8,1076.5c4-1.9,80.3-12.7,80.3-12.7c-0.5,8.2,4.3,4.5-0.2,20
			C859.9,1083.3,780.7,1073.5,782.8,1076.5z"/>
		<path id="path216" class="st8" d="M783.5,1077.9c4.4-0.6,79.9,7.6,79.9,7.6c-0.7,14.3-5.1,13.6-17.6,16.1
			C841.9,1107.5,781.8,1077.9,783.5,1077.9"/>
		<path id="path218" class="st4" d="M783.5,1077.9c4.4-0.6,79.9,7.6,79.9,7.6c-0.7,14.3-5.1,13.6-17.6,16.1
			C841.9,1107.5,781.8,1077.9,783.5,1077.9z"/>
		<path id="path220" class="st8" d="M947.6,1145.7c123.1,133-109.3,77.7-45.4,25.7C901.5,1215.2,995.6,1228.1,947.6,1145.7"/>
		<path id="path222" class="st8" d="M1021.3,1236.6l-26.3-48.7l-5.9,4.6L1021.3,1236.6"/>
		<path id="path224" class="st8" d="M819.5,1172l-44.7-32.7l-3.4,6.7L819.5,1172"/>
		<path id="path226" class="st8" d="M1132.1,1218.8l-36.3-67.2l-8.2,6.4L1132.1,1218.8"/>
		<path id="path228" class="st8" d="M1124,963.7l-120.6,56.7l12.1,3.5L1124,963.7"/>
		<path id="path230" class="st8" d="M1097.9,939.9l-66.5,49.5l7.8,0.7L1097.9,939.9"/>
		<path id="path232" class="st8" d="M1086.5,1004.8l48.1-17.1l-48.7,5.3L1086.5,1004.8"/>
		<path id="path234" class="st8" d="M1045.7,1021.9c3.9,0,121.1-8.6,121.1-8.6l-116.5-0.7L1045.7,1021.9"/>
		<path id="path236" class="st8" d="M1126,1029.2c4.6,4,52,14.5,52,14.5l-40.2-22.4L1126,1029.2"/>
		<path id="path238" class="st8" d="M1077.9,1037.7l90.9,20.4l-82.3-29L1077.9,1037.7"/>
		<path id="path240" class="st8" d="M950.9,1037.7c171.4-68.3,38.2-143.3-14.5-45.4C1038.3,934.4,1030,990.2,950.9,1037.7"/>
		<path id="path242" class="st8" d="M1159.5,1239.9l-24.9-67.2l-9.2,6.4L1159.5,1239.9"/>
		<path id="path244" class="st8" d="M864.3,1053.2c19.4-53.1-61.6-9.2-87.1,21.1c12.2-4.7,24.4-11.2,44.9-24.2
			C844.2,1034.9,857.1,1044.6,864.3,1053.2"/>
		<path id="path246" class="st4" d="M1193.5,1203.9l19.2-23.1"/>
		<path id="path248" class="st4" d="M1130.9,1159.1l19.3-23.1"/>
		<path id="path250" class="st3" d="M1190.2,1243.3c8.4,47.8,19,43.6,32,6.5c-2.7,15.6-6.7,27.6-11.8,36.6
			c-8.1,14.3-9.2,6.6-14.3-7.7C1190.6,1263.4,1185,1243.7,1190.2,1243.3"/>
		<path id="path252" class="st4" d="M1057.8,1126.5l10.4-28.2"/>
		<path id="path254" class="st4" d="M1201.6,1136l19.2-23.1"/>
		<path id="path256" class="st4" d="M1140.8,1105.9l10.1-28.3"/>
		<path id="path258" class="st4" d="M1064.5,1089.1l3.7-29.8"/>
		<path id="path260" class="st4" d="M965.7,1080.3l-0.5-30.1"/>
		<path id="path262" class="st16" d="M347.3,1891.9c248,24.8,495.9,23.7,743.9,3.6c-6.3-83.7,9.3-177.8,23.9-253.6
			c13.8-72-3.3,42.3,15.1-113.1c-263.9,34.5-537.4,28.9-816.6-0.4C313.1,1590.6,361,1829.7,347.3,1891.9"/>
		<path id="path264" class="st12" d="M347.3,1891.9c248,24.8,495.9,23.7,743.9,3.6c-6.3-83.7,9.3-177.8,23.9-253.6
			c13.8-72-3.3,42.3,15.1-113.1c-263.9,34.5-537.4,28.9-816.6-0.4C313.1,1590.6,361,1829.7,347.3,1891.9L347.3,1891.9z"/>
		<path id="path268" class="st15" d="M767.8,2006.7c10.1-18.7,67.6-10.5,53.8,17.8c18.5,15.1,18,27.8-1.4,38.1
			c7.3,22.3-4.3,26.3-24.6,22.1c-13.3,14.8-26.6,14.9-39.9,0.4c-11.7-1.3-17.5-10.3-15-30.6c4.9-9.8,9.7-19.7,14.6-29.5
			C755.3,2024.8,767.8,2006,767.8,2006.7"/>
		<path id="path270" class="st4" d="M767.8,2006.7c10.1-18.7,67.6-10.5,53.8,17.8c18.5,15.1,18,27.8-1.4,38.1
			c7.3,22.3-4.3,26.3-24.6,22.1c-13.3,14.8-26.6,14.9-39.9,0.4c-11.7-1.3-17.5-10.3-15-30.6c4.9-9.8,9.7-19.7,14.6-29.5
			C755.3,2024.8,767.8,2006,767.8,2006.7L767.8,2006.7z"/>
		<path id="path272" class="st9" d="M729,1845.4c-100.7-42.9-165.6-130.1-116.1-274.7c47.3,26.1,99.5,64.2,166.5,62.2
			C689,1695.7,697,1769.2,729,1845.4"/>
		<path id="path274" class="st17" d="M729,1845.4c-100.7-42.9-165.6-130.1-116.1-274.7c47.3,26.1,99.5,64.2,166.5,62.2
			C689,1695.7,697,1769.2,729,1845.4L729,1845.4z"/>
		<path id="path282" class="st5" d="M209,1244.2c101.3-94,203.1-143.3,305.6-130.3c7.9-11.9,15.7-23.7,23.6-35.6
			C404,1084.9,277.3,1113,184.4,1238c3.8,3.2,7.6,6.4,11.4,9.6C204.9,1255.3,200.2,1252.4,209,1244.2"/>
		<path id="path284" class="st4" d="M209,1244.2c101.3-94,203.1-143.3,305.6-130.3c7.9-11.9,15.7-23.7,23.6-35.6
			C404,1084.9,277.3,1113,184.4,1238c3.8,3.2,7.6,6.4,11.4,9.6C204.9,1255.3,200.2,1252.4,209,1244.2z"/>
		<path id="path286" class="st4" d="M487.9,1110.3l-5.5-29.6"/>
		<path id="path288" class="st6" d="M686.1,1116.4c-15.8,5.1-31.5,11.3-47.2,25.5c-13.5,10.1-27.2,19-40.8,15.9
			c-28.9-6.7-26.7-37.5-59.7-35.1c-17.6,1.3-27-17.2-14.9-31.1c15.3-13.1,19.4-15.4,16-35.4c-1.9-11.2-4.9-23.2-5.8-23.8
			c-9.7-30,20.8-44.1,52.3-42.4c11.2,0.6,22,5.7,32.4,13.9c22.4,21.7,44.5,43.5,71.5,61.7C684.2,1075.6,681.7,1090.5,686.1,1116.4"
			/>
		<path id="path290" class="st4" d="M686.1,1116.4c-15.8,5.1-31.5,11.3-47.2,25.5c-13.5,10.1-27.2,19-40.8,15.9
			c-28.9-6.7-26.7-37.5-59.7-35.1c-17.6,1.3-27-17.2-14.9-31.1c15.3-13.1,19.4-15.4,16-35.4c-1.9-11.2-4.9-23.2-5.8-23.8
			c-9.7-30,20.8-44.1,52.3-42.4c11.2,0.6,22,5.7,32.4,13.9c22.4,21.7,44.5,43.5,71.5,61.7C684.2,1075.6,681.7,1090.5,686.1,1116.4z"
			/>
		<path id="path292" class="st8" d="M569.1,996.1c-4.5,5.6-7,12.7-7.9,21.1c-0.9,8.3-0.1,17.9,2.1,28.4c7.1,15.2,5.7,37.2,6.2,58.9
			c0.2,17.9,28.1,27.5,46.9,21.9c16.6-5,31.1-26.5,51.1-34.7c5.3-2.1,10.3-3.8,14.2-4.6c-0.5,7.2,0.1,15.9,1.9,26.6l-0.4,1.2
			c-15.1,4.9-30.3,10.9-45.4,24.4c-13.1,9.7-26.5,18.3-39.7,15.3c-28.1-6.4-26-36-58.1-33.7c-17.1,1.2-26.2-16.6-14.5-29.9
			c14.9-12.6,18.9-14.8,15.6-34c-1.9-10.8-4.8-22.3-5.6-22.9c-7.5-23,9.8-36.2,32.6-39.8C568.8,995.4,569.1,996.1,569.1,996.1"/>
		<path id="path294" class="st6" d="M543.1,1124.4c-38-3-62.3,5.8-101,55.6c-31.5,40.6-40.7,83.1-88.1,110
			c-49,27.8-109,30.3-155.8,21.4c-69.3-13.2-125-71.2-120.1-144.5c5.6-84.7,108.3-136.4,203.8-93.4c-23.3,2.4-52.2,30.1-81.6,59.7
			c-63-12-125,96.2-42.2,146.9c49.7,22.3,94.6,27.2,132,3.3c24.3-15.5,29.2-32.7,42.7-56.5c40.7-71.4,85.7-128.7,184.5-129.7
			c-8.1,13.5-0.9,22.1,15.1,25C540.6,1122.9,534.9,1123.8,543.1,1124.4"/>
		<path id="path296" class="st7" d="M543.1,1124.4c-38-3-62.3,5.8-101,55.6c-31.5,40.6-40.7,83.1-88.1,110
			c-49,27.8-109,30.3-155.8,21.4c-69.3-13.2-125-71.2-120.1-144.5c5.6-84.7,108.3-136.4,203.8-93.4c-23.3,2.4-52.2,30.1-81.6,59.7
			c-63-12-125,96.2-42.2,146.9c49.7,22.3,94.6,27.2,132,3.3c24.3-15.5,29.2-32.7,42.7-56.5c40.7-71.4,85.7-128.7,184.5-129.7
			c-8.1,13.5-0.9,22.1,15.1,25C540.6,1122.9,534.9,1123.8,543.1,1124.4L543.1,1124.4z"/>
		<path id="path298" class="st8" d="M249.6,1088.4c-41.8-6.3-81.2-6-111.9,21.2C81.4,1159.4,81,1243.7,148,1285
			c27.2,16.8,63.8,24.2,108.1,24c13.6-0.4,26.6-1.6,39.4-3.7c9.8-1.6,19.4-3.7,29.1-6.3c29.9-8,51.3-24,69-50
			c15.4-22.6,26-48,46.7-70.8c43.4-47.9,59.4-56,91.8-54.6c-8.3-0.6,2.8,0.1-5.5-0.5c-9.8-3.8-14-11.2-12.4-20.4
			c-124.8,2.8-129.5,178.3-246.9,191.4c-32.4,10.5-69.3,3.9-109.3-14.1c-82.8-50.7-20.7-158.9,42.2-146.9
			C217.1,1116.1,233.9,1099.7,249.6,1088.4"/>
		<path id="path300" class="st5" d="M198.9,1169.6c106.5-83.6,232.4-94.2,331.1-89c14.4-9.9,8-17.6,6.6-28.6
			c-131.1,14.4-266-4.7-362.3,111.4c3.8,3.2,7.6,6.4,11.4,9.6C194.8,1180.7,189.4,1177,198.9,1169.6"/>
		<path id="path302" class="st4" d="M198.9,1169.6c106.5-83.6,232.4-94.2,331.1-89c14.4-9.9,8-17.6,6.6-28.6
			c-131.1,14.4-266-4.7-362.3,111.4c3.8,3.2,7.6,6.4,11.4,9.6C194.8,1180.7,189.4,1177,198.9,1169.6z"/>
		<path id="path304" class="st5" d="M684.4,1080.9c-15.5-1.7-31,2.8-46.4,13.4c-33,15.7-50.7,11.5-53-12.7
			c-1.1-22.9,2-42.2,30.5-34.8c15.8,4.1,26.5,14.7,40.8,22.5C670,1076.9,684.3,1083.5,684.4,1080.9"/>
		<path id="path306" class="st4" d="M684.4,1080.9c-15.5-1.7-31,2.8-46.4,13.4c-33,15.7-50.7,11.5-53-12.7
			c-1.1-22.9,2-42.2,30.5-34.8c15.8,4.1,26.5,14.7,40.8,22.5C670,1076.9,684.3,1083.5,684.4,1080.9L684.4,1080.9z"/>
		<path id="path308" class="st6" d="M666.5,1077.9c-4.4-0.6-79.3-7.2-79.3-7.2c0.7,14.3,4.6,28.3,17,30.9
			C608.1,1107.5,668.2,1077.9,666.5,1077.9"/>
		<path id="path310" class="st4" d="M666.5,1077.9c-4.4-0.6-79.3-7.2-79.3-7.2c0.7,14.3,4.6,28.3,17,30.9
			C608.1,1107.5,668.2,1077.9,666.5,1077.9L666.5,1077.9z"/>
		<path id="path312" class="st3" d="M712.2,1150.2c-31.6,27.1-69.4,47.2-107.3,63.9c-52.1,23-107.4,41.3-161.5,58.9l-0.5,0.2
			l-0.5,0.2c-41.9,16.9-76.3,43.4-100,82.2c-58.3,95.3-33.8,240.1-14.9,344.2l0,0.2l0,0.2c28.6,133.8,19.6,265.8-33.6,392.3
			l-8.5,20.3l21.9,1.8c274.7,22,550.4,16,825-3.4l22.1-1.6l-8.5-20.4c-63.7-152.7-55.8-307.9-19.8-466.5
			c18.1-84.3,25.1-181.9-21-258.9c-48.9-81.6-131-101.6-214-132.5c-54.2-20.2-113.3-44.6-158.6-81.4l-10.3-8.4L712.2,1150.2
			L712.2,1150.2z M308.7,2098.7c51.6-122.8,65.7-256,34.5-401.8c-30.2-165.9-51.7-345.4,105.2-408.7
			c128.3-41.7,214.9-75,274.2-125.9c39.6,32.2,90.5,56.9,163,84c77.9,29,159.6,48.4,205.9,125.8c38.9,65,40,150.3,19.1,247.3
			c-44.3,195.5-34.9,342.9,20.7,476C859.1,2114.5,585.4,2120.8,308.7,2098.7"/>
		<path id="path314" class="st8" d="M502.5,1145.7c-123.1,133,109.3,77.7,45.4,25.7C548.5,1215.2,454.4,1228.1,502.5,1145.7"/>
		<path id="path316" class="st8" d="M428.7,1236.6l26.3-48.7l5.9,4.6L428.7,1236.6"/>
		<path id="path318" class="st8" d="M630.5,1172l44.7-32.7l3.4,6.7L630.5,1172"/>
		<path id="path320" class="st8" d="M317.9,1218.8l36.3-67.2l8.2,6.4L317.9,1218.8"/>
		<path id="path322" class="st8" d="M326,963.6l120.6,56.7l-12.1,3.5L326,963.6"/>
		<path id="path324" class="st8" d="M352.1,939.9l66.5,49.5l-7.8,0.7L352.1,939.9"/>
		<path id="path326" class="st8" d="M363.5,1004.8l-48.1-17.1l48.7,5.3L363.5,1004.8"/>
		<path id="path328" class="st8" d="M404.4,1021.9c-4,0-121.1-8.6-121.1-8.6l116.5-0.7L404.4,1021.9"/>
		<path id="path330" class="st8" d="M324,1029.2c-4.6,4-52,14.5-52,14.5l40.2-22.4L324,1029.2"/>
		<path id="path332" class="st8" d="M372.1,1037.7l-90.9,20.4l82.3-29L372.1,1037.7"/>
		<path id="path334" class="st8" d="M499.2,1037.7c-171.4-68.3-38.2-143.3,14.5-45.4C411.7,934.4,420,990.2,499.2,1037.7"/>
		<path id="path336" class="st15" d="M736.4,1864c-104.7-56.8-171.6-134.4-103-286.1C682,1611,740,1634,812.9,1638.8
			C708.4,1697.5,709.5,1778.1,736.4,1864"/>
		<path id="path338" class="st17" d="M736.4,1864c-104.7-56.8-171.6-134.4-103-286.1C682,1611,740,1634,812.9,1638.8
			C708.4,1697.5,709.5,1778.1,736.4,1864L736.4,1864z"/>
		<path id="path340" class="st8" d="M290.5,1239.9l24.9-67.2l9.2,6.4L290.5,1239.9"/>
		<path id="path342" class="st9" d="M179,1831.1c-1.2-176.5-7.2-350.6-13.7-524.6c39.3-1.7,75.3-10.4,98.8-46
			c-13,191.2-23.9,382.3-34.3,573.5C217.3,1816.1,199.4,1818.9,179,1831.1"/>
		<path id="path344" class="st10" d="M179,1831.1c-1.2-176.5-7.2-350.6-13.7-524.6c39.3-1.7,75.3-10.4,98.8-46
			c-13,191.2-23.9,382.3-34.3,573.5C217.3,1816.1,199.4,1818.9,179,1831.1z"/>
		<path id="path346" class="st3" d="M177.8,1667.2c-0.1-4,41.7-12.4,43.7-9.5c-14.9-3.6-29.9-5.2-44.8-4
			C177,1658.2,177.4,1662.7,177.8,1667.2"/>
		<path id="path348" class="st3" d="M177.8,1631c-0.1-4,41.7-12.4,43.7-9.5c-14.9-3.6-29.9-5.2-44.8-4
			C177,1622,177.4,1626.5,177.8,1631"/>
		<path id="path350" class="st3" d="M176,1528.2c-0.1-4.7,48.7-14.4,50.9-11c-17.4-4.2-34.8-6.1-52.2-4.7
			C175.2,1517.8,175.6,1523,176,1528.2"/>
		<path id="path352" class="st3" d="M172.1,1386.3c-0.1-4.7,48.7-14.4,50.9-11c-17.4-4.2-34.8-6.1-52.2-4.7
			C171.2,1375.9,171.7,1381.1,172.1,1386.3"/>
		<path id="path354" class="st3" d="M246.9,1489.3c0.2-5.9-61.1-18.1-64-13.9c21.9-5.3,43.7-7.7,65.6-5.9
			C248,1476.2,247.4,1482.7,246.9,1489.3"/>
		<path id="path356" class="st3" d="M253.3,1375.1c0.2-7.4-76.6-22.7-80.2-17.4c27.4-6.6,54.8-9.6,82.2-7.4
			C254.7,1358.6,254,1366.8,253.3,1375.1"/>
		<path id="path358" class="st3" d="M240,1627.3c0.2-5.9-61.1-18.1-64-13.9c21.9-5.3,43.7-7.7,65.6-5.9
			C241.1,1614.2,240.6,1620.7,240,1627.3"/>
		<path id="path360" class="st3" d="M235.4,1701.9c0.2-5.1-52.9-15.7-55.4-12c18.9-4.6,37.8-6.7,56.8-5.1
			C236.3,1690.5,235.8,1696.2,235.4,1701.9"/>
		<path id="path362" class="st3" d="M231.7,1743c0.1-3.9-41.3-12.2-43.2-9.3c14.8-3.6,29.5-5.2,44.3-4
			C232.5,1734.2,232.1,1738.6,231.7,1743"/>
		<path id="path364" class="st3" d="M230.8,1795.9c0.1-4-41.3-12.2-43.2-9.4c14.8-3.6,29.5-5.2,44.3-4
			C231.5,1787,231.1,1791.4,230.8,1795.9"/>
		<path id="path366" class="st3" d="M177.8,1732.8c-0.1-4,41.7-12.4,43.7-9.5c-14.9-3.6-29.9-5.2-44.8-4
			C177,1723.8,177.4,1728.3,177.8,1732.8"/>
		<path id="path368" class="st3" d="M182.7,1785.6c-0.1-4,41.7-12.4,43.7-9.5c-14.9-3.6-29.9-5.2-44.8-4
			C181.9,1776.6,182.3,1781.1,182.7,1785.6"/>
		<path id="path370" class="st3" d="M234,1724.4c0.1-3-31.3-9.3-32.8-7.1c11.2-2.7,22.4-3.9,33.6-3
			C234.5,1717.7,234.2,1721.1,234,1724.4"/>
		<path id="path372" class="st3" d="M234,1776.3c0.1-3-31.3-9.3-32.8-7.1c11.2-2.7,22.4-3.9,33.6-3
			C234.5,1769.5,234.2,1772.9,234,1776.3"/>
		<path id="path374" class="st8" d="M585.7,1053.2c-19.4-53.1,61.6-9.2,87.1,21.1c-12.2-4.7-24.4-11.2-44.9-24.2
			C605.8,1034.9,593,1044.6,585.7,1053.2"/>
		<path id="path376" class="st4" d="M256.6,1203.9l-19.3-23.1"/>
		<path id="path378" class="st4" d="M319.2,1159.1l-19.3-23.1"/>
		<path id="path380" class="st4" d="M392.2,1126.5l-10.4-28.2"/>
		<path id="path382" class="st4" d="M248.4,1136l-19.3-23.1"/>
		<path id="path384" class="st4" d="M309.3,1105.9l-10.1-28.3"/>
		<path id="path386" class="st4" d="M385.5,1089.1l-3.8-29.8"/>
		<path id="path388" class="st4" d="M484.3,1080.3l0.5-30.1"/>
		<path id="path390" class="st18" d="M703.2,1400.9c18,20.4,41.1,34.1,88.1,15.3c23.8-7.3,47-12,65.8,1.3
			c-10.4-9.9-10.9-25.3-61.3-13.4C757.7,1418.4,729.3,1412.2,703.2,1400.9"/>
		<path id="path392" class="st18" d="M934.3,1469.3c18,20.4,41.1,34.1,88.1,15.3c23.8-7.3,47-12,65.8,1.3
			c-10.4-9.9-10.9-25.3-61.3-13.4C988.9,1486.8,960.4,1480.5,934.3,1469.3"/>
		<path id="path394" class="st18" d="M436.9,1375.2c14.9,16.9,33.8,28.2,72.6,12.6c19.7-6,38.8-9.9,54.2,1.1
			c-8.6-8.2-9-20.8-50.6-11C481.9,1389.6,458.4,1384.5,436.9,1375.2"/>
		<path id="path396" class="st18" d="M896.6,1394.3c24.7-23.8,48.8-23.5,72.3,0.9C942.6,1380.5,937.3,1378.4,896.6,1394.3"/>
		<path id="path398" class="st18" d="M767.7,1334.9c24.7-23.8,48.8-23.5,72.3,0.9C813.6,1321.1,808.3,1319,767.7,1334.9"/>
		<path id="path400" class="st18" d="M641.2,1271.1c24.7-23.8,48.8-23.5,72.3,0.9C687.2,1257.2,681.9,1255.2,641.2,1271.1"/>
		<path id="path402" class="st18" d="M488,1334.9c24.7-23.8,48.8-23.5,72.3,0.9C533.9,1321.1,528.7,1319,488,1334.9"/>
		<path id="path404" class="st18" d="M392.9,1375.8c24.7-23.8,48.8-23.5,72.3,0.9C438.8,1361.9,433.5,1359.9,392.9,1375.8"/>
		<path id="path406" class="st18" d="M491.2,1447.6c34.2-33,67.7-32.6,100.2,1.2C554.9,1428.4,547.6,1425.5,491.2,1447.6"/>
		<path id="path408" class="st18" d="M635.5,1401c34.2-33,67.7-32.6,100.2,1.2C699.2,1381.8,691.9,1378.9,635.5,1401"/>
		<path id="path410" class="st18" d="M814.9,1330.2c12.3,13.9,27.9,23.2,60,10.4c16.2-4.9,32-8.1,44.8,0.9
			c-7.1-6.8-7.4-17.2-41.7-9.1C852,1342.1,832.7,1337.8,814.9,1330.2"/>
		<path id="path412" class="st18" d="M947.7,1394.7c12.3,13.9,27.9,23.2,60,10.4c16.2-4.9,32-8.1,44.8,0.9
			c-7.1-6.8-7.4-17.2-41.7-9.1C984.8,1406.6,965.5,1402.3,947.7,1394.7"/>
		<path id="path414" class="st18" d="M678.9,1270.1c12.3,13.9,27.9,23.2,60,10.4c16.2-4.9,32-8.1,44.8,0.9
			c-7.1-6.8-7.4-17.2-41.7-9.1C716,1282.1,696.7,1277.8,678.9,1270.1"/>
		<path id="path416" class="st18" d="M532,1334c12.3,13.9,27.9,23.2,60,10.4c16.2-4.9,32-8.1,44.7,0.9c-7.1-6.8-7.4-17.2-41.7-9.1
			C569.2,1345.9,549.8,1341.7,532,1334"/>
		<path id="path418" class="st18" d="M417.8,1483.9c18,20.4,41.1,34.1,88.1,15.3c23.8-7.3,47.1-12,65.8,1.3
			c-10.4-9.9-10.9-25.3-61.3-13.4C472.3,1501.5,443.9,1495.2,417.8,1483.9"/>
		<path id="path420" class="st18" d="M556.9,1443.1c18,20.4,41.1,34.1,88.1,15.3c23.8-7.3,47-12,65.8,1.3
			c-10.4-9.9-10.9-25.3-61.3-13.4C611.5,1460.6,583.1,1454.3,556.9,1443.1"/>
		<path id="path422" class="st18" d="M758.7,1490.3c18,20.4,41.1,34.1,88.1,15.3c23.8-7.3,47-12,65.8,1.3
			c-10.4-9.9-10.9-25.3-61.3-13.4C813.3,1507.8,784.8,1501.6,758.7,1490.3"/>
		<path id="path424" class="st18" d="M689.1,1494.2c35.8-34.5,70.7-34,104.7,1.3C755.6,1474.1,748,1471.1,689.1,1494.2"/>
		<path id="path426" class="st18" d="M867.9,1475c35.8-34.5,70.7-34.1,104.7,1.3C934.4,1455,926.8,1452,867.9,1475"/>
		<path id="path428" class="st18" d="M346.2,1484c34.2-33,67.6-32.6,100.2,1.2C409.9,1464.8,402.7,1461.9,346.2,1484"/>
		<path id="path430" class="st3" d="M762.2,2293.4l91.9-9.3l-68.8-61.6l19.5-90.3l-79.8,46.4l-79.8-46.4l19.5,90.3l-68.8,61.6
			l91.9,9.3l37.3,84.5L762.2,2293.4"/>
		<path id="path432" class="st15" d="M725,2353.2l30.5-69.2l75.2-7.7l-56.3-50.4l16-73.9l-65.3,38l-65.3-38l16,73.9l-56.3,50.4
			l75.2,7.7L725,2353.2"/>
		<path id="path434" class="st8" d="M450.9,2006.5l33.9-29.3l-16,55.4C468.8,2032.6,450.9,2007.4,450.9,2006.5"/>
		<path id="path436" class="st4" d="M450.9,2006.5l33.9-29.3l-16,55.4C468.8,2032.6,450.9,2007.4,450.9,2006.5z"/>
		<path id="path438" class="st4" d="M430.9,2056.5c-9.8,5.9-5.2,23.9,0.8,28.5c7.7,5.9,11.5-8.2,8.3-14.1c0,0,13.3,21,18.7,15.5
			c2-2,2.9-4.2,3.3-6.3c1.3-6.8-0.2-34.4-13.3-25.4C448.7,2054.6,431.7,2056,430.9,2056.5z"/>
		<path id="path440" class="st6" d="M430.9,2056.5c-9.8,5.9-5.2,23.9,0.8,28.5c7.7,5.9,11.5-8.2,8.3-14.1c0,0,13.3,21,18.7,15.5
			c2-2,2.9-4.2,3.3-6.3c1.3-6.8-0.2-34.4-13.3-25.4C448.7,2054.6,431.7,2056,430.9,2056.5"/>
		<path id="path442" class="st4" d="M487.7,2080.6c9.7-3.8,2.1-18.1-5.1-16.3c0,0,16-5.8,11.5-12.7c-4.5-6.8-16.4-8.6-17.7-4.6
			c-0.3,0.7-14.4,8-18.7,7C443.9,2050.7,459.9,2091.4,487.7,2080.6z"/>
		<path id="path444" class="st6" d="M487.7,2080.6c9.7-3.8,2.1-18.1-5.1-16.3c0,0,16-5.8,11.5-12.7c-4.5-6.8-16.4-8.6-17.7-4.6
			c-0.3,0.7-14.4,8-18.7,7C443.9,2050.7,459.9,2091.4,487.7,2080.6"/>
		<path id="path446" class="st4" d="M426.3,2034.8c-12.1,2.3-25.6-16.7-24.3-24.6c1.7-10.3,16.3-10.4,18.2-3.2
			c0,0-2.7-16.9,5.6-16.3c8.3,0.5,15.7,9.9,12.8,13.1c-0.5,0.6-8.8,20.5-7.2,24.6C431.4,2028.4,427.2,2034.6,426.3,2034.8
			L426.3,2034.8z"/>
		<path id="path448" class="st6" d="M426.3,2034.8c-12.1,2.3-25.6-16.7-24.3-24.6c1.7-10.3,16.3-10.4,18.2-3.2
			c0,0-2.7-16.9,5.6-16.3c8.3,0.5,15.7,9.9,12.8,13.1c-0.5,0.6-8.8,20.5-7.2,24.6C431.4,2028.4,427.2,2034.6,426.3,2034.8"/>
		<path id="path450" class="st4" d="M427.6,2056.2c-0.9,9.3-16.1,12.7-21.7,10.1c-7.2-3.4,2-11.4,7.6-11.3c0,0-20.6-1.8-18.4-7.8
			c2.2-6,8-6.3,9.9-8.9c2.1-2.8,18.9-4.3,17.5,4.3C422.6,2042.6,427.6,2055.5,427.6,2056.2z"/>
		<path id="path452" class="st6" d="M427.6,2056.2c-0.9,9.3-16.1,12.7-21.7,10.1c-7.2-3.4,2-11.4,7.6-11.3c0,0-20.6-1.8-18.4-7.8
			c2.2-6,8-6.3,9.9-8.9c2.1-2.8,18.9-4.3,17.5,4.3C422.6,2042.6,427.6,2055.5,427.6,2056.2"/>
		<path id="path454" class="st4" d="M437.8,2057.8c7.5,0,13.6-6.3,13.6-14c0-7.7-6.1-14-13.6-14s-13.6,6.3-13.6,14
			S430.3,2057.8,437.8,2057.8z"/>
		<path id="path456" class="st6" d="M437.8,2057.8c7.5,0,13.6-6.3,13.6-14c0-7.7-6.1-14-13.6-14s-13.6,6.3-13.6,14
			S430.3,2057.8,437.8,2057.8"/>
		<path id="path458" class="st4" d="M446.4,2000.9c9.6-3.5,20.4,9.1,17,22.2c28.7-20,28.8,38-11.5,28.2c2.9-10.7-4.2-24.5-16.6-25
			C431.6,2019.1,437.8,2004,446.4,2000.9z"/>
		<path id="path460" class="st6" d="M446.4,2000.9c9.6-3.5,20.4,9.1,17,22.2c28.7-20,28.8,38-11.5,28.2c2.9-10.7-4.2-24.5-16.6-25
			C431.6,2019.1,437.8,2004,446.4,2000.9"/>
		<path id="path462" class="st8" d="M504.9,1973.1c-10.8,12-10.7,34.1-3.2,63.1c5.5-6.4,11-10.4,16.5-11.9c0,0,27.5,18.3,27,14.6
			c1.4-3.7,0-40.3-1.8-40.3c4.7-1.4,9.5-2.7,14.2-4.1C559.5,1987.2,507.9,1967,504.9,1973.1"/>
		<path id="path464" class="st4" d="M504.9,1973.1c-10.8,12-10.7,34.1-3.2,63.1c5.5-6.4,11-10.4,16.5-11.9c0,0,27.5,18.3,27,14.6
			c1.4-3.7,0-40.3-1.8-40.3c4.7-1.4,9.5-2.7,14.2-4.1C559.5,1987.2,507.9,1967,504.9,1973.1L504.9,1973.1z"/>
		<path id="path466" class="st4" d="M490.3,1953.9l39.8,61.8"/>
		<path id="path468" class="st4" d="M515.5,1996.6l-5.5,19.8"/>
		<path id="path470" class="st8" d="M490.8,1953.6c-5,15.3-24.2,26.3-53.1,34.3c2.8-8,3.5-14.7,2.1-20.2c0,0-29.6-14.6-26.2-16.1
			c2.5-3,34.9-20.1,35.8-18.5c-1.2-4.8-2.3-9.6-3.5-14.3C451.2,1913.4,494.5,1947.9,490.8,1953.6"/>
		<path id="path472" class="st4" d="M490.8,1953.6c-5,15.3-24.2,26.3-53.1,34.3c2.8-8,3.5-14.7,2.1-20.2c0,0-29.6-14.6-26.2-16.1
			c2.5-3,34.9-20.1,35.8-18.5c-1.2-4.8-2.3-9.6-3.5-14.3C451.2,1913.4,494.5,1947.9,490.8,1953.6z"/>
		<path id="path474" class="st4" d="M440.5,1952.9l49.2-0.3"/>
		<path id="path476" class="st4" d="M455.5,1957.7l-4.6,18.4"/>
		<path id="path478" class="st4" d="M484.8,1982.7c2.3-4.6,9.2-21.5,21.5-29.3c12.4-7.8,27-1.8,30.7-10.1c3.7-8.2,4.1-10.5,4.1-10.5
			"/>
		<path id="path480" class="st8" d="M709,1988.5c7.6,22.7-53.9,25.8-61.6,8.2c6.6,8.8,2.1,13.6-7.5,16.7
			c34.1,7.6,16.7,28.7-3.6,50.6c3.8,1.7,18.9,3.4,22.7-2.6c19.2-30.6,28.5-19.7,24.3,20.4c25.5-32.5,28.4-17.5,28.1,4.3
			c9.5-20.2,19-20.4,28.5-0.7c-0.1-26.1-1.3-55.8,16-22.8c-1.6-26.1,8.8-33.6,33.8-18.9c-10.5-14.7-7.4-27.1,7.1-32.4
			c-2.1-0.7-47-7.5-53.8-11.4c-6.8-3.9-14.6-5-18.9-8.5C720.1,1987.8,708,1988.5,709,1988.5"/>
		<path id="path482" class="st7" d="M709,1988.5c7.6,22.7-53.9,25.8-61.6,8.2c6.6,8.8,2.1,13.6-7.5,16.7
			c34.1,7.6,16.7,28.7-3.6,50.6c3.8,1.7,18.9,3.4,22.7-2.6c19.2-30.6,28.5-19.7,24.3,20.4c25.5-32.5,28.4-17.5,28.1,4.3
			c9.5-20.2,19-20.4,28.5-0.7c-0.1-26.1-1.3-55.8,16-22.8c-1.6-26.1,8.8-33.6,33.8-18.9c-10.5-14.7-7.4-27.1,7.1-32.4
			c-2.1-0.7-47-7.5-53.8-11.4c-6.8-3.9-14.6-5-18.9-8.5C720.1,1987.8,708,1988.5,709,1988.5L709,1988.5z"/>
		<path id="path484" class="st8" d="M709,1986.4c-7.2,10.1-31.2,19.5-56.6,0c-17.6-13.5-17.4-0.5-28.8-3.3c9.1-21,5.5-35.8-11-44.5
			c14.4-8.3,30.2-6.2,47.4,6.4c-1-8.5-2.4-14.7-4.3-18.5c17.1,6.1,35.5,32.4,52.7,44.5c0,0,7.5-1.1,7.1,2.5
			C715.1,1977.1,709,1986.4,709,1986.4"/>
		<path id="path486" class="st7" d="M709,1986.4c-7.2,10.1-31.2,19.5-56.6,0c-17.6-13.5-17.4-0.5-28.8-3.3c9.1-21,5.5-35.8-11-44.5
			c14.4-8.3,30.2-6.2,47.4,6.4c-1-8.5-2.4-14.7-4.3-18.5c17.1,6.1,35.5,32.4,52.7,44.5c0,0,7.5-1.1,7.1,2.5
			C715.1,1977.1,709,1986.4,709,1986.4z"/>
		<path id="path488" class="st8" d="M726.5,1980.3c-9.4-14,41.2-59.4,53.4-50.6c0.1,3.9,0.2,7.8,0.4,11.8c22.2-4.4,37.1,0.2,47,11
			c-11.8,11.2-25.3,17.3-39.9,19.9c3.7,4.2,4.5,4,8.2,8.2C794.6,1990.6,724.8,1992.7,726.5,1980.3"/>
		<path id="path490" class="st7" d="M726.5,1980.3c-9.4-14,41.2-59.4,53.4-50.6c0.1,3.9,0.2,7.8,0.4,11.8c22.2-4.4,37.1,0.2,47,11
			c-11.8,11.2-25.3,17.3-39.9,19.9c3.7,4.2,4.5,4,8.2,8.2C794.6,1990.6,724.8,1992.7,726.5,1980.3L726.5,1980.3z"/>
		<path id="path492" class="st4" d="M706.2,1968.6c-6.8,2.1-30.3,14.2-36.3,6.8c-6.1-7.5-4.3-13.2-16.7-18.9
			c-12.5-5.7-14.6-6.1-14.6-6.1"/>
		<path id="path494" class="st4" d="M737.5,1975.7c8.5-10,16.4-16,18.9-19.2"/>
		<path id="path496" class="st4" d="M738.9,1973.6c3.2-1.1,12.1,4.6,22.8-5c10.7-9.6,11.4-10.7,21.4-12.5c10-1.8,18.2-1.1,19.9-1.8"
			/>
		<path id="path498" class="st4" d="M713.3,1997.8c-0.7,2.1-3.9,21-11.7,27.8c-7.8,6.8-14.2,10-11,14.2"/>
		<path id="path500" class="st4" d="M718.7,2051.9c0.4-4.3,6.4-15,2.1-27.1c-4.3-12.1-7.1-16.4-3.9-23.1c3.2-6.8,3.2-7.8,3.2-7.8"/>
		<path id="path502" class="st4" d="M740.7,2040.9c0,0,5.3-8.2-2.5-17.8c-7.8-9.6-13.5-10.7-15.7-18.9c-2.1-8.2-2.5-12.5-2.5-12.5"
			/>
		<path id="path504" class="st8" d="M987.1,2006.5l-33.9-29.3l16,55.4C969.2,2032.6,987.1,2007.4,987.1,2006.5"/>
		<path id="path506" class="st4" d="M987.1,2006.5l-33.9-29.3l16,55.4C969.2,2032.6,987.1,2007.4,987.1,2006.5L987.1,2006.5z"/>
		<path id="path508" class="st4" d="M1007.1,2056.5c9.8,5.9,5.2,23.9-0.8,28.5c-7.7,5.9-11.5-8.2-8.3-14.1c0,0-13.3,21-18.7,15.5
			c-2-2-2.9-4.2-3.3-6.3c-1.2-6.8,0.2-34.4,13.3-25.4C989.3,2054.6,1006.3,2056,1007.1,2056.5L1007.1,2056.5z"/>
		<path id="path510" class="st6" d="M1007.1,2056.5c9.8,5.9,5.2,23.9-0.8,28.5c-7.7,5.9-11.5-8.2-8.3-14.1c0,0-13.3,21-18.7,15.5
			c-2-2-2.9-4.2-3.3-6.3c-1.2-6.8,0.2-34.4,13.3-25.4C989.3,2054.6,1006.3,2056,1007.1,2056.5"/>
		<path id="path512" class="st4" d="M950.2,2080.6c-9.7-3.8-2.1-18.1,5.1-16.3c0,0-16-5.8-11.5-12.7c4.5-6.8,16.4-8.6,17.7-4.6
			c0.3,0.7,14.4,8,18.7,7C994,2050.7,978.1,2091.4,950.2,2080.6z"/>
		<path id="path514" class="st6" d="M950.2,2080.6c-9.7-3.8-2.1-18.1,5.1-16.3c0,0-16-5.8-11.5-12.7c4.5-6.8,16.4-8.6,17.7-4.6
			c0.3,0.7,14.4,8,18.7,7C994,2050.7,978.1,2091.4,950.2,2080.6"/>
		<path id="path516" class="st4" d="M1011.7,2034.8c12.1,2.3,25.6-16.7,24.3-24.6c-1.7-10.3-16.3-10.4-18.2-3.2
			c0,0,2.7-16.9-5.6-16.3c-8.3,0.5-15.7,9.9-12.8,13.1c0.5,0.6,8.8,20.5,7.2,24.6C1006.6,2028.4,1010.8,2034.6,1011.7,2034.8
			L1011.7,2034.8z"/>
		<path id="path518" class="st6" d="M1011.7,2034.8c12.1,2.3,25.6-16.7,24.3-24.6c-1.7-10.3-16.3-10.4-18.2-3.2
			c0,0,2.7-16.9-5.6-16.3c-8.3,0.5-15.7,9.9-12.8,13.1c0.5,0.6,8.8,20.5,7.2,24.6C1006.6,2028.4,1010.8,2034.6,1011.7,2034.8"/>
		<path id="path520" class="st4" d="M1010.4,2056.2c0.9,9.3,16.1,12.7,21.7,10.1c7.2-3.4-2-11.4-7.6-11.3c0,0,20.6-1.8,18.4-7.8
			c-2.1-6-8-6.3-9.9-8.9c-2.1-2.8-18.9-4.3-17.5,4.3C1015.4,2042.6,1010.3,2055.5,1010.4,2056.2z"/>
		<path id="path522" class="st6" d="M1010.4,2056.2c0.9,9.3,16.1,12.7,21.7,10.1c7.2-3.4-2-11.4-7.6-11.3c0,0,20.6-1.8,18.4-7.8
			c-2.1-6-8-6.3-9.9-8.9c-2.1-2.8-18.9-4.3-17.5,4.3C1015.4,2042.6,1010.3,2055.5,1010.4,2056.2"/>
		<path id="path524" class="st4" d="M1000.2,2057.8c-7.5,0-13.6-6.3-13.6-14c0-7.7,6.1-14,13.6-14c7.5,0,13.6,6.3,13.6,14
			S1007.7,2057.8,1000.2,2057.8z"/>
		<path id="path526" class="st6" d="M1000.2,2057.8c-7.5,0-13.6-6.3-13.6-14c0-7.7,6.1-14,13.6-14c7.5,0,13.6,6.3,13.6,14
			S1007.7,2057.8,1000.2,2057.8"/>
		<path id="path528" class="st4" d="M991.6,2000.9c-9.5-3.5-20.3,9.1-17,22.2c-28.7-20-28.8,38,11.5,28.2
			c-2.9-10.7,4.2-24.5,16.6-25C1006.4,2019.1,1000.2,2004,991.6,2000.9z"/>
		<path id="path530" class="st6" d="M991.6,2000.9c-9.5-3.5-20.3,9.1-17,22.2c-28.7-20-28.8,38,11.5,28.2
			c-2.9-10.7,4.2-24.5,16.6-25C1006.4,2019.1,1000.2,2004,991.6,2000.9"/>
		<path id="path532" class="st8" d="M933.1,1973.1c10.8,12,10.7,34.1,3.2,63.1c-5.5-6.4-11-10.4-16.5-11.9c0,0-27.5,18.3-27,14.6
			c-1.4-3.7,0-40.3,1.8-40.3c-4.7-1.4-9.5-2.7-14.2-4.1C878.5,1987.2,930,1967,933.1,1973.1"/>
		<path id="path534" class="st4" d="M933.1,1973.1c10.8,12,10.7,34.1,3.2,63.1c-5.5-6.4-11-10.4-16.5-11.9c0,0-27.5,18.3-27,14.6
			c-1.4-3.7,0-40.3,1.8-40.3c-4.7-1.4-9.5-2.7-14.2-4.1C878.5,1987.2,930,1967,933.1,1973.1L933.1,1973.1z"/>
		<path id="path536" class="st4" d="M947.7,1953.9l-39.8,61.8"/>
		<path id="path538" class="st4" d="M922.5,1996.6l5.5,19.8"/>
		<path id="path540" class="st8" d="M947.2,1953.6c5,15.3,24.2,26.3,53.1,34.3c-2.8-8-3.5-14.7-2.1-20.2c0,0,29.6-14.6,26.2-16.1
			c-2.5-3-34.9-20.1-35.8-18.5c1.2-4.8,2.3-9.6,3.5-14.3C986.8,1913.4,943.4,1947.9,947.2,1953.6"/>
		<path id="path542" class="st4" d="M947.2,1953.6c5,15.3,24.2,26.3,53.1,34.3c-2.8-8-3.5-14.7-2.1-20.2c0,0,29.6-14.6,26.2-16.1
			c-2.5-3-34.9-20.1-35.8-18.5c1.2-4.8,2.3-9.6,3.5-14.3C986.8,1913.4,943.4,1947.9,947.2,1953.6z"/>
		<path id="path544" class="st4" d="M997.5,1952.9l-49.2-0.3"/>
		<path id="path546" class="st4" d="M982.4,1957.7l4.6,18.4"/>
		<path id="path548" class="st4" d="M953.2,1982.7c-2.3-4.6-9.2-21.5-21.5-29.3c-12.4-7.8-27-1.8-30.7-10.1
			c-3.7-8.2-4.1-10.5-4.1-10.5"/>
		<path id="path550" class="st7" d="M702.3,1601.5c-4.7,1-23.4,8.3-23.4,8.3s10.4,13.5,7.3,13c-3.1-0.5-12.5-14-12.5-14
			s-3.1,9.3-8.3,0c-5.2-9.3-8.8-8.8-8.8-13c0-4.2,8.3-3.1,8.3-9.3c0-6.2,3.1-14.5,3.6-11.9c0.5,2.6,3.6,15.6,3.6,15.6s7.8,0,8.8-3.6
			c1-3.6-1.5-1-2.1-14c-0.5-13,2.6-3.1,4.2,1c1.6,4.2,6.2,19.2,6.2,19.2L702.3,1601.5L702.3,1601.5z"/>
		<path id="path552" class="st3" d="M702.3,1601.5c-4.7,1-23.4,8.3-23.4,8.3s10.4,13.5,7.3,13c-3.1-0.5-12.5-14-12.5-14
			s-3.1,9.3-8.3,0c-5.2-9.3-8.8-8.8-8.8-13c0-4.2,8.3-3.1,8.3-9.3c0-6.2,3.1-14.5,3.6-11.9c0.5,2.6,3.6,15.6,3.6,15.6s7.8,0,8.8-3.6
			c1-3.6-1.5-1-2.1-14c-0.5-13,2.6-3.1,4.2,1c1.6,4.2,6.2,19.2,6.2,19.2L702.3,1601.5"/>
		<path id="path554" class="st7" d="M729.8,1610.9c0-7.8,2.6-9.9,7.3-13c4.7-3.1,7.8,0,7.8-6.7c0-6.8-8.3-11.9-8.3-16.1
			c0-4.2,14.5,2.6,14.5,5.7c0,3.1-0.5,11.9,2.6,4.2c3.1-7.8,8.3-3.6,8.3,3.6s-5.7,22.8-9.9,24.9c-4.2,2.1-14,5.2-15.1,2.6
			C736,1613.5,728.2,1609.9,729.8,1610.9z"/>
		<path id="path556" class="st3" d="M729.8,1610.9c0-7.8,2.6-9.9,7.3-13c4.7-3.1,7.8,0,7.8-6.7c0-6.8-8.3-11.9-8.3-16.1
			c0-4.2,14.5,2.6,14.5,5.7c0,3.1-0.5,11.9,2.6,4.2c3.1-7.8,8.3-3.6,8.3,3.6s-5.7,22.8-9.9,24.9c-4.2,2.1-14,5.2-15.1,2.6
			C736,1613.5,728.2,1609.9,729.8,1610.9"/>
		<path id="path558" class="st7" d="M803.5,1561.1c-3.6,23.4-20,40.6-46.7,51.9c-1,0.4-3.4,1.3-2.6,2.1c3.2,2.8,7.6,3.8,11.4,5.7
			c0,0-1.6,3.6-7.3,3.6s-13,0.5-13,0.5c-1.7,4-0.9,9.5-2.6,13.5c0,0-16.6,0.5-16.6-5.2c0-5.7,1-7.8,1-10.4
			c0-2.6-11.4-11.9-11.4-11.9s6.8,0.5,14,1c7.3,0.5,13.5-0.5,13.5-0.5s5.2-5.7,5.7-10.4c0.5-4.7,10.4-6.2,10.4-11.4
			c0-5.2,1-7.8,1-12.5c0-4.7,10.4,0.5,10.4,0.5c5-1.7,19.7-2.6,15.1-5.2c-5.5-3.1-13.2,6.3-18.7,3.1c-5-2.9-3.1-11.1-4.7-16.6
			c0,0,11.4-2.6,14.5-2.6C780.2,1556.4,803.8,1559.4,803.5,1561.1L803.5,1561.1z"/>
		<path id="path560" class="st9" d="M803.5,1561.1c-3.6,23.4-20,40.6-46.7,51.9c-1,0.4-3.4,1.3-2.6,2.1c3.2,2.8,7.6,3.8,11.4,5.7
			c0,0-1.6,3.6-7.3,3.6s-13,0.5-13,0.5c-1.7,4-0.9,9.5-2.6,13.5c0,0-16.6,0.5-16.6-5.2c0-5.7,1-7.8,1-10.4
			c0-2.6-11.4-11.9-11.4-11.9s6.8,0.5,14,1c7.3,0.5,13.5-0.5,13.5-0.5s5.2-5.7,5.7-10.4c0.5-4.7,10.4-6.2,10.4-11.4
			c0-5.2,1-7.8,1-12.5c0-4.7,10.4,0.5,10.4,0.5c5-1.7,19.7-2.6,15.1-5.2c-5.5-3.1-13.2,6.3-18.7,3.1c-5-2.9-3.1-11.1-4.7-16.6
			c0,0,11.4-2.6,14.5-2.6C780.2,1556.4,803.8,1559.4,803.5,1561.1"/>
		<path id="path562" class="st7" d="M683.6,1596.4c2-7.1,3.6-29.1,3.6-29.1s3.6-1.5,7.3,1.6c3.6,3.1,7.3,18.7,7.3,18.7
			c5.5-1.2,11.1-2.4,16.6-3.6c0,0-10.9-17.6-10.9-20.2s8.8,1,11.9,4.2c3.1,3.1,13.5,18.7,13.5,18.7c-6.4,2.4-12.8,4.8-19.2,7.3
			c0,0-14.5,7.8-17.1,8.8c-2.9,1.2-18.9,6.8-18.7,5.2C677.9,1607.8,683.5,1596.8,683.6,1596.4L683.6,1596.4z"/>
		<path id="path564" class="st9" d="M683.6,1596.4c2-7.1,3.6-29.1,3.6-29.1s3.6-1.5,7.3,1.6c3.6,3.1,7.3,18.7,7.3,18.7
			c5.5-1.2,11.1-2.4,16.6-3.6c0,0-10.9-17.6-10.9-20.2s8.8,1,11.9,4.2c3.1,3.1,13.5,18.7,13.5,18.7c-6.4,2.4-12.8,4.8-19.2,7.3
			c0,0-14.5,7.8-17.1,8.8c-2.9,1.2-18.9,6.8-18.7,5.2C677.9,1607.8,683.5,1596.8,683.6,1596.4"/>
		<path id="path566" class="st9" d="M555.4,1553.3c5.7-7.3,22.8-13.5,22.8-13.5l305.8-0.9l8.3,14.9
			C892.3,1553.8,554.8,1553.8,555.4,1553.3"/>
		<path id="path568" class="st7" d="M555.4,1553.3c5.7-7.3,22.8-13.5,22.8-13.5l305.8-0.9l8.3,14.9
			C892.3,1553.8,554.8,1553.8,555.4,1553.3z"/>
		<path id="path570" class="st7" d="M683.1,1574c-2.6-4.7-7.8-9.3-5.2-15.6c2.6-6.2,1.6-8.8,1.6-19.7c0-10.9,0-20.8,0-20.8"/>
		<path id="path572" class="st7" d="M694.5,1578.2c0,0,6.2-11.9,6.2-28s0-24.4,0-28.6"/>
		<path id="path574" class="st7" d="M710.1,1578.2c0,0,1-20.8,1-32.7c0-11.9,0-19.2,0-22.8"/>
		<path id="path576" class="st7" d="M731.4,1606.3c0,0,3.1,0.4,4.7-3.2c1.6-3.6,3.1-3.6,5.2-7.3c2.1-3.6,2.6-5.2-3.6-11.9
			c-6.2-6.7-24.4-28-24.4-28s2.1-12.5,2.1-19.2c0-6.8,0-19.7,0-19.7"/>
		<path id="path578" class="st7" d="M731.4,1604.4c7.8-10.4,11.9-5.5,13-11.7c1-6.2-5.7-6.7-11.4-17.6
			c-5.7-10.9-10.9-21.3-10.9-21.3l2.1-25.4l0.5-6.8"/>
		<path id="path580" class="st7" d="M731.4,1565.2l2.6-44.1"/>
		<path id="path582" class="st7" d="M736,1575.1l7.8-55.5"/>
		<path id="path584" class="st7" d="M753.7,1562.6c0,0-2.1-27-2.1-31.2c0-4.2,0-10.4,0-14.5"/>
		<path id="path586" class="st7" d="M759.4,1561.1c0,0,3.1-18.7,3.1-24.9s0-18.2,0-18.2"/>
		<path id="path588" class="st7" d="M766.7,1560c0-3.1,4.7-21.3,4.2-25.4c-0.5-4.2-1.5-13.5-1.5-13.5"/>
		<path id="path590" class="st3" d="M610.1,1647.8c-4-0.5-8-1.1-12-1.6c7.5-24.3,15-48.5,22.4-72.8c-0.5-4.4-1.1-8.8-1.6-13.1
			c8-0.2,16-0.4,24.1-0.5c7.7,4.9,15.3,9.8,23,14.8c-12.8,2.6-25.5,5.1-38.3,7.7c2.7,3.1,5.5,6.2,8.2,9.3c-11.2,6.9-17.6,26-23,47.6
			C611.9,1642,611,1644.9,610.1,1647.8"/>
	</g>
</g>
</svg>
