<?xml version="1.0" encoding="utf-8"?>
<!-- Generator: Adobe Illustrator 27.6.1, SVG Export Plug-In . SVG Version: 6.00 Build 0)  -->
<svg version="1.1" id="Camada_1" xmlns="http://www.w3.org/2000/svg" xmlns:xlink="http://www.w3.org/1999/xlink" x="0px" y="0px"
	 viewBox="0 0 720 504" style="enable-background:new 0 0 720 504;" xml:space="preserve">
<style type="text/css">
	.st0{fill:#ED1C24;}
	.st1{fill:#FFFFFF;}
	.st2{fill:#A6CE39;}
	.st3{fill:#00A650;stroke:#231F20;}
	.st4{fill:#ED1C24;stroke:#231F20;}
	.st5{fill:#00A650;stroke:#231F20;stroke-linecap:round;}
	.st6{fill:none;stroke:#231F20;stroke-linecap:round;}
	.st7{fill:none;stroke:#231F20;}
	.st8{fill:#FFF200;stroke:#231F20;}
	.st9{fill:none;stroke:#231F20;stroke-width:0.8;stroke-linecap:round;}
	.st10{fill:none;stroke:#231F20;stroke-width:0.8;}
	.st11{fill:none;stroke:#231F20;stroke-width:0.5;}
	.st12{fill:#FFFFFF;stroke:#231F20;}
	.st13{fill:#FFFFFF;stroke:#231F20;stroke-linecap:round;}
	.st14{fill:#231F20;}
	.st15{fill:#FFF200;}
	.st16{fill:#FFF200;stroke:#231F20;stroke-miterlimit:22.9;}
	.st17{fill:#FFF200;stroke:#231F20;stroke-linejoin:round;}
	.st18{stroke:#231F20;}
	.st19{stroke:#231F20;stroke-linecap:round;}
	.st20{fill:#231F20;stroke:#231F20;}
	.st21{fill:#B87619;stroke:#231F20;}
	.st22{fill:#F68712;stroke:#231F20;}
	.st23{fill:#F68712;stroke:#231F20;stroke-width:0.5;}
</style>
<rect class="st0" width="720" height="504"/>
<rect y="168" class="st1" width="720" height="168"/>
<path class="st2" d="M77,252L360.5,63L644,252L360.5,441L77,252z"/>
<g id="brasao">
	<g id="suportes">
		<g id="ramos">
			<path class="st3" d="M450.9,198c-1.1-3.3-2.2-6.7-3.4-10c-0.8-3.4-3.2-7.1-5-9.5c-1.8-2.4-2.6-3.8-4-5.6
				c-1.2,0.2-2.3,0.4-3.5,0.6c1.3,1.3,2.6,2.7,3.9,3.9c5.3,3.4,7.1,11.9,9.6,18.7c0.5,1.6,1,3.2,1.4,4.8
				C450.2,199.9,450.5,199,450.9,198 M452.1,208.4c-2.5-18.7-17.2-20.8-22.5-24.2c1.2,6,1.2,10.2,5.1,16.2c3.9,6,6.3,10.8,11,12.2
				L452.1,208.4z"/>
			<path class="st3" d="M446.7,191.5c-0.5-1.5-1-2.9-1.4-4.4c-0.7-3.1-3.8-9.3-12.7-3.5c4.5,1.4,4.5,3.1,6.8,4.4
				C441.8,189.3,444.2,190.4,446.7,191.5L446.7,191.5z"/>
			<path class="st3" d="M442.9,182.5c-3.3-2.2-11.6-2.7-18,0.1c4.2-1.8,9-2.1,12.7-1.4c-11,5.9-8.6,0.5-16,3.4
				c3.2-7.5,8.4-9.1,13.2-3.9C437.5,181.3,438.5,180.6,442.9,182.5 M418.8,157.5c-3.8,3.5-7.8,4-13.9,1.8c-6.3-2.3-9.8-5.9-14.7-8.9
				c8.6-2.9,16.6-3.9,25,0.8C417.4,153.1,417.6,155.5,418.8,157.5"/>
			<path class="st3" d="M418.1,157.5c-2.2-3.4-5-8.3-1.8-16.7c2.2,4.6,2.8,4.9,6.3,6.9c4.2,3.1,1.7,8.1,2.5,12.1
				C422.7,159,420.4,158.2,418.1,157.5"/>
			<path class="st3" d="M431.8,168.3c-2.3-1.4-2.2-4.2-12.2-3.9c-4.9-2.6-1.4-9.4,4.2-9.5C422.4,163.6,429.2,163.8,431.8,168.3"/>
			<path class="st3" d="M432,168.4c-1.5-1.4-2.8-3.1-4.4-4.2c-3.9-2.7-7.7-12.8,1-14.1c2.4-0.4,1.7,1.7,5.6,1.7
				c-4.2,2.4-8.4,6.5-0.8,17.3 M406.1,172.6c-4-5,3.7-12.7,12.3-9.1c1.3,0.6,2.4,1.6,3.6,2.4c-5.4,4.4-11.3,13.7-16.2,13.1
				C407.5,177.1,408.4,175.6,406.1,172.6L406.1,172.6z"/>
			<path class="st4" d="M433.1,171.2c1.6,0,3,1.3,3,2.8s-1.3,2.8-3,2.8s-3-1.3-3-2.8S431.4,171.2,433.1,171.2"/>
			<path class="st3" d="M431.8,169.5c-13.3-4.9-17.2,8.3-25.9,9.5c8.4-5.2,3.9-11.7,13.9-14.3C428.4,162.5,430.8,167.4,431.8,169.5
				 M441.2,226.3c-1.9-7.4-5.4-20.6-5.7-22.2c1.7,1.9,4.5,0.5,8.1,4.4c2.8,3.1,3.6,7.5,6.4,10.5c3.4,3.7,3.2,13.5,4.8,20.3
				C450.3,234.9,445.8,230.7,441.2,226.3"/>
			<path class="st3" d="M451.7,262.3c-3.2-7.6-6.4-15.2-9.6-22.8c-2.7-6-6.3-11.8-8.1-18.1c2.1,1.6,4.2,3.2,6.3,4.7
				c8.3,0.4,11.2,6.1,12.3,9.5c1,4.7,1.9,9.3,2.9,14C454.1,253.8,452.9,258.1,451.7,262.3"/>
			<path class="st5" d="M446.7,205.6l-8.5-10.8"/>
			<path class="st3" d="M454.2,258c-1.8,4.2-3.6,8.5-5.4,12.7c2.8-1,5.6-1.9,8.4-2.9c6.3-1.1,9.9-4.6,13.1-10.2
				c1.9-1.6,4-3.1,6.9-4.6C474.2,252.5,462.2,248.9,454.2,258L454.2,258z"/>
			<path class="st3" d="M457.5,235.3c-1.5,7.7-3,15.3-4.5,23c0.7-0.6,1.4-1.1,2-1.6c2.7-3.4,10.5-2.4,16.2-19.6
				c0.7-7,3.4-9.6,5.2-14.4c-7.6,2-13.6,4.5-19,12.7L457.5,235.3z"/>
			<path class="st3" d="M457.5,235c7.2-7.9,9.7-15.9,18.3-21.8c-12.8,2.7-12.6,7.7-18.9,11.6c-0.2,4.8-0.5,9.5-0.8,14.3
				C456.9,237.9,456.8,236.2,457.5,235"/>
			<path class="st3" d="M452.5,223.2c0.4,5.3,0.9,10.5,1.3,15.8c2-2.7,4.6-5,6.1-7.9c2.7-6.3,8.5-12.5,8-18.7
				c0-4.5,0.6-7.5,5.5-11.5C460.7,200.9,453.3,212.7,452.5,223.2L452.5,223.2z M450,263.9c4-19-4.9-23.7-18.6-27.9
				c2.3,4.5,1.2,6,1.8,9c1.6,7.3,5.6,9.5,7.6,10.4C445,257.3,447,261,450,263.9 M423.8,318.5c13.2-1.5,11.5-7.8,24-11.4
				c-4.7-1.3-7.2-3.7-15.1-1.9c-4.3,2.1-8.5,4.2-12.8,6.2C421.3,313.7,422.6,316.1,423.8,318.5"/>
			<path class="st3" d="M423.4,307.5c1-2,2.6-3.9,3-6.2c0.4-2.4,0.6-5.2-0.6-7.3c-7-11.9-5.5-12.7-5.1-19.1c0.1-2.2,1.1-3.6-0.4-6.7
				c5.4,2.4,9.4,8.8,12.1,13.3c6.7,11.1-6.5,22.5-6.3,27.3c4.4-2.5,11.4-11.7,11.1-16.8c0.7-0.1,0.7-0.9,1.4-1.1
				c-0.5,1.4-0.2,4.4-0.7,5.8c0.9-0.8,1.9-2,2.8-2.9c0.4,0.4,1,0.3,1.4,0.6c-1.8,1.8-3.8,4.1-5.6,5.8c1.5-0.9,3-1.8,4.4-2.8
				c0.1,0.7,0.3,1.4,0.4,2.1c-5.9,1.4-7.8,5.5-11,9c-2.7,2.9-5.8,5.4-8.7,8.1c-0.4-1.6-0.8-3.2-1.3-4.7
				C421.4,310.5,422.4,309,423.4,307.5"/>
			<path class="st6" d="M423.9,273.5c7.4,11.1,4.1,26.9,4.1,26.9"/>
			<path class="st3" d="M266.1,173.1c1.4,3.4,2.1,3.8,3.5,6.1c1.5,2.6,1.7,6.2,1.6,9.2c0.4,7.1,2,13.6,1.8,21.5
				c2.8-7.5,2.9-13.1,3-20.8C275.8,184.9,269.3,173.8,266.1,173.1z M328.3,367.2c3,4.5-10.5,6.3-13.3,6.6
				C322.3,371.1,326.9,365.1,328.3,367.2z M384.8,355.6l7.7,3.3l5.6,4.1c-4.9-2.1-12.5-4.6-16.8-7.2L384.8,355.6z M378.4,355.6
				l27.3,13.1l-3.5,0.5l-26.6-14.4L378.4,355.6z"/>
			<path class="st3" d="M378.7,356.4l28.6,15.3l4.1,4.5l-6.1-0.6c-12.5-8.3-23.6-16.3-37.7-22.6L378.7,356.4z M366.2,354.8
				c4.7,2.7,12.2,11.3,16.9,18.5c-1.8-1.3-3.3-2.2-5.1-3.5c-3.1-5.1-8.4-10.9-12.7-14.1L366.2,354.8z M382.7,365.6l19.3,13.8
				c-3.4-1.4-5.2-1.7-8-2c-5.3-4.2-10.1-8.5-15.8-12.7l0.7-1.7L382.7,365.6z M279.6,188.5c-1.8,7.2-3.5,14.3-5.3,21.6
				c-0.3-0.3-0.7-0.6-1.1-0.9c0.5-8.7,2-13.6,3-20.8c1.1-6.9,4.2-11.9,5.9-18.7C283.3,176.1,281.8,182.6,279.6,188.5L279.6,188.5z"
				/>
			<path class="st3" d="M366.9,354c5.9,3.6,12.5,7.6,17.9,12.6c-2.3-1.1-4.8-1.9-7-1.6c-3.6-3.9-7.4-6.8-11.5-9.9L366.9,354z
				 M367.4,353.1c9.5,5.6,17.6,11.4,26.2,17.9c1.4,0.4,3.3,0.6,4.7,1c-0.4-0.6-1.4-1.6-1.8-2.2C386.8,364.3,376.4,357.3,367.4,353.1
				L367.4,353.1z M288,201.1c-8.9,11.9-7.9,19.4-11.1,29.2c-0.6-4-1.3-8-2-11.9c1.7-3.6,3.3-7.1,4.9-10.7c3.7-8.2,8.6-14,14.5-19.6
				c5.7-5,10.6-5.7,16.5-7.5c-12.8,6.5-18.7,14-22.9,20.7L288,201.1z M279.7,188.2c1.8-4.2,4-7.8,6.1-11.3l0.7-2
				c1,0.9,1.4,0.2,1.5,0l1.2,1.6c-7.5,6.3-14.3,30.1-15.9,34.5L279.7,188.2z M457.5,206.9c1-5.2,0.4-12.8,0.6-17.7
				c-0.7-9.1-5-10.7-5.6-17.6c-3.5,4.9-4.6,6.3-5.4,14.1c1.9,6.8,3.8,13.6,5.7,20.4C454.4,205.4,455.8,207.6,457.5,206.9
				L457.5,206.9z M311.3,374.7c6.2-2.7,11.2-7.8,14.3-8.9c2.6-0.3,13.8-3.9,28.5-13.2c0.6,1,1.2,2,1.8,2.9
				c-8.3,4.6-16.5,9.1-24.8,13.8C327,373.5,319.1,375.5,311.3,374.7L311.3,374.7z M443.4,180.7c1.8-7.9,0.8-13.3-1.3-17.5
				c-1.8-3.6-4.3-4.1-6.1-9.3c-2.4,4.7-4.6,7.9-2.8,15.3C436.6,173,440,176.9,443.4,180.7L443.4,180.7z"/>
			<path class="st3" d="M280.3,175.2c0.7-1.3,2.4-3.7,1.8-5.7c-1.1-3.9-6-5.2-9.9-6.2c2.7,4,6.2,2.2,8,11.9 M278.7,294.5l1.2,0.2
				l7.3,8.5l6.1,6.5l1.4-1.3L281,293.4L278.7,294.5z M277.6,208.1c3.6-9.5,6.9-16.6,12.1-20.4c0.7-0.2,1.5-0.5,2.2-0.8
				c-0.2-0.6-0.4-1.2-0.5-1.9l-2.6,0.1c-0.1,0.3-0.1,0.6-0.2,1c-7.5,6.4-10.6,13.5-13.2,21.7c-0.6,3.6-1.1,6.8-1.8,10.4
				C275,214.7,276.3,211.5,277.6,208.1"/>
			<path class="st3" d="M295.6,172.2c-5.5,5.4-9.4,10-14.5,17.5c-9.1,14.5-9.8,29.7-10.9,37.4c0.8,0.1,1.5,0.2,2.2,0.2
				c1.3-20.3,4.8-26.9,11.9-38.4c3.3-5.1,6.3-8.8,10.9-13.7c0.6-0.3,1.3-0.6,1.9-1c0.6-0.8,1.3-1.5,2-2.2c-0.9-0.7-1.8-1.4-2.7-2.2
				C296.1,170.7,295.9,171.5,295.6,172.2 M276.8,240.9l10.2-28.1l-8.3,8.9l-3.4,14.7L276.8,240.9z"/>
			<path class="st3" d="M268.5,207.7c0.7,10.8-0.4,20.6,2.2,32.5c1.2,5.7,2.4,11.4,3.6,17c0.8-2.4,1.5-4.8,2.3-7.2
				c-3.9-7.4-4.7-22.2-5.2-33.4c0.6-9.6-0.6-15.8-4.8-21.9C266.6,199.5,268.7,200.6,268.5,207.7L268.5,207.7z"/>
			<path class="st3" d="M268.6,230.9c1,4.2,2,8.5,3,12.7c-2.5-6.9-4.9-13.9-7.3-20.8c-0.4-5.1,1.7-12.8-1.3-15.3
				c-3-3.3-4.2-5.6-9.5-8.6c10,2.5,15.3,6.8,14.6,14.1S267.6,225.4,268.6,230.9z"/>
			<path class="st3" d="M261.9,226.6c2.1,5,2.1,7.6,6.1,15.1c1.9,3.6,2.5,12.1,4.5,18.5c1.4,3.7,2.7,7.5,4.1,11.3
				c-0.8-5-1.6-10-2.3-15.1c-1.8-4.4-1.1-8.4-2.7-12.2c-2.6-6.2-4-13-5.8-17.2c-3.1-7.8-6.5-13.5-12-17.7
				C256.5,215.2,259.3,220.5,261.9,226.6L261.9,226.6z"/>
			<path class="st3" d="M267.7,249c1.5-3.6,4.3-3.6,6.2-3.7c3,1,2.2,3.5,3.3,5.2C274.2,248.4,271.7,245.8,267.7,249 M301.4,311.7
				c-3.9-3.9-8.6-6.4-11.6-11.8c-0.1-0.6-0.3-1.1-0.4-1.7c-0.9,0.4-1.8,0.7-2.7,1c0.6,0.5,1.3,0.9,1.9,1.4c2.6,3.3,5.1,6.7,7.7,9.9
				C298,310.9,299.7,311.3,301.4,311.7 M300.3,166.5c0.6-1.4,1.2-2.9,1.9-4.3c3-4,4-8.1,8.9-11.9c3.4-2.6,3.6-7.5,4.1-10.4
				c1.1,2.6,1.7,10.5-0.8,13.3C310,157.9,304.9,162,300.3,166.5"/>
			<path class="st3" d="M287.1,228.5c-5,4.7-10.9,9.7-12,22c-1.3,6.9-0.7,12.2-0.4,20.7c2,3.9,4,7.8,5.9,11.7
				c0.2-7.9-1.6-14.4-2.4-21.6C279,238.5,284.1,239.3,287.1,228.5 M306.3,249.3c-15.2,7.2-12.9,17.2-19.1,23.2c0-1.5-0.1-3-0.2-4.4
				c1-2.8,2.1-5.6,3.1-8.4C295.4,250,301.6,251.5,306.3,249.3 M298.5,301.6c-1.8-4.1-3.7-8.2-5.6-12.3c-1.7-5.5-0.7-8.3-0.6-12.7
				c0.2,5.7,2.7,4.6,4.9,13.8c1.2,3.5,2.3,7,3.5,10.4c1,2.5,2.1,5,3.1,7.5C302.1,306.1,300.3,303.8,298.5,301.6"/>
			<path class="st3" d="M292.4,278.1c-0.2-5.8,2.5-4.2,4.6-7.5c-0.9,4.1-3.2,7.3-2.7,12.1C293.3,281.1,292.7,281.3,292.4,278.1
				 M305.2,311.4c-1.9-0.5-3.8-1-5.7-1.5c-1.6-2-3.2-4-4.8-6c-4.4-5.6-5.1-10.7-5.9-17.6c2.8,8.3,10.1,17.4,14.8,24.2
				C304.1,310.8,304.6,311.1,305.2,311.4"/>
			<path class="st3" d="M294.6,304c-2.8-3.6-9.5-8.7-7.9-15.1c-0.1-3.3-0.2-6.6-0.4-9.9c0.9,2.4,1.7,4.7,2.6,7.1
				C289.4,290.2,289.3,297.1,294.6,304 M289.4,282.1c1.2-5.6,3.3-9.6,7-12.3c0.9-0.7,2.2-0.8,3.3-1.3c2.4-1,3.9-0.8,6.5,1.7
				c1.2,1.2,2.6,2.2,3.5,3.7c1.2,1.8,2,4,3,6c-0.5-2.8,0-5.7-1.5-8.5c-1.5-2.6-3.7-4.8-6.2-6.5c-2.5-1.8-3.5-2.4-8.1,0.4
				c-4.9,2.5-7.9,6.8-9.2,10.9C287,278.4,287.8,280.3,289.4,282.1 M262.7,299.2c4.4,1.3,9-2.6,13.2-2c-0.6-0.9-3-2.7-4-2.7
				C268.7,296,269.1,297.6,262.7,299.2L262.7,299.2z"/>
			<path class="st3" d="M323.9,329.5c-5.9-2.3-11.8-4.6-17.7-6.9c-15.5-8.6-30.6-27-34-28.2c6.5,0.2,11.5,3.4,18,10.1
				c6.9,7.1,22.9,14.3,34.3,21.4C324.3,327.2,324.1,328.4,323.9,329.5"/>
			<path class="st3" d="M304.5,312.4l1.2,1.8l8.9,5.5l-9.2-4.6l-1.8,0.8l-0.8-0.5l0.7-1.4L304.5,312.4z M324.1,322.5
				c-4.2-1.2-16.3-9.1-18.9-17.3l0.5-1.5l-1.8,1l-1.2,0.2l0.2,1.1l0.8,0.1c2.2,8.4,16,16,20.4,17.9
				C328.4,325.9,327.3,325.7,324.1,322.5"/>
			<path class="st3" d="M323,327.5c-4.9-4.9-12.9-8.6-18.1-15.4c-11.4-13.5-18.2-29.1-19.6-38.5l-0.5-1h1.2l0.4,0.8l1.2,0l0,1.2
				c0.3,7.9,8.5,23.2,18.6,35.6c5.6,8,11.4,9.5,17,14.3L323,327.5z"/>
			<path class="st3" d="M325.4,328.2c-4.1-7.8-22.5-25-18-54.3c4.4,27.9,11.8,32.6,18.6,49.7C325.1,324.6,326.3,327.2,325.4,328.2"
				/>
			<path class="st3" d="M336.9,337.4c-10.2-5.5-9.3-4.4-14-6.6c-4.1-2.3-7.5-1.6-16.2-5.9c-1.2-0.4-7.9,0-11.9-0.6
				c1.6-1,3.1-1.6,5.7-1.9C319.3,320.8,324.4,329,336.9,337.4 M261,256.6c4.3,3.5,4.5,5,9,8.1c1.7,2.9,3.4,5.9,5,8.8
				c0.8,2.4,1.6,4.9,2.4,7.3c-8.9-10-8.6-16.8-24.4-24.6c-3.3-2.2-5.5-4.3-8.3-6.4C250.7,252.8,257.6,253.8,261,256.6L261,256.6z"/>
			<path class="st3" d="M267.7,261.9l1.7,0.5l1-2.2l0.2,2.2l7.9,17l-0.8,2.4l-8.6-18.2L267.7,261.9z M266,272.5
				c3,3.6,5.9,7.3,8.9,10.9c-3.2-2.4-6.4-4.7-9.5-7.1c-2-1.2-3.8-1.8-5.9-3.7c-4.1-2.5-6.4-5.9-9.6-8.8
				C256.6,268,260.6,269.6,266,272.5L266,272.5z M273.5,245c1.2-0.1,2.4-0.2,3.6-0.3c-0.2,0.4-0.3,0.9-0.4,1.4
				c-0.2,5.4,2,11.9,4.5,22.9c-0.4,0.4-0.8,0.9-1.2,1.4c-4.6-13.6-3.6-15.8-4.7-24C274.5,245.9,274,245.4,273.5,245 M448.4,265.4
				c0.4,1.7,0.9,4.1,1.2,5c4.2-11.8,5.1-22.4,5.9-35.9c0.2-5.2,0-13.5-2.1-20.4c0.9-0.6,1.8-1.3,2.7-1.9c1.5,11.4,2.3,21.1,1.1,34.6
				c-1.7,8.1-2.3,14.6-6.4,24.5c0.4-0.7,0.8-1.4,1.2-2.1c0.4,0.2,0.7,0.5,1.1,0.8c-0.7,1-1.6,1.7-2,3.1c-0.1,1.2-0.2,2.5-0.3,3.8
				c-1,0.3-1.9,0.6-2.8,0.9c-0.1-3.3,0.4-8.3-0.3-9.9C447.9,267,448.1,266.3,448.4,265.4 M441.5,283.7c-0.6-1.4-0.9-7.1-6.5-11.4
				c-3.4-2.9-4.7-4.7-6.1-7.6c-1.5-2.5-1.6-4.3-2.4-6.6c3.5,0.4,8.3,0.3,10.3,0.8c5.5,1.2,10.4,9.1,9.9,16.7L441.5,283.7z
				 M450,288.6c13.6,1.1,17.4-8.4,27.7-11.8c-4.5-1.9-6.4-2.4-12.6-1.9C452.6,277,450.4,282.4,450,288.6"/>
			<path class="st3" d="M453.3,285.6c8.1-1.9,9.9-6.1,10.6-6.9c3.2-6.9,5.5-7.1,14.7-11.8c-8.5-1.3-18.1-2.6-26.4,6.4
				C450.3,277.7,448.5,278.5,453.3,285.6"/>
			<path class="st3" d="M440.4,286.6c-1,2.5,0.7,3.6,1,5.4c2.8-0.9,5.8-0.6,8.3-2.6c7.9-6.8,5.9-10.9,8.8-16.5
				C454.9,274.2,446.1,269.3,440.4,286.6L440.4,286.6z M439.3,304.5c2.6,0.8,11.6-6.6,19.6,1c-0.8-4.7-2.9-6.8-7-8
				c-3.9,0.4-7.8,0.9-11.7,1.3C439.9,300.6,439.6,302.5,439.3,304.5"/>
			<path class="st3" d="M462.5,296.5c-4.9-6.2-7.8-9.9-17.8-5.4c-3,1.3-5.2,4-7.2,6.5c-1.7,2.1-2.7,4.3-3.8,7.1
				C454.4,303,447.8,291.6,462.5,296.5L462.5,296.5z M404.2,325.9c5.1-4.1,6.2-5.1,7.9-12.2c2.1-9,4.3-17.9,6.4-26.9
				c3,6.7,8.4,5.4,7.7,14.8c-0.3,3.9-2.1,7.1-4.3,10.8c-2.2,1.1-4.4,2.2-6.6,3.2c-2.6,3.4-5.3,6.7-7.9,10.1
				c-1.1,0.1-2.2,0.2-3.2,0.2"/>
			<path class="st3" d="M400.3,331.6c2.3-1.3,4.6-2.6,6.9-3.9c3.3-1.6,4.7,0.1,7.2,0c4.2-0.3,9.6-4.5,15.2-5.2
				c-7.9-5.5-12.3-5.7-19.2-0.7c-1.2,0.9-9.9,6.9-14.9,10.3c0.3,0.8,0.6,1.5,0.9,2.2C397.6,333.3,398.9,332.5,400.3,331.6
				L400.3,331.6z M398.3,314.3c0.6,4.8-1.7,10.2,1.7,14.2c2.2-1.5,4.3-3,6.5-4.4c1.4-1.3,2.9-7.3-0.1-10.3c-1.6-2-3.4-2.7-4.7-5.8
				C400.6,310.1,399.5,312.2,398.3,314.3L398.3,314.3z M426,308.5c-1.3-2.9,6.6-9.1,5.7-15c-0.6-3.1-2.9-6.1-8.3-8.6
				c-1.6-0.7-2.7-1.1-5.2-0.4c1.6-1.8,3.6-1.7,5.5-2.7c5.5-2.9,10.3-1.4,12.8,4.5c2,4.9,2.4,3.1-1.3,12.4
				C433.8,302.1,428.7,307,426,308.5"/>
			<path class="st5" d="M454.2,249.9c-0.1-2-6.1-16.2-13.6-21.8 M453.3,264.6c0,0,13.3-10.8,18.2-11 M471.6,225.6c0,0-5.3,4.9-7,7.3
				s-3.8,6.1-3.8,6.1 M457.5,228c0.7-3.3,1.2-17.4,11.4-25.1 M450.9,262.1c-2.4-12.7-11.5-19.8-16.6-23.8"/>
			<path class="st3" d="M450.9,264.4c0,0-3.8-9.1-7.8-10.1c-4-1-7-2.6-8.5-5.3"/>
			<path class="st5" d="M462.5,281c4.1-1.7,5-4.1,10.8-4.1 M444.2,278.5c-0.8-12.4-9.9-13.3-13.3-17.4 M457.5,275.5
				c8-7.5,16.2-8,16.2-8 M455,276c-3.1,2.1-4.7,6.4-7.4,8.5c-1.5,1.1-4.5,4.3-5.1,6 M456.7,301.9c0,0-2.5-1.9-3.5-2.1
				c-1-0.2-3.2,0-4.8,0.1 M458.3,294c0,0-6-2.8-10.7-0.4c-2.1,1-4.5,2.2-4.5,2.2"/>
			<path class="st3" d="M407.2,327.6c0,0,13.3-8.5,15.6-11.8 M426,308.8l-4.1,4.4"/>
		</g>
		<g transform="translate(66 80)">
			<circle id="cafe" class="st4" cx="415.2" cy="318.3" r="3.3"/>
		</g>
		<g transform="translate(73 80)">
			<circle id="cafe_00000127731480536584041530000017960041288762684329_" class="st4" cx="421" cy="318.3" r="3.3"/>
		</g>
		<g transform="translate(70 75.5)">
			<circle id="cafe_00000133494742234047551910000003129898326349743003_" class="st4" cx="418.5" cy="314.6" r="3.3"/>
		</g>
		<g transform="translate(95 49)">
			<circle id="cafe_00000084490398300623340270000011874734564066808226_" class="st4" cx="439.2" cy="292.6" r="3.3"/>
		</g>
		<g transform="translate(92.5 41.5)">
			<circle id="cafe_00000023279918951747283830000010733816420574530181_" class="st4" cx="437.2" cy="286.4" r="3.3"/>
		</g>
		<g transform="translate(99 42.5)">
			<circle id="cafe_00000002368122127172587740000006379584602960045223_" class="st4" cx="442.6" cy="287.2" r="3.3"/>
		</g>
		<g transform="translate(109.5 22)">
			<circle id="cafe_00000008137795078837154960000001055534692105412480_" class="st4" cx="451.3" cy="270.2" r="3.3"/>
		</g>
		<g transform="translate(106 14)">
			<circle id="cafe_00000057862970150939340200000006543485256855459748_" class="st4" cx="448.4" cy="263.6" r="3.3"/>
		</g>
		<g transform="translate(115 17)">
			<circle id="cafe_00000047058578849569794190000012772238979130677385_" class="st4" cx="455.8" cy="266.1" r="3.3"/>
		</g>
		<g transform="translate(109 -12)">
			<circle id="cafe_00000011026296989239759880000005048654186093314494_" class="st4" cx="450.9" cy="242.1" r="3.3"/>
		</g>
		<g transform="translate(116 -11)">
			<circle id="cafe_00000002343202189486273820000008371119523244198784_" class="st4" cx="456.7" cy="242.9" r="3.3"/>
		</g>
		<g transform="translate(111 -17)">
			<circle id="cafe_00000085247695273186606220000015258572986105007771_" class="st4" cx="452.5" cy="237.9" r="3.3"/>
		</g>
		<g transform="translate(118 -17)">
			<circle id="cafe_00000041274133649961448890000003614295320784481426_" class="st4" cx="458.3" cy="237.9" r="3.3"/>
		</g>
		<g transform="translate(108 -47)">
			<circle id="cafe_00000043458102010220807200000013541413452659825049_" class="st4" cx="450" cy="213" r="3.3"/>
		</g>
		<g transform="translate(116 -50)">
			<circle id="cafe_00000045580525046838786010000008816141008796236958_" class="st4" cx="456.7" cy="210.6" r="3.3"/>
		</g>
		<g transform="translate(112 -54)">
			<circle id="cafe_00000125596433837973093930000010094419410223415201_" class="st4" cx="453.3" cy="207.2" r="3.3"/>
		</g>
		<g transform="translate(88 -94)">
			<circle id="cafe_00000178904572614859676110000010198563894145579445_" class="st4" cx="433.4" cy="174.1" r="3.3"/>
		</g>
		<g transform="translate(91 -98)">
			<circle id="cafe_00000010284861363048030860000013150374185053460352_" class="st4" cx="435.9" cy="170.8" r="3.3"/>
		</g>
		<g transform="translate(84 -97)">
			<circle id="cafe_00000057150504066245561080000006754430576242648253_" class="st4" cx="430.1" cy="171.6" r="3.3"/>
		</g>
		<path class="st6" d="M399.8,328.7c3.4-4.3,3.1-7.1,3.1-8.2c0-1.2-1.2-4.4-0.8-7.9 M441.7,307c0,0-5.8,0.8-8,1.7
			c-2.3,1-7.5,3.8-7.5,3.8 M420.4,308.3c1.6-3.7,1.8-4,1.9-6.2c0.1-2.3-0.6-5.1-1.4-6.6c-0.6-1.2-1.6-3.9-1.6-3.9 M429.9,283.9
			c1.9,1.3,3.2,2.9,3.9,4.9c1.1,2.9,1,6.3,0.3,9.4c-0.6,2.5-3.7,6.8-3.7,6.8"/>
		<path class="st7" d="M442.3,281.8c-1.3-10.7-3.9-9.8-6-10.1c-1.8-0.3-5.1-3-6.2-4.5"/>
		<path class="st6" d="M421.8,155c0,0-3.2-3-5.5-9.9 M418.2,157.5c-2.1-2.1-15.1-7.2-23.8-7"/>
		<path class="st7" d="M285.7,197.5c0,0-1.9,5.2-3.2,7.8c-1.3,2.6-2.3,3.5-2.3,3.5"/>
		<path class="st6" d="M440.1,171.6c0.8-5.8-5.8-6.6-4.1-13.3 M455,201.4c-1.7-5-5-19.9-3.4-25.7"/>
		<g id="trigo">
			<path class="st8" d="M301.1,156.7c-0.9-4.2,0.2-3.6,1.7-5.3C302.9,153.7,303.6,154.4,301.1,156.7 M303.4,154.2
				c0-3.9,1.6-2.2,3.7-4.4C305.6,152.5,307.3,152.8,303.4,154.2"/>
			<path class="st8" d="M303.1,155c2.1-3.3,1.6-1.6,4.6-2.5C305.9,154.2,307.2,156,303.1,155 M300.7,158.3c2.4-3.7,1.8-1.8,5.1-2.8
				C303.9,157.4,305.3,159.4,300.7,158.3"/>
			<path class="st8" d="M298.3,160.8c2.4-3.7,1.8-1.8,5.1-2.8C301.5,159.9,302.9,161.9,298.3,160.8"/>
			<path class="st8" d="M296.3,163.3c2.4-3.7,1.8-1.8,5.1-2.8C299.5,162.4,300.9,164.4,296.3,163.3"/>
			<path class="st8" d="M294.1,165.4c2.4-3.7,1.8-1.8,5.1-2.8C297.2,164.5,298.7,166.5,294.1,165.4"/>
			<path class="st8" d="M292,168.4c2.9-3.7,2.2-1.8,6.2-2.8C295.8,167.4,297.5,169.5,292,168.4"/>
			<path class="st8" d="M290,171c2.9-3.7,1.9-2.3,5.9-3.2C293.5,169.7,295.5,172.1,290,171"/>
			<path class="st8" d="M289,173.5c2.9-3.7,1.9-2.3,5.9-3.2C292.5,172.2,294.6,174.6,289,173.5"/>
			<path class="st8" d="M287.4,175.7c0.7-3.2,2.6-2.1,4.7-2.7C291.1,174.6,290.7,178,287.4,175.7 M301.4,279.9c4-4.1,0.3-5.1,0-9.9
				C301.5,276.8,298,274.2,301.4,279.9z"/>
			<path class="st8" d="M300.1,282.1c3.3-4.1-0.7-5.1-2-9.9C299.5,279,295.4,276.4,300.1,282.1z M297.4,282.1
				c0.2,4.6-1.6,3.2,3.1,8.8C303.9,286.8,297.4,285.6,297.4,282.1"/>
			<path class="st8" d="M301.6,284.5c5.6-3.1,1.3-6,2-10.7C302.4,280.5,299.1,278.6,301.6,284.5z"/>
			<path class="st8" d="M301.2,288.7c5.6-3.1,3.2-3.7,3.8-8.4C303.8,287,298.7,282.9,301.2,288.7z"/>
			<path class="st8" d="M305.5,284.7c-2.9,5.2-6.3,2.5-3.8,8.4C307.4,290,304.9,289.4,305.5,284.7"/>
			<path class="st8" d="M305.8,289.1c-2.9,5.2-6.3,2.5-3.8,8.4C307.6,294.4,305.2,293.8,305.8,289.1"/>
			<path class="st8" d="M306.2,293.3c-2.9,5.2-6.3,2.5-3.8,8.4C308,298.5,305.6,298,306.2,293.3"/>
			<path class="st8" d="M303.9,305c5.6-3.1,2.4-4.1,3-8.8C304,301.3,301.4,299.1,303.9,305z M300.3,286.2c3-5.4-3.2-2.5-3.8-10.2
				C298.7,283.2,295,284.1,300.3,286.2z M296.3,284.5c2.1,6.5-0.8,9.1,4.6,11.3C303.9,290.4,297.6,291,296.3,284.5"/>
			<path class="st8" d="M297.2,289.9c2.1,6.5-0.8,9.1,4.6,11.3C304.7,295.8,298.4,296.4,297.2,289.9"/>
			<path class="st8" d="M298.3,296.8c2.1,6.5-0.8,6.1,4.5,8.3C305.8,299.6,299.6,303.3,298.3,296.8 M286.9,241.8
				c-3.9-2.8-0.3-5.5-1.4-7.5C286.6,236.3,288.3,237.5,286.9,241.8"/>
			<path class="st8" d="M286.5,246.8c-4.9-3.6-1.2-6.5-2.7-9C285.2,240.3,288.2,241.4,286.5,246.8"/>
			<path class="st8" d="M286.1,250.9c-5.6-2.7-3-7.1-4.4-9.6C283.2,243.8,286.5,243.3,286.1,250.9"/>
			<path class="st8" d="M286.1,256.3c-4.7-2.2-2.6-5.7-4-8.2C283.5,250.6,287.9,250.3,286.1,256.3 M287.6,242.4
				c4.7-2.2,2-5.8,3.5-8.3C289.6,236.6,285.8,236.4,287.6,242.4"/>
			<path class="st8" d="M287.1,246.7c4.7-2.2,2.9-6.3,4.4-8.8C290.1,240.4,285.4,240.8,287.1,246.7 M288.6,230.8
				c-0.2,3.6-2.5,2-1.2,7.1C292.2,234.2,288.5,233.9,288.6,230.8"/>
			<path class="st8" d="M286.3,251.6c4.7-2.2,3.3-6.7,4.7-9.2C289.6,244.8,284.6,245.5,286.3,251.6"/>
			<path class="st8" d="M286.7,256.6c4.7-2.2,3-7.9,4.5-10.4C289.8,248.6,285,250.5,286.7,256.6"/>
			<path class="st8" d="M286.3,261.5c4.7-1.8,3.1-7.1,4.5-9.6C289.4,254.3,284.9,255.1,286.3,261.5"/>
			<path class="st8" d="M285.6,259.7c-4.7-2.2-2.2-4.8-3.6-7.3C283.4,254.9,287.4,253.7,285.6,259.7"/>
			<path class="st8" d="M285.9,264.1c-4.7-2.2-3.2-4.5-4.6-7C282.7,259.6,286.3,256.5,285.9,264.1"/>
			<path class="st8" d="M286.1,268.4c-4.7-2.2-2.9-4.1-4.3-6.6C283.2,264.3,287.8,262.4,286.1,268.4"/>
			<path class="st8" d="M286.5,265.2c4.7-2.2,1.8-3.5,3.2-6C288.3,261.7,284.8,259.2,286.5,265.2"/>
			<path class="st8" d="M286.6,270.2c4.7-2.2,1.9-5,3.4-7.5C288.5,265.3,284.8,264.2,286.6,270.2"/>
			<path class="st8" d="M286.6,273.2c4.1-1.2,1.9-3.1,3.4-5.5C288.5,270.2,285,268.9,286.6,273.2"/>
			<path class="st8" d="M285.5,272.6c-4.7-2.2-2.8-4.9-4.2-7.4C282.7,267.7,287.2,266.5,285.5,272.6 M290.4,170.4
				c-1.8-4.9,0.5-3.4,1.1-5.8C292.6,167,292.7,167.7,290.4,170.4 M299,159.2c-0.9-4.2,0.8-3.4,1.3-5.6
				C301.4,155.8,301.4,156.8,299,159.2"/>
			<path class="st8" d="M296.8,161.6c-0.9-4.2,0.8-3.4,1.3-5.6C299.2,158.3,299.2,159.3,296.8,161.6 M289.2,173.2
				c-2.5-3.1-0.7-2.7-0.3-5.1C290.1,170.2,291.5,170.5,289.2,173.2 M292.8,166.9c-1.8-4.6,0.6-3.6,1.1-5.8
				C294.9,163.3,295.1,164.2,292.8,166.9"/>
			<path class="st8" d="M294.8,164.1c-0.9-4.2,0.8-3.4,1.3-5.6C297.2,160.7,297.3,161.8,294.8,164.1 M287.2,175.5
				c-2.2-2.6-0.3-3.6,0.1-5.1c0.4,1.9,1.6,1.9,1.6,3C288.9,174.2,288.1,174.2,287.2,175.5 M286.1,307.4c2.4,1.2,5.2-0.9,5,2.1
				C288.7,311.3,287.8,308.8,286.1,307.4 M281.5,306c-3.5,2.2-5.5-0.7-8.8-3.2C276.3,303.1,280,302.8,281.5,306z"/>
			<path class="st8" d="M283.8,305.9c-3.9,0.8-4.5-2.6-6.7-4.2C280.7,302.1,283.8,302.8,283.8,305.9z"/>
			<path class="st8" d="M286.2,307.8c-2.4,2.4-6.6,0.1-9.4,0.3C280.9,306.6,284.8,305.1,286.2,307.8z"/>
			<path class="st8" d="M281.2,301.7c3.8,2.3,6.4,2.9,5.8,5.8C283.6,307.9,283.3,304.3,281.2,301.7"/>
			<path class="st8" d="M290.2,308.2c-3.4,0.3-4-3-5.6-6C288.4,304.5,290.7,305.2,290.2,308.2z"/>
			<path class="st8" d="M288.5,304c2.6,3.1,7.7,1.9,5.6,6C289.8,311,290.1,306.9,288.5,304"/>
			<path class="st8" d="M293,306.4c2.6,3.1,7.1,1.7,5.1,5.8C293.8,313.3,294.6,309.3,293,306.4"/>
			<path class="st8" d="M296.3,307.2c2.6,3.1,6.6,1.8,4.6,5.9C296.5,314.2,297.9,310.2,296.3,307.2"/>
			<path class="st8" d="M304,314.3c-4.4,1.1-2.6-2.5-3.6-5.3C303.7,311.5,306.1,310.2,304,314.3z M288.7,310.2
				c-2.2,2.6-1.6,1-6.9-0.1C285.9,308.6,287.3,306.2,288.7,310.2z"/>
			<path class="st8" d="M294.2,310.9c-2.2,2.6-3.8,2.1-8.3,1.1C289.3,310.4,292.8,306.9,294.2,310.9z"/>
			<path class="st8" d="M296.8,312.3c-2.2,2.6-3.8,2.1-8.3,1.1C291.9,311.9,295.4,308.4,296.8,312.3z"/>
			<path class="st8" d="M300.6,313.5c-0.4,2.3-5.1,2-7.7,1C295.8,314.2,295.7,311.3,300.6,313.5z"/>
			<path class="st8" d="M303.2,314.4c-0.4,2.3-4.7,2.7-7.3,1.7C298.7,315.8,298.3,312.2,303.2,314.4z M327.4,155
				c-0.2-3.2,3.8-2.5,6-2.5C333.1,155.5,331.8,155.6,327.4,155"/>
			<path class="st8" d="M329,153.4c-0.2-3.2,3.8-2.5,6-2.5C332.7,152.2,333.4,154,329,153.4 M324,157.5c0.2-3.5,4.4-2.2,6.7-1.9
				C328.9,157.2,328.6,158.7,324,157.5"/>
			<path class="st8" d="M319.7,159.2c0.3-3.5,4.4-2.2,6.7-1.9C324.6,158.9,324.3,160.4,319.7,159.2"/>
			<path class="st8" d="M315.4,161.6c0.3-3.5,4.4-2.2,6.7-1.9C320.3,161.4,320,162.9,315.4,161.6"/>
			<path class="st8" d="M311.5,164.1c0.3-3.5,4.4-2.2,6.7-1.9C316.4,163.9,316.1,165.4,311.5,164.1"/>
			<path class="st8" d="M307.8,166.1c0.3-3.5,4.4-2.2,6.7-1.9C312.6,165.8,312.4,167.3,307.8,166.1"/>
			<path class="st8" d="M304.2,168.6c0.3-3.5,4.4-2.2,6.7-1.9C309.1,168.3,308.8,169.8,304.2,168.6"/>
			<path class="st8" d="M300.2,170c0.3-3.5,4.4-2.2,6.7-1.9C305,169.7,304.8,171.2,300.2,170"/>
			<path class="st8" d="M297.5,171.8c0.3-3.5,4.4-2.2,6.7-1.9C302.4,171.6,302.1,173.1,297.5,171.8 M326,152.5
				c-0.4-3.2,3.2-3.3,5.4-3.5C329.2,150.6,330.4,152.8,326,152.5"/>
			<path class="st8" d="M322.3,154.2c-0.4-3.2,1.8-3.2,4-4.7C325.1,151.6,326.7,154.5,322.3,154.2"/>
			<path class="st8" d="M318.3,156.7c-0.3-3.8,2.3-4.6,4.5-6C321.6,152.7,322.7,157,318.3,156.7"/>
			<path class="st8" d="M314.5,158.3c-0.3-3.8,2-4,4.2-5.5C317.5,155,318.9,158.7,314.5,158.3"/>
			<path class="st8" d="M311.3,160c-0.3-3.8,2-4,4.2-5.5C314.3,156.6,315.6,160.3,311.3,160"/>
			<path class="st8" d="M308.3,161.6c-0.3-3.8,2-4,4.2-5.5C311.3,158.3,312.7,162,308.3,161.6"/>
			<path class="st8" d="M304.6,163.3c-0.3-3.8,2-4,4.2-5.5C307.6,159.9,309,163.6,304.6,163.3"/>
			<path class="st8" d="M301.3,166.3c-0.3-3.9,2-4,4.3-5.5C304.3,162.9,305.8,166.6,301.3,166.3"/>
			<path class="st8" d="M298.8,167.9c-0.3-3.9,2-4,4.3-5.5C301.9,164.5,303.3,168.3,298.8,167.9"/>
			<path class="st8" d="M296.3,170.8c-0.3-3.9,2-4,4.3-5.5C299.4,167.3,300.8,171.1,296.3,170.8 M324.6,155.8
				c-0.2-3.2,3.8-2.5,6-2.5C328.3,154.7,329.2,157.3,324.6,155.8"/>
			<path class="st8" d="M319.5,157.5c-0.2-3.2,4.1-2.6,6.2-2.6C323.5,156.3,324.1,158.9,319.5,157.5"/>
			<path class="st8" d="M315.3,160c-1-3.8,3.5-2.7,5.7-2.8C318.8,158.6,319.9,161.4,315.3,160"/>
			<path class="st8" d="M311.8,161.6c-1-3.8,2.5-2.3,5.3-3.2C315.6,159.8,316.4,163.1,311.8,161.6"/>
			<path class="st8" d="M308,164.1c-1-3.8,2.6-2.4,5.5-3.4C311.9,162.2,312.6,165.6,308,164.1"/>
			<path class="st8" d="M304.8,166c-1-3.8,3.1-1.9,5.1-3.5C308.3,163.8,309.4,167.4,304.8,166"/>
			<path class="st8" d="M301.6,168.6c-1-3.8,2.6-2,4.7-3.6C304.6,166.4,306.2,170.1,301.6,168.6"/>
			<path class="st8" d="M297.3,171.8c-1-3.8,2.8-2.6,4.9-4.2C300.6,168.9,301.9,173.2,297.3,171.8 M280.2,275.5
				c-2.9-1.7-2.3-4.2-2.4-5.9C278.4,271.4,281.3,271.9,280.2,275.5"/>
			<path class="st8" d="M280.9,278.7c-2.6,0-2.8-2.9-3.4-4.6C279.6,275.4,282.2,274.5,280.9,278.7"/>
			<path class="st8" d="M281.2,282.7c-2.6,0-2.8-2.9-3.4-4.6C279.9,279.4,282.4,278.4,281.2,282.7"/>
			<path class="st8" d="M282.1,286.6c-2.6,0-3.1-3.8-3.6-5.5C280.6,282.4,283.3,282.3,282.1,286.6"/>
			<path class="st8" d="M282.9,290.7c-2.6,0-3.1-3.8-3.6-5.5C281.4,286.5,284.2,286.5,282.9,290.7"/>
			<path class="st8" d="M284,294.3c-2.6,0-3.1-3.8-3.6-5.5C282.5,290.1,285.2,290,284,294.3 M281.1,276.4c-1.5-3.2,0.1-4.8,1.4-6.3
				C281.7,271.9,284.9,274.3,281.1,276.4"/>
			<path class="st8" d="M281.8,280.2c-1.5-3.1,0.7-4.8,2-6.3C283,275.7,285.7,278.1,281.8,280.2"/>
			<path class="st8" d="M282.5,283.2c-1.5-3.1,0.7-4.8,2-6.3C283.7,278.7,286.3,281.1,282.5,283.2"/>
			<path class="st8" d="M282.7,287.4c-1.5-3.1,0.7-4.8,2-6.3C283.9,282.9,286.6,285.3,282.7,287.4 M285,294.4
				c-1.5-3.1,0.7-4.8,2-6.3C286.2,290,288.8,292.4,285,294.4"/>
			<path class="st8" d="M283.9,290.9c-1.5-3.1,0.7-4.8,2-6.3C285.1,286.4,287.8,288.8,283.9,290.9 M287.5,297.2
				c-2.2-2.6-0.6-4.9,0.2-6.6C287.4,292.6,290.6,294.2,287.5,297.2"/>
			<path class="st8" d="M288.9,298.9c-2.2-2.6-0.1-2.6,0.8-4.3C289.4,296.6,292,295.9,288.9,298.9 M286.5,297.3
				c-2.5,0.7-3.9-2.8-4.9-4.3C283.9,293.6,286.5,292.9,286.5,297.3"/>
			<path class="st8" d="M288.6,299.8c-2.5,0.7-3.3-0.9-4.3-2.4C286.7,298.1,288.7,295.4,288.6,299.8 M261,264.1l4.4,5.4
				c-0.2,2.8,0.2,4.8,2.9,5.3c1-3.8-1.6-4.1-2.9-5.3L261,264.1z"/>
			<path class="st8" d="M262.7,271.6l2.4,2.4c0.7,2.8,2.4,3.7,4.2,3.8c0.8-2.9-3.3-3.8-4.2-3.7L262.7,271.6z"/>
			<path class="st8" d="M268.5,270l0.1,1.5c-1.6,2.3-0.6,3,0.5,4.5c2.3-2.4,0.5-4.3-0.6-4.4L268.5,270z"/>
			<path class="st8" d="M270.1,272l0.1,1.6c-1.6,2.3-0.6,3.7,0.5,5.2c2.3-2.4,0.6-5-0.5-5.1L270.1,272z"/>
			<path class="st8" d="M271.8,274.9l0.2,1.8c-1.9,2.3-1.2,3.7,0.1,5.2c2.6-2.4,1.1-5-0.1-5.1L271.8,274.9z"/>
			<path class="st8" d="M273.5,277.5l0.2,1.8c-1.9,2.3-0.8,4.3,0.5,5.8c2.6-2.4,0.7-5.6-0.5-5.7L273.5,277.5z"/>
			<path class="st8" d="M275.9,280.4l0.2,1.8c-1.9,2.3-1.2,3.7,0.1,5.2c2.6-2.4,1.1-5-0.1-5.1L275.9,280.4z"/>
			<path class="st8" d="M278.4,282.8l-0.4,2c-1.9,2.3-1.2,3.7,0.1,5.2c2.6-2.4,1.1-5-0.1-5.1L278.4,282.8z"/>
			<path class="st8" d="M280.4,285.5l-0.5,2c-1.9,2.3-1,4.1,0.3,5.6c3.5,2.3,0.9-5.4-0.3-5.5L280.4,285.5z M263.5,275l2.7,2.3
				c0.7,2.7,1.9,4.1,4.7,3.7c0.4-3.9-3.4-4-4.7-3.7L263.5,275z"/>
			<path class="st8" d="M265.2,278.4l3.3,2.9c0.7,2.7,2.2,3.6,5,3.2c0.4-3.9-3.7-3.5-5-3.3L265.2,278.4z"/>
			<path class="st8" d="M264.3,279.4c1.7,2.4,4.2,3.6,6.3,5.5c0.7,2.7,3.1,3.3,5.8,2.8c0.4-3.9-4.6-3.2-5.8-2.9
				C268.5,283,266,281.9,264.3,279.4"/>
			<path class="st8" d="M266,283.2c1.7,2.5,3.5,2.9,5.6,4.7c0.7,2.7,4.3,3.6,7.1,3.2c0.4-3.9-5.9-3.5-7.1-3.2
				C269.5,286,267.7,285.7,266,283.2"/>
			<path class="st8" d="M267.7,286.7c1.7,2.4,2.9,3.2,5.6,4.7c0.7,2.7,4.3,3.6,7.1,3.1c0.4-3.9-5.9-3.5-7.1-3.2
				C270.5,289.8,269.3,289.2,267.7,286.7 M256.1,221.8l1.5,5.3c0,0-1.6,4.6,1.4,5.4c1.4-2.2-0.1-4.5-1.4-5.4L256.1,221.8z"/>
			<path class="st8" d="M256.1,228.1l1.1,3.6c0,0-0.4,5.3,2.6,6c1.4-2.2-1.2-4.9-2.5-5.7L256.1,228.1z M260.2,227.2l1,3.2
				c0,0-2.1,4.3,1.3,5.2c1.6-2.5,0.3-3.9-1.1-4.8L260.2,227.2z"/>
			<path class="st8" d="M256.1,236c1.9,2.9,0.6,3,2.4,4.8c1.5,0.1,2-1,1.1-3C258.1,236.9,257.8,238.2,256.1,236"/>
			<path class="st8" d="M258.5,238.3l0.5,0.7c0,0,0.2,4.3,3.3,3.9c0.5-2.6-2.1-4.2-3.3-3.8L258.5,238.3z M258.5,229.5l0.1,1.4
				c0,0-1.4,4,1.9,4.8c1.5-2.4-0.6-4.7-1.9-4.8L258.5,229.5z M262.7,233.1l-0.2,1.8c0,0-2.7,3,0.2,4.8c2.2-1.8,1.1-4.2-0.2-4.7
				L262.7,233.1z"/>
			<path class="st8" d="M264.3,237.2l-0.2,1.9c0,0-2.9,3,0,4.8c2.2-1.8,1.3-4.3,0-4.7L264.3,237.2z"/>
			<path class="st8" d="M265.2,240.2l-0.2,2.1c0,0-2.9,3.3,0,5.3c2.2-2,1.3-4.7,0-5.2L265.2,240.2z"/>
			<path class="st8" d="M266.8,244.5l-0.2,2.1c0,0-2.9,3.3,0,5.3c2.2-2,1.3-4.7,0-5.2L266.8,244.5z"/>
			<path class="st8" d="M267.7,247.4l-0.2,2.1c0,0-2.9,3.3,0,5.3c2.2-2,1.3-4.7,0-5.2L267.7,247.4z"/>
			<path class="st8" d="M269.3,250.8l-0.2,2.1c0,0-2.9,3.3,0,5.3c2.2-2,1.3-4.7,0-5.2L269.3,250.8z"/>
			<path class="st8" d="M271,253.9l-0.4,2c0,0-3.2,3-0.6,5.3c2.4-1.8,1.8-4.6,0.6-5.2L271,253.9z M260.2,234.2l0.2,0.9
				c0,0-1.4,4.1,1.6,4.9c1.4-2.2-0.4-4.7-1.6-4.8L260.2,234.2z"/>
			<path class="st8" d="M261,237.7l0.2,0.9c0,0-1.4,4.1,1.6,4.9c1.4-2.2-0.4-4.7-1.6-4.8L261,237.7z"/>
			<path class="st8" d="M262.7,241.8l0.2,0.9c0,0-1.4,4.1,1.6,4.9c1.4-2.2-0.4-4.7-1.6-4.8L262.7,241.8z"/>
			<path class="st8" d="M257.7,239.7l0.5,0.7c0,0-0.1,4.9,4.1,4.3c0.5-2.6-2.8-4.3-4-4.2L257.7,239.7z"/>
			<path class="st8" d="M257.7,242.6l1.6,2c0,0,0.6,4,4,3.3c0.3-2.9-2.7-3.8-3.9-3.2L257.7,242.6z"/>
			<path class="st8" d="M259.4,246.3l0.6,0.8c0,0,0.6,6.2,5.3,5.6c0.5-2.9-3.8-5.5-5.2-5.5L259.4,246.3z"/>
			<path class="st8" d="M261,250.9l0.6,0.7c0,0,0.1,5.2,5.1,4.7c0.6-2.4-3.6-4.6-5-4.6L261,250.9z"/>
			<path class="st8" d="M261,254.1l0.6,0.7c0,0-0.1,4.6,4.9,4c0.6-2.4-3.3-4-4.8-4L261,254.1z"/>
			<path class="st8" d="M262.7,257.5l0.7,0.7c0,0-0.6,4.4,4.2,2.9c0.1-2.5-2.7-3.2-4.2-2.9L262.7,257.5z M263.5,245.6l0.2,0.9
				c0,0-1.4,4.1,1.6,4.9c1.4-2.2-0.4-4.7-1.6-4.8L263.5,245.6z"/>
			<path class="st8" d="M265.2,249.7l0.2,0.9c0,0-1.4,4.1,1.6,4.9c1.4-2.2-0.4-4.7-1.6-4.8L265.2,249.7z"/>
			<path class="st8" d="M266,253.6l0.2,0.9c0,0-1.4,4.1,1.6,4.9c1.4-2.2-0.4-4.7-1.6-4.8L266,253.6z"/>
			<path class="st8" d="M267.7,256.9l0.2,0.9c0,0-1.4,4.1,1.6,4.9c1.4-2.2-0.4-4.7-1.6-4.8L267.7,256.9z M271.8,220.8
				c-0.2,2.7-0.7,3.5,2.1,5C273.9,222.5,274.6,222.5,271.8,220.8"/>
			<path class="st8" d="M271.8,224.2c-0.2,2.7-0.7,3.5,2.1,5C273.9,225.9,274.6,225.9,271.8,224.2"/>
			<path class="st8" d="M271.8,228c-0.2,2.7-0.3,3.5,2.5,5C274.2,229.6,274.6,229.6,271.8,228"/>
			<path class="st8" d="M271.8,230.9c-0.2,2.7-0.1,3.7,2.7,5.1C274.5,232.8,274.6,232.6,271.8,230.9"/>
			<path class="st8" d="M271.8,234.2c-0.2,2.7-0.1,3.7,2.7,5.1C275.1,236.2,274.6,235.8,271.8,234.2"/>
			<path class="st8" d="M271.8,237.7c-0.2,2.7-0.1,3.7,2.7,5.1C275.1,239.7,274.6,239.3,271.8,237.7"/>
			<path class="st8" d="M271.8,240.3c-0.2,2.7,1.8,5.5,3.3,4.7C275.7,241.9,274.6,242,271.8,240.3 M275.9,221.2
				c-1.2,2.5-2.6,1.6-2,5.5C277.2,224.5,276.4,224.6,275.9,221.2"/>
			<path class="st8" d="M276.8,223.3c-1,2.7-3.2,2.1-2.5,6.2C278.4,227.3,276.8,226.6,276.8,223.3"/>
			<path class="st8" d="M277.6,226.4c-1.9,2.9-3.1,1.5-2.6,5.4C279.1,229.6,277.6,229.6,277.6,226.4"/>
			<path class="st8" d="M277.6,229.5c-1.9,2.9-3.1,1.5-2.6,5.4C279.1,232.6,277.6,232.7,277.6,229.5"/>
			<path class="st8" d="M277.9,232.6c-2.9,2.4-4.3,3.7-2.9,5.7C277.6,237.9,277.9,235.9,277.9,232.6"/>
			<path class="st8" d="M278.4,235.3c-2.2,3.1-4.9,2.2-3.2,6.6C279.1,240.6,276.8,238.5,278.4,235.3"/>
			<path class="st8" d="M279,238.1c-1.8,4.1-4.9,2.4-3.4,6.5C279,245.1,277.7,242,279,238.1 M274.3,217.8c-1.2,3.6-1.7,2.9,0.4,5.4
				C276.2,220.2,276,220.5,274.3,217.8 M290.8,186.8c0.3-3.7,5.2-1.5,7.7-1.3C295.5,186.5,294,188.8,290.8,186.8 M296.3,183
				c0.3-3.8,5.2-1.5,7.7-1.3C301,182.7,299.5,184.9,296.3,183 M316.9,172.1c0.3-3.5,4.8-1.4,7.1-1.2
				C322.2,172.6,321.5,173.3,316.9,172.1"/>
			<path class="st8" d="M313.6,173.8c0.2-3.5,4.8-1.4,7.1-1.2C318.8,174.3,318.2,175.1,313.6,173.8"/>
			<path class="st8" d="M309.5,175.6c0.3-3.7,5.1-1.5,7.7-1.3C315.2,176.1,314.5,176.9,309.5,175.6"/>
			<path class="st8" d="M306.3,177.1c0.3-3.7,5.1-1.5,7.7-1.3C312,177.6,311.3,178.4,306.3,177.1"/>
			<path class="st8" d="M303.2,178.9c0.3-3.7,5.1-1.5,7.7-1.3C308.9,179.4,308.2,180.2,303.2,178.9"/>
			<path class="st8" d="M299.9,181c0.3-3.7,5.1-1.5,7.7-1.3C305.6,181.6,304.9,182.4,299.9,181 M318.1,170.3
				c-0.2-3.2,4.7-2.1,6.8-2.1C322.7,169.5,322.4,170.9,318.1,170.3"/>
			<path class="st8" d="M315.8,169.3c-0.4-2.5,3.7-3,5.8-3.1C319.5,167.7,320.2,169.6,315.8,169.3"/>
			<path class="st8" d="M311.6,170.6c-0.4-3.7,3.7-4.4,5.8-4.6C315.2,168.2,316,171.1,311.6,170.6"/>
			<path class="st8" d="M308,172.3c-0.4-3.7,2.8-4.2,4.8-5.1C311.8,169.8,312.4,172.7,308,172.3"/>
			<path class="st8" d="M304.3,174.6c-0.9-3.6,2.2-4.5,4.1-5.6C307.7,171.6,308.7,174.5,304.3,174.6"/>
			<path class="st8" d="M301.3,176.9c-1.3-3.5,1.7-4.8,3.4-6.1C304.4,173.6,305.7,176.3,301.3,176.9"/>
			<path class="st8" d="M296.8,180.2c-1.3-3.5,2.2-5.6,4-6.9C300.4,176,301.2,179.6,296.8,180.2"/>
			<path class="st8" d="M292.8,182.2c-1.3-3.5,2.2-5.3,4-6.6C296.4,178.4,297.1,181.6,292.8,182.2"/>
			<path class="st8" d="M289.4,185.4c-1.3-3.5,2.2-5.3,4-6.6C293,181.5,293.7,184.8,289.4,185.4 M313.8,172.3
				c-1-3.8,2.8-2.6,5.2-2.9C316.8,170.7,317.7,173,313.8,172.3"/>
			<path class="st8" d="M307.9,174.4c-1-3.7,4.5-3.1,6.9-3.4C313.3,172.5,311.8,175.1,307.9,174.4"/>
			<path class="st8" d="M304.3,176.2c-0.4-3.7,3.6-2.9,6-3.2C308.8,174.5,308.6,177.8,304.3,176.2"/>
			<path class="st8" d="M300.4,178.3c-0.4-3.7,3.6-2.9,6-3.2C304.9,176.5,304.7,179.9,300.4,178.3"/>
			<path class="st8" d="M297.3,180.2c-0.4-3.4,3.3-2.7,5.5-3C301.4,178.6,301.2,181.7,297.3,180.2 M292.9,185.2
				c0.3-3.7,5.2-1.5,7.7-1.3C297.6,184.9,296.1,187.1,292.9,185.2"/>
			<path class="st8" d="M293.5,182.5c-0.4-3.4,3.3-2.7,5.5-3C297.6,180.9,297.5,184,293.5,182.5"/>
			<path class="st8" d="M289.9,185.8c-0.4-3.4,2.8-3.5,5-3.8C293.5,183.4,293.9,187.3,289.9,185.8 M280.6,272.3
				c-3.3-2.7-1.2-4-1-5.8C279.9,268.4,282.3,269,280.6,272.3"/>
		</g>
	</g>
	<g id="listel">
		<path class="st4" d="M377.5,342.4c0.8-0.4,1.5-1.1,2.4-1.4c1.6-0.4,3.2-0.7,4.8-0.9c3.8-0.7,8-2.7,11-4.6c2.4-1.5,3.5-2.5,3.9-5.1
			c0.2-1.2-0.4-2.4-0.7-4c-0.4-4.3,1.5-9.1-1-12.2c-2-2.4-3.4-3.9-5.4-5.5c-3-2.3-6.5-6.5-9.5-6.2c-5.3,0.6-11.7,5.1-13.6,10.4
			c-0.3,0.9,0.6,6,0.4,9c0,1-0.6,1.8-1.1,3c-1.4,1.9-2.7,3.6-3.2,4.7c-1.3,3.3-0.3,4.1-1.2,7.6l3,5.9L377.5,342.4z M356.1,335.7
			c-0.9-4.1-3.1-8.3-2.6-12.5c0.1-0.9,1.8-5.5,2.1-8.4c0.1-1.4,0-3-0.9-4.1c-2.6-3.3-4.5-6.1-9.2-8.8c-3-1.3-6.4-0.4-8.8,1.5
			c-2.4,2-4.9,4.2-6.9,6.6c-2,2.4-4.7,4.9-5.3,8.1c-0.9,4.7-2.6,9.6-2,12.4c0.6,2.9,8.5,7.5,10.4,7.8c3.1,0.7,6.4,0.4,9.2,1.2
			c1.2,0.3,2.3,1.1,3.5,1.7l6.8-0.1L356.1,335.7z"/>
		<path class="st4" d="M352.7,340.7c0.5,0.7-1.7-0.7-2.6-0.9c-0.7-0.2-1.6,0-2.3-0.3c-1.8-0.7-3.5-2-5.3-2.7
			c-0.9-0.4-1.9-0.6-2.9-0.8c-1-0.2-2.1-0.4-3.1-0.5c-1.4-0.1-2.9,0-4.2-0.4c-1.2-0.4-2.4-1.2-3.5-1.8c-0.5-0.3-1-0.9-1.6-1.1
			c-0.5-0.2-1.2,0-1.7-0.2c-0.4-0.2-1.1-0.6-1.2-1c-0.1-0.5,0.1-1.2,0.4-1.5c0.5-0.5,1.4-0.4,2-0.8c1.6-1.1,3-2.7,4.7-3.8
			c0.7-0.5,1.6-0.8,2.4-1.1c0.7-0.2,1.5-0.4,2.3-0.4c0.7,0,1.6-0.2,2.2,0c0.7,0.2,1.4,0.6,1.8,1.1c0.6,0.6,1,1.5,1.4,2.3
			c0.3,0.9,0.4,1.9,0.7,2.7c0.6,1.5,1,3.1,2,4.3c1,1.3,2.4,2.1,3.6,3.1C349.4,338.1,351.5,339.1,352.7,340.7"/>
		<path class="st6" d="M353.6,323.6c-0.1-7.4-1.8-7.6-3.1-10.9 M368.9,324.8c0,0,3.2-3.5,2.9-6.6c-0.3-3.1,0-4.4,0.3-5
			c0.6-1.2,3.7-4.7,5.2-6 M399,326.2c0,0-4.2-4.1-5.7-6.5c-1.5-2.4-2.2-6.2-3.2-7.7c-1.1-1.5-2.9-2.9-5.2-4.2 M373.3,326.7
			c0,0-2.6,4.3-3.8,7.6c-1.2,3.3-0.4,2.9-3.2,6.1 M367.3,343.2c0,0,5.2-2.9,6.9-5.1c1.7-2.2,6.1-9.1,6.6-11.4
			c0.5-2.3,7.2-4.2,7.2-4.2s0.8-0.8,2.3-0.9c1.5,0,2.2,1.1,2.2,1.1s1.4,2.9,2.1,3.6c0.7,0.7,3.1,2.7,3,4c-0.1,1.3-2.7,3.3-2.7,3.3
			s-5.1,2.3-7.3,3.8 M351.9,339.9l-3.5-1.7c0,0-0.7-0.6-1.5-0.7c-0.8-0.1-1-0.8-1.5-1.1c-0.8-0.4-0.6-0.4-2.6-1"/>
		<path class="st9" d="M348.4,337.4c0,0-3.2-1.5-4.8-2.2c-0.7-0.3-0.3-0.5-2.1-0.9c-1.7-0.4-3.6,0.3-5.1-2.4 M347.6,336.6l-4-2.6
			c0,0-2.4-0.8-3.3-0.9c-0.9-0.1-3.7-1.6-3.8-2.6"/>
		<path class="st9" d="M345.3,334.9l-3.3-1.7c0,0-0.5-0.7-1.7-1.1c-1.2-0.4-2.2-0.4-2.9-1.2c-0.2-0.3-1.8-1.5-1.8-1.5 M335.5,328.3
			c0,0,1.8,1.5,2.8,2.2c0.9,0.6,3,1,3,1l2.7,1.9 M336.7,328.4c0,0,2,1.5,3.4,2.2c0.8,0.4,2.9,1.5,2.9,1.5 M337.9,328.5
			c0,0,1.5,0.6,2.3,1.4c0.8,0.8,2.9,1.7,2.9,1.7"/>
		<path class="st9" d="M336,327.5c0,0,2.3,0.3,3.1,0.8c0.9,0.5,0.8,0.9,1.5,1.4c0.6,0.4,1.2,0.7,1.8,1.2"/>
		<path class="st6" d="M335.7,326.1c0,0,1.2,0.2,1.8,0.6c0.6,0.4,2,1.7,3,2.1c1,0.4,1.6,1.4,2.2,1.6 M335,324.6l7.5,5.5
			 M336.9,325.3c1.2,0.2,1.5,1,2.3,1.4c1.5,0.8,2.8,2.8,2.8,2.8 M336.4,324.4c0,0,1-0.2,1.7,0.3c0.7,0.4,2,1.3,2.7,2.2
			c0.7,0.9,1.1,1.6,1.1,1.6 M376.7,338.2c-2,0.2-4.8,1.9-4.8,1.9 M377.9,337.4c-2.3,0-3.8,0.7-3.8,0.7 M380,336.6
			c0,0-3.4-0.1-5.3,0.8 M381.5,334.9c-1.9,0-4.5,0.1-5.9,1.1 M382.5,334.9c-3.1-0.3-5.3-0.2-6.4,0.2 M384.6,334.1
			c-3.1-0.7-3.3-0.7-8,0.6 M385.8,333.2c-5.7-1.2-6.3-0.6-8.4,0 M384.6,331.6c-4.9,0-3.9-0.3-6.6,0.6 M384.9,331.6
			c-3.7-0.7-4.2-1.5-6.3-0.4 M385.9,330.8c-3.1-1.6-3.8-1.3-6.7-0.7 M387.7,330.6c-4.9-1.9-4.5-2.6-7.8-1.5"/>
		<path class="st6" d="M389.5,329.9c-2-0.9-3.1-0.9-4.5-1c-1.4,0-5.1,0.1-5.1,0.1 M390.2,322.1l-4.6,1.1 M389,323.1
			c0,0-3.6,0.5-6.8,1.8 M389,324.2c0,0-0.5-0.6-2.2-0.5c-1.7,0.2-4,1.1-5.5,1.9 M389.5,325.3c-1.5-1-2.8-0.5-2.8-0.5l-6.2,2.5"/>
		<path class="st6" d="M388.7,326.4c-1.4-0.6-1.9-0.6-3-0.4c-1.1,0.2-5.3,1.9-5.3,1.9"/>
		<path class="st6" d="M388.9,327.6c-1.2-1.2-2.9-0.5-4.4-0.3c-1.5,0.1-3.5,0.5-4.2,1.1 M389.3,328.6c0,0-1.7-0.8-2.9-0.7
			c-1.2,0.2-6.1,0.5-6.1,0.5 M381,326.4c5.6-2.3,6.9-2.8,7.9-2.4"/>
		<g id="listel_esquerdo">
			<path class="st4" d="M294.6,327.8c-9.1-19-26.3-14.9-31.9-20.1c-9.4-7.6,0.1-17.5-10.4-20.9c5.2,7.3-5.6,16.6,5.2,25.4
				c-16.3-4.6-3.8-11.7-13.4-16.9c2.1,4.1-1.8,10.4,0.7,15.9c2.7,5.1,6.8,7.7,11.6,10.1c4.8,2.3,13,1.2,20.9,8L294.6,327.8z"/>
			<path class="st4" d="M360.5,340.7c-5,0-17.7,2.2-25.3,0.4c-3.2-1-11.8-4.6-14.9-5.8c-11-4.3-18.5-7.9-30.3-7.9
				c-12.7,0-28.5,5.6-29.8,13.3c5,7,4.7,6.3,5.3,16.2c6.2,9.8,26.5,2.2,29.1-12.4c9,1.6,16.8,5.2,24.5,7.9c5,1.7,10.7,3.8,16.6,3.7
				c7.7-0.2,19.5-2.2,24.9-3.7"/>
			<g>
				<path class="st7" d="M294.6,344.4c-6.4-1.2-11.5-0.2-14.9,0.8c-4.5,1.3-12.3,3.5-12.4,9.1c0,0.9,0.2,5.8,8.9,4.4 M275.2,357.7
					c-6.1,1.5-7.5-1.6-7.5-1.6 M274.4,356.9c-5.1,1.6-6.5-1.2-6.5-1.2 M272.7,356c-5.8,1.3-5.5-1.9-5.5-1.9"/>
				<path class="st10" d="M271.8,354.8c-3,1.6-4.3-1.2-4.3-1.2 M271,354c-2.4,1.1-3.3-1-3.3-1"/>
				<path class="st11" d="M270.1,353.1c-1.7,0.5-2.3-0.8-2.3-0.8 M269.9,352.3c-1.5,0.5-1.8-0.7-1.8-0.7"/>
			</g>
		</g>
		<g transform="scale(-1 1)">
			<g id="listel_esquerdo_00000039822846226856220370000006798813512272513928_">
				<path class="st4" d="M426.4,327.8c9.1-19,26.3-14.9,31.9-20.1c9.4-7.6-0.1-17.5,10.4-20.9c-5.2,7.3,5.6,16.6-5.2,25.4
					c16.3-4.6,3.8-11.7,13.4-16.9c-2.1,4.1,1.8,10.4-0.7,15.9c-2.7,5.1-6.8,7.7-11.6,10.1c-4.8,2.3-13,1.2-20.9,8L426.4,327.8z"/>
				<path class="st4" d="M360.5,340.7c5,0,17.7,2.2,25.3,0.4c3.2-1,11.8-4.6,14.9-5.8c11-4.3,18.5-7.9,30.3-7.9
					c12.7,0,28.5,5.6,29.8,13.3c-5,7-4.7,6.3-5.3,16.2c-6.2,9.8-26.5,2.2-29.1-12.4c-9,1.6-16.8,5.2-24.5,7.9
					c-5,1.7-10.7,3.8-16.6,3.7c-7.7-0.2-19.5-2.2-24.9-3.7"/>
				<g>
					<path class="st7" d="M426.4,344.4c6.4-1.2,11.5-0.2,14.9,0.8c4.5,1.3,12.3,3.5,12.4,9.1c0,0.9-0.2,5.8-8.9,4.4 M445.8,357.7
						c6.1,1.5,7.5-1.6,7.5-1.6 M446.6,356.9c5.1,1.6,6.5-1.2,6.5-1.2 M448.3,356c5.8,1.3,5.5-1.9,5.5-1.9"/>
					<path class="st10" d="M449.2,354.8c3,1.6,4.3-1.2,4.3-1.2 M450,354c2.4,1.1,3.3-1,3.3-1"/>
					<path class="st11" d="M450.9,353.1c1.7,0.5,2.3-0.8,2.3-0.8 M451.1,352.3c1.5,0.5,1.8-0.7,1.8-0.7"/>
				</g>
			</g>
		</g>
		<g id="moto" transform="translate(0 -5)">
			<g transform="rotate(15 -447 -200)">
				<path id="D" class="st12" d="M299.5,345.6c-0.1,0.2-0.1,0.4-0.1,0.6c0,0.1,0,0.3,0.1,0.4c0.2,0.2,0.5,0.2,0.7,0.3
					c1.1,0.4,2.2,0.9,3.4,1.2c1.3,0.3,2.5,0.4,3.4,0c1.2-0.6,2.1-1.9,2.5-3.7c0.3-1.1,0.2-2.1-0.2-3.2c-0.5-1.4-1.4-2.1-2.6-2.6
					c-0.9-0.4-1.8-0.7-2.7-0.9c-0.7-0.2-1.6-0.4-2-0.5c-0.2,0-0.5,0.1-0.5,0.4c-0.1,0.5,0,0.6,0.2,0.8c0.1,0.1,0.2,0.2,0.2,0.4
					c0.1,0.2,0,0.5,0,0.7c-0.2,1.7-0.6,3.5-1.2,5.1c-0.1,0.3-0.2,0.6-0.4,0.8c-0.1,0.1-0.3,0.1-0.5,0.2
					C299.7,345.5,299.6,345.5,299.5,345.6L299.5,345.6z M304.7,340c0-0.2,0.2-0.3,0.3-0.3c0.2,0,0.4,0,0.6,0.2
					c0.4,0.3,0.7,0.6,0.8,1.1c0.3,0.9,0.3,2,0.1,3c-0.2,0.9-0.7,1.9-1.4,2.5c-0.2,0.2-0.5,0.3-0.8,0.3c-0.3,0-0.5,0-0.7-0.2
					c-0.2-0.2-0.2-0.4-0.2-0.6L304.7,340z"/>
			</g>
			<g transform="rotate(-30 153 261)">
				<path id="E" class="st12" d="M265.7,344.1c-0.1-0.2-0.2-0.4-0.4-0.4c-0.1-0.1-0.2,0-0.5,0c-0.2,0-0.4,0-0.4-0.2
					c-0.2-0.5,0-0.9,0.5-1.2l3.7-2.2c0.3-0.2,0.7-0.4,0.9-0.7c0.3-0.3,0.4-0.4,0.5-0.5c0.2-0.1,0.4-0.1,0.6,0
					c0.4,0.2,0.5,0.4,0.7,0.7c0.2,0.4,0.4,0.8,0.4,1.2c0,0.2-0.1,0.4-0.3,0.5c-0.4,0.2-0.7-0.2-0.9-0.3c-0.1-0.1-0.3-0.2-0.6-0.1
					c-0.4,0.1-0.8,0.3-1.1,0.5c-0.3,0.2-0.6,0.5-0.8,0.8c-0.1,0.1,0,0.3,0,0.4c0.2,0.6,0.5,1.2,0.8,1.8c0.1,0.1,0.1,0.2,0.2,0.2
					c0.3-0.1,0.6-0.3,0.8-0.6c0.2-0.2,0-0.5,0-0.7c-0.1-0.3-0.1-0.5-0.1-0.6c0-0.2,0.1-0.3,0.3-0.5c0.2-0.2,0.5-0.1,0.8,0.3
					c0.3,0.4,0.5,0.9,0.6,1.3c0.6,1.4,0.7,2.2,0.2,2.5c-0.2,0.1-0.4,0-0.5-0.3c-0.2-0.3-0.3-0.5-0.5-0.7c-0.4-0.3-0.8,0.2-0.9,0.5
					c0,0.1,0,0.3,0.1,0.5c0.1,0.7,0.5,1.2,0.8,1.8c0.2,0.4,0.6,0.3,1.2-0.1c0.6-0.4,1-0.7,1.1-1c0.3-0.6,0.3-1.3,0.3-1.9
					c0-0.3,0.1-0.4,0.3-0.5c0.3-0.2,0.6,0,0.9,0.6c0.3,0.8,0.3,1.6,0.3,2.4c0,0.2-0.1,0.5-0.1,0.6c-0.1,0.1-0.2,0.1-0.4,0.2
					c-1.7,0.8-3.3,1.8-4.4,2.5c-0.9,0.6-1.1,0.8-1.3,0.9c-0.2,0.1-0.3-0.1-0.4-0.2c-0.2-0.4-0.1-0.6,0-0.7c0.2-0.4,0.3-0.7,0.2-1
					L265.7,344.1z"/>
			</g>
			<g transform="rotate(8 -883 -131)">
				<path id="E_00000081613476454006769670000004954206720243432365_" class="st12" d="M336.1,350.5c0.1-0.3,0.1-0.4,0-0.6
					c-0.1-0.1-0.2-0.1-0.4-0.3c-0.2-0.1-0.3-0.3-0.2-0.5c0.2-0.5,0.5-0.7,1.2-0.6l4.3,0.5c0.4,0,0.8,0.1,1.1,0
					c0.4,0,0.6-0.1,0.6-0.1c0.2,0,0.4,0.2,0.4,0.4c0.2,0.4,0.1,0.7,0.1,1c-0.1,0.5-0.2,0.9-0.5,1.2c-0.1,0.1-0.3,0.2-0.5,0.2
					c-0.4-0.1-0.5-0.5-0.6-0.8c-0.1-0.1-0.2-0.3-0.4-0.5c-0.4-0.2-0.8-0.3-1.2-0.3c-0.4,0-0.8,0-1.1,0.1c-0.1,0-0.2,0.2-0.2,0.3
					c-0.2,0.6-0.3,1.3-0.5,1.9c0,0.1,0,0.2,0.1,0.2c0.3,0.2,0.7,0.1,0.9,0c0.3-0.1,0.3-0.4,0.4-0.6c0.1-0.3,0.2-0.4,0.3-0.5
					c0.1-0.1,0.3-0.2,0.5-0.2c0.3,0,0.4,0.3,0.4,0.7c0,0.4-0.2,1-0.3,1.5c-0.4,1.4-0.9,2.2-1.4,2.1c-0.2,0-0.3-0.2-0.3-0.5
					c0-0.4,0.1-0.6,0-0.8c-0.2-0.5-0.7-0.4-1-0.2c-0.1,0.1-0.2,0.3-0.2,0.4c-0.3,0.6-0.4,1.2-0.5,1.9c-0.1,0.5,0.3,0.6,1,0.7
					c0.7,0.1,1.2,0,1.5-0.1c0.6-0.3,1-0.8,1.5-1.3c0.2-0.3,0.3-0.3,0.6-0.2c0.4,0.1,0.5,0.4,0.3,1c-0.3,0.8-0.8,1.4-1.3,2.1
					c-0.2,0.2-0.4,0.4-0.4,0.4c-0.1,0-0.2-0.1-0.4-0.1c-1.8-0.4-3.7-0.6-5-0.7c-1-0.1-1.4-0.1-1.6-0.1c-0.2,0-0.2-0.2-0.2-0.4
					c0.1-0.4,0.3-0.5,0.4-0.6c0.4-0.2,0.7-0.4,0.8-0.7L336.1,350.5z"/>
			</g>
			<g transform="rotate(15 -471 -84.8)">
				<path id="D_00000039093088790937217320000004197662878668914111_" class="st12" d="M323.6,354c-0.1,0.2-0.1,0.4-0.1,0.6
					c0,0.1,0,0.3,0.1,0.4c0.2,0.2,0.5,0.2,0.7,0.3c1.1,0.4,2.2,0.9,3.4,1.2c1.3,0.3,2.5,0.4,3.4,0c1.2-0.6,2.1-1.9,2.5-3.7
					c0.3-1.1,0.2-2.1-0.2-3.2c-0.5-1.4-1.4-2.1-2.6-2.6c-0.9-0.4-1.8-0.7-2.7-0.9c-0.7-0.2-1.6-0.4-2-0.5c-0.2,0-0.5,0.1-0.5,0.4
					c-0.1,0.5,0,0.6,0.2,0.8c0.1,0.1,0.2,0.2,0.2,0.4c0.1,0.2,0,0.5,0,0.7c-0.2,1.7-0.6,3.5-1.2,5.1c-0.1,0.3-0.2,0.6-0.4,0.8
					c-0.1,0.1-0.3,0.1-0.5,0.2C323.8,353.9,323.6,353.9,323.6,354L323.6,354z M328.8,348.4c0-0.2,0.2-0.3,0.3-0.3
					c0.2,0,0.4,0,0.6,0.2c0.4,0.3,0.7,0.6,0.8,1.1c0.3,0.9,0.3,2,0.1,3c-0.2,0.9-0.7,1.9-1.4,2.5c-0.2,0.2-0.5,0.3-0.8,0.3
					c-0.3,0-0.5,0-0.7-0.2c-0.2-0.2-0.2-0.4-0.2-0.6L328.8,348.4z"/>
			</g>
			<g transform="rotate(-20 256 334)">
				<path id="S" class="st12" d="M279.1,336.8c0.4,0,0.5,0,0.8-0.1s0.3-0.2,0.5-0.1c0.3,0.2,0.5,0.6,0.8,0.9
					c0.2,0.2,0.3,0.4,0.4,0.6c0.3,0.7,0,1.3-0.4,1.5c-0.2,0.1-0.4,0.1-0.7-0.1c-0.3-0.2-0.4-0.3-0.7-0.5c-0.5-0.3-0.8-0.4-1.2-0.3
					c-0.4,0.1-0.7,0.5-0.6,1c0.1,0.3,0.3,0.5,0.6,0.6c1.5,0.1,2.9,0.2,3.5,1c0.7,0.9,0.8,1.7,0.6,2.7c-0.3,2-1.4,2.6-2.9,3.2
					c-0.8,0.3-1.5,0.4-2.1,0.4c-0.4,0.1-0.9-0.1-1.2-0.4c-0.2-0.2-0.7-1.5-1-2.1c-0.2-0.6,0.1-0.7,0.3-0.8c0.3-0.1,0.6,0,0.9,0.5
					c0.6,0.9,1.4,1,2.3,0.9c0.7-0.1,0.8-0.5,0.8-0.9c0-0.3-0.3-0.6-0.5-0.6c-0.7-0.2-1.6-0.3-2.3-0.6c-1.1-0.4-1.8-1.3-2.1-2.1
					c-0.2-0.5-0.1-1.2,0.3-2.1s1.2-1.8,2.4-2.2C278,336.9,278.6,336.8,279.1,336.8z"/>
			</g>
			<g transform="rotate(1.4 -4957 737)">
				<path id="S_00000072962841116401560380000007851405775588508852_" class="st12" d="M376.6,348.7c0.4,0.2,0.5,0.2,0.7,0.2
					c0.3,0,0.4-0.1,0.5,0.1c0.2,0.3,0.3,0.8,0.4,1.2c0.1,0.2,0.2,0.5,0.1,0.7c0,0.7-0.4,1.2-0.9,1.2c-0.2,0-0.4-0.1-0.6-0.3
					c-0.2-0.2-0.3-0.4-0.5-0.8c-0.3-0.5-0.6-0.6-1-0.7c-0.4-0.1-0.8,0.2-0.9,0.7c-0.1,0.3,0.1,0.6,0.4,0.8c1.3,0.6,2.6,1.3,2.8,2.2
					c0.3,1.1,0.1,1.9-0.4,2.7c-1,1.7-2.2,1.9-3.9,1.9c-0.8,0-1.5-0.2-2.1-0.4c-0.4-0.1-0.8-0.4-1-0.8c-0.1-0.3-0.1-1.7-0.1-2.3
					c0-0.6,0.3-0.7,0.6-0.6c0.3,0,0.5,0.3,0.6,0.8c0.3,1.1,0.9,1.5,1.8,1.7c0.7,0.2,1-0.1,1.1-0.6c0.1-0.3-0.1-0.7-0.2-0.7
					c-0.6-0.4-1.3-0.9-1.9-1.4c-0.9-0.8-1.2-1.9-1.2-2.8c0-0.5,0.3-1.1,1-1.9c0.7-0.7,1.8-1.2,3-1.2
					C375.6,348.3,376.2,348.5,376.6,348.7z"/>
			</g>
			<g transform="rotate(-5 1169 1072)">
				<path id="T" class="st12" d="M287.8,335.6c0.4-0.1,0.8-0.2,1.1-0.3c0.2,0,0.5,0.1,0.7,0.5c0.4,0.6,0.8,1.5,0.9,2.2
					c0,0.3,0,0.6-0.1,0.8c-0.1,0.2-0.3,0.3-0.5,0.3c-0.5,0-0.9-0.2-1.1-0.7c-0.1-0.4-0.2-0.7-0.7-0.9c-0.2-0.1-0.4,0.3-0.3,0.8
					l0.4,4.7c0.1,0.6,0.2,0.7,0.4,0.9c0.3,0.2,0.8,0.3,0.9,0.8c0,0.5-0.1,0.7-0.5,0.8c-0.6,0.2-1.2,0.3-1.9,0.3s-1.3,0.1-1.9,0
					c-0.4-0.1-0.6-0.2-0.6-0.7c0-0.5,0.5-0.7,0.7-0.9c0.2-0.2,0.3-0.4,0.3-0.9l-0.4-4.7c-0.1-0.5-0.3-0.8-0.5-0.7
					c-0.4,0.2-0.4,0.5-0.5,1c-0.1,0.6-0.4,0.9-0.9,0.9c-0.2,0-0.4-0.1-0.5-0.2c-0.2-0.2-0.2-0.5-0.2-0.8c-0.1-0.7,0.2-1.6,0.5-2.3
					c0.2-0.4,0.4-0.6,0.6-0.6c0.4,0,0.8,0.1,1.2,0.1L287.8,335.6z"/>
			</g>
			<g transform="rotate(.9 -7736 1788)">
				<path id="T_00000046312677065451422810000000284110530690293686_" class="st12" d="M384.6,348.8c0.4,0,0.8-0.2,1.2-0.1
					c0.2,0,0.4,0.2,0.7,0.6c0.3,0.7,0.6,1.6,0.6,2.2c0,0.3,0,0.6-0.2,0.8c-0.1,0.2-0.3,0.2-0.5,0.2c-0.5,0-0.9-0.3-1-0.8
					c-0.1-0.4-0.1-0.7-0.6-0.9c-0.2-0.1-0.4,0.2-0.4,0.7l-0.1,4.7c0,0.6,0.1,0.7,0.3,0.9c0.3,0.2,0.8,0.4,0.8,0.9
					c0,0.5-0.2,0.7-0.6,0.7c-0.6,0.1-1.2,0.1-1.9,0.1c-0.7,0-1.3,0-1.9-0.2c-0.4-0.1-0.5-0.3-0.5-0.8c0-0.5,0.5-0.7,0.8-0.9
					c0.2-0.2,0.3-0.3,0.3-0.9l0.1-4.7c0-0.5-0.2-0.8-0.4-0.8c-0.5,0.2-0.5,0.5-0.6,0.9c-0.1,0.5-0.5,0.8-1,0.8
					c-0.2,0-0.4-0.1-0.5-0.3c-0.2-0.2-0.2-0.5-0.2-0.8c0-0.7,0.3-1.6,0.7-2.2c0.2-0.4,0.5-0.6,0.7-0.6c0.4,0,0.8,0.1,1.2,0.2
					L384.6,348.8z"/>
			</g>
			<g transform="rotate(5 -1256 -850)">
				<path id="A" class="st12" d="M291.8,345.8c0.7,0.1,1.6,0.1,1.6-0.5c0-0.2,0-0.3,0-0.5c-0.1-0.2-0.2-0.2-0.3-0.3
					c-0.1-0.2-0.1-0.4-0.1-0.6c0.1-0.2,0.3-0.5,0.5-0.5l1.7,0.1c0.4,0,0.5,0.3,0.5,0.5c0,0.1-0.1,0.2-0.1,0.3
					c-0.1,0.2-0.3,0.2-0.5,0.4c-0.2,0.2-0.2,0.4-0.2,0.6c-0.1,0.6,1.1,0.7,2.1,0.8c1.2,0.1,2.1,0.2,2.2-1c0-0.2-0.2-0.3-0.3-0.5
					c-0.2-0.2-0.4-0.4-0.4-0.6l-1.2-6.7c-0.1-0.5-0.3-0.9-0.6-1.2c-0.3-0.3-0.5-0.5-0.9-0.5c-0.2,0-0.5,0.1-0.7,0.2
					c-0.2,0.1-0.3,0.2-0.4,0.4c-0.1,0.2-0.1,0.3-0.2,0.5c-0.1,0.4-0.2,0.8-0.3,1.1c-0.1,0.2-0.2,0.5-0.3,0.7l-2.7,5.2
					c-0.1,0.1-0.1,0.2-0.2,0.3c-0.6,0.2-0.9,0.5-0.9,0.8C290.2,345.6,291.1,345.7,291.8,345.8L291.8,345.8z M294.3,341.8
					c-0.1,0-0.2-0.2-0.2-0.3c0-0.5,0.6-1.3,0.7-1.4c0.1-0.2,0-0.3,0.2-0.3c0.2,0,0.3,0.3,0.4,0.4c0.2,0.4,0.2,0.9,0.2,1.4
					c0,0.2-0.1,0.3-0.2,0.3L294.3,341.8z"/>
			</g>
			<g transform="rotate(-8.89 794 -171)">
				<path id="A_00000075137705680589277050000003110455196584380817_" class="st12" d="M388.2,358.4c0.7-0.1,1.6-0.2,1.5-0.9
					c0-0.2-0.1-0.3-0.2-0.4c-0.1-0.1-0.2-0.1-0.4-0.3c-0.1-0.2-0.2-0.3-0.2-0.5c0-0.2,0.2-0.5,0.4-0.6l1.6-0.3
					c0.4-0.1,0.6,0.2,0.6,0.4c0,0.1,0,0.3-0.1,0.4c-0.1,0.2-0.2,0.3-0.4,0.5s-0.1,0.4-0.1,0.7c0.1,0.6,1.2,0.4,2.2,0.2
					c1.1-0.2,2.1-0.3,2-1.5c0-0.2-0.3-0.3-0.4-0.4c-0.2-0.1-0.4-0.3-0.5-0.5l-2.7-6.2c-0.2-0.4-0.5-0.8-0.9-1
					c-0.3-0.2-0.6-0.3-1-0.3c-0.2,0-0.4,0.2-0.6,0.3c-0.1,0.1-0.2,0.3-0.3,0.5c-0.1,0.2-0.1,0.3-0.1,0.5c0,0.4,0,0.8,0,1.2
					c0,0.3-0.1,0.5-0.1,0.8l-1.4,5.7c0,0.1,0,0.3-0.1,0.3c-0.5,0.4-0.7,0.7-0.7,0.9C386.7,358.6,387.6,358.5,388.2,358.4
					L388.2,358.4z M389.7,353.9c-0.1,0-0.2-0.1-0.3-0.2c-0.2-0.5,0.3-1.4,0.3-1.6c0.1-0.2-0.1-0.3,0.1-0.4c0.2,0,0.4,0.2,0.5,0.3
					c0.3,0.4,0.4,0.9,0.5,1.3c0.1,0.2,0,0.3-0.1,0.4L389.7,353.9z"/>
			</g>
			<g transform="rotate(-20.5 342 -103)">
				<path id="A_00000039831936510137159270000015385450421395102863_" class="st12" d="M407.4,352.6c0.7-0.3,1.5-0.6,1.2-1.2
					c-0.1-0.2-0.1-0.3-0.2-0.4c-0.1-0.1-0.3-0.1-0.4-0.2c-0.2-0.1-0.3-0.3-0.3-0.5c0-0.2,0.1-0.6,0.3-0.6l1.6-0.6
					c0.4-0.1,0.6,0.1,0.7,0.2c0,0.1,0,0.2,0,0.4c-0.1,0.2-0.2,0.3-0.2,0.6s0,0.5,0.1,0.7c0.2,0.5,1.3,0.1,2.2-0.2
					c1.1-0.4,2-0.8,1.6-1.8c-0.1-0.2-0.3-0.2-0.4-0.3c-0.3,0-0.5-0.2-0.6-0.3l-3.9-5.5c-0.3-0.4-0.7-0.6-1.1-0.8
					c-0.4-0.2-0.6-0.2-1-0.1c-0.2,0.1-0.4,0.3-0.5,0.5c-0.1,0.1-0.1,0.3-0.2,0.5c0,0.2,0,0.3,0,0.5c0,0.4,0.2,0.8,0.3,1.1
					c0,0.3,0,0.5,0,0.8l-0.2,5.9c0,0.1,0,0.3-0.1,0.3c-0.4,0.5-0.6,0.8-0.5,1.1C406,353.1,406.8,352.8,407.4,352.6L407.4,352.6z
					 M408,347.8c-0.1,0-0.3-0.1-0.3-0.2c-0.3-0.5,0-1.5,0-1.6c0-0.2-0.1-0.3,0-0.4c0.2-0.1,0.4,0.1,0.5,0.2c0.4,0.3,0.5,0.8,0.8,1.1
					c0.1,0.2,0.1,0.3,0,0.4L408,347.8z"/>
			</g>
			<g transform="rotate(-18.7 363 -172)">
				<path id="A_00000074417573149362285760000011077774381772663942_" class="st12" d="M421,347.6c0.7-0.2,1.5-0.5,1.3-1.1
					c-0.1-0.2-0.1-0.3-0.2-0.4c-0.1-0.1-0.3-0.1-0.4-0.2c-0.2-0.1-0.3-0.3-0.3-0.5c0-0.2,0.1-0.6,0.3-0.6l1.6-0.5
					c0.4-0.1,0.6,0.1,0.7,0.3c0,0.1,0,0.2,0,0.4c-0.1,0.2-0.2,0.3-0.3,0.6c-0.1,0.2,0,0.5,0.1,0.7c0.2,0.5,1.3,0.2,2.2-0.1
					c1.1-0.4,2-0.7,1.7-1.8c-0.1-0.2-0.3-0.2-0.4-0.3c-0.3-0.1-0.5-0.2-0.6-0.4l-3.7-5.6c-0.3-0.4-0.6-0.7-1.1-0.9
					c-0.4-0.2-0.6-0.2-1-0.1c-0.2,0.1-0.4,0.3-0.5,0.4c-0.1,0.1-0.1,0.3-0.2,0.5c0,0.2,0,0.3,0,0.5c0,0.4,0.2,0.8,0.2,1.2
					c0,0.3,0,0.5,0,0.8l-0.4,5.9c0,0.1,0,0.3-0.1,0.3c-0.5,0.4-0.6,0.8-0.5,1.1C419.5,348.1,420.4,347.8,421,347.6L421,347.6z
					 M421.7,342.9c-0.1,0-0.3-0.1-0.3-0.2c-0.3-0.5,0-1.5,0.1-1.6c0-0.2-0.1-0.3,0.1-0.4c0.2-0.1,0.4,0.2,0.5,0.3
					c0.4,0.3,0.5,0.8,0.7,1.1c0.1,0.2,0,0.3-0.1,0.4L421.7,342.9z"/>
			</g>
			<g transform="rotate(35 -124 234)">
				<path id="A_00000038412169215767627740000016152395997626663296_" class="st12" d="M447.8,349.4c0.6,0.4,1.3,0.9,1.7,0.4
					c0.1-0.2,0.2-0.3,0.2-0.4c0-0.2-0.1-0.3-0.1-0.4c0-0.2,0.1-0.4,0.2-0.5c0.2-0.1,0.5-0.3,0.7-0.1l1.4,1c0.3,0.2,0.3,0.5,0.2,0.7
					c-0.1,0.1-0.2,0.2-0.3,0.2c-0.2,0.1-0.4,0.1-0.6,0.1s-0.4,0.3-0.5,0.4c-0.3,0.5,0.6,1.1,1.4,1.7c1,0.7,1.8,1.2,2.4,0.3
					c0.1-0.2,0-0.4,0-0.6c-0.1-0.2-0.1-0.5-0.1-0.7l2.3-6.4c0.2-0.4,0.2-0.9,0.1-1.4c-0.1-0.4-0.2-0.6-0.5-0.9
					c-0.2-0.1-0.5-0.2-0.7-0.2c-0.2,0-0.3,0.1-0.5,0.1c-0.2,0.1-0.3,0.2-0.4,0.3c-0.3,0.2-0.5,0.6-0.8,0.9c-0.2,0.2-0.4,0.3-0.6,0.5
					l-4.9,3.2c-0.1,0.1-0.2,0.2-0.3,0.1c-0.6-0.1-1,0-1.2,0.2C446.6,348.5,447.3,349,447.8,349.4L447.8,349.4z M452,347.2
					c-0.1-0.1-0.1-0.3,0-0.3c0.2-0.5,1.2-0.8,1.3-0.9c0.2-0.1,0.2-0.3,0.3-0.2c0.2,0.1,0.1,0.4,0.1,0.6c-0.1,0.5-0.3,0.9-0.5,1.3
					c-0.1,0.2-0.2,0.2-0.3,0.2L452,347.2z"/>
			</g>
			<g transform="rotate(20 -349 -102)">
				<path id="O" class="st12" d="M316.3,350.7c0.9-0.7,1.4-1.3,1.8-2.5c0.4-1,0.5-2.5,0.2-3.5c-0.4-1.4-1.2-2.3-2.4-2.7
					c-1.4-0.5-2.9,0-3.9,0.8c-0.8,0.6-1.5,1.7-1.8,2.6c-0.4,1.1-0.7,2-0.5,3.1c0.3,1.6,1,2.6,2.4,3.1
					C313.6,352,315.1,351.6,316.3,350.7z M312.7,346.2c0.3-0.6,0.7-1.6,1.2-2.1c0.5-0.5,0.9-0.6,1.4-0.4c0.7,0.3,0.5,1.6,0.4,2.4
					c-0.2,1-0.7,1.9-1.3,2.7c-0.5,0.7-1.2,1.2-1.8,1C311.6,349.5,312.3,347.3,312.7,346.2z"/>
			</g>
			<g transform="translate(43.7 120)">
				<path id="_x2E_" class="st12" d="M396.8,355.3c0.8,0,1.1,0.5,1.1,1c0,0.6-0.5,1.1-1.1,1.1c-0.9,0-1.2-0.5-1.2-1.1
					C395.6,355.6,396.2,355.3,396.8,355.3z"/>
			</g>
			<g transform="rotate(20 -258 345)">
				<path id="N" class="st12" d="M443.3,339.8c0.1-0.3,0.1-0.4,0.1-0.6c-0.1-0.3-0.2-0.6-0.4-0.9c-0.1-0.1,0-0.2,0.1-0.4
					c0.1-0.2,0.2-0.3,0.5-0.4c0.3-0.1,0.6-0.1,1.1,0l0.6,0.2c0.3,0.1,0.5,0.5,0.6,0.8l1.4,3.8c0,0,0.1,0.4,0.3,0.4
					c0.2,0.1,0.3-0.1,0.4-0.3l0.5-1.3c0.1-0.3,0.1-0.4,0-0.6c-0.2-0.2-0.4-0.6-0.2-1c0.3-0.8,1.1-0.5,1.7-0.2c0.6,0.2,1.2,0.5,1,1.2
					c-0.2,0.5-0.5,0.5-0.7,0.6c-0.3,0-0.3,0.1-0.4,0.5l-2.2,5.9c-0.3,0.8-0.7,1.5-0.9,1.4c-0.2-0.1-0.3-0.6-0.5-1l-1.5-4.3
					c-0.1-0.2-0.2-0.5-0.3-0.6c-0.1,0-0.3,0.1-0.5,0.5l-0.7,1.9c-0.1,0.4,0,0.4,0.2,0.7c0.2,0.3,0.3,0.6,0.2,0.8
					c-0.3,0.9-1.1,0.6-1.9,0.3c-0.9-0.3-1.6-0.6-1.3-1.5c0.1-0.3,0.6-0.4,0.8-0.4c0.4-0.1,0.4-0.1,0.5-0.4L443.3,339.8z"/>
			</g>
			<g transform="rotate(-20.9 339 -76)">
				<path id="C" class="st12" d="M397.7,348.3c0.1-1.4,0.6-2.4,1.5-3.5c0.5-0.6,0.9-0.8,1.3-0.9c0.4-0.2,0.9,0,1.3,0.1
					c0.3,0,0.5,0,0.8-0.1c0.3-0.1,0.3-0.1,0.4-0.2c0.2-0.1,0.3,0,0.5,0.2c0.4,0.3,0.5,0.7,0.7,1.2c0.4,1.1,0.3,2.4-0.2,2.6
					c-0.2,0.1-0.4,0-0.6-0.1c-0.4-0.2-0.6-0.6-0.8-0.8c-0.2-0.2-0.4-0.5-0.8-0.6c-0.6-0.3-1.1-0.1-1.4,0.2c-0.4,0.3-0.4,1.1-0.2,2
					c0.2,1.1,1.1,2.5,1.5,2.8c0.5,0.3,1,0.2,1.6,0.1c0.6-0.1,0.9-0.6,1.2-1.2c0.1-0.2,0.1-0.4,0.3-0.4c0.4-0.1,0.5,0.2,0.5,0.5
					c0.1,0.7,0.1,1.3-0.3,1.9c-0.5,1-1.2,1.6-2.2,2c-0.4,0.2-1.1,0.4-1.6,0.3c-1.3-0.4-2.5-1.6-3.1-2.9
					C397.7,350.2,397.6,349.2,397.7,348.3z"/>
			</g>
			<g transform="rotate(-20.9 332 -123)">
				<path id="T_00000027602647690955020520000003590578726508690067_" class="st12" d="M414.6,339.1c0.3-0.2,0.7-0.4,1-0.6
					c0.2-0.1,0.5,0,0.8,0.3c0.6,0.5,1.2,1.2,1.4,1.9c0.1,0.3,0.2,0.6,0.1,0.8c-0.1,0.2-0.2,0.3-0.4,0.4c-0.4,0.2-0.9,0-1.2-0.4
					c-0.3-0.4-0.4-0.6-0.9-0.6c-0.2,0-0.3,0.4-0.1,0.8l1.7,4.4c0.2,0.5,0.4,0.6,0.6,0.7c0.3,0.1,0.9,0.1,1,0.5
					c0.2,0.4,0.1,0.7-0.2,0.9c-0.5,0.3-1.1,0.6-1.7,0.8s-1.3,0.5-1.8,0.5c-0.4,0-0.6-0.1-0.8-0.5c-0.2-0.5,0.3-0.8,0.4-1.1
					c0.1-0.2,0.2-0.4,0-1l-1.7-4.4c-0.2-0.5-0.5-0.7-0.7-0.5c-0.4,0.3-0.3,0.6-0.2,1.1c0.1,0.6-0.2,1-0.6,1.1
					c-0.2,0.1-0.4,0-0.6-0.1c-0.2-0.1-0.3-0.4-0.5-0.7c-0.2-0.7-0.3-1.6-0.2-2.3c0.1-0.5,0.2-0.7,0.4-0.8c0.4-0.1,0.8-0.2,1.1-0.3
					L414.6,339.1z"/>
			</g>
			<g transform="rotate(11.5 -478 521)">
				<path id="I" class="st12" d="M437.8,337.8c0.1-0.6,0-0.7-0.1-1c-0.2-0.2-0.7-0.5-0.6-1c0.2-0.9,1.3-0.7,2.5-0.4
					c1.2,0.2,2.4,0.5,2.2,1.4c-0.1,0.5-0.6,0.5-0.9,0.7c-0.3,0.1-0.4,0.3-0.5,0.8l-1,4.9c-0.1,0.6,0,0.7,0.1,1
					c0.2,0.2,0.7,0.5,0.6,1c-0.2,0.9-1.7,0.6-2.5,0.4c-1.2-0.2-2.4-0.5-2.2-1.4c0.1-0.5,0.6-0.5,0.9-0.7c0.3-0.1,0.4-0.3,0.5-0.8
					L437.8,337.8z"/>
			</g>
			<g transform="rotate(-4.4 1410 -1055)">
				<path id="R" class="st12" d="M428,343.2c0,0.3-0.1,0.6-0.3,0.8c-0.2,0.2-0.4,0.3-0.4,0.5c0.1,0.9,0.9,0.8,2.1,0.8
					c1.2-0.1,2-0.2,1.9-1.1c0-0.2-0.3-0.3-0.5-0.5c-0.2-0.2-0.4-0.4-0.4-0.7l-0.1-1.7c0-0.3,0-0.6,0.3-0.6c0.4,0,0.6,0.4,0.8,0.8
					c0.4,0.7,0.3,1.6,0.5,2.2c0.2,0.6,0.3,0.8,0.7,1c0.4,0.3,0.7,0.3,1.3,0.2c1.1-0.1,1.6-0.1,1.5-1c0-0.3-0.4-0.3-0.6-0.5
					c-0.1-0.1-0.2-0.1-0.3-0.4c-0.1-0.8-0.4-1.8-0.7-2.4c-0.1-0.2-0.3-0.4-0.5-0.5c-0.3-0.1-0.5-0.2-0.5-0.4c0-0.3,0.5-0.6,0.7-1
					c0.2-0.4,0.3-1.1,0.2-1.3c-0.1-0.7-0.1-1.3-0.6-1.8c-1-0.8-2.1-0.8-3.3-0.7c-0.6,0-1.2,0.1-1.8,0.2c-0.4,0.1-0.7,0.1-1.1,0.3
					c-0.2,0.1-0.2,0.3-0.2,0.6c0,0.2,0.1,0.2,0.2,0.3c0.2,0.2,0.5,0.5,0.6,0.7L428,343.2z M430.2,338.9l-0.2-2
					c0-0.4,0.2-0.5,0.3-0.6c0.6,0,0.8,0.9,0.8,1.4c0.1,0.7-0.1,1.4-0.7,1.5C430.3,339.2,430.2,339,430.2,338.9L430.2,338.9z"/>
			</g>
		</g>
		<g id="no">
			<path class="st4" d="M359.4,335.7c-4,0-7,3-7.3,7.2c-0.3,6.1,1.9,9.7,3.8,12.2c3.6,4.4,9.8,2.7,11.2-2.1
				c1.2-4.1,0.4-9.5,0.2-11.8C366.9,337.9,363.4,335.7,359.4,335.7L359.4,335.7z"/>
			<path class="st4" d="M366.9,342.4c-0.4,3.7-2.9,5.6-7,6.2c-4,0.7-7.8-2.6-7.8-6.2c0-3.7,3.2-7,7-7
				C363.2,335.3,367,338.1,366.9,342.4z"/>
			<path class="st6" d="M361.9,339c1.1-1.9,1-2.2,0.1-3.2 M362.6,339.9c1.1-1.3,1.3-2,1.1-3.3 M362.9,340.7c1-1.1,1.5-1.8,1.5-3.6
				 M363.1,341.5c1.3-1.1,1.9-2.2,2.1-3.7 M363.5,346.5c3.9-2.9,3.2-5.8,3.2-5.8 M363.4,344.8c2.8-2.3,3.2-4.9,3.2-4.9 M363.4,343.2
				c1.4-0.8,2.5-2.2,2.8-4.2 M363.3,342.4c1.7-1.2,2.4-3.7,2.4-3.7 M365.7,347.3c1.6-0.3,1.8-1.6,1.9-2.7 M365.1,348.7
				c1.5-0.7,2.4-0.6,2.7-2.1 M365,349.8c1.5-0.6,2.3-0.9,2.8-1.7 M364.6,350.6c0,0,2.8-0.5,3.2-1.7 M364.2,351.9
				c0,0,2.6-0.7,3.4-1.5 M364.1,353c0,0,1.8,0.2,3.1-0.9 M363.8,354c0,0,2.5-0.1,3.2-0.9 M363.3,354.8c0,0,2,0.2,3.1-0.7
				 M362.4,356.3c0,0,2.3,0,3-0.7"/>
		</g>
	</g>
	<g id="estrela">
		<path class="st13" d="M360.5,133.9l21.2,65.3h68.7l-55.5,40.3l21.2,65.3l-55.5-40.3L305,304.8l21.2-65.3l-55.5-40.3h68.7
			L360.5,133.9z"/>
		<path class="st7" d="M340.4,200.7h-64.9l52.5,38.2c-6.7,20.6-13.4,41.2-20.1,61.7c17.5-12.8,35-25.4,52.5-38.2
			c17.5,12.8,35,25.4,52.5,38.2c-6.7-20.6-13.4-41.2-20.1-61.7c17.5-12.8,35-25.4,52.5-38.2h-65L360.4,139L340.4,200.7z"/>
		<path class="st14" d="M270.7,198.8l-1.3,0v4.3l55.5,40.3l1.3-4.3L270.7,198.8z M450.3,198.8l1.3,0v4.3L396,243.4l-1.3-4.3
			L450.3,198.8z"/>
		<path class="st14" d="M416,304.8l0.7,1l2.8-3.8l-21.2-65.3l-3.6,2.8L416,304.8z M305,304.8l-0.8,1l4.5,1.5l55.5-40.3l-3.7-2.5
			L305,304.8z M360.5,133.9v-1.3l4.5,1.4l21.2,65.3l-4.5-0.1L360.5,133.9z"/>
	</g>
	<g id="ancora_chave">
		<path class="st15" d="M334.2,234.3c2,2-2.6,7.6-6.9,4L334.2,234.3z"/>
		<path class="st14" d="M327.1,238l0.4,0.7l0.1-0.6l0.4,0.3l0.4,0.2l0.4,0.2l0.4,0.2l0.4,0.1l0.4,0.1l0.4,0h0.3l0.3,0l0.3-0.1
			l0.3-0.1l0.3-0.1l0.3-0.1l0.3-0.2l0.3-0.2l0.3-0.2l0.2-0.2l0.2-0.2l0.2-0.2l0.2-0.2l0.2-0.3l0.1-0.3l0.1-0.3l0.1-0.2l0.1-0.2
			l0-0.2l0-0.2l0-0.2l0-0.2l-0.1-0.2l-0.1-0.2l-0.1-0.2l0.5-0.5l0.2,0.2l0.2,0.3l0.1,0.3l0.1,0.3l0,0.3l0,0.3l0,0.3l-0.1,0.3
			l-0.1,0.3l-0.1,0.3l-0.2,0.3l-0.2,0.3l-0.2,0.3l-0.2,0.3l-0.3,0.3l-0.3,0.3l-0.3,0.2l-0.3,0.2l-0.3,0.2l-0.4,0.2l-0.4,0.1
			l-0.4,0.1l-0.4,0.1l-0.4,0h-0.4l-0.4,0l-0.4-0.1l-0.4-0.1l-0.4-0.2l-0.4-0.2l-0.4-0.3l-0.4-0.3L327.1,238z M327.6,238l-0.5,0.6
			l0,0l0,0l0,0l0,0l0,0l0,0l0,0l0,0l0,0l0,0l0,0l0,0l0,0l0,0l0,0l0,0v0l0,0l0,0l0,0l0,0l0,0l0,0l0,0l0,0l0,0l0,0l0,0l0,0l0,0l0,0
			l0,0l0,0l0,0l0,0l0,0l0,0l0,0l0,0l0,0l0,0l0,0l0,0l0,0h0l0,0l0,0h0l0,0l0,0l0,0l0,0L327.6,238L327.6,238L327.6,238L327.6,238
			L327.6,238L327.6,238z M334.5,234l-0.1,0.6l-6.9,4l-0.4-0.7l6.9-4L334.5,234z M334.4,234.6l-0.4-0.7l0,0l0,0l0,0l0,0l0,0l0,0l0,0
			l0,0h0l0,0l0,0l0,0l0,0l0,0l0,0l0,0l0,0l0,0l0,0l0,0l0,0l0,0l0,0l0,0l0,0l0,0l0,0l0,0l0,0l0,0l0,0l0,0l0,0l0,0l0,0l0,0l0,0l0,0v0
			l0,0l0,0l0,0l0,0l0,0l0,0l0,0l0,0l0,0l0,0l0,0l0,0L334.4,234.6L334.4,234.6L334.4,234.6L334.4,234.6L334.4,234.6L334.4,234.6z"/>
		<path class="st14" d="M344.8,243.5l-9.9-7.1l-0.5-2.4l11.4,8l0.5,1.8L344.8,243.5z M337.3,233.5c4.1-1.5,4-6.9-0.3-8.7
			c3.5,3.8,2.5,6.2-1.8,7.6C335.9,232.8,336.6,233.2,337.3,233.5"/>
		<path class="st8" d="M326.6,233.8c-5.3-3.3,0.9-12,5.9-7.6c3.6-4.9,11.6,3.7,2.7,6.5l12.4,8.4l-0.6,1.6c-4.3-3-8.6-5.9-12.9-8.8
			C333.3,242.8,323.3,238.8,326.6,233.8z"/>
		<path class="st1" d="M329.9,232.4l-2.3-1.6l1.8-3.1l3.3,2.1l3.4-2.5l1.1,1.1l-0.6,1.9l-4.5,0.9l0.2,2.8l-1.1,1.8l-1.6,0.7
			l-1.3-1.2L329.9,232.4z"/>
		<path class="st8" d="M332.2,268.4l27.1-15.1l-2-1.4l-23.1,12.4l-4,3.5L332.2,268.4z M355.9,250.9l19.8-11.8l1.9,0.3l-20.3,12.5
			L355.9,250.9z M395.3,262.8l1,1.1l-5.3,7.7l-1.1-1.3L395.3,262.8z"/>
		<path class="st8" d="M389.3,270.8l6-8l-3.3-2.2l-2.7,3.6c-1.1,0.3-1.1,0.3-1.1-0.9l2.6-3.7l-3.5-2.3l-2.7,3.7
			c-0.8,0.5-1.6-0.3-1.2-0.9c0.9-1.2,1.7-2.5,2.7-3.7l-2.9-1.9l-5.8,7.9L389.3,270.8z M357.3,251.9l18.7-11.6
			c-0.5,1.2,0.6,1.7-1.4,3.6l-15.3,9.4L357.3,251.9z"/>
		<path class="st8" d="M349.9,243.2L391,272l-1.1,3l-45.1-31.9H349.9z"/>
		<path class="st8" d="M390,275.2c-0.6-0.2-0.5-1.2-0.2-2.1s0.8-1.2,1.5-0.9c0.6,0.3,0.7,0.9,0.3,1.8
			C391.3,274.9,390.7,275.5,390,275.2z"/>
		<path class="st16" d="M383.2,222.3c4,6.6,7,12.5,9.2,21.6c0.3,1.4,0.6,2.9,0.9,4.4c-0.9,0.9-1.8,1.5-3.9,1.3
			c-1.9-2.5-3.6-5.4-5.3-8.5l-2.5-6.1c-1.3-3.5-2.6-7.2-3.3-11.6L383.2,222.3z"/>
		<path class="st8" d="M380.1,242l3.4-0.3l3.4-2l-1.6-4.1l-3.9,2.8l-2.3,0.4l-2.5,1.9L380.1,242z M380.7,221.6
			c1.3-0.3,2.4-0.1,2.4,0.5c0,0.6-1.1,1.3-2.4,1.6c-1.3,0.3-2.4,0.1-2.4-0.5C378.3,222.6,379.4,221.9,380.7,221.6"/>
		<path class="st17" d="M377.2,240c0.9-0.9,2.3-1.6,4.1-1.8l4-2.7l-3.5-0.2l-6.4,4.2L377.2,240z"/>
		<path class="st14" d="M328.3,265.3c0.1-2.1,3.2-3.6,4.9-5.5c2.8,2.4,5.1,0.2,7.1-1.7c-2,1.3-3.8,3.2-7.3,0.2
			C329.7,260.4,324,266.5,328.3,265.3 M332.6,268.2l2.1-3.6l4-2.3l-2.6,4L332.6,268.2z M339.5,264.3l2.9-4.2l5.5-2.8l-3.2,4
			L339.5,264.3z M348.9,258.7l2.9-3.5l4.4-2.6l-2.6,3.4L348.9,258.7z M364.8,249.8l2.2-3.6l6-3.7l-2.5,3.9L364.8,249.8z"/>
		<path class="st8" d="M358.4,259.9c-3.3,7.8-11.3,11.7-14.4,9.9c-7,3.2-13.6,5.4-23.3,4.6l-0.5-1.1l21.3-4.5L358.4,259.9z"/>
		<path class="st8" d="M338.5,250.9c-4.9,1-5.5,2.6-6.5,6.9c-7.7,3.9-12.3,12.7-12,15.1c9.4,1.7,27.4-4.6,38.1-13.6
			c-5.6-0.3-16.5,1.9-15.6,7.3c-3.1,2.1-9.8,3-12.4,1.4c2.6-3.8,19.3-10.9,27.1-16.2l-1.4-1l-22.2,12.3c-1.7,1.1-6.2,3.3-6.7,2.1
			c0.1-2.9,4.5-5.9,6.1-6.9c6.1,5.5,10.2-5.3,12.1-7.8C343,250.7,340.7,250.4,338.5,250.9L338.5,250.9z"/>
		<path class="st14" d="M332.6,230.2l1.1-0.2c3.4-4,4.8,0.5-1.1,0.7v0.7c8.6,0.7,4.4-8.7,0-3.2V230.2z M330,232.2
			c-3.6-1.3,0.2-5.7,2.2-1.9l0.3-0.1v-2c-0.2,0.2-0.4,0.5-0.5,0.7c-3-6-8.8,3-2.7,3.5c-5.6,4.3,4.6,7.6,3-1.1l0.3,0v-0.7
			c-0.3,0-0.5,0-0.8,0c1.2,6.8-5.2,5.8-1.4,3.2C330.5,233.5,330.9,232.9,330,232.2"/>
		<path class="st7" d="M381.3,241.9l0.2-3.4c0,0-2.2,1.8-1.9,3.1 M347,270.1c5.4-2.9,9.7-8,10.1-8.8 M346,270.1
			c5.8-3.4,10.4-8.9,10.7-9.2"/>
		<path class="st14" d="M339.6,271.3l15.4-9.2l-9.5,7.9l-1.7-0.3L339.6,271.3z M319.7,273.2c0.7,0.3,5.3,0.4,8.1-0.1l-1.8,1.2
			l-5.4,0L319.7,273.2z"/>
		<path class="st14" d="M328.8,272.8c0.7,0.3,4-0.9,6.7-1.4c-1.3,0.8-2,0.6-3,1.9c-2.2,0.3-4.4,1.1-6.7,1
			C327.7,274.1,328,273.5,328.8,272.8"/>
		<path class="st14" d="M332.6,273.4c2.8-1.3,2.5-1.4,3.8-2.2c1.6-0.6,3.1-1.1,4.7-1.7c-0.7,0.7-1.7,1.8-2.4,2.5
			C336.6,272.6,334.7,272.8,332.6,273.4"/>
		<path class="st8" d="M390.6,259.8l1.2,1.2l-2.4,3.3c-0.6,0.6-1.9-0.4-1.2-1.1L390.6,259.8z"/>
		<path class="st18" d="M383.5,241.6l-2-3.2"/>
		<path class="st19" d="M381.7,223.6c0,0,7.7,16.2,8.4,20.6"/>
		<path class="st8" d="M386.8,257.6l-1-1l-2.5,3.6l1.2,0.9L386.8,257.6z"/>
		<path class="st20" d="M383.5,241.3l1.5-5.5l0.7,4.2L383.5,241.3z"/>
		<path class="st8" d="M388.4,231.1c0.7-1,1.6-1.7,2.3-1.7c4.1-0.8,4,2.9,3.2,3.9l-3.3,4L388.4,231.1z"/>
		<path class="st20" d="M389.2,233l3.4-2.2l-1.4,5.7l-0.7,0.5L389.2,233z"/>
		<path class="st8" d="M396.4,230.3c0-1.8-1.1-3.1-2.5-3.1c-1.1,0-2.1,1-2.6,2.5c-0.2,0.5-0.2,1-0.5,1.2c-0.4,0.3-1,0.6-1.4,0.4
			c-0.5-0.2-0.7-0.9-0.7-1.4c-0.2-3.1,2.4-5.6,5.3-5.6c2.9,0,5.3,2.6,5.3,5.9c0,3.2-2.4,5.9-5.3,5.9c-0.5,0-1.6-0.3-2.1-0.5
			c0.9-0.8,0.9-1.1,1.6-1.9C394.8,233.5,396.4,231.9,396.4,230.3z"/>
		<path class="st6" d="M382.6,223.1c3.2,5,9.1,19.8,9.9,25.6"/>
		<path class="st18" d="M331,268.5l0.6-1.9"/>
	</g>
	<g id="aguia">
		<path class="st21" d="M376.2,207.3c0.9,2.9,0.6,5.1,0,6.7c0.4,1.7,1.4,1.6,2,2.4c1-3.5,3.1-3.2,3.1-10.4c0,3.6-0.6,5.4-1.1,6.7
			c0.5,1.6,1.6,2.2,2.3,3c1-3.5,3.7-2,3.3-12c0.1,2.8,0,4.7-0.4,6.2c1,2.1,1.5,3,2.8,3.8c0.4-4.7,2.7-5.3,1.2-14.2
			c1.2,3.7,0.2,9,3.7,11.2c2.5-6.7,2.7-7.1-0.2-13.6c2.2,6.3,4.6,5.6,6.9,7.8c-0.5-1.6,2-4.2-3.8-11.3c3.1,4.5,4.5,6.4,7.7,7.4
			c1.1-4.8,0.2-6.7-2.8-10.6c4.8,5.7,11.8,7.6,14.7,5.1c-4.2-2.7-8.5-5.7-12.8-8.4c9.1,5.4,15.4,7.7,18.7,7
			c-0.1-0.8-11-7.3-15.3-9.4c6.4,4.2,22.8,10.4,25.2,6.7c-6.6-2.6-10.5-4.8-16-7.1c7.5,1.6,14.1,7.4,24.8,3.8c-4.7-3.9-4-3.9-11.7-6
			c7.7,2.1,15.4,3.3,24.1,1.1c-1-0.9-1.3-1.4-3.3-1.6c-23.5-0.6-18.7-3.7-26-4.2c3.9,0.4,5.4,1.9,8.5,2.5c1.2,0.2,2.5,0.6,5.6,0.9
			s5,0.6,7,0.6c1.4,0,3.1,0,4.5,0c2.4,0,4.7-0.5,6.8-1c2.2-0.5,4.4-1.1,5.9-2.4c0.8-0.7,1.1-1.2,0.9-1.4c-0.6-0.7-1.5-0.5-2.3-0.5
			c-4.2,0.3-8.4,1.1-12.7,1c-6.8,0.2-14.4-0.2-20.7-0.9c-5.7-0.6-11.5-0.9-17.3-1.1c0,0-14.1-0.1-16.4,0c-3.9,0.2-7.8,2-10.2,4.7
			c-1.4,1.5-2.4,2.6-2.4,5.7c-0.1,3.1,0,4.5-1.4,5.7c-0.7,0.6-1.6,0.7-2.4,0.8c-2,0.4-3.1-0.2-5-1c-7.4-3.2-9.1-6.2-25.1,1.8
			c0,0-5.1,0.9-5.8-3c-0.2-1.1,0.9-1.7,1-3.2c0-1.5-2.4-5.8-3.8-6.9c-5-3.9-11.9-4.2-15.8-4.7c-7.8-0.8-13.8,1.3-23,2l-11.8,0.6
			c-9.9,0.6-20.8-1.6-30-0.8c-0.1,1.2,5.5,3.4,15.6,5.4c9.9-0.5,14-0.6,21.3-2.4c-7.3,1.8-11.2,1.9-16,2c-7.6,0-5.4,1.2-9.4,2
			c2.9,3.3,12.8,2.6,33.7-1.1l-12.2,2c-5.2,1.3-11.6,2.3-12.7,4.5c6.6,1.9,18.5-1.3,27.6-4.2c-6,3-12,3.7-17.8,7.1
			c6.3,3.8,15.5-2,31.5-8c-7.1,3.4-19,9.2-21.1,10.5c3.1,3,12-0.2,23.4-6c-4.9,4-12.1,6.2-13.6,7.3c4,1.6,10.8,0.1,15-4
			c-3.6,3.5-5.3,4.5-5.4,10.4c1.6-0.5,3.8,0.1,4.9-1.5c1.2-3.7,2.7-5.3,4.8-7.9c-3.3,4-6.2,7.6-4.2,14.3c1.3-1,3.4-1,4-3
			c0.3-3.1,1.8-4.9,3.8-8.7c-3.2,6-5.5,7.6-2.5,15.1c1.2-1,2.5-1.6,3.6-3.2c0-2.9,1.5-6.4,2.4-8.2c-1.6,3.1-3.7,9.1-0.6,13.5
			c0.9-0.8,1.8-1.6,2.6-2.5c-0.2-1.9,0.4-5,1.5-8c-2.3,6.7-1,10.2,0.4,13.1c0.8-0.6,1.3-1.4,2.3-1.8c-0.5-3.3,0.7-7.8,1.6-9.5
			c-1.3,2.3-2.9,9.3-0.1,13c1-0.9,2.2-1.6,3.2-2.6c-0.4-2.5-1.5-4.3,0.4-9c-1.9,4.7-0.9,9,1,11.4c-0.9,2.4-0.2,2.3,0,3.5
			c0.4-0.6,1.3-1.4,2.2-2.1c-5.6,4.4-0.4,9.3-0.4,13.9c0.4-2.3,1.7-3.5,1.3-7.1l-0.1,4c0.7,2,1.9,1.6,2,5.9c0.9-1.7,3.5-4.9,1.4-9.4
			c2,3.7,0.8,5.1,1.8,7.6c0.4-1.4,1.3-4.6-0.3-8.4c1,2.5,1.3,4.6,1.6,7.6c0.8-1.4,1.6-1.6,2.2-4.3c0-4.9-2-5.9-2.8-9
			c0.9,3.5,3.1,4.2,2.8,10.4c1.3-2.6,1.9-2.8,2.5-7.3c0.2,3.3,2.2,3.5,3,5.5c0-6,0.6-4.8,0.9-8.5c0.1,2.2-1.1,4.2-0.7,6.7
			c-0.2,2,2.2,4.4,2.7,6.3c0.2-2.7,0.5-5,0.3-7.2c0.7,1-0.2,2.1-0.1,3.3c-0.2,2,2.3,3.9,2.8,5.8c0.2-2.7,0.2,0.2-0.2-3.2
			c0.4,4.5,1.9,4.3,2.4,6.2c-0.5-3.7,1.5-5.9,1.2-10.3c-0.2,1.8,1.1,5.5,1.6,7.3c0.2-2.7,2.7-6.6,0.6-11.5c-1.2-1.5-2.6-1.7-3.5-4.5
			c1.6,3.9,3,2.7,4.7,6.4c-0.6-3.1,0.2-5.8-1.4-8.4C375.9,214.7,377.6,211.8,376.2,207.3L376.2,207.3z"/>
		<path class="st7" d="M394.6,178.8c4.2,2.2,8,1.8,8,1.8l3.8-0.7c0,0-3.2-2.4-4.5-2.6"/>
		<path class="st21" d="M360.7,193.1c-0.8,0.8-0.4,1.4-2.2,2.5c0.1-0.6-0.2-0.9,0.2-1.9l1.4-5.7L360.7,193.1z M364.7,191.8
			c0.5,1.2,2.6,2.4,2.8,3.5c-1.9-0.5-3.9,0-4.7-3l0.6-5L364.7,191.8z M367,189.2c3.4,2.3,2.2,3.1,4.3,4.8c-1.4-0.6-3.1-0.2-4.2-1.9
			l-1.8-3.5L367,189.2z"/>
		<path class="st21" d="M370.4,185.4c-0.6,3.1,2.5,4.3,4.7,4.8c-3.7,2.8-6.9-0.8-8.1-2c1.3,2.1-0.1,3.3,1,5.8
			c-3.4-2-2.6-2.6-3.9-4.1c-0.6,1.4-0.2,2.9-1.8,4.2c-1.4-1-1.2-2.1-1.7-3.1c-0.8,1.6-0.5,3.1-4.1,4c0-2.2,0.3-3.2,0.8-4.1
			c-1.8,0.8-5.3,4.5-8.5,1.6c0.8-0.8,3.6-2.3,5.3-3.4c-0.8-0.2-1.9,0.3-2.9-0.1c2.3-2.2,3.3-1.5,4.3-3.4c0.2-0.3,1.1-1.9,0.6-3.8
			l0.5-1.2l1.2-0.4l-1.4-3.4l-0.2-0.1l-2-2.4l5.1-1.7l8.6,4.5l0.5,1.2l0.6,1.2l0.6,2.1l0.6,1.7l-1.4-0.1L370.4,185.4z"/>
		<path class="st7" d="M369.3,183.2c0,0,0.2,1.2,0.6,1.4s0.6,0.5,0.5,0.9s-0.3,1.8-0.3,1.8s-1.1-1-1.9-1.2c-0.8-0.2-1.9-2.9-2-3.7
			l-1.3,7.5c0,0-2.1-2.4-2.4-3.4l-1.5,3.6c0,0-2.5-1.7-2-3.9"/>
		<path class="st22" d="M355.8,171.8c-1.3,0-2.1,0-2.3,1.2c0.6,0.6,1.2,1.3,1.8,2c2.1,0.4,1.2,0.8,2.7-0.6
			C355.5,174.2,355.1,172.2,355.8,171.8"/>
		<path class="st22" d="M350.7,177.8c2,1,3.7,0.1,6.4,2.1c0.4-1.1-1.7-3.2-2.6-3.2c-0.5-0.2-1.3-0.1-2.4-1.5
			c-1.3-1.1-3.1,1.6-2.7,0.8c0.7-1.5,1.1-3.6,3.8-3.4c1.3,1.3,0.6,1.4,2.9,3c0.9,1.2,1.9,2.1,2.2,3.6c0.2,0.6-0.2,1.6-0.7,2
			c-1.1-0.8-1.2,0.6-1.7,0.4C354.3,179.7,351.8,180.1,350.7,177.8z"/>
		<path class="st23" d="M355.7,178.9c-1.1-2.4-2.4-1.4-4.1-1.9c1,1.1,3,1.1,2.9,1.6L355.7,178.9z"/>
		<path class="st21" d="M355.7,171.8c-0.7,0.7,0.1,2.1,1.6,2.7c2.9-0.3,4.7,0.5,9.6,3.4c1,0.6,1.5,0.4,2.2,0.2
			c1.1-0.3,1.1-1.3,1.7-2c-0.6,0-1.4,0.1-1.9-0.1c-1.3-0.6-2.3-1.8-3.6-2.3c-2.1-0.9-4.3-1.5-6.5-1.9
			C357.9,171.5,357.6,171.1,355.7,171.8"/>
		<path class="st12" d="M361.1,174.7c1.3,0.3,2.2,1.2,2.1,1.9c-0.2,0.7-1.4,1.1-2.7,0.8c-1.3-0.3-2.2-1.2-2.1-1.9
			C358.6,174.7,359.8,174.3,361.1,174.7"/>
		<path class="st14" d="M361.4,174.7c1,0.2,1.7,0.9,1.6,1.5c-0.1,0.6-1.1,0.8-2.1,0.6c-1-0.2-1.7-0.9-1.6-1.5
			C359.4,174.7,360.4,174.4,361.4,174.7"/>
		<path class="st7" d="M368.5,219.1c0.2,2.3-1.4,6.8-1.4,6.8s-1.1-2.8-1.3-3.1c-0.2-0.3-1.4-3-1.4-4.4 M373.5,201.4
			c-0.1,0.9,1.5,3.4,1.5,3.4l1.5-3c0.1-0.3,0.6-0.9,0.4-1.7c-0.1-0.8-0.7-1.7-0.7-1.7 M348.1,208.2c0,0-2-1.7-2.1-2.8
			c-0.1-1.1,0.1-3.8,0.1-3.8"/>
		<path class="st22" d="M350.8,242.8l-1.8-1.1l0.4,1.8l0,2.6c-0.1,1.1-1.2,1.7-3.4,0c0,1-1.9,1.2-3.4-1.5c-1.4,1.6-3.4-3.1-1.5-1
			c-2.1-1.2-0.5-3.3-0.1-3.7c0.8-1.3,3.2-1.4,4.8-2c2.9-1.8,1.7-3.2,2.6-4.7l1-2.4c0.8,1.1,1.7,1.9,1.4,3.5
			C347.1,241.5,351.4,240.7,350.8,242.8z"/>
		<path class="st7" d="M411.5,177.2c0,0,6,3,7.9,3.2c2,0.2,5.4-0.2,6.3-0.9"/>
		<path class="st7" d="M401.8,177.3c0,0,4.9,2.3,7.2,2.6c2.2,0.3,6.6,0.4,6.6,0.4s-1.9-2.6-4-3.1 M388.7,179.7c0,0,3.8-1.8,5.5-1.1
			c1.7,0.7,5.1,3,4.2,2.9c-1.1-0.1-2.9,0.5-5.8,1.4c-0.8,0.3-2.4-0.2-2.4-0.2 M415.6,184c0,0,5.3,0.6,6.6,0.6c0.9,0,4.1-0.5,4.5-0.6
			c1.2-0.1,3.5,0,3.2-0.1c-1.5-0.5-4.3-3-7.3-3.4c1.6,0.4,6.1,1.4,7.7,1.6c1.6,0.1,8.4-0.1,7.9-0.1s-2.9-1.6-2.9-1.6"/>
		<path class="st7" d="M407.8,179.7c5.5,1.3,9.5,5.9,9.5,5.9s-5.8-1-8.3-1.1c-2.5-0.1-10.8-3.4-10.8-3.4 M377.4,194.8
			c0,0,3,2.8,3.1,3.8c0.2,1,0,2.6-0.1,3.3c-0.9-0.8-1.9-1.9-2.7-2.3c-0.7-0.4-2.5-1.8-2.5-1.8"/>
		<path class="st7" d="M376.7,193.6c1.5,1.4,0.6,4.7,0.3,5.7c0,0-2-1.1-2.5-2"/>
		<path class="st6" d="M373.2,202.2c0,0-0.3,3.1,0.6,4.1c0.9,1.1,1.9,1.9,1.7,2.3c0.7-2.3,3-3.5,3.5-6.1c0.6,1.5,2.3,3.1,2.5,3.7
			c0.4-1.1,1.7-3.3,1.7-5.1c0-1.7-0.8-3.9-0.8-3.9"/>
		<path class="st7" d="M349,216.5c-0.5,2.2-0.6,4.7-0.5,5.7c0.1,1,1.2,3.5,1.7,4.2c0.5,0.8,1.4,2.8,1.4,3.4c0.5-1.7,1.1-4.4,1.7-5.4
			 M348.5,200.3c0,0-1.1,0.9-1.9,1c-0.8,0.1-1.2,0.1-1.2,0.1s-0.6-1.8,0.6-3.4 M382.6,197.3c0,0,1,4,1.5,4.5
			c0.5,0.5,1.3,1.5,1.7,2.6c0.3-1.2,1.6-4.9,1.5-6c0-1.1-0.8-3.3-2.7-4.9"/>
		<path class="st7" d="M385.9,193.4c0,0,0.2,2.4,1.6,3.9c1.5,1.5,2,2.3,2,2.3s1.1-1.8,1.2-3c0.1-1.2-1.6-3.7-1.6-3.7
			s1.5,2.9,2.2,3.6c0.7,0.6,1.6,1.1,1.6,1.1s1-2.2,0.7-3.6c-0.3-1.3-1.4-3.1-1.4-3.1l-2.2-2.5c0,0,3.7,4,4.9,4.4
			c1.1,0.4,2.6,1.2,2.6,1.2s0-3.7-1.1-4.9c-1.1-1.3-2.2-2.6-4.8-4l6.1,3.7c0,0,2.8,1.4,4.6,1.2c0,0-0.2-1.9-1.2-3.5 M368.4,178.3
			c1,1.5,0.7,2.5,1.1,3.8c0.2,0.4,0.6,1.3,0.6,1.3s-0.8,0-1.6-0.5c-0.7-0.4-1.6-1.8-1.6-1.8l0.2,2.1c0,0-0.9-0.7-1.2-1.2
			c-0.4-0.6-0.8-1.9-0.8-1.9s-0.8,1-0.9,1.5c-0.2,0.6-0.1,1.7-0.1,1.7s-1.1-0.9-1.5-1.5c-0.5-0.7-1-2.3-1-2.3 M305.8,178.1
			c-4.7-0.1-11.4,1.2-11.4,1.2s-4.1,0.7-5.7,0.7c-1.9,0-4-0.5-5.9-2.1c3.7-0.5,17.9-1.2,17.9-1.2 M316.4,176.1
			c-3.3,0-3.8-0.1-5.8,0.3c-2,0.4-4.9,1.7-4.9,1.7s2.3,1.5,5.5,1.6c3.1,0.1,5.9-0.7,7.8-1.4c1.8-0.6,6.7-1.6,8.7-1.1 M296,180.3
			l-1.6,1c0,0,3,1.6,6.4,1.5c3.3-0.1,10.3-0.7,12.3-1.5"/>
		<path class="st7" d="M318.6,178.5c0,0-3.6,1.2-5.3,2.4c1.1,1.1,4.7,0.7,7,0.5c1.9-0.2,5.5-1.4,5.5-1.4s4.2-1.4,5.2-1.3
			 M328.9,182.4l-2.5,1.6c0,0,1.9,0.3,3.5,0.9c1.6,0.6,5.2-1.5,5.2-1.5"/>
		<path class="st7" d="M337.3,187.1c0,0-2.9,1.1-4.3,0.9c-1.4-0.2-3.3-2.6-3.3-2.6l2.4-0.8"/>
		<path class="st7" d="M338.1,189.8c0,0-3,1.2-4.1,1.1c-1.2-0.1-2.7-2.1-2.7-2.1l3.6-1 M339.8,193.8c0,0-1.3,1.3-2.3,1.3
			c-0.9,0-3.1-1.5-3.1-1.5s1-0.5,1.4-0.8 M346.5,197.4c-1.6,1-2.8,1.9-5,2.1c0,0-0.5-2.2,1.5-4.6"/>
		<path class="st7" d="M346,201.4c0,0-0.3,3.1-0.8,3.8c-0.5,0.7-1,0.7-2,2.2c-0.5-1-1.5-2.3-1.4-4.1c0.1-1.8,1.2-3,1.2-4"/>
		<path class="st7" d="M342.2,201.8c0,0-0.6,2-1.4,2.8c-0.8,0.9-1,0.6-1.6,1.5c-1-0.8-1.8-2.8-1.5-4.1c0.3-1.3,1.6-3.9,3-5.1"/>
		<path class="st7" d="M337,196.1c0,0-2.1,1-2.5,2c-0.4,0.9-0.4,1.5-0.4,2.2c0,0.6,0.4,1.9,0.4,1.9c2-0.5,3-1.4,4.2-2.9"/>
		<path class="st7" d="M334.2,199.1c0,0-1.9,0.4-3.1,0.6c-0.1-0.8-0.3-3,0.3-3.9c0.7-0.9,3.5-1.9,3.5-1.9"/>
		<path class="st7" d="M331.9,195.3c0,0-1.5,0.4-2.6,0.1c-1.1-0.3-1.6-0.2-1.6-0.2s0.8-2.1,1.4-2.4c1.1-0.4,3.2-1.2,3.2-1.2"/>
		<path class="st7" d="M333.5,188c-4.8,0.6-10.7,3.8-10.7,3.8s3.2,1,4.2,1c1.1,0,3.6-0.2,4.8-1"/>
		<path class="st7" d="M329.7,185.1l-9.1,3.9c0,0,2.9,1.5,5.2,1.4 M321.5,183c0,0-3.5,1.8-4,2c-0.9,0.6-3.9,3.1-3.9,3.1
			s5.1,1.2,7.6,0.6 M313.8,181.2c-3.7,0.4-8.5,3.7-9.1,4c0,0,3.7,1.1,7.1,0.7c3.4-0.5,5.6-1,6.7-1.6 M371.6,218.7
			c1.6,3.5,2.2,4.2,1.7,6.3c-0.3,1.3-0.5,2.9-1.3,4c-0.1-1.1-1.4-4.4-1.6-5c-0.2-0.6-1.6-4-1.7-5.2"/>
		<path class="st7" d="M367.5,224.6c-0.6,2.2,2.1,7.1,2.1,7.1s1.2-5.4,0.8-7.3"/>
		<path class="st22" d="M374.3,233.7c0.2,0.8,0.2,1.6,0.5,2.4c0.2,0.5,0.4,1.2,0.8,1.5c0.9,0.6,2.1,0.8,3.1,1.2
			c0.8,0.3,1.8,0.4,2.5,0.9c0.4,0.2,0.9,0.6,1.2,1.1c0.2,0.4,0.4,1.1,0.3,1.6c-0.1,0.5-0.5,1.5-0.9,1.7c-0.4,0.2-0.9,0.7-1.4,0.7
			c-0.4,1.9-2.2,3.8-4.2,2.3c-1.2,1-3.2,1-4.1-0.9c3.5-1.4,0.9-3.1,1.3-5.7l-3,2.3l-0.1-0.4c-0.2-1.7,1.4-1.5,2.1-2.2
			c0.8-1.2,0.3-1.6,0.2-2.3c-0.3-0.9-0.7-1.8-0.8-2.7c-0.1-1.1,0.3-1.7,0.8-2.6l0.4-2.6L374.3,233.7z"/>
		<path class="st7" d="M355.2,219.1c0.2,2.3-1.4,6.8-1.4,6.8s-1.1-2.8-1.3-3.1c-0.2-0.3-1.4-3-1.4-4.4 M357.3,224.1
			c-1.9,2.8-2.1,6-1.4,8.3c1.8-1.7,2.3-4.1,2.3-4.1"/>
		<path class="st6" d="M345.5,237.9c-4.7,3.2-2.6,5.6-2.6,5.6s0.8,1.5,3,0.7"/>
		<path class="st6" d="M346.8,241c0,0-1.7,4.1-0.5,5.4c1.2,1.3,2.5-0.5,2.5-0.5s1.3-1.1,0.1-4.2"/>
		<path class="st7" d="M342.4,243l-1.6,0.4 M375.5,240.8c3.9,5.1,0.4,7.6-2.5,5 M376.5,239.7c6.3,1.9,2.9,9.2,0.5,6.3 M419.2,177.3
			c2.5,0,5.1,2.1,6.5,2.4c1.6,0.3,2.2,0.9,5.8-0.1 M386,182.9c3.1-2.2,7.1,1.9,7.1,1.9c-2.1,0.9-4.4,0.6-7,0.1"/>
		<path class="st7" d="M384.2,188c0,0,3.7,1.3,5.3,0.7c1.6-0.6,2.2-0.5,2.2-0.5s-0.5-2-1.5-2.5c-1-0.5-4.1-0.9-4.1-0.9"/>
		<path class="st7" d="M384.3,188.1c0,0,2.2,0.9,3.3,1.7c1.1,0.8,1.5,3.2,1.5,3.2s-2,0.3-3.5,0.5c-1.5,0.2-4.6-1.3-4.6-1.3
			s2.6,0.8,3.1,2.2c0.5,1.4,0.9,3.1,0.6,3.8c-0.5-0.4-1.5-1-2.4-1c-0.9,0.1-1.7-0.1-2.4-0.5c-0.7-0.4-2.6-1.9-2.6-1.9 M393.5,182.7
			c0,0,5.9,3.4,7.1,3.6c1.3,0.2,3.9,0.9,5.1,1c1.2,0.1,2.9,0.7,2.9,0.7s-0.7-2.2-3.2-4.3 M298.7,178.7c0,0-1.8,0-4.1,1.4
			c2.6,0.8,8.4,1.4,12,1c3.5-0.3,9.2-1.6,9.2-1.6 M324.3,180.6c0,0-2.1,1.2-2.7,2.4c2.2-0.1,3.1,0.3,4.7,0c2.4-0.4,4-0.9,7-2.4
			 M338,192.1c0,0-1.6,0.8-3.1,0.6c-1.5-0.3-2.4-1.2-2.4-1.2l2.1-0.7 M343.1,194.7c0,0-1.4,1.9-2.6,2.2c-1.2,0.3-3.7-0.8-4.5-1.4
			c0.5-0.1,2.3-0.7,2.3-0.7"/>
		<path class="st12" d="M350.6,218.7c-2.5-0.5-5.8-2.9-4.7-7.4c1.2-5.3,3.7-8.6-0.4-13l5.1-4.6c4,2.4,6,3.1,9.9,0
			c3.8,3.1,5.8,2.4,9.9,0l5.1,4.6c-4.2,4.4-1.6,7.7-0.4,13c1,4.5-2.2,6.9-4.7,7.4c-2.5,0.5-8.2-1.3-9.9,3.7
			C358.8,217.4,353.1,219.2,350.6,218.7z"/>
		<path class="st12" d="M352,216.9c-2.1-0.4-4.8-2.5-3.9-6.2c1-4.4,3.6-8.5,0.1-12.2l2.9-2.6c3.4,2,5.5,1.9,9.4-0.2
			c3.9,2.1,6,2.3,9.4,0.2l2.9,2.6c-3.5,3.7-0.9,7.8,0.1,12.2c0.9,3.8-1.8,5.8-3.9,6.2c-2.1,0.4-7-0.6-8.5,2.5
			C359,216.3,354.2,217.4,352,216.9z"/>
		<path class="st14" d="M357.4,203.7H357v-3.1c-0.2,0.3-0.3,0.5-0.5,0.6v-0.8c0.1-0.1,0.2-0.2,0.4-0.4c0.1-0.2,0.2-0.4,0.3-0.7h0.3
			V203.7z M358,200.2v-0.8h1.4v0.6c-0.1,0.2-0.2,0.6-0.4,1c-0.1,0.4-0.2,0.9-0.3,1.4c-0.1,0.5-0.1,0.9-0.1,1.3h-0.4
			c0-0.6,0.1-1.2,0.2-1.8c0.1-0.6,0.3-1.2,0.5-1.7L358,200.2z M361.6,199.4c0.2,0,0.3,0,0.4,0.1c0.1,0.1,0.2,0.2,0.3,0.4
			c0.1,0.2,0.2,0.4,0.2,0.7c0,0.3,0.1,0.6,0.1,1c0,0.4,0,0.7-0.1,1c-0.1,0.3-0.1,0.5-0.2,0.7c-0.1,0.1-0.2,0.3-0.3,0.4
			c-0.1,0.1-0.2,0.1-0.4,0.1V203c0.1,0,0.1,0,0.2-0.1c0.1-0.1,0.1-0.1,0.2-0.2c0-0.1,0.1-0.2,0.1-0.4c0-0.2,0-0.4,0-0.7
			c0-0.3,0-0.5,0-0.8c0-0.2-0.1-0.3-0.1-0.4c0-0.1-0.1-0.2-0.2-0.2c0,0-0.1,0-0.1,0V199.4z M360.7,199.4h0.9v0.7c-0.1,0-0.2,0-0.3,0
			h-0.2v2.9h0.5v0.7l-0.9,0V199.4z M362.8,203.7v-4.3h1.6v0.7h-1.2v1h1.1v0.7h-1.1v1.2h1.2v0.7H362.8z M351.7,209.1v-4.3h0.4
			l0.9,2.9v-2.9h0.4v4.3H353l-0.9-2.8v2.8H351.7z M354.9,204.7c0.3,0,0.6,0.2,0.8,0.6c0.2,0.4,0.3,0.9,0.3,1.7
			c0,0.7-0.1,1.3-0.3,1.7c-0.2,0.4-0.4,0.5-0.7,0.5h0v-0.7h0c0.2,0,0.3-0.1,0.4-0.4c0.1-0.2,0.2-0.6,0.2-1.1c0-0.5-0.1-0.9-0.2-1.1
			c-0.1-0.2-0.3-0.4-0.4-0.4h0V204.7z M353.8,207c0-0.5,0-0.9,0.1-1.3c0.1-0.3,0.2-0.6,0.4-0.7c0.1-0.2,0.3-0.2,0.5-0.2v0.7
			c-0.2,0-0.3,0.1-0.4,0.4c-0.1,0.2-0.2,0.6-0.2,1.1c0,0.5,0.1,0.9,0.2,1.1c0.1,0.2,0.3,0.4,0.4,0.4v0.7c-0.3,0-0.6-0.2-0.7-0.5
			C353.9,208.3,353.8,207.7,353.8,207 M356.8,209.1l-0.8-4.3h0.5l0.6,3.2l0.5-3.2h0.5l-0.8,4.3H356.8z M358.3,209.1v-4.3h1.6v0.7
			h-1.2v1h1.1v0.7h-1.1v1.2h1.2v0.7L358.3,209.1z M360.3,209.1v-4.3h0.7l0.4,3l0.4-3h0.7v4.3H362v-3.4l-0.4,3.4h-0.4l-0.4-3.4v3.4
			H360.3z M363.7,204.8L363.7,204.8c0.2,0,0.4,0,0.5,0.1c0.1,0.1,0.2,0.2,0.2,0.4c0.1,0.2,0.1,0.4,0.1,0.6c0,0.2,0,0.4-0.1,0.6
			c-0.1,0.2-0.1,0.3-0.2,0.4c0.1,0.1,0.2,0.2,0.3,0.4c0.1,0.2,0.1,0.4,0.1,0.7c0,0.3,0,0.6-0.1,0.8c-0.1,0.2-0.2,0.4-0.3,0.4
			c-0.1,0-0.2,0-0.5,0.1v-0.7c0.2,0,0.3,0,0.3,0c0.1,0,0.1-0.1,0.1-0.2c0-0.1,0.1-0.2,0.1-0.3c0-0.1,0-0.3-0.1-0.4
			c0-0.1-0.1-0.1-0.1-0.2c-0.1,0-0.2,0-0.3,0v-0.7c0.1,0,0.2,0,0.2,0c0.1,0,0.1-0.1,0.2-0.2c0-0.1,0.1-0.2,0.1-0.3
			c0-0.1,0-0.2-0.1-0.3c0-0.1-0.1-0.1-0.1-0.2c0,0-0.1,0-0.2,0V204.8z M362.8,204.8h0.9v0.7l-0.2,0h-0.3v1h0.3l0.1,0v0.7l-0.1,0
			h-0.4v1.2h0.4v0.7l-0.1,0h-0.7L362.8,204.8z M365.9,204.8L365.9,204.8c0.3,0,0.4,0,0.5,0.1c0.1,0.1,0.2,0.2,0.2,0.4
			c0.1,0.2,0.1,0.4,0.1,0.7c0,0.3,0,0.6-0.1,0.8s-0.2,0.3-0.4,0.4c0.1,0.1,0.2,0.2,0.2,0.4c0.1,0.1,0.1,0.4,0.3,0.7l0.3,0.8h-0.5
			l-0.3-0.9c-0.1-0.2-0.1-0.4-0.2-0.6v-0.9c0.1,0,0.2,0,0.3,0c0.1,0,0.1-0.1,0.1-0.2c0-0.1,0.1-0.2,0.1-0.3c0-0.1,0-0.3-0.1-0.3
			c0-0.1-0.1-0.1-0.1-0.2c0,0-0.1,0-0.3,0V204.8z M365,209.1v-4.3h0.9v0.7l-0.1,0h-0.3v1.1h0.3l0.1,0v0.9h0c0-0.1-0.1-0.1-0.1-0.2
			c0,0-0.1,0-0.2,0h-0.1v1.8L365,209.1z M368.2,204.7L368.2,204.7c0.3,0,0.6,0.2,0.8,0.6c0.2,0.4,0.3,0.9,0.3,1.7
			c0,0.7-0.1,1.3-0.3,1.7c-0.2,0.4-0.4,0.5-0.7,0.5h0v-0.7h0c0.2,0,0.3-0.1,0.4-0.4c0.1-0.2,0.2-0.6,0.2-1.1c0-0.5-0.1-0.9-0.2-1.1
			c-0.1-0.2-0.3-0.4-0.4-0.4h0V204.7z M367.2,207c0-0.5,0-0.9,0.1-1.3c0.1-0.3,0.2-0.6,0.4-0.7c0.1-0.2,0.3-0.2,0.5-0.2l0,0.7
			c-0.2,0-0.3,0.1-0.4,0.4c-0.1,0.2-0.2,0.6-0.2,1.1c0,0.5,0.1,0.9,0.2,1.1s0.3,0.4,0.4,0.4v0.7c-0.3,0-0.6-0.2-0.7-0.5
			C367.3,208.3,367.2,207.7,367.2,207 M355.6,210.2c0.2,0,0.3,0,0.4,0.1c0.1,0.1,0.2,0.2,0.3,0.4c0.1,0.2,0.2,0.4,0.2,0.7
			c0,0.3,0.1,0.6,0.1,1c0,0.4,0,0.7-0.1,1c0,0.2-0.1,0.4-0.2,0.7c-0.1,0.2-0.2,0.3-0.3,0.4c-0.1,0.1-0.2,0.1-0.4,0.1v-0.7
			c0.1,0,0.1,0,0.2-0.1c0.1,0,0.1-0.1,0.2-0.2c0-0.1,0.1-0.2,0.1-0.4c0-0.2,0-0.4,0-0.7c0-0.3,0-0.5,0-0.8c0-0.2-0.1-0.3-0.1-0.4
			c0-0.1-0.1-0.2-0.2-0.2c0,0-0.1,0-0.1,0V210.2z M354.7,210.2h0.9v0.7c-0.1,0-0.2,0-0.3,0h-0.2v2.9h0.5v0.7h-0.9V210.2z
			 M356.9,214.6v-4.3h1.6v0.7h-1.2v1h1.1v0.7h-1.1v1.2h1.2v0.7H356.9z M360.8,214.6h-0.4v-3.1c-0.2,0.3-0.3,0.5-0.5,0.6v-0.8
			c0.1-0.1,0.2-0.2,0.4-0.4c0.1-0.2,0.2-0.4,0.3-0.7h0.3V214.6z M362.1,210.2c0.2,0,0.4,0.1,0.5,0.3c0.1,0.2,0.2,0.5,0.2,0.8
			c0,0.2,0,0.4-0.1,0.5c0,0.1-0.1,0.3-0.2,0.4c0.1,0.1,0.2,0.2,0.3,0.4c0.1,0.2,0.1,0.4,0.1,0.7c0,0.3,0,0.5-0.1,0.7
			c-0.1,0.2-0.1,0.4-0.3,0.5c-0.1,0.1-0.2,0.2-0.4,0.2V214h0c0.1,0,0.2-0.1,0.2-0.2c0.1-0.1,0.1-0.3,0.1-0.5c0-0.2,0-0.4-0.1-0.5
			c-0.1-0.1-0.1-0.2-0.2-0.2h0v-0.7c0.1,0,0.1,0,0.2-0.1c0-0.1,0.1-0.2,0.1-0.4c0-0.2,0-0.3-0.1-0.4c0-0.1-0.1-0.1-0.2-0.1h0V210.2z
			 M361.8,212.2c-0.1-0.1-0.2-0.2-0.2-0.4c-0.1-0.2-0.1-0.4-0.1-0.5c0-0.3,0.1-0.6,0.2-0.8c0.1-0.2,0.3-0.3,0.5-0.3v0.7
			c-0.1,0-0.1,0-0.2,0.1c0,0.1-0.1,0.2-0.1,0.4c0,0.2,0,0.3,0.1,0.4c0,0.1,0.1,0.1,0.2,0.1l0,0.7c-0.1,0-0.2,0.1-0.2,0.2
			c-0.1,0.1-0.1,0.3-0.1,0.5c0,0.2,0,0.4,0.1,0.5c0.1,0.1,0.1,0.2,0.2,0.2l0,0.7c-0.2,0-0.4-0.1-0.5-0.4c-0.1-0.2-0.2-0.6-0.2-1
			c0-0.3,0-0.5,0.1-0.7C361.6,212.4,361.6,212.3,361.8,212.2 M363.8,210.2c0.2,0,0.4,0.1,0.5,0.3c0.1,0.2,0.2,0.5,0.2,0.8
			c0,0.2,0,0.4-0.1,0.5c0,0.1-0.1,0.3-0.2,0.4c0.1,0.1,0.2,0.2,0.3,0.4c0.1,0.2,0.1,0.4,0.1,0.7c0,0.3,0,0.5-0.1,0.7
			c0,0.2-0.1,0.3-0.3,0.5c-0.1,0.1-0.2,0.2-0.4,0.2V214h0c0.1,0,0.2-0.1,0.2-0.2c0.1-0.1,0.1-0.3,0.1-0.5c0-0.2,0-0.4-0.1-0.5
			c-0.1-0.1-0.1-0.2-0.2-0.2h0v-0.7c0.1,0,0.1,0,0.2-0.1c0-0.1,0.1-0.2,0.1-0.4c0-0.2,0-0.3-0.1-0.4c0-0.1-0.1-0.1-0.2-0.1h0V210.2z
			 M363.4,212.2c-0.1-0.1-0.2-0.2-0.2-0.4c-0.1-0.2-0.1-0.4-0.1-0.5c0-0.3,0.1-0.6,0.2-0.8c0.1-0.2,0.3-0.3,0.5-0.3v0.7
			c-0.1,0-0.1,0-0.2,0.1c0,0.1-0.1,0.2-0.1,0.4c0,0.2,0,0.3,0.1,0.4c0,0.1,0.1,0.1,0.2,0.1l0,0.7c-0.1,0-0.2,0.1-0.2,0.2
			c-0.1,0.1-0.1,0.3-0.1,0.5c0,0.2,0,0.4,0.1,0.5c0.1,0.1,0.1,0.2,0.2,0.2l0,0.7c-0.2,0-0.4-0.1-0.5-0.4c-0.1-0.2-0.2-0.6-0.2-1
			c0-0.3,0-0.5,0.1-0.7C363.2,212.4,363.3,212.3,363.4,212.2 M365.4,213.9c0.1,0,0.2-0.1,0.2-0.2c0.1-0.2,0.1-0.5,0.1-1
			c0,0.1-0.1,0.2-0.2,0.3c0,0-0.1,0.1-0.1,0.1v-0.6h0c0.1,0,0.1-0.1,0.2-0.2c0.1-0.1,0.1-0.3,0.1-0.6c0-0.3,0-0.5-0.1-0.6
			c-0.1-0.1-0.1-0.2-0.2-0.2v-0.7c0.2,0,0.4,0.2,0.5,0.5c0.1,0.3,0.2,0.9,0.2,1.7c0,0.8-0.1,1.4-0.2,1.7c-0.1,0.3-0.3,0.5-0.5,0.5
			V213.9z M364.8,213.5l0.4-0.1c0,0.3,0.1,0.5,0.2,0.5h0v0.7h0c-0.2,0-0.3-0.1-0.4-0.3C364.9,214.2,364.8,213.9,364.8,213.5
			 M365.4,213.1L365.4,213.1c-0.2,0-0.4-0.1-0.5-0.4c-0.1-0.3-0.2-0.6-0.2-1c0-0.5,0.1-0.8,0.2-1.1c0.1-0.3,0.3-0.4,0.5-0.4v0.7h0
			c-0.1,0-0.1,0.1-0.2,0.2c0,0.1-0.1,0.3-0.1,0.6s0,0.5,0.1,0.6c0.1,0.1,0.1,0.2,0.2,0.2L365.4,213.1z"/>
	</g>
	<g id="barrete">
		<path class="st4" d="M361.7,125.9c-0.6-0.2-1.2-0.6-1.8-1c-0.7-0.5-1.3-1.3-2.1-1.4c-1.2-0.2-2.6,0-3.8,0.4
			c-0.7,0.2-1.3,0.8-1.7,1.5c-0.6,1-1,2.2-1.3,3.2c-0.6,1.8-0.9,3.7-1.6,5.4c-0.4,0.9-1,1.8-1.6,2.7c-0.6,0.8-1.7,1.5-2,2.5
			c-0.5,1.8,0.6,4,2,5.1c1.5,1.2,3.2,2.1,4.9,2.8l3.1,1l1.8-5.6l11.4,4l2.6,9.1l3.1,0.5c4.2,1.7,5.3-3.2,5.4-4.2
			c0.1-1-1.3-5.5-1.7-8.2c-0.3-2.1,0.1-4.4-0.3-6.5c-0.3-2-1.4-3.9-1.7-5.8c-0.3-2.4,0.7-5.2,0-7.4c-1.5-4.5-4.2-6.3-7.4-8.9
			c-4.1-3.7-11.6-4.1-12.9-3.8c-1.4,0.3-6,2.1-6.2,7.1c-0.2,5.1,4.4,5.4,6.3,5.1c1.9-0.4,4.2-2.8,8.8-2c-4.5-0.8-6.2,1.4-8.8,2
			c3.2-0.4,2.9,2.5,8,3C363,126.3,362.5,126.2,361.7,125.9L361.7,125.9z"/>
		<path class="st6" d="M368.3,142c0,0,3.4,1.4,4.4,2.1c1.1,0.7,5.9,3.5,6.7,4.4 M368.9,140.6c4,1.3,8.5,5.4,8.5,5.4l1.7,1.4
			 M370.4,139.8c0,0,6.9,3.5,8.6,6.4 M370.2,138.9c0,0,5.9,3.2,8.2,6.1 M371.4,138.1c0,0,5.7,3.8,7.3,6.5 M371.8,137.3
			c0,0,4.5,2.2,6.6,5.9 M372.8,136.4c1.1,0.4,3.7,2.4,5.5,5.5 M372.4,134.8c0,0,5.3,3,5.9,6 M368.8,131.5c0,0,5.5,3.6,6.6,4.7
			s2.5,2.1,2.9,3.1 M368.8,129.4c0,0,5.4,3.4,6.1,4.6c0.7,1.1,2.9,2.5,3.3,3.9 M368.8,128.2c0,0,3.1,1.7,4.4,2.9s3.6,2.5,4.5,5.2
			 M370.4,127.3c0,0,4.3,2,6.7,6.4 M371.4,126.5c0,0,4.6,3.6,5.3,5.6 M370.8,124l5.6,5.9 M370.3,122.4c0,0,5.5,4.5,6.2,7.1
			 M371.5,119c0,0,3.2,2.9,4.4,5.2c0.6,1.2,0.8,2,0.8,2 M371.1,120.7c3.4,2.4,5.4,7,5.4,7 M370.7,121.5c3.9,2.6,5.9,6.6,5.9,6.6"/>
		<path class="st20" d="M372,147.6c1.9,0.7,3.9,2,5.4,3.7c0.4,0.5,0.5,2.3,0.2,2.7c-0.4,0.5-1.3,0.5-2.9,0.2c-2-0.4-3.6-0.9-3.6-0.9
			l-2-6.8C369,146.5,370.4,147,372,147.6z M356.3,146.9c-2.1-0.8-4.7-1.6-6.3-2.9c-0.7-0.5-1.4-1.4-1.7-2.2
			c-0.1-0.4,0.1-1.1,0.5-1.3c0.7-0.4,1.6-0.4,2.4-0.3c2.2,0.7,4.3,1.6,6.5,2.4L356.3,146.9z"/>
	</g>
</g>
</svg>
