<?xml version="1.0" encoding="utf-8"?>
<!-- Generator: Adobe Illustrator 27.6.1, SVG Export Plug-In . SVG Version: 6.00 Build 0)  -->
<svg version="1.1" id="Camada_1" xmlns="http://www.w3.org/2000/svg" xmlns:xlink="http://www.w3.org/1999/xlink" x="0px" y="0px"
	 viewBox="0 0 720 504" style="enable-background:new 0 0 720 504;" xml:space="preserve">
<style type="text/css">
	.st0{fill:#00923F;}
	.st1{fill:#F8C300;}
	.st2{fill:#28166F;}
	.st3{fill:#FFFFFF;}
</style>
<path class="st0" d="M0,0h720v126H0V0z M0,252h720v126H0V252z"/>
<path class="st1" d="M0,126h720v126H0V126z M0,378h720v126H0V378z"/>
<path class="st2" d="M0,0h252v252H0V0z"/>
<path class="st3" d="M159.9,172.6L126,148l-33.9,24.6l12.9-39.8l-33.9-24.6h41.8L126,68.4l12.9,39.8h41.8l-33.9,24.6L159.9,172.6z
	 M60.1,232.1l-16.9-12.3l-16.9,12.3l6.5-19.9l-16.9-12.3h20.9l6.5-19.9l6.5,19.9h20.9l-16.9,12.3L60.1,232.1L60.1,232.1z
	 M225.7,66.5l-16.9-12.3l-16.9,12.3l6.5-19.9l-16.9-12.3h20.9l6.5-19.9l6.5,19.9h20.9l-16.9,12.3L225.7,66.5z M60.1,66.5L43.2,54.2
	L26.3,66.5l6.5-19.9L15.8,34.3h20.9l6.5-19.9l6.5,19.9h20.9L53.7,46.6L60.1,66.5z M225.7,232.1l-16.9-12.3l-16.9,12.3l6.5-19.9
	l-16.9-12.3h20.9l6.5-19.9l6.5,19.9h20.9l-16.9,12.3L225.7,232.1L225.7,232.1z"/>
</svg>
