<?xml version="1.0" encoding="utf-8"?>
<!-- Generator: Adobe Illustrator 27.6.1, SVG Export Plug-In . SVG Version: 6.00 Build 0)  -->
<svg version="1.1" id="Camada_1" xmlns="http://www.w3.org/2000/svg" xmlns:xlink="http://www.w3.org/1999/xlink" x="0px" y="0px"
	 viewBox="0 0 720 504" style="enable-background:new 0 0 720 504;" xml:space="preserve">
<style type="text/css">
	.st0{fill:#FFFFFF;}
	.st1{fill:none;stroke:#212125;stroke-width:780;stroke-miterlimit:1.6;stroke-dasharray:40,40;}
	.st2{fill:#C40008;}
	.st3{fill:#FFEC00;}
	.st4{fill:#294292;}
</style>
<rect class="st0" width="720" height="504"/>
<line class="st1" x1="378" y1="0" x2="378" y2="504"/>
<path class="st0" d="M0,0l296.6,197.7H0V0z"/>
<rect class="st2" width="290.8" height="193.8"/>
<g>
	<g id="star" transform="scale(75)">
		<g id="cone">
			<polygon id="triangle" class="st3" points="0.5,0.1 0.4,0.5 0.6,0.6 			"/>
			<g transform="scale(-1,1)">
				<polygon id="triangle_00000146492402958885055360000001313178110426302873_" class="st3" points="0.5,0.1 0.6,0.5 0.5,0.6 				
					"/>
			</g>
		</g>
		<g id="cone2">
			<g transform="rotate(72)">
				<g id="cone_00000017506881004728412280000006984132164888180399_">
					<polygon id="triangle_00000142167337519597321820000012833423399072280247_" class="st3" points="0.9,0.4 0.5,0.4 0.5,0.6 
											"/>
					<g transform="scale(-1,1)">
						<polygon id="triangle_00000063599093658756540290000011842543442574955444_" class="st3" points="0.9,0.4 0.6,0.6 0.5,0.5 
													"/>
					</g>
				</g>
			</g>
			<g transform="rotate(216)">
				<g id="cone_00000170253277997877995660000017834294790297530754_">
					<polygon id="triangle_00000146463255609533479790000000890447813858295989_" class="st3" points="0.3,0.8 0.6,0.6 0.5,0.4 
											"/>
					<g transform="scale(-1,1)">
						<polygon id="triangle_00000060723107679680320850000016502800552601581191_" class="st3" points="0.3,0.8 0.4,0.5 0.6,0.5 
													"/>
					</g>
				</g>
			</g>
		</g>
		<g transform="rotate(72)">
			<g id="cone2_00000073716892179448536820000015617813262174067352_">
				<g transform="rotate(72)">
					<g id="cone_00000174580670345421664660000006382900420658746524_">
						<polygon id="triangle_00000093870047037050712490000016214827467972799679_" class="st3" points="0.7,0.8 0.6,0.5 0.4,0.5 
													"/>
						<g transform="scale(-1,1)">
							<polygon id="triangle_00000005246430806899744810000005652225176609167536_" class="st3" points="0.7,0.8 0.4,0.6 0.5,0.4 
															"/>
						</g>
					</g>
				</g>
				<g transform="rotate(216)">
					<g id="cone_00000026139529265830641780000008480128722971590316_">
						<polygon id="triangle_00000072966840858021152150000007304290239076068531_" class="st3" points="0.1,0.4 0.5,0.6 0.6,0.5 
													"/>
						<g transform="scale(-1,1)">
							<polygon id="triangle_00000180332051840153824660000014683369592687294634_" class="st3" points="0.1,0.4 0.5,0.4 0.5,0.6 
															"/>
						</g>
					</g>
				</g>
			</g>
		</g>
	</g>
</g>
<g>
	<g id="star_00000093174215675734526170000011661489860556318099_" transform="scale(75)">
		<g id="cone_00000123442052865783742650000014371105263850816427_">
			<polygon id="triangle_00000149345845482272030710000004694664690392576688_" class="st3" points="0.5,1.7 0.4,2 0.6,2.1 			"/>
			<g transform="scale(-1,1)">
				<polygon id="triangle_00000049187695593997953880000010519390412311670422_" class="st3" points="0.5,1.7 0.6,2 0.5,2.1 				"/>
			</g>
		</g>
		<g id="cone2_00000167380071040797690880000006751912172422653360_">
			<g transform="rotate(72)">
				<g id="cone_00000105393282572079403120000008808955984315586997_">
					<polygon id="triangle_00000137846301016487204480000015546749868413075616_" class="st3" points="0.9,1.9 0.5,1.9 0.5,2.1 
											"/>
					<g transform="scale(-1,1)">
						<polygon id="triangle_00000096046180747709324430000004302002252673179817_" class="st3" points="0.9,1.9 0.6,2.2 0.5,2 
													"/>
					</g>
				</g>
			</g>
			<g transform="rotate(216)">
				<g id="cone_00000147916448978691938560000000657438230501462680_">
					<polygon id="triangle_00000014614134944199658510000017184048575867947426_" class="st3" points="0.3,2.4 0.6,2.2 0.5,2 					
						"/>
					<g transform="scale(-1,1)">
						<polygon id="triangle_00000178199674260630837860000011162298059862868874_" class="st3" points="0.3,2.4 0.4,2 0.6,2.1 
													"/>
					</g>
				</g>
			</g>
		</g>
		<g transform="rotate(72)">
			<g id="cone2_00000168113856438732551400000002547886359404984466_">
				<g transform="rotate(72)">
					<g id="cone_00000169560186179302741390000009735127078200785312_">
						<polygon id="triangle_00000036218896305065372900000007425271487776843428_" class="st3" points="0.7,2.4 0.6,2 0.4,2.1 
													"/>
						<g transform="scale(-1,1)">
							<polygon id="triangle_00000038402611779495361080000002997145979065292716_" class="st3" points="0.7,2.4 0.4,2.2 0.5,2 
															"/>
						</g>
					</g>
				</g>
				<g transform="rotate(216)">
					<g id="cone_00000062904044255000367960000006609132763227122574_">
						<polygon id="triangle_00000146476274543372463750000000894831999039081140_" class="st3" points="0.1,1.9 0.5,2.2 0.6,2 
													"/>
						<g transform="scale(-1,1)">
							<polygon id="triangle_00000010282536121267806970000015837532192273468347_" class="st3" points="0.1,1.9 0.5,1.9 0.5,2.1 
															"/>
						</g>
					</g>
				</g>
			</g>
		</g>
	</g>
</g>
<g>
	<g id="star_00000111910220050548744660000000866733741932251314_" transform="scale(75)">
		<g id="cone_00000142855922920625190400000007941443502325229751_">
			<polygon id="triangle_00000055701598497613269080000011945856029006843549_" class="st3" points="3.4,0.1 3.2,0.5 3.4,0.6 			"/>
			<g transform="scale(-1,1)">
				<polygon id="triangle_00000028313238360416039130000018022816983420055740_" class="st3" points="3.4,0.1 3.5,0.5 3.3,0.6 				
					"/>
			</g>
		</g>
		<g id="cone2_00000114063821587725039290000008519555388105036943_">
			<g transform="rotate(72)">
				<g id="cone_00000049190987069322652080000009309777109005754781_">
					<polygon id="triangle_00000044896123006365919210000016087637729506070714_" class="st3" points="3.7,0.4 3.3,0.4 3.3,0.6 
											"/>
					<g transform="scale(-1,1)">
						<polygon id="triangle_00000016773765095819906060000002920705498566089128_" class="st3" points="3.7,0.4 3.4,0.6 3.3,0.5 
													"/>
					</g>
				</g>
			</g>
			<g transform="rotate(216)">
				<g id="cone_00000050650804972595442320000005464452273256628411_">
					<polygon id="triangle_00000082370242029124487340000009203832640505771145_" class="st3" points="3.1,0.8 3.4,0.6 3.3,0.4 
											"/>
					<g transform="scale(-1,1)">
						<polygon id="triangle_00000088822274040518949600000015710074280542941333_" class="st3" points="3.1,0.8 3.3,0.5 3.4,0.5 
													"/>
					</g>
				</g>
			</g>
		</g>
		<g transform="rotate(72)">
			<g id="cone2_00000145060359211847805020000008464496882368122772_">
				<g transform="rotate(72)">
					<g id="cone_00000178913533745257455060000006365054438052998806_">
						<polygon id="triangle_00000083795511336426167810000006958975665014037902_" class="st3" points="3.6,0.8 3.5,0.5 3.3,0.5 
													"/>
						<g transform="scale(-1,1)">
							<polygon id="triangle_00000038409621407571951970000010868470921573054872_" class="st3" points="3.6,0.8 3.3,0.6 3.4,0.4 
															"/>
						</g>
					</g>
				</g>
				<g transform="rotate(216)">
					<g id="cone_00000039830796379562331070000002800770835780367788_">
						<polygon id="triangle_00000135668400025715798810000013520731353824724894_" class="st3" points="3,0.4 3.3,0.6 3.4,0.5 
													"/>
						<g transform="scale(-1,1)">
							<polygon id="triangle_00000000912811235094430250000017426672116840983474_" class="st3" points="3,0.4 3.4,0.4 3.4,0.6 
															"/>
						</g>
					</g>
				</g>
			</g>
		</g>
	</g>
</g>
<g>
	<g id="star_00000112620504417573232580000016500076594617693090_" transform="scale(75)">
		<g id="cone_00000054979792528296710460000011345713389531999880_">
			<polygon id="triangle_00000153690545658940725330000017761917439397151118_" class="st3" points="3.4,1.7 3.2,2 3.4,2.1 			"/>
			<g transform="scale(-1,1)">
				<polygon id="triangle_00000082332762077781694990000012117772507342674619_" class="st3" points="3.4,1.7 3.5,2 3.3,2.1 				"/>
			</g>
		</g>
		<g id="cone2_00000106827493040284599050000007208742791581040278_">
			<g transform="rotate(72)">
				<g id="cone_00000080891194338068318380000010362452594590788776_">
					<polygon id="triangle_00000182489725084782729800000017681809979361094334_" class="st3" points="3.7,1.9 3.3,1.9 3.3,2.1 
											"/>
					<g transform="scale(-1,1)">
						<polygon id="triangle_00000167392820943282289780000002038521927919519157_" class="st3" points="3.7,1.9 3.4,2.2 3.3,2 
													"/>
					</g>
				</g>
			</g>
			<g transform="rotate(216)">
				<g id="cone_00000110456263889716571380000014487954238327461282_">
					<polygon id="triangle_00000056400337620417128510000010975997556372281239_" class="st3" points="3.1,2.4 3.4,2.2 3.3,2 					
						"/>
					<g transform="scale(-1,1)">
						<polygon id="triangle_00000108285511282989395530000011915709500372764822_" class="st3" points="3.1,2.4 3.3,2 3.4,2.1 
													"/>
					</g>
				</g>
			</g>
		</g>
		<g transform="rotate(72)">
			<g id="cone2_00000119097258209776853050000003827135851553284020_">
				<g transform="rotate(72)">
					<g id="cone_00000090270850195935177160000009499625907103907224_">
						<polygon id="triangle_00000062885147422269914990000002342483394237839248_" class="st3" points="3.6,2.4 3.5,2 3.3,2.1 
													"/>
						<g transform="scale(-1,1)">
							<polygon id="triangle_00000176730374520404318680000002781639234629787058_" class="st3" points="3.6,2.4 3.3,2.2 3.4,2 
															"/>
						</g>
					</g>
				</g>
				<g transform="rotate(216)">
					<g id="cone_00000166668475411566612040000016402505463429180592_">
						<polygon id="triangle_00000065784139349386288520000011106530709277044638_" class="st3" points="3,1.9 3.3,2.2 3.4,2 						
							"/>
						<g transform="scale(-1,1)">
							<polygon id="triangle_00000125595212501460392770000014921568150284924061_" class="st3" points="3,1.9 3.4,1.9 3.4,2.1 
															"/>
						</g>
					</g>
				</g>
			</g>
		</g>
	</g>
</g>
<circle class="st0" cx="145.4" cy="96.9" r="77.5"/>
<path id="map" class="st4" d="M84.9,84.5c0.2,0.4,0.5,0.5,0.8,0.8c0.2,0.3,0.4,0.6,0.5,1c0.2,0.4,0.5,0.6,0.5,1
	c0,0.3-0.4,0.4-0.5,0.7c0,0.2,0,0.4,0.1,0.6l0.3,0.3c0.4,0,0.4-0.4,0.7-0.5h0.4c0.2,0.1,0.2,0.4,0.4,0.4c0.1,0.1,0.3-0.3,0.4-0.2
	c0.2,0,0.4,0.1,0.4,0.3c0.3,0.4,0.2,0.8,0.4,1.2c0.2,0.3,0.5,0.4,0.9,0.4c0.3,0,0.6-0.1,0.8-0.3c0.3-0.3,0.3-0.6,0.4-0.8
	c0.2-0.2,0.4-0.1,0.6-0.2c0.2-0.1,0.4-0.3,0.6-0.4c0.1-0.1,0.4-0.4,0.4-0.3c0.3,0.4,0.2,0.8,0.2,1.2c0.1,1.1-0.3,2.2,0.1,3.2
	c0.1,0.4,0.6,0.3,1,0.2c0.4-0.1,0.6-0.4,1-0.4c0.4-0.1,0.9,0,1.3,0c0.5,0.1,1.2,0.1,1.7,0.1c0.6,0.1,1.3,0.2,1.9,0
	c0.3,0,0.5-0.4,0.6-0.6c0.2-0.2,0-0.5,0.2-0.7c0.1-0.1,0.4-0.1,0.6-0.1c0.2,0,0.3,0.3,0.4,0.2c0.4-0.1,0.6-0.4,0.8-0.5
	c0.3-0.3,0.4-0.7,0.6-0.9c0.2-0.1,0.4,0.3,0.4,0.2c0.3-0.2,0.4-0.5,0.5-0.8c0.3-0.3,0.6-0.5,0.9-0.6c0.4-0.2,1-0.3,1.4-0.4
	c0.3,0,0.4-0.1,0.7-0.1c0.3,0,0.5,0.1,0.8,0.1c0.2,0,0.4-0.2,0.5-0.2c0.1-0.1,0.3-0.3,0.4-0.1c0.3,0.3,0.4,0.8,0.4,1.2
	s-0.4,0.5-0.4,0.8c-0.1,0.4,0,0.7,0.1,1c0.1,0.3,0.4,0.4,0.4,0.6c0.1,0.3,0.1,0.5,0,0.8c-0.1,0.2-0.4,0.1-0.4,0.3
	c0,0.4,0.2,0.6,0.3,0.9c0.2,0.4,0.2,0.7,0.4,1.1c0.3,0.4,0.6,0.9,1.1,1.2c0.4,0.3,0.8,0.3,1.2,0.4c0.2,0.2,0.1,0.6,0.4,0.8
	c0.3,0.2,0.6,0.2,0.9,0.1c0.4,0,0.6-0.1,0.9-0.2c0.1,0,0.2-0.2,0.4-0.2c0.4,0.1,0.8,0.4,1.2,0.5c0.3,0.2,0.4,0.5,0.6,0.7
	c0.3,0.1,0.5-0.1,0.7,0.1c0.4,0.1,0.5,0.5,0.9,0.6c0.3,0.2,0.6,0.3,0.9,0.3c0.2,0.1,0.4-0.1,0.6,0.1c0.4,0.3,0.5,0.8,1,1.1
	c0.3,0.2,0.7,0.3,1.2,0.2c0.2-0.1,0.2-0.5,0.4-0.5c0.4-0.1,0.6,0.2,1,0.3c0.3,0.2,0.5,0.4,0.8,0.5c0.4,0.2,0.9,0.3,1.1,0.6
	c0.2,0.3-0.2,0.7-0.1,1.1c0.1,0.4,0.4,0.8,0.6,1.3c0.1,0.3,0,0.7,0,1.1c0,0.1,0.1,0.2,0,0.3c-0.3,0.1-0.5-0.1-0.7,0
	c-0.1,0.1,0,0.4,0.1,0.4c0.1,0.2,0.4,0.3,0.4,0.5c0.2,0.4,0.3,0.8,0.3,1.3c0.1,0.4,0,0.7,0.1,1c0.1,0.4,0.4,0.7,0.6,0.8
	c0.7,0.2,1.5,0,2.3,0c0.7,0.1,1.4,0.1,2.2,0.1c0.2,0.1,0.6-0.2,0.6,0.1c0.1,0.3-0.4,0.4-0.5,0.8c0,0.3,0.3,0.4,0.4,0.6
	c0.2,0.4,0.2,0.8,0.4,1.1c0.2,0.3,0.4,0.4,0.7,0.5c0.3,0.3,0.4,0.5,0.7,0.8s0.5,0.6,0.7,1s0.2,0.7,0.2,1.2c0,0.4-0.1,0.7-0.3,1.1
	c-0.1,0.4-0.4,0.9-0.5,1.3c-0.1,0.5-0.3,1-0.4,1.4c-0.1,0.3-0.4,0.6-0.3,0.9c0.1,0.3,0.4,0.3,0.6,0.4c0.1,0.2,0.2,0.4,0.1,0.4
	c-0.1,0.2-0.4,0-0.5,0.2c-0.2,0.2-0.3,0.5-0.2,0.8c0,0.4,0.3,0.6,0.4,1c0.1,0.2,0.2,0.4,0.3,0.6c0.1,0.2,0.3,0.4,0.3,0.6
	c0.1,0.4,0.1,0.7,0,1.2c0,0.2-0.1,0.4-0.2,0.6c0,0.2,0.1,0.4,0.1,0.6c0,0.3-0.2,0.5-0.2,0.8c0,0.3,0,0.6,0.3,0.8
	c0.3,0.1,0.5-0.3,0.8-0.3c0.3,0,0.6,0.1,1,0.1c0.3,0.1,0.6,0,0.9,0.1c0.3,0,0.4,0.2,0.6,0.2c0.2,0.1,0.4,0.2,0.6,0.2
	c0.2-0.1,0.2-0.6,0.4-0.5c0.3,0,0.3,0.4,0.5,0.6c0.4,0.2,0.9,0,1.3,0.2c0.3,0.3,0.4,0.8,0.5,1.2c0.3,0.7,0.3,1.3,0.4,2.1
	c0.1,0.4,0.1,0.9,0.4,1.2c0.2,0.2,0.6,0.2,1,0.3c0.4,0,0.9-0.2,1.3-0.1c0.4,0.1,0.9,0.3,1,0.6c0.2,0.4-0.4,0.9-0.4,1.3
	c0,0.4,0.3,0.6,0.2,1c0,0.3-0.3,0.5-0.3,0.9c-0.1,0.2,0.3,0.3,0.2,0.4c-0.1,0.2-0.4,0.1-0.4,0.3s-0.1,0.4,0,0.7c0,0.3,0,0.5,0.3,0.6
	c0.4,0.1,0.9-0.4,1.3-0.2c0.4,0.3,0.6,0.9,0.8,1.3c0.2,0.3,0.3,0.6,0.3,0.9c-0.1,0.2-0.4,0.3-0.4,0.4c-0.1,0.3,0.1,0.5,0.1,0.9
	c0,0.3-0.1,0.5-0.2,0.8c-0.2,0.4-0.3,0.6-0.5,0.9c-0.2,0.2-0.4,0.3-0.6,0.4c-0.3,0.1-0.6,0-1,0.1c-0.4,0.2-0.6,0.5-0.9,0.7
	s-0.4,0.4-0.7,0.6c-0.4,0.3-0.8,0.4-1.3,0.7c-0.2,0.2-0.3,0.4-0.5,0.7c-0.2,0.3-0.4,0.5-0.6,0.8c-0.2,0.2-0.3,0.4-0.4,0.5
	c-0.3,0.3-0.5,0.4-0.8,0.5c-0.2,0.3-0.3,0.6-0.4,0.8c-0.2,0.3-0.4,0.4-0.6,0.6c-0.2,0.3-0.2,0.7-0.4,1c-0.3,0.3-0.7,0.2-0.9,0.4
	c-0.3,0.2-0.3,0.5-0.4,0.8c-0.1,0.2-0.3,0.4-0.1,0.5c0.2,0.2,0.4-0.2,0.6-0.1c0.2,0,0.3,0.3,0.4,0.3c0.2,0,0.3-0.2,0.4-0.3
	c0.1-0.1,0.1-0.3,0.2-0.4c0.2-0.1,0.4-0.2,0.6-0.2s0.2,0.3,0.4,0.4c0.1,0.1,0.3,0.1,0.4,0.2c0.2,0.2,0.1,0.4,0.3,0.6
	s0.5,0.2,0.6,0.3c0.2,0.2,0.2,0.4,0.3,0.6c0.1,0.3,0.2,0.5,0.3,0.6c0.1,0.1,0.3,0.1,0.4,0c0.1,0,0.3-0.1,0.4-0.2
	c0.1-0.1,0.2-0.1,0.2-0.2c0.1-0.1,0-0.3,0-0.4c0.1-0.1,0.2-0.1,0.3-0.1c0.2,0,0.5,0,0.5,0.2c0.1,0.2-0.3,0.4-0.4,0.5
	c0,0.2,0.1,0.4,0.2,0.4c0.3,0.4,0.6,0.7,1.1,0.9c0.3,0.2,0.7,0.2,1,0.4c0.3,0.2,0.5,0.4,0.7,0.6c0.2,0.3,0.3,0.5,0.5,0.7
	c0.3,0.3,0.7,0.3,1,0.6c0.4,0.3,0.4,0.8,0.6,1.2c0.7,1,1.7,0.4,1,1.6c0,0.1-0.2,0.2-0.3,0.3c-0.2,0.1-0.3,0.1-0.4,0.2
	c-0.1,0.2-0.2,0.3-0.2,0.4s-0.1,0.4,0,0.7c0,0.2,0.2,0.4,0.3,0.4c0.2,0.1,0.3,0.1,0.4,0c0.1,0,0.2-0.2,0.3-0.3
	c0.3-0.1,0.5-0.2,0.7-0.3c0.3-0.2,0.6-0.4,0.8-0.6c0.2-0.2,0.2-0.4,0.2-0.7c0.1-0.2,0.1-0.4,0.1-0.5c0.1-0.2,0.2-0.4,0.2-0.5
	c0.2-0.4,0.4-0.7,0.4-1.1c0.1-0.2-0.2-0.4-0.2-0.6c0-0.2,0.2-0.3,0.2-0.4c0.1-0.3,0.1-0.5,0.3-0.8c0.2-0.4,0.5-0.8,0.8-1.2
	c0.2-0.2,0.4-0.2,0.5-0.3c0.2-0.1,0.3-0.2,0.4-0.4c0.1-0.2,0-0.4,0.1-0.7c0.1-0.3,0.4-0.4,0.4-0.7c0.1-0.2,0.3-0.3,0.3-0.5
	c0-0.1-0.2-0.2-0.2-0.3c-0.2-0.2-0.3-0.4-0.4-0.6c0-0.1-0.1-0.2,0-0.3c0.3,0,0.5,0,0.7,0.2c0.3,0.3,0.2,0.6,0.4,0.9
	c0.2,0.2,0.4,0.3,0.4,0.3c0.2,0,0.1-0.2,0.1-0.3c0.1-0.1,0-0.4,0.1-0.3c0.2,0,0.2,0.3,0.4,0.4c0.1,0,0.2-0.3,0.3-0.2
	c0.1,0.1,0.1,0.3,0,0.4c-0.1,0.1-0.4,0-0.5,0.2c-0.1,0.1,0.1,0.4,0,0.5c-0.1,0.2-0.3,0.3-0.4,0.5c-0.1,0.1,0,0.3-0.2,0.4
	c-0.3,0.2-0.7,0-0.9,0.3c-0.2,0.3,0.2,0.7,0.1,1c-0.1,0.2-0.4,0.1-0.6,0.2c-0.2,0.1-0.3,0.3-0.4,0.4c-0.3,0.3-0.7,0.4-1,0.7
	c-0.1,0.2-0.1,0.4,0,0.6c0.2,0.2,0.5,0.3,0.7,0.1c0.2,0,0.2-0.4,0.4-0.5s0.4-0.4,0.6-0.5c0.4-0.2,0.6-0.4,0.9-0.6
	c0.3-0.2,0.4-0.4,0.5-0.6c0.3-0.3,0.5-0.3,0.7-0.4c0.3-0.4,0.4-0.7,0.6-1.2c0.2-0.2,0.4-0.4,0.4-0.7c0.2-0.4,0.2-0.7,0.3-1.1
	c0-0.1-0.1-0.3,0-0.4c0.1-0.2,0.4-0.2,0.4-0.4c0.1-0.1,0.1-0.3,0.2-0.4c0.2-0.3,0.4-0.3,0.5-0.5c0.1-0.2-0.2-0.4-0.2-0.6
	c0-0.1,0-0.3,0.1-0.3c0.2,0,0.4,0.2,0.6,0.2c0.2-0.1,0.3-0.4,0.4-0.4c0.2-0.3,0.4-0.4,0.5-0.6c0.4-0.2,0.7-0.2,1.1-0.4
	c0.2-0.2,0.4-0.4,0.5-0.7c0.1-0.2,0.3-0.4,0.4-0.5c0.1-0.4,0-0.7,0.1-1c0.1-0.4,0.4-0.8,0.4-1.3c0.1-0.3-0.2-0.4-0.2-0.6
	c0.1-0.3,0.4-0.5,0.4-0.9c0-0.2-0.3-0.4-0.3-0.5c-0.1-0.4-0.1-0.7-0.1-1.1c0-0.4,0-0.6,0.1-1c0-0.4,0.1-0.8,0.3-1.3
	c0.1-0.3,0.5-0.4,0.5-0.7c0-0.2-0.4-0.3-0.5-0.4v-0.3c0.1-0.1,0.2-0.2,0.3-0.3c0.4,0,0.7,0.6,1.1,0.5c0.5-0.1,0.4-0.9,0.7-1.3
	c0.4-0.4,0.7-0.5,1.2-0.8c0.4-0.4,1-0.6,1.5-1c0.3-0.2,0.5-0.4,0.8-0.6c0.2-0.2,0.4-0.4,0.6-0.4c0.3-0.2,0.6-0.3,1-0.4
	c0.3-0.2,0.5-0.5,0.9-0.5c0.4-0.1,0.8,0.2,1.2,0.2c0.4,0,0.8,0,1.1-0.2c0.4-0.2,0.4-0.6,0.7-0.8c0.3-0.3,0.7-0.3,1-0.5
	c0.2-0.2,0.1-0.4,0.3-0.7c0.1-0.2,0.2-0.4,0.4-0.4c0.3,0,0.5,0.2,0.8,0.3c0.2,0,0.4,0.2,0.7,0.2c0.2,0,0.4-0.4,0.6-0.4
	c0.2,0,0.4,0,0.6,0.1c0.2,0.1,0.2,0.4,0.4,0.5c0.1,0.1,0.3,0.2,0.4,0.2c0.4-0.1,1-0.1,1.3-0.4c0.2-0.1,0.1-0.4,0.3-0.5
	c0.2,0,0.3,0.4,0.4,0.4c0.3,0.1,0.7,0.1,1,0.2c0.3,0.1,0.4,0.4,0.5,0.4c0.4-0.1,0.9-0.4,1.2-0.7c0.2-0.3,0-0.7,0.2-0.9
	c0.2-0.3,0.5-0.3,0.7-0.4c0.6-0.3,1.3-0.4,1.7-0.9c0.2-0.1,0.1-0.4,0.1-0.5s-0.3-0.2-0.3-0.3c0-0.2,0.2-0.4,0.4-0.4s0.4,0.4,0.4,0.3
	c0.2-0.2-0.1-0.5,0-0.9c0-0.1,0.1-0.3,0.2-0.4c0.3-0.4,0.5-0.7,0.9-1.1c0.3-0.4,0.7-0.7,1-1.1c0.1-0.2,0.1-0.4,0.3-0.6
	c0.4-0.4,0.8-1,1.2-1.4c0.4-0.4,0.9-0.8,1.2-1.3s0.3-1,0.4-1.5c0.1-0.4,0-0.8,0.1-1.3c0.1-0.4,0.2-0.9,0.4-1.3
	c0.2-0.5,0.5-1,0.8-1.4c0.3-0.3,0.6-0.5,0.7-0.9c0.2-0.4,0-0.8,0.1-1.2c0.1-0.8,0.4-1.5,0.6-2.2c0.2-0.6,0.5-1.2,0.7-1.7
	c0.1-0.2,0.3-0.4,0.3-0.5c0-0.4-0.2-0.6-0.2-1c0-0.3,0.3-0.5,0.3-0.8c-0.1-0.4-0.4-0.8-0.4-1.3c0-0.4,0.2-0.8,0.4-1.2
	c0.1-0.6,0.4-1.2,0.4-1.7s-0.5-0.9-0.5-1.4c0-0.4,0.4-0.9,0.5-1.3c0.1-0.3,0.1-0.5,0.2-0.7c0.2-0.2,0.5-0.3,0.5-0.4
	c0-0.3-0.4-0.4-0.4-0.7c0-0.2,0.3-0.4,0.4-0.4c0.4,0.2,0.2,0.8,0.5,1c0.3,0.2,0.7-0.1,1-0.3c0.3-0.2,0.4-0.5,0.7-0.7
	c0.4-0.4,1-0.6,1.3-1.1c0.4-0.4,0.5-0.9,0.8-1.3v-0.1c0-0.3,0.1-0.6,0.2-0.9c0.1-0.3,0.4-0.5,0.4-0.9c0.1-0.2-0.1-0.4,0-0.4
	c0.2-0.1,0.4,0.3,0.4,0.2c0.3-0.2,0.3-0.6,0.4-0.9c0.3-0.3,0.6-0.5,1-0.8c0.5-0.5,1.1-1.1,1.7-1.5c0.3-0.2,0.5-0.4,0.8-0.6
	c0.2-0.2,0.1-0.5,0.3-0.7c0.2-0.1,0.4,0,0.6-0.1c0.2-0.2,0.4-0.4,0.4-0.6c0.1-0.1-0.1-0.4,0-0.5c0.4-0.4,0.9-0.7,1.3-1.2
	c0.4-0.4,0.7-0.8,0.9-1.3c0.4-0.5,0.4-1.1,0.7-1.7c0.3-0.6,0.6-1.3,0.8-2c0.1-0.7,0.1-1.4,0-2.1c0-0.9,0-1.7-0.1-2.6
	c-0.1-0.4-0.2-1-0.3-1.5c-0.1-0.4-0.1-0.7-0.2-1.2c-0.3-0.7-0.5-1.4-0.9-2.1c-0.2-0.3-0.4-0.4-0.7-0.5c-0.7-0.3-1.4-0.4-2.2-0.4
	c-0.5-0.1-1.1,0.2-1.6,0.1c-0.6-0.2-1.2-0.6-1.7-0.9c-0.6-0.4-1.1-0.9-1.6-1.3c-0.6-0.4-1.2-0.9-1.7-1.4c-0.5-0.4-1-1-1.5-1.5
	c-0.4-0.4-0.9-0.8-1.4-1.1c-0.5-0.4-1.3-0.4-1.9-0.6c-0.4-0.3-0.7-0.6-1.2-0.8c-0.5-0.2-1.1-0.2-1.6-0.3c-0.5,0-1.2,0.1-1.7,0.2
	c-0.4,0.1-0.7,0.4-1.2,0.4c-0.4-0.1-0.8-0.5-1.3-0.7c-0.3-0.1-0.6-0.3-1-0.3c-0.4-0.1-0.8,0.2-1.2,0.1c-0.2-0.1-0.3-0.4-0.4-0.4
	c-0.4-0.2-0.8,0-1.2-0.1c-0.2-0.1-0.2-0.4-0.4-0.5c-0.4-0.2-1-0.2-1.4-0.4c-0.1,0-0.2-0.3-0.4-0.3c-0.2,0.1-0.1,0.5-0.3,0.6
	c-0.3,0.1-0.5-0.1-0.7-0.3c-0.2-0.1-0.1-0.5-0.3-0.4c-0.3,0.2-0.2,0.6-0.4,0.9c-0.2,0.1-0.4,0.1-0.5,0c-0.2,0-0.4-0.2-0.4-0.3
	c-0.2-0.1-0.4-0.2-0.5-0.1c-0.2,0.3-0.2,0.7-0.3,1.1c-0.2,0.3-0.3,0.5-0.5,0.8c-0.2,0.2-0.5,0.3-0.7,0.5c-0.2,0.4-0.1,1.5-0.3,1.2
	c-0.2-0.4,0-1,0.2-1.4c0-0.2,0.2-0.4,0.3-0.7c0.1-0.2,0-0.4,0.1-0.5c0.1-0.3,0.3-0.5,0.4-0.8c0.1-0.2,0.3-0.4,0.4-0.5
	c0.1-0.1,0.4-0.2,0.4-0.3c-0.1-0.2-0.3-0.4-0.4-0.4c-0.2,0.1-0.4,0.5-0.5,0.4c-0.2-0.1,0.1-0.4,0.2-0.5c0.1-0.2,0.4-0.3,0.4-0.4
	c0-0.3-0.2-0.4-0.4-0.6c-0.1-0.1-0.4,0-0.4-0.1c-0.2-0.3-0.3-0.6-0.4-0.8c-0.1-0.1-0.3,0-0.4-0.1c-0.2,0-0.3-0.3-0.4-0.2
	c-0.3,0-0.4,0.2-0.5,0.4c-0.1,0.3,0.4,0.7,0.1,0.8c-0.4,0.1-0.5-0.4-0.6-0.7c-0.1-0.3,0.4-0.4,0.4-0.7c-0.1-0.2-0.3-0.3-0.5-0.3
	c-0.1-0.1-0.1,0.2-0.2,0.2c-0.2-0.1,0-0.4-0.2-0.4c-0.3-0.1-0.5,0.2-0.8,0.2s-0.5-0.4-0.8-0.4c-0.1,0-0.2,0.4-0.3,0.3
	c-0.2-0.2,0-0.6-0.2-0.7c-0.3-0.1-0.5,0.4-0.8,0.4c-0.3-0.1-0.3-0.7-0.6-0.9c-0.4-0.3-0.9-0.3-1.4-0.4c-0.4-0.2-0.9-0.4-1.3-0.5
	c-0.2,0,0.3,0.4,0.1,0.4c-0.4,0-0.7-0.4-1.1-0.5c-0.3,0-0.4,0.4-0.4,0.4c-0.3,0.2-0.5,0.1-0.7,0.3c-0.3,0.1-0.4,0.4-0.5,0.5
	c-0.3,0.3-0.5,0.5-0.8,0.8c-0.2,0.2-0.5,0.4-0.5,0.5c0,0.4,0.8,0.7,0.5,1c-0.2,0.3-0.6-0.4-0.9-0.4c-0.4,0.1-0.5,0.5-0.8,0.7
	c-0.2,0.1-0.3,0-0.4,0c-0.4,0-0.7-0.1-1.1,0.1c-0.4,0.1-0.6,0.5-1,0.7c-0.3,0.1-0.5,0-0.8,0c-0.4,0-0.7-0.3-1.1-0.2
	c-0.3,0.2-0.2,0.9-0.5,0.8c-0.5,0-0.6-0.9-1.1-1c-0.3-0.1-0.3,0.6-0.5,0.7c-0.3,0.1-0.4-0.3-0.4-0.5c0.1-0.3,0.6-0.3,0.8-0.6
	c0.1-0.3,0.1-0.7,0-1s-0.2-0.6-0.4-0.6c-0.7,0-1.3,0.4-2.1,0.7c-0.6,0.2-1.3,0.5-2,0.6c-0.4,0.1-0.9,0.3-1.3,0
	c-0.2-0.1,0.3-0.4,0.4-0.5c0.4-0.2,1.1,0.1,1.5-0.2c0.4-0.4,0.4-0.9,0.5-1.4c0-0.1,0-0.3,0.1-0.4c0.4-0.6,0.7-1.3,1.2-1.9
	c0.5-0.7,1.1-1.3,1.7-1.9c0.3-0.3,0.7-0.4,1-0.8c0.5-0.4,0.9-1,1.3-1.5c0.4-0.4,0.8-1,0.9-1.6c0-0.4-0.3-0.7-0.5-0.9
	c-0.5-0.3-1.2,0.1-1.6-0.2c-0.4-0.2-0.4-0.6-0.5-1c-0.1-0.2,0.1-0.4,0.1-0.6c-0.1-0.4-0.3-0.7-0.4-1.1c-0.3-0.5-0.5-1-0.7-1.6
	c-0.1-0.5-0.1-1.1-0.2-1.6c-0.1-0.4,0-0.8-0.2-1.2c-0.3-0.5-0.6-1.3-1.3-1.4c-0.4,0,0.4,0.9,0.3,1.3c-0.2,0.3-0.4-0.6-0.7-0.5
	c-0.6,0.4-1,1.3-1.4,1.9c-0.4,0.8-0.9,1.6-1.3,2.4c-0.2,0.4-0.4,0.8-0.5,1.2c-0.2,0.4-0.2,0.8-0.4,1c-0.4,0.3-0.9,0.4-1.3,0.4
	c-0.4-0.1-0.5-0.6-0.9-0.7c-0.2-0.1-0.4,0.3-0.5,0.3c-0.2,0-0.4-0.4-0.5-0.4c-0.5,0.1-0.8,0.7-1.3,0.7c-0.4,0.1-0.7-0.4-1.2-0.5
	c-0.1,0-0.3,0.3-0.4,0.2c-0.4-0.3-0.7-1.1-1.3-1.1c-0.7-0.1-1.4,0.7-2.2,0.8c-0.4,0-0.6-0.6-0.9-0.5c-0.4,0.1-0.8,0.4-0.9,0.9
	c0,0.4,0.6,0.8,0.6,1.3c0,0.2-0.4,0.4-0.5,0.3c-0.4-0.2-0.7-0.8-1.2-0.9c-0.2-0.1,0.2,0.4,0,0.6c-0.2,0.2-0.6,0.4-1,0.4
	c-0.3,0-0.5-0.4-0.9-0.4c-0.4-0.1-1.1-0.2-1.5,0.1c-0.2,0.1,0.3,0.5,0,0.6c-0.4,0.3-1.2,0-1.7,0.2c-0.2,0,0.2,0.4,0,0.4
	c-0.3,0.1-0.5-0.3-0.7-0.2c-0.5,0.3-0.6,1-1.2,1.2c-0.4,0.2-0.9-0.1-1.3-0.3c-0.5-0.3-1.1-0.6-1.4-1.1c-0.3-0.3-0.4-0.6-0.4-1
	c0-0.4,0.4-0.7,0.3-1.1c-0.1-0.3-0.6-0.4-0.7-0.6c-0.2-0.4-0.3-1.1-0.3-1.5c0.1-0.3,0.4-0.4,0.5-0.5c0.2-0.3-0.1-0.5,0.1-0.8
	c0.3-0.4,0.9-0.4,1-0.7c0.2-0.5-0.2-1-0.3-1.5c-0.1-0.4-0.3-0.7-0.4-1c-0.2-0.2-0.3-0.4-0.4-0.5c-0.2-0.1-0.5,0.1-0.7-0.1
	c-0.4-0.4-0.5-0.8-0.5-1.3c-0.1-0.4,0.4-0.6,0.3-1c-0.1-0.2-0.4-0.4-0.7-0.4c-0.3,0.1-0.4,0.4-0.6,0.6c-0.2,0.1-0.4,0.1-0.5,0
	c-0.3-0.1-0.4-0.6-0.5-0.4c-0.2,0.3,0.3,0.5,0.3,0.8c0.1,0.3,0.1,0.5-0.1,0.7c-0.3,0.4-0.6,0.6-1.1,0.8c-0.4,0.3-1.1,0.3-1.5,0.5
	c-0.3,0.2-0.3,0.6-0.5,0.8c-0.4,0.2-0.9,0.2-1.3,0.3c-0.5,0.1-1-0.2-1.4,0c-0.4,0.2-0.8,0.4-1.1,0.8c-0.1,0.3,0.2,0.5,0.1,0.8
	c-0.1,0.2-0.4,0.1-0.4,0c-0.3-0.2-0.4-0.6-0.6-0.7c-0.3-0.2-0.6,0-0.9-0.1c-0.5-0.1-1.1-0.3-1.5-0.5c-0.4-0.2-0.4-0.9-0.9-0.9
	s-0.9,0.5-1.2,1c-0.2,0.3-0.1,0.8,0.2,1c0.4,0.3,1-0.2,1.3,0.2c0.3,0.2,0.2,0.6,0.1,1c-0.1,0.3-0.3,0.4-0.4,0.7
	c-0.1,0.3-0.3,0.5-0.3,0.9c0,0.4,0.1,0.8,0.2,1.3c0.1,0.3,0.2,0.4,0.4,0.6c0.1,0.2,0.4,0.2,0.5,0.2c0.2,0.1,0.4,0.4,0.7,0.3
	c0.2,0,0.4-0.4,0.5-0.4c0.4,0.1,0.8,0.5,0.5,0.7c-0.4,0.4-1.3,0-1.7,0.4c-0.6,0.4-0.4,1.6-1.1,2.1c-0.3,0.3-0.3-0.7-0.6-0.7
	s-0.4,0.6-0.7,0.9c-0.6,0.5-1.3,0.9-1.8,1.3c-0.3,0.3-0.4,1-0.7,0.9c-0.4,0-0.2-0.8-0.5-1.1c-0.3-0.2-0.6-0.3-0.9,0s0,1.2-0.4,1.2
	c-0.6,0.1-1-0.6-1.5-1c-0.4-0.3-1-0.4-1.3-0.9c-0.2-0.2,0.1-0.5,0-0.8c-0.4-0.7-0.6-1.7-1.3-2c-0.5-0.2-0.6,1.1-1.2,1.2
	c-0.4,0.1-0.4-0.6-0.8-0.8c-0.3-0.1-0.6-0.1-0.7,0.2c-0.1,0.3,0.6,0.8,0.3,0.9c-1.2,0.4-2.4,0.2-3.7,0.2c-0.4,0-1.2-0.4-1.3,0.1
	c-0.3,0.7-0.1,1.6,0.3,2.4c0.1,0.3,0.6,0,0.9,0c0.3-0.1,0.5-0.3,0.7-0.1c0.3,0.2,0.2,0.6,0.2,0.9c-0.1,0.3-0.3,0.6-0.5,0.6
	s-0.4-0.6-0.8-0.6c-0.4,0.1-1.1,0.4-1.3,0.8c-0.3,0.7-0.1,1.5,0,2.2c0.1,0.3,0.3,0.4,0.5,0.7c0.2,0.1,0.5,0.1,0.6,0.4
	c0.3,0.3,0.2,0.6,0.4,1c0.1,0.3,0.4,0.4,0.4,0.7c0,0.4-0.3,0.8-0.3,1.3c0,0.4,0.2,0.8,0.1,1.2c-0.3,2-0.6,4-1.1,6
	c-0.2,0.8-0.2,1.8-0.7,2.3c-0.3,0.3-0.7-0.7-1.1-0.6c-0.5,0.1-0.7,0.8-1.3,0.9c-0.3,0.1-0.5-0.4-0.8-0.4c-0.3,0-0.4,0.4-0.6,0.4
	c-0.3,0.2-0.6-0.1-0.9,0c-0.5,0.3-0.9,0.7-1.3,1.1s-1,0.5-1.3,1c-0.4,0.4-0.7,1.1-0.9,1.6c-0.2,0.4-0.3,0.9-0.4,1.3
	c0,0.4,0.1,0.7,0,1.1c-0.1,0.4-0.1,1-0.4,1.3c-0.2,0.4-0.8,0.2-1,0.5c-0.3,0.4-0.2,1-0.2,1.4c0,0.3,0.2,0.6,0,0.8
	c-0.2,0.3-0.6,0.1-0.7,0.4c-0.1,0.2,0.1,0.4,0.2,0.6c0.2,0.2,0.4,0.2,0.6,0.4c0.2,0.2,0.1,0.5,0.2,0.7
	C84.7,84.1,84.8,84.3,84.9,84.5z M154.2,58.2c0.3-0.4,0.5-1,0.9-1.4c0.3-0.3,0.7-1.1,1-0.8c0.4,0.4-0.1,1.2-0.3,1.6
	c-0.2,0.5-0.5,1.1-1,1.4c-0.4,0.4-1,1.3-1.3,0.8C153,59.3,153.9,58.7,154.2,58.2z M157.2,56.9c-0.1,0.4,0.3,0.7,0.3,1.1
	c-0.1,0.4-0.5,0.5-0.5,0.8c-0.1,0.4,0,1,0.3,1.3c0.2,0.2,0.6,0,0.8,0.2c0.2,0.2-0.2,0.5,0,0.6c0.4,0.2,0.9,0,1.3,0.1
	c0.3,0,0.4,0.3,0.7,0.2c0.2,0,0.1-0.4,0.3-0.5c0.4-0.2,0.7-0.1,1-0.3c0.4-0.1,0.5-0.4,0.9-0.4c0.2,0,0.3,0.4,0.5,0.4
	c0.2,0,0.4-0.2,0.5-0.4c0-0.3-0.4-0.7-0.3-1c0.3-0.4,1-0.4,1.3-0.9c0.4-0.4,1.2-1.1,0.8-1.6c-0.4-0.6-1.6-0.8-2.3-0.4
	c-0.5,0.4,0,1.4-0.4,2c-0.2,0.3-0.4-0.6-0.4-1c0-0.2,0.4-0.1,0.4-0.3c0-0.3-0.2-0.5-0.4-0.6c-0.6-0.3-1.3-0.2-1.9-0.2
	c-0.5-0.1-1.2-0.1-1.7,0c-0.3,0.1-0.4,0.4-0.7,0.5C157.5,56.5,157.2,56.6,157.2,56.9z M158.9,55.3c0.5-0.1,1.1,0.1,1.4-0.2
	c0.3-0.2,0.5-0.7,0.4-0.9c-0.4-0.4-1.2,0.1-1.6-0.2c-0.2-0.2,0.5-0.8,0.3-0.8c-0.5,0-1,0.4-1.3,0.7c-0.3,0.2-0.5,0.4-0.5,0.8
	c-0.1,0.3,0,0.6,0.3,0.7c0.2,0.1,0.2-0.4,0.3-0.5c0.2-0.2,0.2-0.4,0.4-0.5c0.1-0.1,0.4,0.1,0.3,0.3c0,0.3-0.5,0.4-0.4,0.6
	C158.2,55.5,158.7,55.3,158.9,55.3z M156.4,55.2c-0.4,0.1-0.2,0.9,0,1.2c0.2,0.3,0.7,0.1,0.7-0.1C157.2,55.8,156.9,55.1,156.4,55.2z
	"/>
</svg>
