<?xml version="1.0" encoding="utf-8"?>
<!-- Generator: Adobe Illustrator 27.6.1, SVG Export Plug-In . SVG Version: 6.00 Build 0)  -->
<svg version="1.1" id="Camada_1" xmlns="http://www.w3.org/2000/svg" xmlns:xlink="http://www.w3.org/1999/xlink" x="0px" y="0px"
	 viewBox="0 0 720 504" style="enable-background:new 0 0 720 504;" xml:space="preserve">
<style type="text/css">
	.st0{fill:#FFFFFF;}
	.st1{fill:#1946B4;}
	.st2{fill:#FF9600;}
</style>
<rect x="0" class="st0" width="720" height="504"/>
<path class="st1" d="M468,0H0v324L468,0z"/>
<path class="st2" d="M252,504h468V180L252,504z"/>
<path class="st2" d="M504,252l-87.3,10l22.8,13.2l-26.3-1.1l19.4,17.8l-25.4-6.8l54.6,68.8L393,299.2l6.8,25.4L382,305.2l1.1,26.3
	L370,308.7L360,396l-10-87.3l-13.2,22.8l1.1-26.3l-17.8,19.4l6.8-25.4l-68.8,54.6l54.6-68.8l-25.4,6.8l19.4-17.8l-26.3,1.1
	l22.8-13.2L216,252l87.3-10l-22.8-13.2l26.3,1.1l-19.4-17.8l25.4,6.8l-54.6-68.8l68.8,54.6l-6.8-25.4l17.8,19.4l-1.1-26.3l13.2,22.8
	l10-87.3l10,87.3l13.2-22.8l-1.1,26.3l17.8-19.4l-6.8,25.4l68.8-54.6L407.2,219l25.4-6.8L413.2,230l26.3-1.1L416.7,242L504,252z"/>
</svg>
